<svg width="378" height="380" viewBox="0 0 378 380" fill="none" xmlns="http://www.w3.org/2000/svg">
<g filter="url(#filter0_d_1002_659)">
<rect x="2" y="1" width="373.333" height="375.66" rx="24" fill="white" shape-rendering="crispEdges"/>
<rect x="2.5" y="1.5" width="372.333" height="374.66" rx="23.5" stroke="#F1F5F9" shape-rendering="crispEdges"/>
<path d="M34.5071 32.4545V47H31.4318V35.3736H31.3466L28.0156 37.4616V34.7344L31.6165 32.4545H34.5071ZM38.9798 47.1847C38.511 47.1847 38.1085 47.0189 37.7724 46.6875C37.4409 46.3513 37.2752 45.9489 37.2752 45.4801C37.2752 45.0161 37.4409 44.6184 37.7724 44.2869C38.1085 43.9555 38.511 43.7898 38.9798 43.7898C39.4343 43.7898 39.832 43.9555 40.1729 44.2869C40.5138 44.6184 40.6843 45.0161 40.6843 45.4801C40.6843 45.7926 40.6038 46.0791 40.4428 46.3395C40.2866 46.5952 40.0806 46.8011 39.8249 46.9574C39.5692 47.1089 39.2875 47.1847 38.9798 47.1847ZM47.1705 47V32.4545H50.2457V38.456H56.4886V32.4545H59.5568V47H56.4886V40.9915H50.2457V47H47.1705ZM65.1463 47.206C64.4503 47.206 63.83 47.0852 63.2855 46.8438C62.741 46.5975 62.3101 46.2353 61.9929 45.7571C61.6804 45.2741 61.5241 44.6728 61.5241 43.9531C61.5241 43.3471 61.6354 42.8381 61.858 42.4261C62.0805 42.0142 62.3835 41.6828 62.767 41.4318C63.1506 41.1809 63.5862 40.9915 64.0739 40.8636C64.5663 40.7358 65.0824 40.6458 65.6222 40.5938C66.2566 40.5275 66.768 40.4659 67.1562 40.4091C67.5445 40.3475 67.8262 40.2576 68.0014 40.1392C68.1766 40.0208 68.2642 39.8456 68.2642 39.6136V39.571C68.2642 39.1212 68.1222 38.7732 67.8381 38.527C67.5587 38.2808 67.161 38.1577 66.6449 38.1577C66.1004 38.1577 65.6671 38.2784 65.3452 38.5199C65.0232 38.7566 64.8101 39.0549 64.706 39.4148L61.9077 39.1875C62.0497 38.5246 62.3291 37.9517 62.7457 37.4688C63.1624 36.9811 63.6998 36.607 64.358 36.3466C65.0208 36.0814 65.7879 35.9489 66.6591 35.9489C67.2652 35.9489 67.8452 36.0199 68.3991 36.1619C68.9579 36.304 69.4527 36.5241 69.8835 36.8224C70.3191 37.1207 70.6624 37.5043 70.9134 37.973C71.1643 38.437 71.2898 38.9934 71.2898 39.642V47H68.4205V45.4872H68.3352C68.16 45.8281 67.9257 46.1288 67.6321 46.3892C67.3385 46.6449 66.9858 46.8461 66.5739 46.9929C66.1619 47.1349 65.6861 47.206 65.1463 47.206ZM66.0128 45.1179C66.4579 45.1179 66.8509 45.0303 67.1918 44.8551C67.5327 44.6752 67.8002 44.4337 67.9943 44.1307C68.1884 43.8277 68.2855 43.4844 68.2855 43.1009V41.9432C68.1908 42.0047 68.0606 42.0616 67.8949 42.1136C67.7339 42.161 67.5516 42.206 67.348 42.2486C67.1444 42.2865 66.9408 42.322 66.7372 42.3551C66.5336 42.3835 66.349 42.4096 66.1832 42.4332C65.8281 42.4853 65.518 42.5682 65.2528 42.6818C64.9877 42.7955 64.7817 42.9493 64.6349 43.1435C64.4882 43.3329 64.4148 43.5696 64.4148 43.8537C64.4148 44.2656 64.5639 44.5805 64.8622 44.7983C65.1652 45.0114 65.5488 45.1179 66.0128 45.1179ZM73.5803 47V45.196L78.9212 38.5838V38.5057H73.7649V36.0909H82.5646V38.0582L77.5504 44.5071V44.5852H82.7493V47H73.5803ZM88.1737 47.206C87.4776 47.206 86.8574 47.0852 86.3129 46.8438C85.7683 46.5975 85.3375 46.2353 85.0202 45.7571C84.7077 45.2741 84.5515 44.6728 84.5515 43.9531C84.5515 43.3471 84.6628 42.8381 84.8853 42.4261C85.1078 42.0142 85.4109 41.6828 85.7944 41.4318C86.1779 41.1809 86.6135 40.9915 87.1012 40.8636C87.5936 40.7358 88.1097 40.6458 88.6495 40.5938C89.284 40.5275 89.7953 40.4659 90.1836 40.4091C90.5719 40.3475 90.8536 40.2576 91.0288 40.1392C91.204 40.0208 91.2915 39.8456 91.2915 39.6136V39.571C91.2915 39.1212 91.1495 38.7732 90.8654 38.527C90.5861 38.2808 90.1883 38.1577 89.6722 38.1577C89.1277 38.1577 88.6945 38.2784 88.3725 38.5199C88.0505 38.7566 87.8375 39.0549 87.7333 39.4148L84.935 39.1875C85.0771 38.5246 85.3564 37.9517 85.7731 37.4688C86.1897 36.9811 86.7272 36.607 87.3853 36.3466C88.0482 36.0814 88.8152 35.9489 89.6864 35.9489C90.2925 35.9489 90.8725 36.0199 91.4265 36.1619C91.9852 36.304 92.48 36.5241 92.9109 36.8224C93.3465 37.1207 93.6897 37.5043 93.9407 37.973C94.1916 38.437 94.3171 38.9934 94.3171 39.642V47H91.4478V45.4872H91.3626C91.1874 45.8281 90.953 46.1288 90.6594 46.3892C90.3659 46.6449 90.0131 46.8461 89.6012 46.9929C89.1893 47.1349 88.7134 47.206 88.1737 47.206ZM89.0401 45.1179C89.4852 45.1179 89.8782 45.0303 90.2191 44.8551C90.56 44.6752 90.8275 44.4337 91.0217 44.1307C91.2158 43.8277 91.3129 43.4844 91.3129 43.1009V41.9432C91.2182 42.0047 91.088 42.0616 90.9222 42.1136C90.7612 42.161 90.579 42.206 90.3754 42.2486C90.1718 42.2865 89.9682 42.322 89.7646 42.3551C89.561 42.3835 89.3763 42.4096 89.2106 42.4332C88.8555 42.4853 88.5453 42.5682 88.2802 42.6818C88.015 42.7955 87.8091 42.9493 87.6623 43.1435C87.5155 43.3329 87.4421 43.5696 87.4421 43.8537C87.4421 44.2656 87.5913 44.5805 87.8896 44.7983C88.1926 45.0114 88.5761 45.1179 89.0401 45.1179ZM96.6644 47V36.0909H99.5977V37.9943H99.7113C99.9102 37.3172 100.244 36.8059 100.713 36.4602C101.181 36.1098 101.721 35.9347 102.332 35.9347C102.484 35.9347 102.647 35.9441 102.822 35.9631C102.997 35.982 103.151 36.008 103.284 36.0412V38.7259C103.142 38.6832 102.945 38.6454 102.694 38.6122C102.443 38.5791 102.214 38.5625 102.005 38.5625C101.56 38.5625 101.163 38.6596 100.812 38.8537C100.467 39.0431 100.192 39.3082 99.9883 39.6491C99.7894 39.9901 99.69 40.383 99.69 40.8281V47H96.6644ZM108.36 47.1776C107.531 47.1776 106.781 46.9645 106.109 46.5384C105.441 46.1075 104.911 45.4754 104.518 44.642C104.129 43.804 103.935 42.7765 103.935 41.5597C103.935 40.3097 104.137 39.2704 104.539 38.4418C104.942 37.6084 105.477 36.9858 106.144 36.5739C106.817 36.1572 107.553 35.9489 108.353 35.9489C108.964 35.9489 109.473 36.053 109.88 36.2614C110.292 36.465 110.623 36.7206 110.874 37.0284C111.13 37.3314 111.324 37.6297 111.457 37.9233H111.549V32.4545H114.567V47H111.585V45.2528H111.457C111.315 45.5559 111.113 45.8565 110.853 46.1548C110.597 46.4484 110.263 46.6922 109.852 46.8864C109.444 47.0805 108.947 47.1776 108.36 47.1776ZM109.319 44.7699C109.807 44.7699 110.219 44.6373 110.555 44.3722C110.896 44.1023 111.156 43.7259 111.336 43.2429C111.521 42.7599 111.613 42.1941 111.613 41.5455C111.613 40.8968 111.523 40.3333 111.343 39.8551C111.163 39.3769 110.903 39.0076 110.562 38.7472C110.221 38.4867 109.807 38.3565 109.319 38.3565C108.822 38.3565 108.403 38.4915 108.062 38.7614C107.721 39.0312 107.463 39.4053 107.288 39.8835C107.112 40.3617 107.025 40.9157 107.025 41.5455C107.025 42.1799 107.112 42.741 107.288 43.2287C107.468 43.7116 107.726 44.0904 108.062 44.3651C108.403 44.6349 108.822 44.7699 109.319 44.7699ZM124.816 32.4545V47H121.741V32.4545H124.816ZM130.315 40.6932V47H127.289V36.0909H130.173V38.0156H130.301C130.542 37.3812 130.947 36.8793 131.515 36.5099C132.083 36.1359 132.772 35.9489 133.582 35.9489C134.34 35.9489 135 36.1146 135.564 36.446C136.127 36.7775 136.565 37.2509 136.877 37.8665C137.19 38.4773 137.346 39.2064 137.346 40.054V47H134.321V40.5938C134.325 39.9261 134.155 39.4053 133.809 39.0312C133.464 38.6525 132.988 38.4631 132.382 38.4631C131.975 38.4631 131.615 38.5507 131.302 38.7259C130.994 38.901 130.753 39.1567 130.578 39.4929C130.407 39.8243 130.32 40.2244 130.315 40.6932ZM145.533 36.0909V38.3636H138.964V36.0909H145.533ZM140.455 33.4773H143.481V43.6477C143.481 43.9271 143.523 44.1449 143.609 44.3011C143.694 44.4527 143.812 44.5592 143.964 44.6207C144.12 44.6823 144.3 44.7131 144.504 44.7131C144.646 44.7131 144.788 44.7012 144.93 44.6776C145.072 44.6491 145.181 44.6278 145.256 44.6136L145.732 46.8651C145.581 46.9124 145.368 46.9669 145.093 47.0284C144.818 47.0947 144.485 47.1349 144.092 47.1491C143.362 47.1776 142.723 47.0805 142.174 46.858C141.629 46.6354 141.206 46.2898 140.903 45.821C140.6 45.3523 140.451 44.7604 140.455 44.0455V33.4773ZM152.359 47.2131C151.237 47.2131 150.271 46.9858 149.461 46.5312C148.656 46.072 148.036 45.4233 147.6 44.5852C147.165 43.7424 146.947 42.7457 146.947 41.5952C146.947 40.473 147.165 39.4882 147.6 38.6406C148.036 37.7931 148.649 37.1326 149.44 36.6591C150.235 36.1856 151.168 35.9489 152.238 35.9489C152.958 35.9489 153.628 36.0649 154.248 36.2969C154.873 36.5241 155.417 36.8674 155.881 37.3267C156.35 37.786 156.715 38.3636 156.975 39.0597C157.236 39.7509 157.366 40.5606 157.366 41.4886V42.3196H148.154V40.4446H154.518C154.518 40.009 154.423 39.6231 154.234 39.2869C154.044 38.9508 153.781 38.688 153.445 38.4986C153.114 38.3045 152.728 38.2074 152.288 38.2074C151.828 38.2074 151.421 38.3139 151.066 38.527C150.716 38.7353 150.441 39.017 150.242 39.3722C150.043 39.7225 149.942 40.1132 149.937 40.544V42.3267C149.937 42.8665 150.036 43.3329 150.235 43.7259C150.439 44.1188 150.725 44.4219 151.094 44.6349C151.464 44.848 151.902 44.9545 152.408 44.9545C152.745 44.9545 153.052 44.9072 153.332 44.8125C153.611 44.7178 153.85 44.5758 154.049 44.3864C154.248 44.197 154.399 43.965 154.504 43.6903L157.302 43.875C157.16 44.5473 156.869 45.1345 156.428 45.6364C155.993 46.1335 155.429 46.5218 154.738 46.8011C154.051 47.0758 153.258 47.2131 152.359 47.2131ZM162.366 32.4545V47H159.34V32.4545H162.366ZM167.815 32.4545V47H164.789V32.4545H167.815ZM170.239 47V36.0909H173.264V47H170.239ZM171.759 34.6847C171.309 34.6847 170.923 34.5355 170.601 34.2372C170.284 33.9342 170.125 33.572 170.125 33.1506C170.125 32.7339 170.284 32.3764 170.601 32.0781C170.923 31.7751 171.309 31.6236 171.759 31.6236C172.208 31.6236 172.592 31.7751 172.909 32.0781C173.231 32.3764 173.392 32.7339 173.392 33.1506C173.392 33.572 173.231 33.9342 172.909 34.2372C172.592 34.5355 172.208 34.6847 171.759 34.6847ZM180.603 51.3182C179.623 51.3182 178.782 51.1832 178.081 50.9134C177.385 50.6482 176.831 50.286 176.419 49.8267C176.007 49.3674 175.74 48.8513 175.617 48.2784L178.415 47.902C178.5 48.1198 178.635 48.3234 178.82 48.5128C179.005 48.7022 179.248 48.8537 179.551 48.9673C179.859 49.0857 180.233 49.1449 180.674 49.1449C181.332 49.1449 181.874 48.9839 182.3 48.6619C182.731 48.3447 182.946 47.812 182.946 47.0639V45.0682H182.819C182.686 45.3712 182.487 45.6577 182.222 45.9276C181.957 46.1974 181.616 46.4176 181.199 46.5881C180.783 46.7585 180.285 46.8438 179.708 46.8438C178.889 46.8438 178.143 46.6544 177.471 46.2756C176.803 45.892 176.27 45.3073 175.873 44.5213C175.48 43.7306 175.283 42.7315 175.283 41.5241C175.283 40.2884 175.484 39.2562 175.887 38.4276C176.289 37.599 176.824 36.9787 177.492 36.5668C178.164 36.1548 178.9 35.9489 179.701 35.9489C180.311 35.9489 180.823 36.053 181.235 36.2614C181.647 36.465 181.978 36.7206 182.229 37.0284C182.485 37.3314 182.681 37.6297 182.819 37.9233H182.932V36.0909H185.936V47.1065C185.936 48.0346 185.709 48.8111 185.255 49.4361C184.8 50.0611 184.17 50.5298 183.365 50.8423C182.565 51.1596 181.644 51.3182 180.603 51.3182ZM180.667 44.571C181.154 44.571 181.566 44.4503 181.902 44.2088C182.243 43.9626 182.504 43.6122 182.684 43.1577C182.868 42.6984 182.961 42.1491 182.961 41.5099C182.961 40.8707 182.871 40.3168 182.691 39.848C182.511 39.3745 182.25 39.0076 181.909 38.7472C181.569 38.4867 181.154 38.3565 180.667 38.3565C180.169 38.3565 179.75 38.4915 179.409 38.7614C179.069 39.0265 178.81 39.3958 178.635 39.8693C178.46 40.3428 178.373 40.8897 178.373 41.5099C178.373 42.1397 178.46 42.6842 178.635 43.1435C178.815 43.598 179.073 43.9508 179.409 44.2017C179.75 44.4479 180.169 44.571 180.667 44.571ZM193.316 47.2131C192.194 47.2131 191.228 46.9858 190.418 46.5312C189.613 46.072 188.993 45.4233 188.557 44.5852C188.122 43.7424 187.904 42.7457 187.904 41.5952C187.904 40.473 188.122 39.4882 188.557 38.6406C188.993 37.7931 189.606 37.1326 190.397 36.6591C191.192 36.1856 192.125 35.9489 193.195 35.9489C193.915 35.9489 194.585 36.0649 195.205 36.2969C195.83 36.5241 196.374 36.8674 196.838 37.3267C197.307 37.786 197.672 38.3636 197.932 39.0597C198.193 39.7509 198.323 40.5606 198.323 41.4886V42.3196H189.111V40.4446H195.475C195.475 40.009 195.38 39.6231 195.191 39.2869C195.001 38.9508 194.739 38.688 194.402 38.4986C194.071 38.3045 193.685 38.2074 193.245 38.2074C192.785 38.2074 192.378 38.3139 192.023 38.527C191.673 38.7353 191.398 39.017 191.199 39.3722C191 39.7225 190.899 40.1132 190.894 40.544V42.3267C190.894 42.8665 190.993 43.3329 191.192 43.7259C191.396 44.1188 191.682 44.4219 192.051 44.6349C192.421 44.848 192.859 44.9545 193.365 44.9545C193.702 44.9545 194.009 44.9072 194.289 44.8125C194.568 44.7178 194.807 44.5758 195.006 44.3864C195.205 44.197 195.356 43.965 195.461 43.6903L198.259 43.875C198.117 44.5473 197.826 45.1345 197.385 45.6364C196.95 46.1335 196.386 46.5218 195.695 46.8011C195.008 47.0758 194.215 47.2131 193.316 47.2131ZM203.323 40.6932V47H200.297V36.0909H203.181V38.0156H203.309C203.55 37.3812 203.955 36.8793 204.523 36.5099C205.091 36.1359 205.78 35.9489 206.59 35.9489C207.347 35.9489 208.008 36.1146 208.571 36.446C209.135 36.7775 209.573 37.2509 209.885 37.8665C210.198 38.4773 210.354 39.2064 210.354 40.054V47H207.328V40.5938C207.333 39.9261 207.163 39.4053 206.817 39.0312C206.471 38.6525 205.996 38.4631 205.39 38.4631C204.982 38.4631 204.623 38.5507 204.31 38.7259C204.002 38.901 203.761 39.1567 203.586 39.4929C203.415 39.8243 203.328 40.2244 203.323 40.6932ZM217.668 47.2131C216.55 47.2131 215.589 46.9763 214.784 46.5028C213.984 46.0246 213.368 45.3617 212.938 44.5142C212.511 43.6667 212.298 42.6913 212.298 41.5881C212.298 40.4706 212.514 39.4905 212.945 38.6477C213.38 37.8002 213.998 37.1397 214.798 36.6662C215.598 36.188 216.55 35.9489 217.653 35.9489C218.605 35.9489 219.438 36.1217 220.153 36.4673C220.868 36.813 221.434 37.2983 221.851 37.9233C222.268 38.5483 222.497 39.2822 222.54 40.125H219.685C219.604 39.5805 219.391 39.1425 219.045 38.8111C218.705 38.4749 218.257 38.3068 217.703 38.3068C217.234 38.3068 216.825 38.4347 216.474 38.6903C216.129 38.9413 215.859 39.3082 215.665 39.7912C215.471 40.2741 215.374 40.8589 215.374 41.5455C215.374 42.2415 215.468 42.8333 215.658 43.321C215.852 43.8087 216.124 44.1804 216.474 44.4361C216.825 44.6918 217.234 44.8196 217.703 44.8196C218.049 44.8196 218.359 44.7486 218.634 44.6065C218.913 44.4645 219.143 44.2585 219.322 43.9886C219.507 43.714 219.628 43.3849 219.685 43.0014H222.54C222.492 43.8348 222.265 44.5687 221.858 45.2031C221.455 45.8329 220.899 46.3253 220.189 46.6804C219.479 47.0355 218.638 47.2131 217.668 47.2131ZM229.449 47.2131C228.326 47.2131 227.36 46.9858 226.551 46.5312C225.746 46.072 225.126 45.4233 224.69 44.5852C224.254 43.7424 224.037 42.7457 224.037 41.5952C224.037 40.473 224.254 39.4882 224.69 38.6406C225.126 37.7931 225.739 37.1326 226.529 36.6591C227.325 36.1856 228.258 35.9489 229.328 35.9489C230.047 35.9489 230.717 36.0649 231.338 36.2969C231.963 36.5241 232.507 36.8674 232.971 37.3267C233.44 37.786 233.805 38.3636 234.065 39.0597C234.325 39.7509 234.456 40.5606 234.456 41.4886V42.3196H225.244V40.4446H231.608C231.608 40.009 231.513 39.6231 231.324 39.2869C231.134 38.9508 230.871 38.688 230.535 38.4986C230.204 38.3045 229.818 38.2074 229.377 38.2074C228.918 38.2074 228.511 38.3139 228.156 38.527C227.806 38.7353 227.531 39.017 227.332 39.3722C227.133 39.7225 227.031 40.1132 227.027 40.544V42.3267C227.027 42.8665 227.126 43.3329 227.325 43.7259C227.529 44.1188 227.815 44.4219 228.184 44.6349C228.554 44.848 228.992 44.9545 229.498 44.9545C229.834 44.9545 230.142 44.9072 230.422 44.8125C230.701 44.7178 230.94 44.5758 231.139 44.3864C231.338 44.197 231.489 43.965 231.593 43.6903L234.392 43.875C234.25 44.5473 233.958 45.1345 233.518 45.6364C233.083 46.1335 232.519 46.5218 231.828 46.8011C231.141 47.0758 230.348 47.2131 229.449 47.2131Z" fill="#3B4AD0"/>
<rect x="310.333" y="26" width="40" height="40" rx="20" fill="#EFF6FF"/>
<path d="M337.933 55L331.633 48.7C331.133 49.1 330.558 49.4167 329.908 49.65C329.258 49.8833 328.567 50 327.833 50C326.017 50 324.479 49.3708 323.221 48.1125C321.962 46.8542 321.333 45.3167 321.333 43.5C321.333 41.6833 321.962 40.1458 323.221 38.8875C324.479 37.6292 326.017 37 327.833 37C329.65 37 331.187 37.6292 332.446 38.8875C333.704 40.1458 334.333 41.6833 334.333 43.5C334.333 44.2333 334.217 44.925 333.983 45.575C333.75 46.225 333.433 46.8 333.033 47.3L339.333 53.6L337.933 55V55M327.833 48C329.083 48 330.146 47.5625 331.021 46.6875C331.896 45.8125 332.333 44.75 332.333 43.5C332.333 42.25 331.896 41.1875 331.021 40.3125C330.146 39.4375 329.083 39 327.833 39C326.583 39 325.521 39.4375 324.646 40.3125C323.771 41.1875 323.333 42.25 323.333 43.5C323.333 44.75 323.771 45.8125 324.646 46.6875C325.521 47.5625 326.583 48 327.833 48V48" fill="#004AC6"/>
<path d="M28.0043 105V94.8182H29.8487V99.1286H34.5668V94.8182H36.4162V105H34.5668V100.675H29.8487V105H28.0043ZM40.5401 105.154C40.0562 105.154 39.6204 105.068 39.2326 104.896C38.8481 104.72 38.5432 104.461 38.3178 104.12C38.0958 103.779 37.9847 103.358 37.9847 102.857C37.9847 102.426 38.0643 102.07 38.2234 101.788C38.3825 101.507 38.5996 101.281 38.8746 101.112C39.1497 100.943 39.4596 100.816 39.8043 100.729C40.1523 100.64 40.512 100.575 40.8832 100.536C41.3306 100.489 41.6935 100.448 41.9719 100.411C42.2504 100.371 42.4525 100.312 42.5785 100.232C42.7077 100.149 42.7724 100.022 42.7724 99.8494V99.8196C42.7724 99.4451 42.6613 99.1551 42.4393 98.9496C42.2172 98.7441 41.8974 98.6413 41.4798 98.6413C41.0389 98.6413 40.6893 98.7375 40.4308 98.9297C40.1755 99.1219 40.0032 99.349 39.9137 99.6108L38.2333 99.3722C38.3659 98.9081 38.5846 98.5204 38.8896 98.2088C39.1945 97.8939 39.5674 97.6586 40.0082 97.5028C40.449 97.3438 40.9362 97.2642 41.4698 97.2642C41.8377 97.2642 42.204 97.3073 42.5685 97.3935C42.9331 97.4796 43.2662 97.6222 43.5678 97.821C43.8694 98.0166 44.1114 98.2834 44.2937 98.6214C44.4793 98.9595 44.5721 99.3821 44.5721 99.8892V105H42.842V103.951H42.7823C42.6729 104.163 42.5188 104.362 42.32 104.548C42.1244 104.73 41.8775 104.877 41.5792 104.99C41.2842 105.099 40.9379 105.154 40.5401 105.154ZM41.0075 103.832C41.3687 103.832 41.6819 103.76 41.9471 103.618C42.2122 103.472 42.4161 103.28 42.5586 103.041C42.7044 102.803 42.7773 102.542 42.7773 102.261V101.361C42.721 101.407 42.6249 101.45 42.489 101.49C42.3564 101.53 42.2073 101.565 42.0415 101.594C41.8758 101.624 41.7118 101.651 41.5494 101.674C41.387 101.697 41.2461 101.717 41.1268 101.734C40.8583 101.77 40.618 101.83 40.4059 101.913C40.1938 101.996 40.0264 102.112 39.9038 102.261C39.7811 102.406 39.7198 102.595 39.7198 102.827C39.7198 103.159 39.8408 103.409 40.0827 103.578C40.3247 103.747 40.6329 103.832 41.0075 103.832ZM46.2823 105V103.857L50.2198 98.9197V98.8551H46.4116V97.3636H52.4222V98.5916L48.6737 103.444V103.509H52.5515V105H46.2823ZM56.4405 105.154C55.9566 105.154 55.5208 105.068 55.133 104.896C54.7485 104.72 54.4436 104.461 54.2182 104.12C53.9962 103.779 53.8851 103.358 53.8851 102.857C53.8851 102.426 53.9647 102.07 54.1238 101.788C54.2828 101.507 54.4999 101.281 54.775 101.112C55.0501 100.943 55.36 100.816 55.7047 100.729C56.0527 100.64 56.4123 100.575 56.7836 100.536C57.231 100.489 57.5939 100.448 57.8723 100.411C58.1507 100.371 58.3529 100.312 58.4789 100.232C58.6081 100.149 58.6728 100.022 58.6728 99.8494V99.8196C58.6728 99.4451 58.5617 99.1551 58.3397 98.9496C58.1176 98.7441 57.7978 98.6413 57.3801 98.6413C56.9393 98.6413 56.5897 98.7375 56.3311 98.9297C56.0759 99.1219 55.9036 99.349 55.8141 99.6108L54.1337 99.3722C54.2663 98.9081 54.485 98.5204 54.79 98.2088C55.0949 97.8939 55.4677 97.6586 55.9086 97.5028C56.3494 97.3438 56.8366 97.2642 57.3702 97.2642C57.7381 97.2642 58.1043 97.3073 58.4689 97.3935C58.8335 97.4796 59.1666 97.6222 59.4682 97.821C59.7698 98.0166 60.0118 98.2834 60.1941 98.6214C60.3797 98.9595 60.4725 99.3821 60.4725 99.8892V105H58.7424V103.951H58.6827C58.5733 104.163 58.4192 104.362 58.2203 104.548C58.0248 104.73 57.7779 104.877 57.4796 104.99C57.1846 105.099 56.8382 105.154 56.4405 105.154ZM56.9078 103.832C57.2691 103.832 57.5823 103.76 57.8475 103.618C58.1126 103.472 58.3165 103.28 58.459 103.041C58.6048 102.803 58.6777 102.542 58.6777 102.261V101.361C58.6214 101.407 58.5253 101.45 58.3894 101.49C58.2568 101.53 58.1077 101.565 57.9419 101.594C57.7762 101.624 57.6122 101.651 57.4498 101.674C57.2873 101.697 57.1465 101.717 57.0272 101.734C56.7587 101.77 56.5184 101.83 56.3063 101.913C56.0942 101.996 55.9268 102.112 55.8042 102.261C55.6815 102.406 55.6202 102.595 55.6202 102.827C55.6202 103.159 55.7412 103.409 55.9831 103.578C56.2251 103.747 56.5333 103.832 56.9078 103.832ZM62.2821 105V97.3636H64.0272V98.6364H64.1067C64.2459 98.1955 64.4846 97.8558 64.8226 97.6172C65.164 97.3752 65.5534 97.2543 65.9909 97.2543C66.0904 97.2543 66.2014 97.2592 66.324 97.2692C66.45 97.2758 66.5544 97.2874 66.6373 97.304V98.9595C66.561 98.933 66.44 98.9098 66.2743 98.8899C66.1119 98.8667 65.9545 98.8551 65.802 98.8551C65.4739 98.8551 65.1789 98.9264 64.9171 99.0689C64.6586 99.2081 64.4547 99.402 64.3056 99.6506C64.1564 99.8991 64.0819 100.186 64.0819 100.511V105H62.2821ZM70.3523 105.134C69.7524 105.134 69.2154 104.98 68.7415 104.672C68.2675 104.364 67.893 103.916 67.6179 103.33C67.3428 102.743 67.2053 102.03 67.2053 101.192C67.2053 100.343 67.3445 99.6274 67.6229 99.044C67.9046 98.4574 68.2841 98.0149 68.7614 97.7166C69.2386 97.415 69.7706 97.2642 70.3572 97.2642C70.8047 97.2642 71.1726 97.3404 71.4609 97.4929C71.7493 97.642 71.978 97.8227 72.147 98.0348C72.3161 98.2436 72.447 98.4408 72.5398 98.6264H72.6143V94.8182H74.419V105H72.6491V103.797H72.5398C72.447 103.982 72.3127 104.18 72.1371 104.388C71.9614 104.594 71.7294 104.77 71.4411 104.915C71.1527 105.061 70.7898 105.134 70.3523 105.134ZM70.8544 103.658C71.2356 103.658 71.5604 103.555 71.8288 103.349C72.0973 103.141 72.3011 102.851 72.4403 102.479C72.5795 102.108 72.6491 101.676 72.6491 101.182C72.6491 100.688 72.5795 100.259 72.4403 99.8942C72.3045 99.5296 72.1023 99.2462 71.8338 99.044C71.5687 98.8419 71.2422 98.7408 70.8544 98.7408C70.4534 98.7408 70.1186 98.8452 69.8501 99.054C69.5817 99.2628 69.3795 99.5511 69.2436 99.919C69.1077 100.287 69.0398 100.708 69.0398 101.182C69.0398 101.659 69.1077 102.085 69.2436 102.46C69.3828 102.831 69.5866 103.124 69.8551 103.339C70.1269 103.552 70.46 103.658 70.8544 103.658ZM88.987 99.9091C88.987 101.006 88.7815 101.946 88.3706 102.728C87.9629 103.507 87.4061 104.103 86.7001 104.518C85.9975 104.932 85.2003 105.139 84.3088 105.139C83.4172 105.139 82.6184 104.932 81.9125 104.518C81.2098 104.1 80.653 103.502 80.242 102.723C79.8343 101.941 79.6305 101.003 79.6305 99.9091C79.6305 98.812 79.8343 97.8741 80.242 97.0952C80.653 96.313 81.2098 95.7147 81.9125 95.3004C82.6184 94.8861 83.4172 94.679 84.3088 94.679C85.2003 94.679 85.9975 94.8861 86.7001 95.3004C87.4061 95.7147 87.9629 96.313 88.3706 97.0952C88.7815 97.8741 88.987 98.812 88.987 99.9091ZM87.1326 99.9091C87.1326 99.1368 87.0117 98.4856 86.7697 97.9553C86.5311 97.4216 86.1996 97.0189 85.7754 96.7472C85.3511 96.4721 84.8623 96.3345 84.3088 96.3345C83.7553 96.3345 83.2664 96.4721 82.8422 96.7472C82.4179 97.0189 82.0848 97.4216 81.8429 97.9553C81.6042 98.4856 81.4849 99.1368 81.4849 99.9091C81.4849 100.681 81.6042 101.334 81.8429 101.868C82.0848 102.398 82.4179 102.801 82.8422 103.076C83.2664 103.348 83.7553 103.484 84.3088 103.484C84.8623 103.484 85.3511 103.348 85.7754 103.076C86.1996 102.801 86.5311 102.398 86.7697 101.868C87.0117 101.334 87.1326 100.681 87.1326 99.9091ZM90.7308 105V94.8182H92.5305V98.6264H92.6051C92.6979 98.4408 92.8288 98.2436 92.9979 98.0348C93.1669 97.8227 93.3956 97.642 93.6839 97.4929C93.9723 97.3404 94.3402 97.2642 94.7876 97.2642C95.3776 97.2642 95.9096 97.415 96.3835 97.7166C96.8608 98.0149 97.2386 98.4574 97.517 99.044C97.7988 99.6274 97.9396 100.343 97.9396 101.192C97.9396 102.03 97.8021 102.743 97.527 103.33C97.2519 103.916 96.8774 104.364 96.4034 104.672C95.9295 104.98 95.3925 105.134 94.7926 105.134C94.3551 105.134 93.9922 105.061 93.7038 104.915C93.4155 104.77 93.1835 104.594 93.0078 104.388C92.8355 104.18 92.7012 103.982 92.6051 103.797H92.5007V105H90.7308ZM92.4957 101.182C92.4957 101.676 92.5653 102.108 92.7045 102.479C92.8471 102.851 93.0509 103.141 93.3161 103.349C93.5845 103.555 93.9093 103.658 94.2905 103.658C94.6882 103.658 95.0213 103.552 95.2898 103.339C95.5582 103.124 95.7604 102.831 95.8963 102.46C96.0355 102.085 96.1051 101.659 96.1051 101.182C96.1051 100.708 96.0372 100.287 95.9013 99.919C95.7654 99.5511 95.5632 99.2628 95.2947 99.054C95.0263 98.8452 94.6915 98.7408 94.2905 98.7408C93.906 98.7408 93.5795 98.8419 93.3111 99.044C93.0426 99.2462 92.8388 99.5296 92.6996 99.8942C92.5637 100.259 92.4957 100.688 92.4957 101.182ZM105.505 99.3821L103.865 99.5611C103.818 99.3954 103.737 99.2396 103.621 99.0938C103.508 98.9479 103.356 98.8303 103.164 98.7408C102.971 98.6513 102.736 98.6065 102.458 98.6065C102.083 98.6065 101.768 98.6877 101.513 98.8501C101.261 99.0125 101.137 99.223 101.14 99.4815C101.137 99.7036 101.218 99.8842 101.384 100.023C101.553 100.163 101.831 100.277 102.219 100.366L103.521 100.645C104.244 100.801 104.781 101.048 105.132 101.386C105.487 101.724 105.666 102.166 105.669 102.713C105.666 103.194 105.525 103.618 105.247 103.986C104.972 104.35 104.589 104.635 104.098 104.841C103.608 105.046 103.044 105.149 102.408 105.149C101.473 105.149 100.721 104.954 100.151 104.562C99.5807 104.168 99.2409 103.62 99.1316 102.917L100.887 102.748C100.966 103.093 101.135 103.353 101.394 103.528C101.652 103.704 101.989 103.792 102.403 103.792C102.83 103.792 103.173 103.704 103.432 103.528C103.694 103.353 103.825 103.136 103.825 102.877C103.825 102.658 103.74 102.478 103.571 102.335C103.405 102.193 103.147 102.083 102.796 102.007L101.493 101.734C100.761 101.581 100.219 101.324 99.8674 100.963C99.516 100.598 99.342 100.138 99.3453 99.581C99.342 99.1103 99.4696 98.7027 99.7282 98.358C99.99 98.0099 100.353 97.7415 100.817 97.5526C101.284 97.3603 101.823 97.2642 102.433 97.2642C103.328 97.2642 104.032 97.4548 104.546 97.8359C105.063 98.2171 105.383 98.7325 105.505 99.3821ZM110.534 105.149C109.768 105.149 109.107 104.99 108.55 104.672C107.997 104.35 107.571 103.896 107.273 103.31C106.974 102.72 106.825 102.025 106.825 101.227C106.825 100.441 106.974 99.7517 107.273 99.1584C107.574 98.5618 107.995 98.0978 108.535 97.7663C109.076 97.4316 109.71 97.2642 110.439 97.2642C110.91 97.2642 111.354 97.3404 111.772 97.4929C112.193 97.642 112.564 97.8741 112.885 98.1889C113.21 98.5038 113.465 98.9048 113.651 99.392C113.837 99.8759 113.93 100.453 113.93 101.122V101.674H107.67V100.461H112.204C112.201 100.116 112.126 99.8097 111.981 99.5412C111.835 99.2694 111.631 99.0556 111.369 98.8999C111.111 98.7441 110.809 98.6662 110.464 98.6662C110.096 98.6662 109.773 98.7557 109.495 98.9347C109.216 99.1103 108.999 99.3423 108.844 99.6307C108.691 99.9157 108.613 100.229 108.61 100.57V101.629C108.61 102.073 108.691 102.455 108.854 102.773C109.016 103.088 109.243 103.33 109.535 103.499C109.826 103.664 110.168 103.747 110.559 103.747C110.821 103.747 111.058 103.711 111.27 103.638C111.482 103.562 111.666 103.451 111.822 103.305C111.977 103.159 112.095 102.978 112.175 102.763L113.855 102.952C113.749 103.396 113.547 103.784 113.248 104.115C112.953 104.443 112.576 104.698 112.115 104.881C111.654 105.06 111.127 105.149 110.534 105.149ZM115.452 105V97.3636H117.197V98.6364H117.277C117.416 98.1955 117.654 97.8558 117.993 97.6172C118.334 97.3752 118.723 97.2543 119.161 97.2543C119.26 97.2543 119.371 97.2592 119.494 97.2692C119.62 97.2758 119.724 97.2874 119.807 97.304V98.9595C119.731 98.933 119.61 98.9098 119.444 98.8899C119.282 98.8667 119.124 98.8551 118.972 98.8551C118.644 98.8551 118.349 98.9264 118.087 99.0689C117.828 99.2081 117.625 99.402 117.475 99.6506C117.326 99.8991 117.252 100.186 117.252 100.511V105H115.452ZM128.056 97.3636L125.337 105H123.348L120.629 97.3636H122.548L124.303 103.036H124.382L126.142 97.3636H128.056ZM131.28 105.154C130.796 105.154 130.361 105.068 129.973 104.896C129.588 104.72 129.283 104.461 129.058 104.12C128.836 103.779 128.725 103.358 128.725 102.857C128.725 102.426 128.805 102.07 128.964 101.788C129.123 101.507 129.34 101.281 129.615 101.112C129.89 100.943 130.2 100.816 130.545 100.729C130.893 100.64 131.252 100.575 131.623 100.536C132.071 100.489 132.434 100.448 132.712 100.411C132.991 100.371 133.193 100.312 133.319 100.232C133.448 100.149 133.513 100.022 133.513 99.8494V99.8196C133.513 99.4451 133.402 99.1551 133.18 98.9496C132.957 98.7441 132.638 98.6413 132.22 98.6413C131.779 98.6413 131.43 98.7375 131.171 98.9297C130.916 99.1219 130.743 99.349 130.654 99.6108L128.974 99.3722C129.106 98.9081 129.325 98.5204 129.63 98.2088C129.935 97.8939 130.308 97.6586 130.748 97.5028C131.189 97.3438 131.676 97.2642 132.21 97.2642C132.578 97.2642 132.944 97.3073 133.309 97.3935C133.673 97.4796 134.006 97.6222 134.308 97.821C134.61 98.0166 134.852 98.2834 135.034 98.6214C135.22 98.9595 135.312 99.3821 135.312 99.8892V105H133.582V103.951H133.523C133.413 104.163 133.259 104.362 133.06 104.548C132.865 104.73 132.618 104.877 132.319 104.99C132.024 105.099 131.678 105.154 131.28 105.154ZM131.748 103.832C132.109 103.832 132.422 103.76 132.687 103.618C132.952 103.472 133.156 103.28 133.299 103.041C133.445 102.803 133.518 102.542 133.518 102.261V101.361C133.461 101.407 133.365 101.45 133.229 101.49C133.097 101.53 132.948 101.565 132.782 101.594C132.616 101.624 132.452 101.651 132.29 101.674C132.127 101.697 131.986 101.717 131.867 101.734C131.599 101.77 131.358 101.83 131.146 101.913C130.934 101.996 130.767 102.112 130.644 102.261C130.521 102.406 130.46 102.595 130.46 102.827C130.46 103.159 130.581 103.409 130.823 103.578C131.065 103.747 131.373 103.832 131.748 103.832ZM140.935 97.3636V98.7557H136.545V97.3636H140.935ZM137.629 95.5341H139.429V102.703C139.429 102.945 139.465 103.131 139.538 103.26C139.614 103.386 139.714 103.472 139.836 103.518C139.959 103.565 140.095 103.588 140.244 103.588C140.357 103.588 140.46 103.58 140.552 103.563C140.648 103.547 140.721 103.532 140.771 103.518L141.074 104.925C140.978 104.959 140.841 104.995 140.662 105.035C140.486 105.075 140.271 105.098 140.015 105.104C139.565 105.118 139.159 105.05 138.797 104.901C138.436 104.748 138.149 104.513 137.937 104.195C137.729 103.876 137.626 103.479 137.629 103.001V95.5341ZM142.44 105V97.3636H144.24V105H142.44ZM143.345 96.2798C143.06 96.2798 142.815 96.1854 142.609 95.9964C142.404 95.8042 142.301 95.5739 142.301 95.3054C142.301 95.0336 142.404 94.8033 142.609 94.6143C142.815 94.4221 143.06 94.326 143.345 94.326C143.634 94.326 143.879 94.4221 144.081 94.6143C144.286 94.8033 144.389 95.0336 144.389 95.3054C144.389 95.5739 144.286 95.8042 144.081 95.9964C143.879 96.1854 143.634 96.2798 143.345 96.2798ZM149.422 105.149C148.676 105.149 148.03 104.985 147.483 104.657C146.936 104.329 146.512 103.87 146.21 103.28C145.912 102.69 145.763 102 145.763 101.212C145.763 100.423 145.912 99.7318 146.21 99.1385C146.512 98.5452 146.936 98.0845 147.483 97.7564C148.03 97.4283 148.676 97.2642 149.422 97.2642C150.167 97.2642 150.814 97.4283 151.361 97.7564C151.907 98.0845 152.33 98.5452 152.628 99.1385C152.93 99.7318 153.081 100.423 153.081 101.212C153.081 102 152.93 102.69 152.628 103.28C152.33 103.87 151.907 104.329 151.361 104.657C150.814 104.985 150.167 105.149 149.422 105.149ZM149.432 103.707C149.836 103.707 150.174 103.596 150.446 103.374C150.718 103.149 150.92 102.847 151.052 102.469C151.188 102.092 151.256 101.671 151.256 101.207C151.256 100.739 151.188 100.317 151.052 99.9389C150.92 99.5578 150.718 99.2545 150.446 99.0291C150.174 98.8037 149.836 98.6911 149.432 98.6911C149.017 98.6911 148.673 98.8037 148.398 99.0291C148.126 99.2545 147.922 99.5578 147.786 99.9389C147.653 100.317 147.587 100.739 147.587 101.207C147.587 101.671 147.653 102.092 147.786 102.469C147.922 102.847 148.126 103.149 148.398 103.374C148.673 103.596 149.017 103.707 149.432 103.707ZM156.408 100.526V105H154.608V97.3636H156.328V98.6612H156.418C156.594 98.2337 156.874 97.8939 157.258 97.642C157.646 97.3902 158.125 97.2642 158.695 97.2642C159.222 97.2642 159.681 97.3769 160.072 97.6023C160.467 97.8277 160.771 98.1541 160.987 98.5817C161.206 99.0092 161.313 99.5279 161.31 100.138V105H159.51V100.416C159.51 99.9058 159.378 99.5064 159.113 99.218C158.851 98.9297 158.488 98.7855 158.024 98.7855C157.709 98.7855 157.429 98.8551 157.184 98.9943C156.942 99.1302 156.751 99.3274 156.612 99.5859C156.476 99.8445 156.408 100.158 156.408 100.526ZM169.175 99.3821L167.534 99.5611C167.488 99.3954 167.407 99.2396 167.291 99.0938C167.178 98.9479 167.026 98.8303 166.833 98.7408C166.641 98.6513 166.406 98.6065 166.127 98.6065C165.753 98.6065 165.438 98.6877 165.183 98.8501C164.931 99.0125 164.807 99.223 164.81 99.4815C164.807 99.7036 164.888 99.8842 165.054 100.023C165.223 100.163 165.501 100.277 165.889 100.366L167.191 100.645C167.914 100.801 168.451 101.048 168.802 101.386C169.157 101.724 169.336 102.166 169.339 102.713C169.336 103.194 169.195 103.618 168.917 103.986C168.641 104.35 168.259 104.635 167.768 104.841C167.278 105.046 166.714 105.149 166.078 105.149C165.143 105.149 164.391 104.954 163.821 104.562C163.251 104.168 162.911 103.62 162.801 102.917L164.556 102.748C164.636 103.093 164.805 103.353 165.064 103.528C165.322 103.704 165.658 103.792 166.073 103.792C166.5 103.792 166.843 103.704 167.102 103.528C167.364 103.353 167.495 103.136 167.495 102.877C167.495 102.658 167.41 102.478 167.241 102.335C167.075 102.193 166.817 102.083 166.466 102.007L165.163 101.734C164.431 101.581 163.889 101.324 163.537 100.963C163.186 100.598 163.012 100.138 163.015 99.581C163.012 99.1103 163.14 98.7027 163.398 98.358C163.66 98.0099 164.023 97.7415 164.487 97.5526C164.954 97.3603 165.493 97.2642 166.103 97.2642C166.998 97.2642 167.702 97.4548 168.216 97.8359C168.733 98.2171 169.052 98.7325 169.175 99.3821Z" fill="#64748B"/>
<rect x="27" y="126" width="323.333" height="56" rx="12" fill="#F8FAFC"/>
<rect x="39" y="138" width="32" height="32" rx="16" fill="#E2E8F0"/>
<rect x="286.333" y="142" width="52" height="24" rx="6" fill="#FEF2F2"/>
<path d="M299.092 158V149.273H300.937V152.874H304.683V149.273H306.524V158H304.683V154.395H300.937V158H299.092ZM308.011 158V151.455H309.826V158H308.011ZM308.923 150.611C308.653 150.611 308.421 150.521 308.228 150.342C308.038 150.161 307.943 149.943 307.943 149.69C307.943 149.44 308.038 149.226 308.228 149.047C308.421 148.865 308.653 148.774 308.923 148.774C309.193 148.774 309.423 148.865 309.613 149.047C309.806 149.226 309.903 149.44 309.903 149.69C309.903 149.943 309.806 150.161 309.613 150.342C309.423 150.521 309.193 150.611 308.923 150.611ZM314.229 160.591C313.641 160.591 313.137 160.51 312.716 160.348C312.299 160.189 311.966 159.972 311.719 159.696C311.472 159.42 311.312 159.111 311.238 158.767L312.917 158.541C312.968 158.672 313.049 158.794 313.16 158.908C313.27 159.021 313.417 159.112 313.599 159.18C313.783 159.251 314.008 159.287 314.272 159.287C314.667 159.287 314.992 159.19 315.248 158.997C315.506 158.807 315.635 158.487 315.635 158.038V156.841H315.559C315.479 157.023 315.36 157.195 315.201 157.357C315.042 157.518 314.837 157.651 314.587 157.753C314.337 157.855 314.039 157.906 313.692 157.906C313.201 157.906 312.753 157.793 312.35 157.565C311.949 157.335 311.63 156.984 311.391 156.513C311.155 156.038 311.037 155.439 311.037 154.714C311.037 153.973 311.158 153.354 311.4 152.857C311.641 152.359 311.962 151.987 312.363 151.74C312.766 151.493 313.208 151.369 313.688 151.369C314.054 151.369 314.361 151.432 314.608 151.557C314.856 151.679 315.054 151.832 315.205 152.017C315.358 152.199 315.476 152.378 315.559 152.554H315.627V151.455H317.429V158.064C317.429 158.621 317.293 159.087 317.02 159.462C316.748 159.837 316.37 160.118 315.887 160.305C315.407 160.496 314.854 160.591 314.229 160.591ZM314.268 156.543C314.56 156.543 314.807 156.47 315.009 156.325C315.214 156.178 315.37 155.967 315.478 155.695C315.589 155.419 315.644 155.089 315.644 154.706C315.644 154.322 315.59 153.99 315.482 153.709C315.374 153.425 315.218 153.205 315.013 153.048C314.809 152.892 314.56 152.814 314.268 152.814C313.969 152.814 313.718 152.895 313.513 153.057C313.309 153.216 313.154 153.437 313.049 153.722C312.944 154.006 312.891 154.334 312.891 154.706C312.891 155.084 312.944 155.411 313.049 155.686C313.157 155.959 313.312 156.17 313.513 156.321C313.718 156.469 313.969 156.543 314.268 156.543ZM320.689 154.216V158H318.874V149.273H320.638V152.609H320.715C320.863 152.223 321.101 151.92 321.431 151.702C321.76 151.48 322.174 151.369 322.671 151.369C323.126 151.369 323.522 151.469 323.86 151.668C324.201 151.864 324.465 152.146 324.652 152.516C324.843 152.882 324.937 153.321 324.934 153.832V158H323.118V154.156C323.121 153.753 323.019 153.439 322.812 153.214C322.607 152.99 322.32 152.878 321.951 152.878C321.704 152.878 321.485 152.93 321.295 153.036C321.107 153.141 320.959 153.294 320.851 153.496C320.746 153.695 320.692 153.935 320.689 154.216Z" fill="#DC2626"/>
<g clip-path="url(#clip0_1002_659)">
<rect x="27" y="198" width="323.333" height="6" rx="3" fill="#F1F5F9"/>
<rect x="27" y="198" width="80.8333" height="6" fill="#34D399"/>
<rect x="107.833" y="198" width="80.8333" height="6" fill="#FACC15"/>
<rect x="188.667" y="198" width="80.8333" height="6" fill="#FB923C"/>
<rect x="269.5" y="198" width="80.8333" height="6" fill="#F87171"/>
</g>
<rect x="27" y="220" width="323.333" height="56" rx="12" fill="#F8FAFC"/>
<rect x="39" y="232" width="32" height="32" rx="16" fill="#E2E8F0"/>
<rect x="266.333" y="236" width="72" height="24" rx="6" fill="#FFF7ED"/>
<path d="M279.092 243.273H281.367L283.771 249.136H283.873L286.276 243.273H288.552V252H286.762V246.32H286.69L284.431 251.957H283.213L280.954 246.298H280.882V252H279.092V243.273ZM293.021 252.128C292.348 252.128 291.768 251.991 291.282 251.719C290.8 251.443 290.427 251.054 290.166 250.551C289.905 250.045 289.774 249.447 289.774 248.757C289.774 248.084 289.905 247.493 290.166 246.984C290.427 246.476 290.795 246.08 291.27 245.795C291.747 245.511 292.307 245.369 292.949 245.369C293.38 245.369 293.782 245.439 294.155 245.578C294.53 245.714 294.856 245.92 295.135 246.196C295.416 246.472 295.635 246.818 295.791 247.236C295.947 247.651 296.025 248.136 296.025 248.693V249.192H290.498V248.067H294.317C294.317 247.805 294.26 247.574 294.146 247.372C294.032 247.17 293.875 247.013 293.673 246.899C293.474 246.783 293.243 246.724 292.978 246.724C292.703 246.724 292.459 246.788 292.246 246.916C292.035 247.041 291.871 247.21 291.751 247.423C291.632 247.634 291.571 247.868 291.568 248.126V249.196C291.568 249.52 291.628 249.8 291.747 250.036C291.869 250.271 292.041 250.453 292.263 250.581C292.484 250.709 292.747 250.773 293.051 250.773C293.253 250.773 293.437 250.744 293.605 250.688C293.773 250.631 293.916 250.545 294.035 250.432C294.155 250.318 294.246 250.179 294.308 250.014L295.987 250.125C295.902 250.528 295.727 250.881 295.463 251.182C295.202 251.48 294.863 251.713 294.449 251.881C294.037 252.045 293.561 252.128 293.021 252.128ZM299.622 252.107C299.125 252.107 298.675 251.979 298.271 251.723C297.871 251.464 297.552 251.085 297.317 250.585C297.084 250.082 296.967 249.466 296.967 248.736C296.967 247.986 297.088 247.362 297.329 246.865C297.571 246.365 297.892 245.991 298.292 245.744C298.696 245.494 299.138 245.369 299.618 245.369C299.984 245.369 300.29 245.432 300.534 245.557C300.781 245.679 300.98 245.832 301.13 246.017C301.284 246.199 301.4 246.378 301.48 246.554H301.535V243.273H303.346V252H301.557V250.952H301.48C301.395 251.134 301.274 251.314 301.118 251.493C300.964 251.669 300.764 251.815 300.517 251.932C300.273 252.048 299.974 252.107 299.622 252.107ZM300.197 250.662C300.49 250.662 300.737 250.582 300.939 250.423C301.143 250.261 301.3 250.036 301.407 249.746C301.518 249.456 301.574 249.116 301.574 248.727C301.574 248.338 301.52 248 301.412 247.713C301.304 247.426 301.148 247.205 300.943 247.048C300.738 246.892 300.49 246.814 300.197 246.814C299.899 246.814 299.648 246.895 299.443 247.057C299.238 247.219 299.084 247.443 298.978 247.73C298.873 248.017 298.821 248.349 298.821 248.727C298.821 249.108 298.873 249.445 298.978 249.737C299.086 250.027 299.241 250.254 299.443 250.419C299.648 250.581 299.899 250.662 300.197 250.662ZM304.839 252V245.455H306.654V252H304.839ZM305.751 244.611C305.481 244.611 305.249 244.521 305.056 244.342C304.866 244.161 304.771 243.943 304.771 243.69C304.771 243.44 304.866 243.226 305.056 243.047C305.249 242.865 305.481 242.774 305.751 242.774C306.021 242.774 306.251 242.865 306.441 243.047C306.634 243.226 306.731 243.44 306.731 243.69C306.731 243.943 306.634 244.161 306.441 244.342C306.251 244.521 306.021 244.611 305.751 244.611ZM312.306 249.213V245.455H314.121V252H312.378V250.811H312.31C312.162 251.195 311.917 251.503 311.573 251.736C311.232 251.969 310.816 252.085 310.324 252.085C309.887 252.085 309.502 251.986 309.17 251.787C308.837 251.588 308.577 251.305 308.39 250.939C308.205 250.572 308.111 250.134 308.108 249.622V245.455H309.924V249.298C309.927 249.685 310.03 249.99 310.235 250.214C310.439 250.439 310.714 250.551 311.057 250.551C311.276 250.551 311.481 250.501 311.671 250.402C311.861 250.3 312.015 250.149 312.131 249.95C312.251 249.751 312.309 249.506 312.306 249.213ZM315.573 252V245.455H317.303V246.609H317.38C317.516 246.226 317.744 245.923 318.062 245.702C318.38 245.48 318.761 245.369 319.204 245.369C319.653 245.369 320.035 245.482 320.35 245.706C320.666 245.928 320.876 246.229 320.981 246.609H321.049C321.183 246.234 321.424 245.935 321.774 245.71C322.126 245.483 322.542 245.369 323.022 245.369C323.633 245.369 324.129 245.564 324.509 245.953C324.893 246.339 325.085 246.888 325.085 247.598V252H323.274V247.956C323.274 247.592 323.177 247.32 322.984 247.138C322.791 246.956 322.549 246.865 322.259 246.865C321.93 246.865 321.673 246.97 321.488 247.18C321.303 247.388 321.211 247.662 321.211 248.003V252H319.451V247.918C319.451 247.597 319.359 247.341 319.174 247.151C318.992 246.96 318.752 246.865 318.454 246.865C318.252 246.865 318.07 246.916 317.909 247.018C317.749 247.118 317.623 247.259 317.529 247.44C317.436 247.619 317.389 247.83 317.389 248.071V252H315.573Z" fill="#F97316"/>
<rect x="27" y="292" width="323.333" height="56" rx="12" fill="#F8FAFC"/>
<rect x="39" y="304" width="32" height="32" rx="16" fill="#E2E8F0"/>
<rect x="289.333" y="308" width="49" height="24" rx="6" fill="#ECFDF5"/>
<path d="M302.092 324V315.273H303.937V322.479H307.678V324H302.092ZM311.824 324.128C311.162 324.128 310.589 323.987 310.106 323.706C309.626 323.422 309.255 323.027 308.994 322.521C308.733 322.013 308.602 321.423 308.602 320.753C308.602 320.077 308.733 319.486 308.994 318.98C309.255 318.472 309.626 318.077 310.106 317.795C310.589 317.511 311.162 317.369 311.824 317.369C312.486 317.369 313.057 317.511 313.537 317.795C314.02 318.077 314.392 318.472 314.653 318.98C314.915 319.486 315.045 320.077 315.045 320.753C315.045 321.423 314.915 322.013 314.653 322.521C314.392 323.027 314.02 323.422 313.537 323.706C313.057 323.987 312.486 324.128 311.824 324.128ZM311.832 322.722C312.133 322.722 312.385 322.636 312.586 322.466C312.788 322.293 312.94 322.057 313.042 321.759C313.148 321.46 313.2 321.121 313.2 320.74C313.2 320.359 313.148 320.02 313.042 319.722C312.94 319.423 312.788 319.187 312.586 319.014C312.385 318.841 312.133 318.754 311.832 318.754C311.528 318.754 311.273 318.841 311.065 319.014C310.861 319.187 310.706 319.423 310.601 319.722C310.498 320.02 310.447 320.359 310.447 320.74C310.447 321.121 310.498 321.46 310.601 321.759C310.706 322.057 310.861 322.293 311.065 322.466C311.273 322.636 311.528 322.722 311.832 322.722ZM317.353 324L315.572 317.455H317.408L318.422 321.852H318.482L319.539 317.455H321.341L322.415 321.827H322.471L323.468 317.455H325.3L323.523 324H321.601L320.476 319.884H320.395L319.27 324H317.353Z" fill="#10B981"/>
</g>
<defs>
<filter id="filter0_d_1002_659" x="0" y="0" width="377.333" height="379.66" filterUnits="userSpaceOnUse" color-interpolation-filters="sRGB">
<feFlood flood-opacity="0" result="BackgroundImageFix"/>
<feColorMatrix in="SourceAlpha" type="matrix" values="0 0 0 0 0 0 0 0 0 0 0 0 0 0 0 0 0 0 127 0" result="hardAlpha"/>
<feOffset dy="1"/>
<feGaussianBlur stdDeviation="1"/>
<feComposite in2="hardAlpha" operator="out"/>
<feColorMatrix type="matrix" values="0 0 0 0 0 0 0 0 0 0 0 0 0 0 0 0 0 0 0.05 0"/>
<feBlend mode="normal" in2="BackgroundImageFix" result="effect1_dropShadow_1002_659"/>
<feBlend mode="normal" in="SourceGraphic" in2="effect1_dropShadow_1002_659" result="shape"/>
</filter>
<clipPath id="clip0_1002_659">
<rect x="27" y="198" width="323.333" height="6" rx="3" fill="white"/>
</clipPath>
</defs>
</svg>
