<svg width="378" height="383" viewBox="0 0 378 383" fill="none" xmlns="http://www.w3.org/2000/svg">
<g filter="url(#filter0_d_1002_777)">
<rect x="2" y="1" width="373.333" height="378.5" rx="24" fill="white"/>
<rect x="2.5" y="1.5" width="372.333" height="377.5" rx="23.5" stroke="#F1F5F9"/>
<path d="M33.4915 47.1989C32.4877 47.1989 31.5928 47.0142 30.8068 46.6449C30.0256 46.2756 29.4053 45.7666 28.946 45.1179C28.4867 44.4692 28.2476 43.7259 28.2287 42.8878H31.2116C31.2448 43.4512 31.4815 43.9081 31.9219 44.2585C32.3622 44.6089 32.8854 44.7841 33.4915 44.7841C33.9744 44.7841 34.4006 44.6776 34.7699 44.4645C35.1439 44.2467 35.4351 43.946 35.6435 43.5625C35.8565 43.1742 35.9631 42.7292 35.9631 42.2273C35.9631 41.7159 35.8542 41.2661 35.6364 40.8778C35.4233 40.4896 35.1274 40.1866 34.7486 39.9688C34.3698 39.7509 33.9366 39.6397 33.4489 39.6349C33.0227 39.6349 32.6084 39.7225 32.206 39.8977C31.8082 40.0729 31.4981 40.312 31.2756 40.6151L28.5412 40.125L29.2301 32.4545H38.1222V34.9688H31.7656L31.3892 38.6122H31.4744C31.7301 38.2524 32.116 37.9541 32.6321 37.7173C33.1482 37.4806 33.7259 37.3622 34.3651 37.3622C35.241 37.3622 36.0223 37.5682 36.7088 37.9801C37.3954 38.392 37.9375 38.9579 38.3352 39.6776C38.733 40.3925 38.9295 41.2164 38.9247 42.1491C38.9295 43.1293 38.7022 44.0005 38.2429 44.7628C37.7884 45.5204 37.1515 46.117 36.3324 46.5526C35.518 46.9834 34.571 47.1989 33.4915 47.1989ZM42.3977 47.1847C41.929 47.1847 41.5265 47.0189 41.1903 46.6875C40.8589 46.3513 40.6932 45.9489 40.6932 45.4801C40.6932 45.0161 40.8589 44.6184 41.1903 44.2869C41.5265 43.9555 41.929 43.7898 42.3977 43.7898C42.8523 43.7898 43.25 43.9555 43.5909 44.2869C43.9318 44.6184 44.1023 45.0161 44.1023 45.4801C44.1023 45.7926 44.0218 46.0791 43.8608 46.3395C43.7045 46.5952 43.4986 46.8011 43.2429 46.9574C42.9872 47.1089 42.7055 47.1847 42.3977 47.1847ZM53.6637 32.4545V47H50.5884V32.4545H53.6637ZM59.1626 40.6932V47H56.1371V36.0909H59.0206V38.0156H59.1484C59.3899 37.3812 59.7947 36.8793 60.3629 36.5099C60.9311 36.1359 61.62 35.9489 62.4297 35.9489C63.1873 35.9489 63.8478 36.1146 64.4112 36.446C64.9747 36.7775 65.4126 37.2509 65.7251 37.8665C66.0376 38.4773 66.1939 39.2064 66.1939 40.054V47H63.1683V40.5938C63.1731 39.9261 63.0026 39.4053 62.657 39.0312C62.3113 38.6525 61.8355 38.4631 61.2294 38.4631C60.8222 38.4631 60.4624 38.5507 60.1499 38.7259C59.8421 38.901 59.6006 39.1567 59.4254 39.4929C59.255 39.8243 59.1674 40.2244 59.1626 40.6932ZM74.381 36.0909V38.3636H67.8114V36.0909H74.381ZM69.3029 33.4773H72.3285V43.6477C72.3285 43.9271 72.3711 44.1449 72.4563 44.3011C72.5415 44.4527 72.6599 44.5592 72.8114 44.6207C72.9677 44.6823 73.1476 44.7131 73.3512 44.7131C73.4933 44.7131 73.6353 44.7012 73.7773 44.6776C73.9194 44.6491 74.0283 44.6278 74.104 44.6136L74.5799 46.8651C74.4284 46.9124 74.2153 46.9669 73.9407 47.0284C73.6661 47.0947 73.3323 47.1349 72.9393 47.1491C72.2101 47.1776 71.5709 47.0805 71.0217 46.858C70.4772 46.6354 70.0534 46.2898 69.7504 45.821C69.4473 45.3523 69.2982 44.7604 69.3029 44.0455V33.4773ZM81.2063 47.2131C80.0842 47.2131 79.1183 46.9858 78.3086 46.5312C77.5037 46.072 76.8834 45.4233 76.4478 44.5852C76.0122 43.7424 75.7944 42.7457 75.7944 41.5952C75.7944 40.473 76.0122 39.4882 76.4478 38.6406C76.8834 37.7931 77.4966 37.1326 78.2873 36.6591C79.0827 36.1856 80.0155 35.9489 81.0856 35.9489C81.8053 35.9489 82.4753 36.0649 83.0955 36.2969C83.7205 36.5241 84.265 36.8674 84.729 37.3267C85.1978 37.786 85.5624 38.3636 85.8228 39.0597C86.0832 39.7509 86.2134 40.5606 86.2134 41.4886V42.3196H77.0018V40.4446H83.3654C83.3654 40.009 83.2707 39.6231 83.0813 39.2869C82.8919 38.9508 82.6291 38.688 82.293 38.4986C81.9615 38.3045 81.5756 38.2074 81.1353 38.2074C80.676 38.2074 80.2688 38.3139 79.9137 38.527C79.5633 38.7353 79.2887 39.017 79.0898 39.3722C78.891 39.7225 78.7892 40.1132 78.7844 40.544V42.3267C78.7844 42.8665 78.8839 43.3329 79.0827 43.7259C79.2863 44.1188 79.5728 44.4219 79.9421 44.6349C80.3114 44.848 80.7494 44.9545 81.256 44.9545C81.5922 44.9545 81.9 44.9072 82.1793 44.8125C82.4587 44.7178 82.6978 44.5758 82.8967 44.3864C83.0955 44.197 83.247 43.965 83.3512 43.6903L86.1495 43.875C86.0075 44.5473 85.7163 45.1345 85.2759 45.6364C84.8403 46.1335 84.2769 46.5218 83.5856 46.8011C82.899 47.0758 82.1059 47.2131 81.2063 47.2131ZM91.2134 32.4545V47H88.1879V32.4545H91.2134ZM96.6626 32.4545V47H93.6371V32.4545H96.6626ZM99.0863 47V36.0909H102.112V47H99.0863ZM100.606 34.6847C100.156 34.6847 99.7705 34.5355 99.4485 34.2372C99.1313 33.9342 98.9727 33.572 98.9727 33.1506C98.9727 32.7339 99.1313 32.3764 99.4485 32.0781C99.7705 31.7751 100.156 31.6236 100.606 31.6236C101.056 31.6236 101.44 31.7751 101.757 32.0781C102.079 32.3764 102.24 32.7339 102.24 33.1506C102.24 33.572 102.079 33.9342 101.757 34.2372C101.44 34.5355 101.056 34.6847 100.606 34.6847ZM109.45 51.3182C108.47 51.3182 107.63 51.1832 106.929 50.9134C106.233 50.6482 105.679 50.286 105.267 49.8267C104.855 49.3674 104.588 48.8513 104.464 48.2784L107.263 47.902C107.348 48.1198 107.483 48.3234 107.668 48.5128C107.852 48.7022 108.096 48.8537 108.399 48.9673C108.707 49.0857 109.081 49.1449 109.521 49.1449C110.179 49.1449 110.722 48.9839 111.148 48.6619C111.579 48.3447 111.794 47.812 111.794 47.0639V45.0682H111.666C111.534 45.3712 111.335 45.6577 111.07 45.9276C110.804 46.1974 110.464 46.4176 110.047 46.5881C109.63 46.7585 109.133 46.8438 108.555 46.8438C107.736 46.8438 106.991 46.6544 106.318 46.2756C105.651 45.892 105.118 45.3073 104.72 44.5213C104.327 43.7306 104.131 42.7315 104.131 41.5241C104.131 40.2884 104.332 39.2562 104.734 38.4276C105.137 37.599 105.672 36.9787 106.339 36.5668C107.012 36.1548 107.748 35.9489 108.548 35.9489C109.159 35.9489 109.67 36.053 110.082 36.2614C110.494 36.465 110.826 36.7206 111.077 37.0284C111.332 37.3314 111.529 37.6297 111.666 37.9233H111.78V36.0909H114.784V47.1065C114.784 48.0346 114.557 48.8111 114.102 49.4361C113.648 50.0611 113.018 50.5298 112.213 50.8423C111.413 51.1596 110.492 51.3182 109.45 51.3182ZM109.514 44.571C110.002 44.571 110.414 44.4503 110.75 44.2088C111.091 43.9626 111.351 43.6122 111.531 43.1577C111.716 42.6984 111.808 42.1491 111.808 41.5099C111.808 40.8707 111.718 40.3168 111.538 39.848C111.358 39.3745 111.098 39.0076 110.757 38.7472C110.416 38.4867 110.002 38.3565 109.514 38.3565C109.017 38.3565 108.598 38.4915 108.257 38.7614C107.916 39.0265 107.658 39.3958 107.483 39.8693C107.308 40.3428 107.22 40.8897 107.22 41.5099C107.22 42.1397 107.308 42.6842 107.483 43.1435C107.663 43.598 107.921 43.9508 108.257 44.2017C108.598 44.4479 109.017 44.571 109.514 44.571ZM122.163 47.2131C121.041 47.2131 120.075 46.9858 119.266 46.5312C118.461 46.072 117.84 45.4233 117.405 44.5852C116.969 43.7424 116.751 42.7457 116.751 41.5952C116.751 40.473 116.969 39.4882 117.405 38.6406C117.84 37.7931 118.454 37.1326 119.244 36.6591C120.04 36.1856 120.973 35.9489 122.043 35.9489C122.762 35.9489 123.432 36.0649 124.053 36.2969C124.678 36.5241 125.222 36.8674 125.686 37.3267C126.155 37.786 126.519 38.3636 126.78 39.0597C127.04 39.7509 127.17 40.5606 127.17 41.4886V42.3196H117.959V40.4446H124.322C124.322 40.009 124.228 39.6231 124.038 39.2869C123.849 38.9508 123.586 38.688 123.25 38.4986C122.919 38.3045 122.533 38.2074 122.092 38.2074C121.633 38.2074 121.226 38.3139 120.871 38.527C120.52 38.7353 120.246 39.017 120.047 39.3722C119.848 39.7225 119.746 40.1132 119.741 40.544V42.3267C119.741 42.8665 119.841 43.3329 120.04 43.7259C120.243 44.1188 120.53 44.4219 120.899 44.6349C121.268 44.848 121.706 44.9545 122.213 44.9545C122.549 44.9545 122.857 44.9072 123.136 44.8125C123.416 44.7178 123.655 44.5758 123.854 44.3864C124.053 44.197 124.204 43.965 124.308 43.6903L127.107 43.875C126.964 44.5473 126.673 45.1345 126.233 45.6364C125.797 46.1335 125.234 46.5218 124.543 46.8011C123.856 47.0758 123.063 47.2131 122.163 47.2131ZM132.17 40.6932V47H129.145V36.0909H132.028V38.0156H132.156C132.398 37.3812 132.803 36.8793 133.371 36.5099C133.939 36.1359 134.628 35.9489 135.438 35.9489C136.195 35.9489 136.856 36.1146 137.419 36.446C137.982 36.7775 138.42 37.2509 138.733 37.8665C139.045 38.4773 139.202 39.2064 139.202 40.054V47H136.176V40.5938C136.181 39.9261 136.01 39.4053 135.665 39.0312C135.319 38.6525 134.843 38.4631 134.237 38.4631C133.83 38.4631 133.47 38.5507 133.158 38.7259C132.85 38.901 132.608 39.1567 132.433 39.4929C132.263 39.8243 132.175 40.2244 132.17 40.6932ZM147.389 36.0909V38.3636H140.819V36.0909H147.389ZM142.311 33.4773H145.336V43.6477C145.336 43.9271 145.379 44.1449 145.464 44.3011C145.549 44.4527 145.668 44.5592 145.819 44.6207C145.975 44.6823 146.155 44.7131 146.359 44.7131C146.501 44.7131 146.643 44.7012 146.785 44.6776C146.927 44.6491 147.036 44.6278 147.112 44.6136L147.588 46.8651C147.436 46.9124 147.223 46.9669 146.949 47.0284C146.674 47.0947 146.34 47.1349 145.947 47.1491C145.218 47.1776 144.579 47.0805 144.029 46.858C143.485 46.6354 143.061 46.2898 142.758 45.821C142.455 45.3523 142.306 44.7604 142.311 44.0455V33.4773ZM159.202 47H154.045V32.4545H159.244C160.707 32.4545 161.967 32.7457 163.023 33.3281C164.079 33.9058 164.891 34.7367 165.459 35.821C166.032 36.9053 166.318 38.2027 166.318 39.7131C166.318 41.2282 166.032 42.5303 165.459 43.6193C164.891 44.7083 164.074 45.544 163.009 46.1264C161.948 46.7088 160.679 47 159.202 47ZM157.121 44.3651H159.074C159.983 44.3651 160.748 44.2041 161.368 43.8821C161.993 43.5554 162.462 43.0511 162.774 42.3693C163.091 41.6828 163.25 40.7973 163.25 39.7131C163.25 38.6383 163.091 37.7599 162.774 37.0781C162.462 36.3963 161.995 35.8944 161.375 35.5724C160.755 35.2505 159.99 35.0895 159.081 35.0895H157.121V44.3651ZM171.65 47.206C170.954 47.206 170.334 47.0852 169.789 46.8438C169.245 46.5975 168.814 46.2353 168.497 45.7571C168.184 45.2741 168.028 44.6728 168.028 43.9531C168.028 43.3471 168.139 42.8381 168.362 42.4261C168.584 42.0142 168.887 41.6828 169.271 41.4318C169.654 41.1809 170.09 40.9915 170.578 40.8636C171.07 40.7358 171.586 40.6458 172.126 40.5938C172.761 40.5275 173.272 40.4659 173.66 40.4091C174.048 40.3475 174.33 40.2576 174.505 40.1392C174.681 40.0208 174.768 39.8456 174.768 39.6136V39.571C174.768 39.1212 174.626 38.7732 174.342 38.527C174.063 38.2808 173.665 38.1577 173.149 38.1577C172.604 38.1577 172.171 38.2784 171.849 38.5199C171.527 38.7566 171.314 39.0549 171.21 39.4148L168.412 39.1875C168.554 38.5246 168.833 37.9517 169.25 37.4688C169.666 36.9811 170.204 36.607 170.862 36.3466C171.525 36.0814 172.292 35.9489 173.163 35.9489C173.769 35.9489 174.349 36.0199 174.903 36.1619C175.462 36.304 175.957 36.5241 176.387 36.8224C176.823 37.1207 177.166 37.5043 177.417 37.973C177.668 38.437 177.794 38.9934 177.794 39.642V47H174.924V45.4872H174.839C174.664 45.8281 174.43 46.1288 174.136 46.3892C173.842 46.6449 173.49 46.8461 173.078 46.9929C172.666 47.1349 172.19 47.206 171.65 47.206ZM172.517 45.1179C172.962 45.1179 173.355 45.0303 173.696 44.8551C174.037 44.6752 174.304 44.4337 174.498 44.1307C174.692 43.8277 174.789 43.4844 174.789 43.1009V41.9432C174.695 42.0047 174.565 42.0616 174.399 42.1136C174.238 42.161 174.056 42.206 173.852 42.2486C173.648 42.2865 173.445 42.322 173.241 42.3551C173.038 42.3835 172.853 42.4096 172.687 42.4332C172.332 42.4853 172.022 42.5682 171.757 42.6818C171.492 42.7955 171.286 42.9493 171.139 43.1435C170.992 43.3329 170.919 43.5696 170.919 43.8537C170.919 44.2656 171.068 44.5805 171.366 44.7983C171.669 45.0114 172.053 45.1179 172.517 45.1179ZM185.944 36.0909V38.3636H179.374V36.0909H185.944ZM180.865 33.4773H183.891V43.6477C183.891 43.9271 183.934 44.1449 184.019 44.3011C184.104 44.4527 184.222 44.5592 184.374 44.6207C184.53 44.6823 184.71 44.7131 184.914 44.7131C185.056 44.7131 185.198 44.7012 185.34 44.6776C185.482 44.6491 185.591 44.6278 185.667 44.6136L186.142 46.8651C185.991 46.9124 185.778 46.9669 185.503 47.0284C185.229 47.0947 184.895 47.1349 184.502 47.1491C183.773 47.1776 183.133 47.0805 182.584 46.858C182.04 46.6354 181.616 46.2898 181.313 45.821C181.01 45.3523 180.861 44.7604 180.865 44.0455V33.4773ZM191.025 47.206C190.329 47.206 189.709 47.0852 189.164 46.8438C188.62 46.5975 188.189 46.2353 187.872 45.7571C187.559 45.2741 187.403 44.6728 187.403 43.9531C187.403 43.3471 187.514 42.8381 187.737 42.4261C187.959 42.0142 188.262 41.6828 188.646 41.4318C189.029 41.1809 189.465 40.9915 189.953 40.8636C190.445 40.7358 190.961 40.6458 191.501 40.5938C192.136 40.5275 192.647 40.4659 193.035 40.4091C193.423 40.3475 193.705 40.2576 193.88 40.1392C194.056 40.0208 194.143 39.8456 194.143 39.6136V39.571C194.143 39.1212 194.001 38.7732 193.717 38.527C193.438 38.2808 193.04 38.1577 192.524 38.1577C191.979 38.1577 191.546 38.2784 191.224 38.5199C190.902 38.7566 190.689 39.0549 190.585 39.4148L187.787 39.1875C187.929 38.5246 188.208 37.9517 188.625 37.4688C189.041 36.9811 189.579 36.607 190.237 36.3466C190.9 36.0814 191.667 35.9489 192.538 35.9489C193.144 35.9489 193.724 36.0199 194.278 36.1619C194.837 36.304 195.332 36.5241 195.762 36.8224C196.198 37.1207 196.541 37.5043 196.792 37.973C197.043 38.437 197.169 38.9934 197.169 39.642V47H194.299V45.4872H194.214C194.039 45.8281 193.805 46.1288 193.511 46.3892C193.217 46.6449 192.865 46.8461 192.453 46.9929C192.041 47.1349 191.565 47.206 191.025 47.206ZM191.892 45.1179C192.337 45.1179 192.73 45.0303 193.071 44.8551C193.412 44.6752 193.679 44.4337 193.873 44.1307C194.067 43.8277 194.164 43.4844 194.164 43.1009V41.9432C194.07 42.0047 193.94 42.0616 193.774 42.1136C193.613 42.161 193.431 42.206 193.227 42.2486C193.023 42.2865 192.82 42.322 192.616 42.3551C192.413 42.3835 192.228 42.4096 192.062 42.4332C191.707 42.4853 191.397 42.5682 191.132 42.6818C190.867 42.7955 190.661 42.9493 190.514 43.1435C190.367 43.3329 190.294 43.5696 190.294 43.8537C190.294 44.2656 190.443 44.5805 190.741 44.7983C191.044 45.0114 191.428 45.1179 191.892 45.1179ZM212.092 36.6378C212.036 36.0649 211.792 35.6198 211.361 35.3026C210.93 34.9853 210.345 34.8267 209.607 34.8267C209.105 34.8267 208.681 34.8977 208.335 35.0398C207.99 35.1771 207.724 35.3688 207.54 35.6151C207.36 35.8613 207.27 36.1406 207.27 36.4531C207.26 36.7135 207.315 36.9408 207.433 37.1349C207.556 37.3291 207.724 37.4972 207.938 37.6392C208.151 37.7765 208.397 37.8973 208.676 38.0014C208.955 38.1009 209.254 38.1861 209.571 38.2571L210.878 38.5696C211.512 38.7116 212.095 38.901 212.625 39.1378C213.155 39.3745 213.615 39.6657 214.003 40.0114C214.391 40.357 214.692 40.7642 214.905 41.233C215.123 41.7017 215.234 42.2391 215.239 42.8452C215.234 43.7353 215.007 44.5071 214.557 45.1605C214.112 45.8092 213.468 46.3134 212.625 46.6733C211.787 47.0284 210.776 47.206 209.592 47.206C208.418 47.206 207.395 47.026 206.524 46.6662C205.658 46.3063 204.981 45.7737 204.493 45.0682C204.01 44.358 203.757 43.4796 203.733 42.4332H206.709C206.742 42.9209 206.882 43.3281 207.128 43.6548C207.379 43.9768 207.713 44.2206 208.129 44.3864C208.551 44.5473 209.027 44.6278 209.557 44.6278C210.078 44.6278 210.53 44.5521 210.913 44.4006C211.302 44.2491 211.602 44.0384 211.815 43.7685C212.028 43.4986 212.135 43.1884 212.135 42.8381C212.135 42.5114 212.038 42.2367 211.844 42.0142C211.654 41.7917 211.375 41.6023 211.006 41.446C210.641 41.2898 210.194 41.1477 209.663 41.0199L208.08 40.6222C206.853 40.3239 205.885 39.8575 205.175 39.223C204.464 38.5885 204.112 37.7339 204.116 36.6591C204.112 35.7784 204.346 35.009 204.82 34.3509C205.298 33.6927 205.954 33.179 206.787 32.8097C207.62 32.4403 208.567 32.2557 209.628 32.2557C210.707 32.2557 211.65 32.4403 212.455 32.8097C213.264 33.179 213.894 33.6927 214.344 34.3509C214.794 35.009 215.026 35.7713 215.04 36.6378H212.092ZM219.118 51.0909C218.735 51.0909 218.375 51.0601 218.039 50.9986C217.707 50.9418 217.433 50.8684 217.215 50.7784L217.897 48.5199C218.252 48.6288 218.571 48.688 218.855 48.6974C219.144 48.7069 219.393 48.6406 219.601 48.4986C219.814 48.3565 219.987 48.1151 220.12 47.7741L220.297 47.3125L216.384 36.0909H219.566L221.824 44.1023H221.938L224.218 36.0909H227.421L223.181 48.179C222.977 48.7661 222.7 49.2775 222.35 49.7131C222.004 50.1534 221.566 50.492 221.036 50.7287C220.506 50.9702 219.866 51.0909 219.118 51.0909ZM231.995 40.6932V47H228.969V36.0909H231.853V38.0156H231.98C232.222 37.3812 232.627 36.8793 233.195 36.5099C233.763 36.1359 234.452 35.9489 235.262 35.9489C236.019 35.9489 236.68 36.1146 237.243 36.446C237.807 36.7775 238.245 37.2509 238.557 37.8665C238.87 38.4773 239.026 39.2064 239.026 40.054V47H236V40.5938C236.005 39.9261 235.835 39.4053 235.489 39.0312C235.143 38.6525 234.667 38.4631 234.061 38.4631C233.654 38.4631 233.294 38.5507 232.982 38.7259C232.674 38.901 232.433 39.1567 232.257 39.4929C232.087 39.8243 231.999 40.2244 231.995 40.6932ZM247.213 36.0909V38.3636H240.643V36.0909H247.213ZM242.135 33.4773H245.161V43.6477C245.161 43.9271 245.203 44.1449 245.288 44.3011C245.374 44.4527 245.492 44.5592 245.643 44.6207C245.8 44.6823 245.98 44.7131 246.183 44.7131C246.325 44.7131 246.467 44.7012 246.609 44.6776C246.751 44.6491 246.86 44.6278 246.936 44.6136L247.412 46.8651C247.26 46.9124 247.047 46.9669 246.773 47.0284C246.498 47.0947 246.164 47.1349 245.771 47.1491C245.042 47.1776 244.403 47.0805 243.854 46.858C243.309 46.6354 242.885 46.2898 242.582 45.821C242.279 45.3523 242.13 44.7604 242.135 44.0455V33.4773ZM252.444 40.6932V47H249.418V32.4545H252.359V38.0156H252.487C252.733 37.3717 253.13 36.8674 253.68 36.5028C254.229 36.1335 254.918 35.9489 255.746 35.9489C256.504 35.9489 257.165 36.1146 257.728 36.446C258.296 36.7727 258.737 37.2438 259.049 37.8594C259.366 38.4702 259.522 39.2017 259.518 40.054V47H256.492V40.5938C256.497 39.9214 256.326 39.3982 255.981 39.0241C255.64 38.6501 255.162 38.4631 254.546 38.4631C254.134 38.4631 253.77 38.5507 253.452 38.7259C253.14 38.901 252.894 39.1567 252.714 39.4929C252.539 39.8243 252.449 40.2244 252.444 40.6932ZM266.87 47.2131C265.748 47.2131 264.782 46.9858 263.973 46.5312C263.168 46.072 262.547 45.4233 262.112 44.5852C261.676 43.7424 261.458 42.7457 261.458 41.5952C261.458 40.473 261.676 39.4882 262.112 38.6406C262.547 37.7931 263.161 37.1326 263.951 36.6591C264.747 36.1856 265.68 35.9489 266.75 35.9489C267.469 35.9489 268.139 36.0649 268.76 36.2969C269.385 36.5241 269.929 36.8674 270.393 37.3267C270.862 37.786 271.226 38.3636 271.487 39.0597C271.747 39.7509 271.877 40.5606 271.877 41.4886V42.3196H262.666V40.4446H269.029C269.029 40.009 268.935 39.6231 268.745 39.2869C268.556 38.9508 268.293 38.688 267.957 38.4986C267.626 38.3045 267.24 38.2074 266.799 38.2074C266.34 38.2074 265.933 38.3139 265.578 38.527C265.227 38.7353 264.953 39.017 264.754 39.3722C264.555 39.7225 264.453 40.1132 264.449 40.544V42.3267C264.449 42.8665 264.548 43.3329 264.747 43.7259C264.95 44.1188 265.237 44.4219 265.606 44.6349C265.975 44.848 266.413 44.9545 266.92 44.9545C267.256 44.9545 267.564 44.9072 267.843 44.8125C268.123 44.7178 268.362 44.5758 268.561 44.3864C268.76 44.197 268.911 43.965 269.015 43.6903L271.814 43.875C271.672 44.5473 271.38 45.1345 270.94 45.6364C270.504 46.1335 269.941 46.5218 269.25 46.8011C268.563 47.0758 267.77 47.2131 266.87 47.2131ZM282.929 39.2017L280.159 39.3722C280.111 39.1354 280.01 38.9223 279.853 38.733C279.697 38.5388 279.491 38.3849 279.235 38.2713C278.984 38.1529 278.684 38.0938 278.333 38.0938C277.865 38.0938 277.469 38.1932 277.147 38.392C276.825 38.5862 276.664 38.8466 276.664 39.1733C276.664 39.4337 276.769 39.6539 276.977 39.8338C277.185 40.0137 277.543 40.1581 278.049 40.267L280.024 40.6648C281.084 40.8826 281.875 41.233 282.396 41.7159C282.917 42.1989 283.177 42.8333 283.177 43.6193C283.177 44.3343 282.967 44.9616 282.545 45.5014C282.128 46.0412 281.556 46.4626 280.826 46.7656C280.102 47.0639 279.266 47.2131 278.319 47.2131C276.875 47.2131 275.725 46.9124 274.868 46.3111C274.015 45.705 273.516 44.8812 273.369 43.8395L276.345 43.6832C276.435 44.1236 276.653 44.4598 276.998 44.6918C277.344 44.919 277.787 45.0327 278.326 45.0327C278.857 45.0327 279.283 44.9309 279.605 44.7273C279.931 44.5189 280.097 44.2514 280.102 43.9247C280.097 43.6501 279.981 43.4252 279.754 43.25C279.527 43.0701 279.176 42.9328 278.703 42.8381L276.814 42.4616C275.748 42.2486 274.955 41.8793 274.434 41.3537C273.918 40.8281 273.66 40.1581 273.66 39.3438C273.66 38.643 273.85 38.0393 274.228 37.5327C274.612 37.026 275.149 36.6354 275.841 36.3608C276.537 36.0862 277.351 35.9489 278.284 35.9489C279.662 35.9489 280.746 36.2401 281.537 36.8224C282.332 37.4048 282.796 38.1979 282.929 39.2017ZM285.082 47V36.0909H288.108V47H285.082ZM286.602 34.6847C286.152 34.6847 285.767 34.5355 285.445 34.2372C285.127 33.9342 284.969 33.572 284.969 33.1506C284.969 32.7339 285.127 32.3764 285.445 32.0781C285.767 31.7751 286.152 31.6236 286.602 31.6236C287.052 31.6236 287.436 31.7751 287.753 32.0781C288.075 32.3764 288.236 32.7339 288.236 33.1506C288.236 33.572 288.075 33.9342 287.753 34.2372C287.436 34.5355 287.052 34.6847 286.602 34.6847ZM299.608 39.2017L296.838 39.3722C296.791 39.1354 296.689 38.9223 296.533 38.733C296.377 38.5388 296.171 38.3849 295.915 38.2713C295.664 38.1529 295.364 38.0938 295.013 38.0938C294.544 38.0938 294.149 38.1932 293.827 38.392C293.505 38.5862 293.344 38.8466 293.344 39.1733C293.344 39.4337 293.448 39.6539 293.657 39.8338C293.865 40.0137 294.222 40.1581 294.729 40.267L296.703 40.6648C297.764 40.8826 298.555 41.233 299.076 41.7159C299.596 42.1989 299.857 42.8333 299.857 43.6193C299.857 44.3343 299.646 44.9616 299.225 45.5014C298.808 46.0412 298.235 46.4626 297.506 46.7656C296.782 47.0639 295.946 47.2131 294.999 47.2131C293.555 47.2131 292.404 46.9124 291.547 46.3111C290.695 45.705 290.195 44.8812 290.049 43.8395L293.025 43.6832C293.114 44.1236 293.332 44.4598 293.678 44.6918C294.024 44.919 294.466 45.0327 295.006 45.0327C295.536 45.0327 295.962 44.9309 296.284 44.7273C296.611 44.5189 296.777 44.2514 296.782 43.9247C296.777 43.6501 296.661 43.4252 296.434 43.25C296.206 43.0701 295.856 42.9328 295.382 42.8381L293.493 42.4616C292.428 42.2486 291.635 41.8793 291.114 41.3537C290.598 40.8281 290.34 40.1581 290.34 39.3438C290.34 38.643 290.529 38.0393 290.908 37.5327C291.292 37.026 291.829 36.6354 292.52 36.3608C293.216 36.0862 294.031 35.9489 294.963 35.9489C296.341 35.9489 297.426 36.2401 298.216 36.8224C299.012 37.4048 299.476 38.1979 299.608 39.2017Z" fill="#1E56DE"/>
<rect x="310.333" y="26" width="40" height="40" rx="20" fill="#EFF6FF"/>
<path d="M340.333 55H320.333V37H322.333V53H340.333V55V55M337.333 42L333.333 46L330.333 43L326.333 47V43L330.333 39L333.333 42L337.333 38V42V42" fill="#2563EB"/>
<path d="M29.8487 102.818V113H28.0043V102.818H29.8487ZM33.5662 108.526V113H31.7665V105.364H33.4867V106.661H33.5762C33.7518 106.234 34.0319 105.894 34.4164 105.642C34.8042 105.39 35.2831 105.264 35.8532 105.264C36.3801 105.264 36.8392 105.377 37.2303 105.602C37.6247 105.828 37.9296 106.154 38.1451 106.582C38.3638 107.009 38.4715 107.528 38.4682 108.138V113H36.6685V108.416C36.6685 107.906 36.5359 107.506 36.2708 107.218C36.0089 106.93 35.646 106.786 35.182 106.786C34.8671 106.786 34.5871 106.855 34.3418 106.994C34.0998 107.13 33.9093 107.327 33.7701 107.586C33.6342 107.844 33.5662 108.158 33.5662 108.526ZM46.3333 107.382L44.6926 107.561C44.6462 107.395 44.565 107.24 44.449 107.094C44.3364 106.948 44.1839 106.83 43.9917 106.741C43.7994 106.651 43.5641 106.607 43.2857 106.607C42.9112 106.607 42.5963 106.688 42.3411 106.85C42.0892 107.013 41.9649 107.223 41.9682 107.482C41.9649 107.704 42.0461 107.884 42.2118 108.023C42.3809 108.163 42.6593 108.277 43.0471 108.366L44.3496 108.645C45.0721 108.801 45.6091 109.048 45.9604 109.386C46.315 109.724 46.494 110.166 46.4973 110.713C46.494 111.194 46.3532 111.618 46.0748 111.986C45.7997 112.35 45.4168 112.635 44.9263 112.841C44.4358 113.046 43.8723 113.149 43.236 113.149C42.3013 113.149 41.5489 112.954 40.9789 112.562C40.4088 112.168 40.0691 111.62 39.9597 110.917L41.7147 110.748C41.7942 111.093 41.9632 111.353 42.2218 111.528C42.4803 111.704 42.8167 111.792 43.231 111.792C43.6586 111.792 44.0016 111.704 44.2601 111.528C44.522 111.353 44.6529 111.136 44.6529 110.877C44.6529 110.658 44.5684 110.478 44.3993 110.335C44.2336 110.193 43.9751 110.083 43.6238 110.007L42.3212 109.734C41.5887 109.581 41.0468 109.324 40.6955 108.963C40.3442 108.598 40.1702 108.138 40.1735 107.581C40.1702 107.11 40.2978 106.703 40.5563 106.358C40.8181 106.01 41.181 105.741 41.6451 105.553C42.1124 105.36 42.651 105.264 43.2608 105.264C44.1557 105.264 44.86 105.455 45.3738 105.836C45.8908 106.217 46.2106 106.732 46.3333 107.382ZM47.9814 113V105.364H49.7811V113H47.9814ZM48.8862 104.28C48.6011 104.28 48.3559 104.185 48.1504 103.996C47.9449 103.804 47.8422 103.574 47.8422 103.305C47.8422 103.034 47.9449 102.803 48.1504 102.614C48.3559 102.422 48.6011 102.326 48.8862 102.326C49.1745 102.326 49.4198 102.422 49.622 102.614C49.8275 102.803 49.9302 103.034 49.9302 103.305C49.9302 103.574 49.8275 103.804 49.622 103.996C49.4198 104.185 49.1745 104.28 48.8862 104.28ZM54.9528 116.023C54.3065 116.023 53.7513 115.935 53.2873 115.759C52.8233 115.587 52.4504 115.355 52.1687 115.063C51.887 114.772 51.6914 114.448 51.582 114.094L53.2028 113.701C53.2757 113.85 53.3817 113.998 53.521 114.143C53.6602 114.293 53.8474 114.415 54.0827 114.511C54.3214 114.611 54.6213 114.661 54.9826 114.661C55.493 114.661 55.9156 114.536 56.2504 114.288C56.5851 114.042 56.7525 113.638 56.7525 113.075V111.628H56.663C56.5702 111.813 56.4343 112.004 56.2553 112.2C56.0797 112.395 55.846 112.559 55.5543 112.692C55.266 112.824 54.9031 112.891 54.4656 112.891C53.8789 112.891 53.3469 112.753 52.8697 112.478C52.3957 112.2 52.0179 111.785 51.7362 111.235C51.4577 110.682 51.3185 109.989 51.3185 109.157C51.3185 108.318 51.4577 107.611 51.7362 107.034C52.0179 106.454 52.3974 106.015 52.8746 105.717C53.3519 105.415 53.8839 105.264 54.4705 105.264C54.918 105.264 55.2859 105.34 55.5742 105.493C55.8659 105.642 56.0979 105.823 56.2702 106.035C56.4426 106.244 56.5735 106.441 56.663 106.626H56.7624V105.364H58.5373V113.124C58.5373 113.777 58.3815 114.317 58.07 114.745C57.7584 115.173 57.3325 115.492 56.7923 115.705C56.252 115.917 55.6388 116.023 54.9528 116.023ZM54.9677 111.479C55.3488 111.479 55.6737 111.386 55.9421 111.2C56.2106 111.015 56.4144 110.748 56.5536 110.4C56.6928 110.052 56.7624 109.634 56.7624 109.147C56.7624 108.666 56.6928 108.246 56.5536 107.884C56.4177 107.523 56.2156 107.243 55.9471 107.044C55.6819 106.842 55.3555 106.741 54.9677 106.741C54.5666 106.741 54.2319 106.845 53.9634 107.054C53.695 107.263 53.4928 107.549 53.3569 107.914C53.221 108.275 53.1531 108.686 53.1531 109.147C53.1531 109.614 53.221 110.024 53.3569 110.375C53.4961 110.723 53.6999 110.995 53.9684 111.19C54.2402 111.383 54.5733 111.479 54.9677 111.479ZM62.1815 108.526V113H60.3817V102.818H62.1417V106.661H62.2312C62.4102 106.23 62.6869 105.891 63.0614 105.642C63.4393 105.39 63.9199 105.264 64.5032 105.264C65.0335 105.264 65.4959 105.375 65.8903 105.597C66.2847 105.819 66.5896 106.144 66.805 106.572C67.0238 106.999 67.1332 107.521 67.1332 108.138V113H65.3335V108.416C65.3335 107.902 65.2009 107.503 64.9357 107.218C64.6739 106.93 64.306 106.786 63.832 106.786C63.5138 106.786 63.2288 106.855 62.9769 106.994C62.7283 107.13 62.5328 107.327 62.3903 107.586C62.2511 107.844 62.1815 108.158 62.1815 108.526ZM72.7809 105.364V106.756H68.391V105.364H72.7809ZM69.4748 103.534H71.2745V110.703C71.2745 110.945 71.311 111.131 71.3839 111.26C71.4601 111.386 71.5595 111.472 71.6822 111.518C71.8048 111.565 71.9407 111.588 72.0898 111.588C72.2025 111.588 72.3053 111.58 72.3981 111.563C72.4942 111.547 72.5671 111.532 72.6168 111.518L72.9201 112.925C72.824 112.959 72.6864 112.995 72.5075 113.035C72.3318 113.075 72.1164 113.098 71.8612 113.104C71.4104 113.118 71.0044 113.05 70.6431 112.901C70.2818 112.748 69.9951 112.513 69.783 112.195C69.5742 111.876 69.4715 111.479 69.4748 111.001V103.534ZM80.2122 107.382L78.5716 107.561C78.5252 107.395 78.444 107.24 78.3279 107.094C78.2153 106.948 78.0628 106.83 77.8706 106.741C77.6783 106.651 77.443 106.607 77.1646 106.607C76.7901 106.607 76.4752 106.688 76.22 106.85C75.9681 107.013 75.8438 107.223 75.8471 107.482C75.8438 107.704 75.925 107.884 76.0907 108.023C76.2598 108.163 76.5382 108.277 76.926 108.366L78.2285 108.645C78.9511 108.801 79.488 109.048 79.8393 109.386C80.194 109.724 80.3729 110.166 80.3762 110.713C80.3729 111.194 80.2321 111.618 79.9537 111.986C79.6786 112.35 79.2958 112.635 78.8052 112.841C78.3147 113.046 77.7512 113.149 77.1149 113.149C76.1802 113.149 75.4279 112.954 74.8578 112.562C74.2877 112.168 73.948 111.62 73.8386 110.917L75.5936 110.748C75.6731 111.093 75.8422 111.353 76.1007 111.528C76.3592 111.704 76.6956 111.792 77.1099 111.792C77.5375 111.792 77.8805 111.704 78.139 111.528C78.4009 111.353 78.5318 111.136 78.5318 110.877C78.5318 110.658 78.4473 110.478 78.2782 110.335C78.1125 110.193 77.854 110.083 77.5027 110.007L76.2001 109.734C75.4676 109.581 74.9257 109.324 74.5744 108.963C74.2231 108.598 74.0491 108.138 74.0524 107.581C74.0491 107.11 74.1767 106.703 74.4352 106.358C74.697 106.01 75.06 105.741 75.524 105.553C75.9913 105.36 76.5299 105.264 77.1397 105.264C78.0346 105.264 78.7389 105.455 79.2527 105.836C79.7697 106.217 80.0895 106.732 80.2122 107.382ZM94.5105 107.909C94.5105 109.006 94.305 109.946 93.894 110.728C93.4863 111.507 92.9295 112.103 92.2235 112.518C91.5209 112.932 90.7238 113.139 89.8322 113.139C88.9406 113.139 88.1419 112.932 87.4359 112.518C86.7333 112.1 86.1764 111.502 85.7654 110.723C85.3578 109.941 85.1539 109.003 85.1539 107.909C85.1539 106.812 85.3578 105.874 85.7654 105.095C86.1764 104.313 86.7333 103.715 87.4359 103.3C88.1419 102.886 88.9406 102.679 89.8322 102.679C90.7238 102.679 91.5209 102.886 92.2235 103.3C92.9295 103.715 93.4863 104.313 93.894 105.095C94.305 105.874 94.5105 106.812 94.5105 107.909ZM92.6561 107.909C92.6561 107.137 92.5351 106.486 92.2931 105.955C92.0545 105.422 91.7231 105.019 91.2988 104.747C90.8746 104.472 90.3857 104.335 89.8322 104.335C89.2787 104.335 88.7898 104.472 88.3656 104.747C87.9413 105.019 87.6083 105.422 87.3663 105.955C87.1277 106.486 87.0083 107.137 87.0083 107.909C87.0083 108.681 87.1277 109.334 87.3663 109.868C87.6083 110.398 87.9413 110.801 88.3656 111.076C88.7898 111.348 89.2787 111.484 89.8322 111.484C90.3857 111.484 90.8746 111.348 91.2988 111.076C91.7231 110.801 92.0545 110.398 92.2931 109.868C92.5351 109.334 92.6561 108.681 92.6561 107.909ZM102.996 105.364L100.276 113H98.2876L95.5682 105.364H97.4872L99.2422 111.036H99.3217L101.082 105.364H102.996ZM107.362 113.149C106.596 113.149 105.935 112.99 105.378 112.672C104.825 112.35 104.399 111.896 104.101 111.31C103.802 110.72 103.653 110.025 103.653 109.227C103.653 108.441 103.802 107.752 104.101 107.158C104.402 106.562 104.823 106.098 105.363 105.766C105.904 105.432 106.538 105.264 107.268 105.264C107.738 105.264 108.182 105.34 108.6 105.493C109.021 105.642 109.392 105.874 109.714 106.189C110.038 106.504 110.294 106.905 110.479 107.392C110.665 107.876 110.758 108.453 110.758 109.122V109.674H104.498V108.461H109.032C109.029 108.116 108.955 107.81 108.809 107.541C108.663 107.269 108.459 107.056 108.197 106.9C107.939 106.744 107.637 106.666 107.292 106.666C106.925 106.666 106.601 106.756 106.323 106.935C106.045 107.11 105.827 107.342 105.672 107.631C105.519 107.916 105.441 108.229 105.438 108.57V109.629C105.438 110.073 105.519 110.455 105.682 110.773C105.844 111.088 106.071 111.33 106.363 111.499C106.654 111.664 106.996 111.747 107.387 111.747C107.649 111.747 107.886 111.711 108.098 111.638C108.31 111.562 108.494 111.451 108.65 111.305C108.805 111.159 108.923 110.978 109.003 110.763L110.683 110.952C110.577 111.396 110.375 111.784 110.077 112.115C109.782 112.443 109.404 112.698 108.943 112.881C108.482 113.06 107.955 113.149 107.362 113.149ZM112.28 113V105.364H114.025V106.636H114.105C114.244 106.196 114.483 105.856 114.821 105.617C115.162 105.375 115.551 105.254 115.989 105.254C116.088 105.254 116.199 105.259 116.322 105.269C116.448 105.276 116.552 105.287 116.635 105.304V106.96C116.559 106.933 116.438 106.91 116.272 106.89C116.11 106.867 115.953 106.855 115.8 106.855C115.472 106.855 115.177 106.926 114.915 107.069C114.657 107.208 114.453 107.402 114.304 107.651C114.154 107.899 114.08 108.186 114.08 108.511V113H112.28ZM124.884 105.364L122.165 113H120.176L117.457 105.364H119.376L121.131 111.036H121.21L122.97 105.364H124.884ZM126.13 113V105.364H127.93V113H126.13ZM127.035 104.28C126.75 104.28 126.504 104.185 126.299 103.996C126.093 103.804 125.991 103.574 125.991 103.305C125.991 103.034 126.093 102.803 126.299 102.614C126.504 102.422 126.75 102.326 127.035 102.326C127.323 102.326 127.568 102.422 127.77 102.614C127.976 102.803 128.079 103.034 128.079 103.305C128.079 103.574 127.976 103.804 127.77 103.996C127.568 104.185 127.323 104.28 127.035 104.28ZM133.161 113.149C132.395 113.149 131.734 112.99 131.177 112.672C130.624 112.35 130.198 111.896 129.9 111.31C129.601 110.72 129.452 110.025 129.452 109.227C129.452 108.441 129.601 107.752 129.9 107.158C130.201 106.562 130.622 106.098 131.162 105.766C131.703 105.432 132.337 105.264 133.066 105.264C133.537 105.264 133.981 105.34 134.399 105.493C134.82 105.642 135.191 105.874 135.512 106.189C135.837 106.504 136.092 106.905 136.278 107.392C136.464 107.876 136.556 108.453 136.556 109.122V109.674H130.297V108.461H134.831C134.828 108.116 134.753 107.81 134.608 107.541C134.462 107.269 134.258 107.056 133.996 106.9C133.738 106.744 133.436 106.666 133.091 106.666C132.723 106.666 132.4 106.756 132.122 106.935C131.843 107.11 131.626 107.342 131.471 107.631C131.318 107.916 131.24 108.229 131.237 108.57V109.629C131.237 110.073 131.318 110.455 131.48 110.773C131.643 111.088 131.87 111.33 132.162 111.499C132.453 111.664 132.795 111.747 133.186 111.747C133.448 111.747 133.685 111.711 133.897 111.638C134.109 111.562 134.293 111.451 134.449 111.305C134.604 111.159 134.722 110.978 134.801 110.763L136.482 110.952C136.376 111.396 136.174 111.784 135.875 112.115C135.58 112.443 135.203 112.698 134.742 112.881C134.281 113.06 133.754 113.149 133.161 113.149ZM139.614 113L137.456 105.364H139.291L140.633 110.733H140.703L142.075 105.364H143.89L145.262 110.703H145.336L146.659 105.364H148.498L146.336 113H144.461L143.029 107.839H142.925L141.493 113H139.614Z" fill="#64748B"/>
<path d="M154 198C154 208.66 151.275 219.145 146.081 228.474C140.887 237.804 133.393 245.672 124.301 251.344C115.209 257.015 104.816 260.303 94.0944 260.901C83.3733 261.499 72.6747 259.386 63 254.761L90.536 198H154Z" fill="#CDB4DB"/>
<path d="M62.6653 255C48.4123 248.082 37.2632 236.014 31.4336 221.192C25.6039 206.37 25.5205 189.881 31.1998 175L90 197.794L62.6653 255Z" fill="#FFC8DD"/>
<path d="M31 175.019C35.5082 163.15 43.4049 152.911 53.6832 145.605C63.9615 138.299 76.1557 134.259 88.7105 134L90 198L31 175.019Z" fill="#FFAFCC"/>
<path d="M89 134.013C99.3603 133.799 109.613 136.17 118.856 140.916C128.099 145.663 136.047 152.64 142 161.232L90.2887 198L89 134.013Z" fill="#BDE0FE"/>
<path d="M142.384 161C149.944 171.838 154 184.758 154 198H90L142.384 161Z" fill="#A2D2FF"/>
<rect x="215.99" y="135.5" width="10" height="10" rx="5" fill="#BFDBFE"/>
<rect x="233.99" y="136.5" width="64" height="8" rx="4" fill="#F1F5F9"/>
<rect x="215.99" y="161.5" width="10" height="10" rx="5" fill="#2563EB"/>
<rect x="233.99" y="162.5" width="96" height="8" rx="4" fill="#F1F5F9"/>
<rect x="215.99" y="187.5" width="10" height="10" rx="5" fill="#60A5FA"/>
<rect x="233.99" y="188.5" width="80" height="8" rx="4" fill="#F1F5F9"/>
<rect x="215.99" y="213.5" width="10" height="10" rx="5" fill="#A5B4FC"/>
<rect x="233.99" y="214.5" width="56" height="8" rx="4" fill="#F1F5F9"/>
<rect width="371.333" height="93.5" transform="translate(3 285)" fill="#EEF4FF"/>
<path d="M39 330.27L45.18 334L43.54 326.97L49 322.24L41.81 321.63L39 315L36.19 321.63L29 322.24L34.46 326.97L32.82 334L39 330.27" fill="#3B82F6"/>
<path d="M67.6761 314.787V313.693H75.3125V314.787H72.1108V323.875H70.8778V314.787H67.6761ZM80.8297 320.753V316.239H82.003V323.875H80.8297V322.582H80.7502C80.5712 322.97 80.2928 323.3 79.915 323.572C79.5371 323.84 79.0598 323.974 78.4831 323.974C78.0059 323.974 77.5816 323.87 77.2104 323.661C76.8392 323.449 76.5475 323.131 76.3354 322.707C76.1233 322.279 76.0172 321.741 76.0172 321.091V316.239H77.1905V321.011C77.1905 321.568 77.3463 322.012 77.6578 322.344C77.9727 322.675 78.3738 322.841 78.861 322.841C79.1526 322.841 79.4493 322.766 79.7509 322.617C80.0558 322.468 80.311 322.239 80.5165 321.931C80.7253 321.623 80.8297 321.23 80.8297 320.753ZM84.152 323.875V316.239H85.2855V317.392H85.3651C85.5043 317.014 85.7562 316.708 86.1207 316.472C86.4853 316.237 86.8963 316.119 87.3537 316.119C87.4399 316.119 87.5476 316.121 87.6768 316.124C87.8061 316.128 87.9039 316.133 87.9702 316.139V317.332C87.9304 317.322 87.8393 317.308 87.6967 317.288C87.5575 317.264 87.41 317.253 87.2543 317.253C86.883 317.253 86.5516 317.331 86.2599 317.487C85.9716 317.639 85.7429 317.851 85.5739 318.123C85.4081 318.391 85.3253 318.698 85.3253 319.043V323.875H84.152ZM90.5343 319.281V323.875H89.361V316.239H90.4945V317.432H90.5939C90.7729 317.044 91.0447 316.732 91.4093 316.497C91.7739 316.259 92.2445 316.139 92.8212 316.139C93.3382 316.139 93.7907 316.245 94.1784 316.457C94.5662 316.666 94.8678 316.984 95.0833 317.412C95.2987 317.836 95.4064 318.373 95.4064 319.023V323.875H94.2331V319.102C94.2331 318.502 94.0774 318.035 93.7658 317.7C93.4542 317.362 93.0267 317.193 92.4831 317.193C92.1086 317.193 91.7739 317.274 91.4789 317.437C91.1872 317.599 90.9569 317.836 90.7878 318.148C90.6188 318.459 90.5343 318.837 90.5343 319.281ZM97.5504 323.875V316.239H98.7237V323.875H97.5504ZM98.147 314.966C97.9183 314.966 97.7211 314.888 97.5554 314.732C97.393 314.576 97.3118 314.389 97.3118 314.17C97.3118 313.952 97.393 313.764 97.5554 313.609C97.7211 313.453 97.9183 313.375 98.147 313.375C98.3757 313.375 98.5713 313.453 98.7337 313.609C98.8994 313.764 98.9822 313.952 98.9822 314.17C98.9822 314.389 98.8994 314.576 98.7337 314.732C98.5713 314.888 98.3757 314.966 98.147 314.966ZM102.046 319.281V323.875H100.873V316.239H102.006V317.432H102.106C102.285 317.044 102.556 316.732 102.921 316.497C103.286 316.259 103.756 316.139 104.333 316.139C104.85 316.139 105.302 316.245 105.69 316.457C106.078 316.666 106.38 316.984 106.595 317.412C106.81 317.836 106.918 318.373 106.918 319.023V323.875H105.745V319.102C105.745 318.502 105.589 318.035 105.278 317.7C104.966 317.362 104.538 317.193 103.995 317.193C103.62 317.193 103.286 317.274 102.991 317.437C102.699 317.599 102.469 317.836 102.3 318.148C102.131 318.459 102.046 318.837 102.046 319.281ZM112.145 326.898C111.578 326.898 111.091 326.825 110.683 326.679C110.275 326.536 109.935 326.348 109.664 326.112C109.395 325.88 109.181 325.632 109.022 325.366L109.957 324.71C110.063 324.849 110.197 325.009 110.36 325.188C110.522 325.37 110.744 325.527 111.026 325.66C111.311 325.796 111.684 325.864 112.145 325.864C112.761 325.864 113.27 325.714 113.671 325.416C114.072 325.118 114.272 324.651 114.272 324.014V322.463H114.173C114.087 322.602 113.964 322.775 113.805 322.98C113.649 323.182 113.424 323.363 113.129 323.522C112.837 323.678 112.443 323.756 111.946 323.756C111.329 323.756 110.776 323.61 110.285 323.318C109.798 323.027 109.412 322.602 109.127 322.045C108.845 321.489 108.704 320.812 108.704 320.017C108.704 319.235 108.842 318.554 109.117 317.974C109.392 317.39 109.775 316.94 110.265 316.621C110.756 316.3 111.323 316.139 111.966 316.139C112.463 316.139 112.857 316.222 113.149 316.388C113.444 316.55 113.669 316.736 113.825 316.945C113.984 317.15 114.107 317.319 114.193 317.452H114.312V316.239H115.446V324.094C115.446 324.75 115.297 325.284 114.998 325.695C114.703 326.109 114.306 326.412 113.805 326.604C113.308 326.8 112.754 326.898 112.145 326.898ZM112.105 322.702C112.575 322.702 112.973 322.594 113.298 322.379C113.623 322.163 113.87 321.853 114.039 321.449C114.208 321.045 114.292 320.561 114.292 319.997C114.292 319.447 114.209 318.961 114.044 318.54C113.878 318.12 113.633 317.79 113.308 317.551C112.983 317.312 112.582 317.193 112.105 317.193C111.608 317.193 111.193 317.319 110.862 317.571C110.534 317.823 110.287 318.161 110.121 318.585C109.959 319.009 109.877 319.48 109.877 319.997C109.877 320.527 109.96 320.996 110.126 321.404C110.295 321.808 110.544 322.127 110.872 322.359C111.203 322.587 111.614 322.702 112.105 322.702ZM126.343 320.753V316.239H127.517V323.875H126.343V322.582H126.264C126.085 322.97 125.806 323.3 125.429 323.572C125.051 323.84 124.574 323.974 123.997 323.974C123.52 323.974 123.095 323.87 122.724 323.661C122.353 323.449 122.061 323.131 121.849 322.707C121.637 322.279 121.531 321.741 121.531 321.091V316.239H122.704V321.011C122.704 321.568 122.86 322.012 123.172 322.344C123.486 322.675 123.887 322.841 124.375 322.841C124.666 322.841 124.963 322.766 125.265 322.617C125.569 322.468 125.825 322.239 126.03 321.931C126.239 321.623 126.343 321.23 126.343 320.753ZM130.839 319.281V323.875H129.666V316.239H130.799V317.432H130.899C131.078 317.044 131.349 316.732 131.714 316.497C132.079 316.259 132.549 316.139 133.126 316.139C133.643 316.139 134.095 316.245 134.483 316.457C134.871 316.666 135.173 316.984 135.388 317.412C135.603 317.836 135.711 318.373 135.711 319.023V323.875H134.538V319.102C134.538 318.502 134.382 318.035 134.07 317.7C133.759 317.362 133.331 317.193 132.788 317.193C132.413 317.193 132.079 317.274 131.784 317.437C131.492 317.599 131.262 317.836 131.093 318.148C130.923 318.459 130.839 318.837 130.839 319.281ZM143.264 317.949L142.21 318.247C142.144 318.071 142.046 317.901 141.917 317.735C141.791 317.566 141.619 317.427 141.4 317.317C141.181 317.208 140.901 317.153 140.56 317.153C140.092 317.153 139.703 317.261 139.391 317.477C139.083 317.689 138.929 317.959 138.929 318.287C138.929 318.579 139.035 318.809 139.247 318.978C139.459 319.147 139.791 319.288 140.241 319.401L141.375 319.679C142.058 319.845 142.567 320.098 142.901 320.44C143.236 320.778 143.403 321.214 143.403 321.747C143.403 322.185 143.277 322.576 143.026 322.92C142.777 323.265 142.429 323.537 141.982 323.736C141.534 323.935 141.014 324.034 140.42 324.034C139.642 324.034 138.997 323.865 138.487 323.527C137.976 323.189 137.653 322.695 137.517 322.045L138.631 321.767C138.737 322.178 138.937 322.486 139.232 322.692C139.531 322.897 139.92 323 140.401 323C140.947 323 141.382 322.884 141.703 322.652C142.028 322.417 142.19 322.135 142.19 321.807C142.19 321.542 142.098 321.32 141.912 321.141C141.726 320.958 141.441 320.822 141.057 320.733L139.784 320.435C139.085 320.269 138.571 320.012 138.243 319.664C137.918 319.313 137.756 318.874 137.756 318.347C137.756 317.916 137.877 317.535 138.119 317.203C138.364 316.872 138.697 316.612 139.118 316.423C139.542 316.234 140.023 316.139 140.56 316.139C141.315 316.139 141.909 316.305 142.339 316.636C142.774 316.968 143.082 317.405 143.264 317.949ZM148.491 316.239V317.233H144.533V316.239H148.491ZM145.687 314.409H146.86V321.688C146.86 322.019 146.908 322.268 147.004 322.433C147.104 322.596 147.229 322.705 147.382 322.761C147.538 322.814 147.702 322.841 147.874 322.841C148.003 322.841 148.109 322.834 148.192 322.821C148.275 322.804 148.341 322.791 148.391 322.781L148.63 323.835C148.55 323.865 148.439 323.895 148.297 323.925C148.154 323.958 147.974 323.974 147.755 323.974C147.423 323.974 147.099 323.903 146.78 323.761C146.465 323.618 146.204 323.401 145.995 323.109C145.789 322.818 145.687 322.45 145.687 322.006V314.409ZM150.256 323.875V316.239H151.389V317.392H151.469C151.608 317.014 151.86 316.708 152.224 316.472C152.589 316.237 153 316.119 153.457 316.119C153.543 316.119 153.651 316.121 153.78 316.124C153.91 316.128 154.007 316.133 154.074 316.139V317.332C154.034 317.322 153.943 317.308 153.8 317.288C153.661 317.264 153.514 317.253 153.358 317.253C152.987 317.253 152.655 317.331 152.363 317.487C152.075 317.639 151.846 317.851 151.677 318.123C151.512 318.391 151.429 318.698 151.429 319.043V323.875H150.256ZM160.277 320.753V316.239H161.45V323.875H160.277V322.582H160.197C160.018 322.97 159.74 323.3 159.362 323.572C158.984 323.84 158.507 323.974 157.93 323.974C157.453 323.974 157.029 323.87 156.658 323.661C156.286 323.449 155.995 323.131 155.783 322.707C155.571 322.279 155.464 321.741 155.464 321.091V316.239H156.638V321.011C156.638 321.568 156.794 322.012 157.105 322.344C157.42 322.675 157.821 322.841 158.308 322.841C158.6 322.841 158.897 322.766 159.198 322.617C159.503 322.468 159.758 322.239 159.964 321.931C160.173 321.623 160.277 321.23 160.277 320.753ZM166.702 324.034C165.986 324.034 165.369 323.865 164.852 323.527C164.335 323.189 163.937 322.723 163.659 322.13C163.381 321.537 163.241 320.859 163.241 320.097C163.241 319.321 163.384 318.637 163.669 318.043C163.957 317.447 164.358 316.981 164.872 316.646C165.389 316.308 165.992 316.139 166.682 316.139C167.219 316.139 167.702 316.239 168.133 316.438C168.564 316.636 168.917 316.915 169.192 317.273C169.467 317.631 169.638 318.048 169.704 318.526H168.531C168.442 318.178 168.243 317.869 167.934 317.601C167.63 317.329 167.219 317.193 166.702 317.193C166.244 317.193 165.843 317.312 165.498 317.551C165.157 317.786 164.89 318.12 164.698 318.55C164.509 318.978 164.415 319.48 164.415 320.057C164.415 320.647 164.507 321.161 164.693 321.598C164.882 322.036 165.147 322.375 165.488 322.617C165.833 322.859 166.238 322.98 166.702 322.98C167.006 322.98 167.283 322.927 167.532 322.821C167.78 322.715 167.991 322.562 168.163 322.364C168.336 322.165 168.458 321.926 168.531 321.648H169.704C169.638 322.098 169.474 322.504 169.212 322.866C168.954 323.224 168.611 323.509 168.183 323.721C167.759 323.93 167.265 324.034 166.702 324.034ZM174.741 316.239V317.233H170.783V316.239H174.741ZM171.937 314.409H173.11V321.688C173.11 322.019 173.158 322.268 173.254 322.433C173.354 322.596 173.479 322.705 173.632 322.761C173.788 322.814 173.952 322.841 174.124 322.841C174.253 322.841 174.359 322.834 174.442 322.821C174.525 322.804 174.591 322.791 174.641 322.781L174.88 323.835C174.8 323.865 174.689 323.895 174.547 323.925C174.404 323.958 174.224 323.974 174.005 323.974C173.673 323.974 173.349 323.903 173.03 323.761C172.715 323.618 172.454 323.401 172.245 323.109C172.039 322.818 171.937 322.45 171.937 322.006V314.409ZM181.318 320.753V316.239H182.491V323.875H181.318V322.582H181.238C181.059 322.97 180.781 323.3 180.403 323.572C180.025 323.84 179.548 323.974 178.971 323.974C178.494 323.974 178.07 323.87 177.699 323.661C177.327 323.449 177.036 323.131 176.824 322.707C176.612 322.279 176.506 321.741 176.506 321.091V316.239H177.679V321.011C177.679 321.568 177.835 322.012 178.146 322.344C178.461 322.675 178.862 322.841 179.349 322.841C179.641 322.841 179.938 322.766 180.239 322.617C180.544 322.468 180.799 322.239 181.005 321.931C181.214 321.623 181.318 321.23 181.318 320.753ZM184.64 323.875V316.239H185.774V317.392H185.853C185.993 317.014 186.244 316.708 186.609 316.472C186.974 316.237 187.385 316.119 187.842 316.119C187.928 316.119 188.036 316.121 188.165 316.124C188.294 316.128 188.392 316.133 188.458 316.139V317.332C188.419 317.322 188.328 317.308 188.185 317.288C188.046 317.264 187.898 317.253 187.743 317.253C187.371 317.253 187.04 317.331 186.748 317.487C186.46 317.639 186.231 317.851 186.062 318.123C185.896 318.391 185.814 318.698 185.814 319.043V323.875H184.64ZM192.819 324.034C192.083 324.034 191.448 323.872 190.914 323.547C190.384 323.219 189.975 322.761 189.686 322.175C189.401 321.585 189.259 320.899 189.259 320.116C189.259 319.334 189.401 318.645 189.686 318.048C189.975 317.448 190.376 316.981 190.89 316.646C191.407 316.308 192.01 316.139 192.699 316.139C193.097 316.139 193.49 316.205 193.877 316.338C194.265 316.471 194.618 316.686 194.936 316.984C195.255 317.279 195.508 317.67 195.697 318.158C195.886 318.645 195.98 319.245 195.98 319.957V320.455H190.094V319.44H194.787C194.787 319.009 194.701 318.625 194.529 318.287C194.36 317.949 194.118 317.682 193.803 317.487C193.491 317.291 193.123 317.193 192.699 317.193C192.232 317.193 191.828 317.309 191.486 317.541C191.148 317.77 190.888 318.068 190.706 318.436C190.523 318.804 190.432 319.198 190.432 319.619V320.295C190.432 320.872 190.532 321.361 190.73 321.762C190.933 322.16 191.213 322.463 191.571 322.672C191.929 322.877 192.345 322.98 192.819 322.98C193.127 322.98 193.405 322.937 193.654 322.851C193.906 322.761 194.123 322.629 194.305 322.453C194.487 322.274 194.628 322.052 194.728 321.787L195.861 322.105C195.742 322.49 195.541 322.828 195.26 323.119C194.978 323.408 194.63 323.633 194.216 323.795C193.801 323.955 193.336 324.034 192.819 324.034ZM200.649 324.034C200.012 324.034 199.451 323.873 198.963 323.552C198.476 323.227 198.095 322.77 197.82 322.18C197.545 321.586 197.407 320.885 197.407 320.077C197.407 319.275 197.545 318.579 197.82 317.989C198.095 317.399 198.478 316.943 198.968 316.621C199.459 316.3 200.026 316.139 200.669 316.139C201.166 316.139 201.559 316.222 201.847 316.388C202.139 316.55 202.361 316.736 202.513 316.945C202.669 317.15 202.79 317.319 202.876 317.452H202.975V313.693H204.149V323.875H203.015V322.702H202.876C202.79 322.841 202.667 323.017 202.508 323.229C202.349 323.437 202.122 323.625 201.827 323.79C201.532 323.953 201.139 324.034 200.649 324.034ZM200.808 322.98C201.279 322.98 201.676 322.857 202.001 322.612C202.326 322.364 202.573 322.021 202.742 321.583C202.911 321.142 202.995 320.634 202.995 320.057C202.995 319.487 202.913 318.988 202.747 318.56C202.581 318.129 202.336 317.795 202.011 317.556C201.686 317.314 201.285 317.193 200.808 317.193C200.311 317.193 199.896 317.321 199.565 317.576C199.237 317.828 198.99 318.171 198.824 318.605C198.662 319.036 198.581 319.52 198.581 320.057C198.581 320.6 198.663 321.094 198.829 321.538C198.998 321.979 199.247 322.33 199.575 322.592C199.906 322.851 200.317 322.98 200.808 322.98ZM213.282 324.034C212.645 324.034 212.083 323.873 211.596 323.552C211.109 323.227 210.728 322.77 210.453 322.18C210.178 321.586 210.04 320.885 210.04 320.077C210.04 319.275 210.178 318.579 210.453 317.989C210.728 317.399 211.111 316.943 211.601 316.621C212.092 316.3 212.658 316.139 213.301 316.139C213.799 316.139 214.191 316.222 214.48 316.388C214.771 316.55 214.993 316.736 215.146 316.945C215.302 317.15 215.423 317.319 215.509 317.452H215.608V313.693H216.782V323.875H215.648V322.702H215.509C215.423 322.841 215.3 323.017 215.141 323.229C214.982 323.437 214.755 323.625 214.46 323.79C214.165 323.953 213.772 324.034 213.282 324.034ZM213.441 322.98C213.911 322.98 214.309 322.857 214.634 322.612C214.959 322.364 215.206 322.021 215.375 321.583C215.544 321.142 215.628 320.634 215.628 320.057C215.628 319.487 215.545 318.988 215.38 318.56C215.214 318.129 214.969 317.795 214.644 317.556C214.319 317.314 213.918 317.193 213.441 317.193C212.944 317.193 212.529 317.321 212.198 317.576C211.87 317.828 211.623 318.171 211.457 318.605C211.295 319.036 211.213 319.52 211.213 320.057C211.213 320.6 211.296 321.094 211.462 321.538C211.631 321.979 211.88 322.33 212.208 322.592C212.539 322.851 212.95 322.98 213.441 322.98ZM221.341 324.054C220.857 324.054 220.417 323.963 220.023 323.781C219.629 323.595 219.315 323.328 219.083 322.98C218.851 322.629 218.735 322.205 218.735 321.707C218.735 321.27 218.822 320.915 218.994 320.643C219.166 320.368 219.397 320.153 219.685 319.997C219.973 319.841 220.292 319.725 220.64 319.649C220.991 319.57 221.344 319.507 221.699 319.46C222.163 319.401 222.539 319.356 222.827 319.326C223.119 319.293 223.331 319.238 223.463 319.162C223.599 319.086 223.667 318.953 223.667 318.764V318.724C223.667 318.234 223.533 317.853 223.265 317.581C222.999 317.309 222.597 317.173 222.056 317.173C221.496 317.173 221.057 317.296 220.739 317.541C220.421 317.786 220.197 318.048 220.068 318.327L218.954 317.929C219.153 317.465 219.418 317.104 219.75 316.845C220.084 316.583 220.449 316.401 220.843 316.298C221.241 316.192 221.632 316.139 222.017 316.139C222.262 316.139 222.544 316.169 222.862 316.229C223.183 316.285 223.493 316.403 223.792 316.582C224.093 316.761 224.343 317.031 224.542 317.392C224.741 317.753 224.841 318.237 224.841 318.844V323.875H223.667V322.841H223.608C223.528 323.007 223.395 323.184 223.21 323.373C223.024 323.562 222.777 323.723 222.469 323.855C222.161 323.988 221.785 324.054 221.341 324.054ZM221.52 323C221.984 323 222.375 322.909 222.693 322.727C223.014 322.544 223.256 322.309 223.419 322.021C223.584 321.732 223.667 321.429 223.667 321.111V320.037C223.618 320.097 223.508 320.151 223.339 320.201C223.173 320.247 222.981 320.289 222.762 320.325C222.547 320.358 222.337 320.388 222.131 320.415C221.929 320.438 221.765 320.458 221.639 320.474C221.334 320.514 221.049 320.579 220.784 320.668C220.522 320.754 220.31 320.885 220.147 321.061C219.988 321.233 219.909 321.469 219.909 321.767C219.909 322.175 220.06 322.483 220.361 322.692C220.666 322.897 221.052 323 221.52 323ZM230.303 316.239V317.233H226.346V316.239H230.303ZM227.499 314.409H228.672V321.688C228.672 322.019 228.72 322.268 228.817 322.433C228.916 322.596 229.042 322.705 229.194 322.761C229.35 322.814 229.514 322.841 229.687 322.841C229.816 322.841 229.922 322.834 230.005 322.821C230.088 322.804 230.154 322.791 230.204 322.781L230.442 323.835C230.363 323.865 230.252 323.895 230.109 323.925C229.967 323.958 229.786 323.974 229.567 323.974C229.236 323.974 228.911 323.903 228.593 323.761C228.278 323.618 228.016 323.401 227.807 323.109C227.602 322.818 227.499 322.45 227.499 322.006V314.409ZM234.315 324.054C233.831 324.054 233.392 323.963 232.998 323.781C232.603 323.595 232.29 323.328 232.058 322.98C231.826 322.629 231.71 322.205 231.71 321.707C231.71 321.27 231.796 320.915 231.969 320.643C232.141 320.368 232.371 320.153 232.66 319.997C232.948 319.841 233.266 319.725 233.614 319.649C233.965 319.57 234.318 319.507 234.673 319.46C235.137 319.401 235.513 319.356 235.802 319.326C236.093 319.293 236.305 319.238 236.438 319.162C236.574 319.086 236.642 318.953 236.642 318.764V318.724C236.642 318.234 236.508 317.853 236.239 317.581C235.974 317.309 235.571 317.173 235.031 317.173C234.471 317.173 234.032 317.296 233.714 317.541C233.395 317.786 233.172 318.048 233.042 318.327L231.929 317.929C232.128 317.465 232.393 317.104 232.724 316.845C233.059 316.583 233.424 316.401 233.818 316.298C234.216 316.192 234.607 316.139 234.991 316.139C235.237 316.139 235.518 316.169 235.836 316.229C236.158 316.285 236.468 316.403 236.766 316.582C237.068 316.761 237.318 317.031 237.517 317.392C237.716 317.753 237.815 318.237 237.815 318.844V323.875H236.642V322.841H236.582C236.503 323.007 236.37 323.184 236.184 323.373C235.999 323.562 235.752 323.723 235.444 323.855C235.135 323.988 234.759 324.054 234.315 324.054ZM234.494 323C234.958 323 235.349 322.909 235.667 322.727C235.989 322.544 236.231 322.309 236.393 322.021C236.559 321.732 236.642 321.429 236.642 321.111V320.037C236.592 320.097 236.483 320.151 236.314 320.201C236.148 320.247 235.956 320.289 235.737 320.325C235.522 320.358 235.311 320.388 235.106 320.415C234.903 320.438 234.739 320.458 234.613 320.474C234.309 320.514 234.023 320.579 233.758 320.668C233.497 320.754 233.284 320.885 233.122 321.061C232.963 321.233 232.883 321.469 232.883 321.767C232.883 322.175 233.034 322.483 233.336 322.692C233.641 322.897 234.027 323 234.494 323ZM243.894 323.875V316.239H245.067V323.875H243.894ZM244.491 314.966C244.262 314.966 244.065 314.888 243.899 314.732C243.737 314.576 243.656 314.389 243.656 314.17C243.656 313.952 243.737 313.764 243.899 313.609C244.065 313.453 244.262 313.375 244.491 313.375C244.719 313.375 244.915 313.453 245.077 313.609C245.243 313.764 245.326 313.952 245.326 314.17C245.326 314.389 245.243 314.576 245.077 314.732C244.915 314.888 244.719 314.966 244.491 314.966ZM248.39 319.281V323.875H247.216V316.239H248.35V317.432H248.449C248.628 317.044 248.9 316.732 249.265 316.497C249.629 316.259 250.1 316.139 250.677 316.139C251.194 316.139 251.646 316.245 252.034 316.457C252.422 316.666 252.723 316.984 252.939 317.412C253.154 317.836 253.262 318.373 253.262 319.023V323.875H252.089V319.102C252.089 318.502 251.933 318.035 251.621 317.7C251.31 317.362 250.882 317.193 250.339 317.193C249.964 317.193 249.629 317.274 249.334 317.437C249.043 317.599 248.812 317.836 248.643 318.148C248.474 318.459 248.39 318.837 248.39 319.281ZM258.727 316.239V317.233H254.77V316.239H258.727ZM255.923 314.409H257.096V321.688C257.096 322.019 257.144 322.268 257.24 322.433C257.34 322.596 257.466 322.705 257.618 322.761C257.774 322.814 257.938 322.841 258.11 322.841C258.24 322.841 258.346 322.834 258.429 322.821C258.511 322.804 258.578 322.791 258.627 322.781L258.866 323.835C258.787 323.865 258.676 323.895 258.533 323.925C258.391 323.958 258.21 323.974 257.991 323.974C257.66 323.974 257.335 323.903 257.017 323.761C256.702 323.618 256.44 323.401 256.231 323.109C256.026 322.818 255.923 322.45 255.923 322.006V314.409ZM263.512 324.034C262.823 324.034 262.218 323.87 261.697 323.542C261.18 323.214 260.776 322.755 260.484 322.165C260.196 321.575 260.052 320.885 260.052 320.097C260.052 319.301 260.196 318.607 260.484 318.013C260.776 317.42 261.18 316.96 261.697 316.631C262.218 316.303 262.823 316.139 263.512 316.139C264.201 316.139 264.805 316.303 265.322 316.631C265.842 316.96 266.246 317.42 266.535 318.013C266.826 318.607 266.972 319.301 266.972 320.097C266.972 320.885 266.826 321.575 266.535 322.165C266.246 322.755 265.842 323.214 265.322 323.542C264.805 323.87 264.201 324.034 263.512 324.034ZM263.512 322.98C264.036 322.98 264.467 322.846 264.805 322.577C265.143 322.309 265.393 321.956 265.555 321.518C265.718 321.081 265.799 320.607 265.799 320.097C265.799 319.586 265.718 319.111 265.555 318.67C265.393 318.229 265.143 317.873 264.805 317.601C264.467 317.329 264.036 317.193 263.512 317.193C262.988 317.193 262.558 317.329 262.219 317.601C261.881 317.873 261.631 318.229 261.469 318.67C261.306 319.111 261.225 319.586 261.225 320.097C261.225 320.607 261.306 321.081 261.469 321.518C261.631 321.956 261.881 322.309 262.219 322.577C262.558 322.846 262.988 322.98 263.512 322.98ZM272.701 323.875V316.239H273.874V323.875H272.701ZM273.297 314.966C273.069 314.966 272.872 314.888 272.706 314.732C272.543 314.576 272.462 314.389 272.462 314.17C272.462 313.952 272.543 313.764 272.706 313.609C272.872 313.453 273.069 313.375 273.297 313.375C273.526 313.375 273.722 313.453 273.884 313.609C274.05 313.764 274.133 313.952 274.133 314.17C274.133 314.389 274.05 314.576 273.884 314.732C273.722 314.888 273.526 314.966 273.297 314.966ZM277.196 319.281V323.875H276.023V316.239H277.157V317.432H277.256C277.435 317.044 277.707 316.732 278.071 316.497C278.436 316.259 278.907 316.139 279.483 316.139C280 316.139 280.453 316.245 280.841 316.457C281.228 316.666 281.53 316.984 281.745 317.412C281.961 317.836 282.069 318.373 282.069 319.023V323.875H280.895V319.102C280.895 318.502 280.739 318.035 280.428 317.7C280.116 317.362 279.689 317.193 279.145 317.193C278.771 317.193 278.436 317.274 278.141 317.437C277.849 317.599 277.619 317.836 277.45 318.148C277.281 318.459 277.196 318.837 277.196 319.281ZM289.622 317.949L288.568 318.247C288.501 318.071 288.404 317.901 288.274 317.735C288.148 317.566 287.976 317.427 287.757 317.317C287.539 317.208 287.258 317.153 286.917 317.153C286.45 317.153 286.06 317.261 285.749 317.477C285.441 317.689 285.286 317.959 285.286 318.287C285.286 318.579 285.392 318.809 285.605 318.978C285.817 319.147 286.148 319.288 286.599 319.401L287.732 319.679C288.415 319.845 288.924 320.098 289.259 320.44C289.593 320.778 289.761 321.214 289.761 321.747C289.761 322.185 289.635 322.576 289.383 322.92C289.134 323.265 288.786 323.537 288.339 323.736C287.892 323.935 287.371 324.034 286.778 324.034C285.999 324.034 285.354 323.865 284.844 323.527C284.334 323.189 284.01 322.695 283.874 322.045L284.988 321.767C285.094 322.178 285.295 322.486 285.59 322.692C285.888 322.897 286.277 323 286.758 323C287.305 323 287.739 322.884 288.061 322.652C288.385 322.417 288.548 322.135 288.548 321.807C288.548 321.542 288.455 321.32 288.269 321.141C288.084 320.958 287.799 320.822 287.414 320.733L286.142 320.435C285.442 320.269 284.928 320.012 284.6 319.664C284.276 319.313 284.113 318.874 284.113 318.347C284.113 317.916 284.234 317.535 284.476 317.203C284.721 316.872 285.054 316.612 285.475 316.423C285.9 316.234 286.38 316.139 286.917 316.139C287.673 316.139 288.266 316.305 288.697 316.636C289.131 316.968 289.439 317.405 289.622 317.949ZM291.527 323.875V316.239H292.7V323.875H291.527ZM292.124 314.966C291.895 314.966 291.698 314.888 291.532 314.732C291.37 314.576 291.288 314.389 291.288 314.17C291.288 313.952 291.37 313.764 291.532 313.609C291.698 313.453 291.895 313.375 292.124 313.375C292.352 313.375 292.548 313.453 292.71 313.609C292.876 313.764 292.959 313.952 292.959 314.17C292.959 314.389 292.876 314.576 292.71 314.732C292.548 314.888 292.352 314.966 292.124 314.966ZM297.932 326.898C297.365 326.898 296.878 326.825 296.47 326.679C296.062 326.536 295.723 326.348 295.451 326.112C295.182 325.88 294.969 325.632 294.809 325.366L295.744 324.71C295.85 324.849 295.984 325.009 296.147 325.188C296.309 325.37 296.531 325.527 296.813 325.66C297.098 325.796 297.471 325.864 297.932 325.864C298.548 325.864 299.057 325.714 299.458 325.416C299.859 325.118 300.059 324.651 300.059 324.014V322.463H299.96C299.874 322.602 299.751 322.775 299.592 322.98C299.436 323.182 299.211 323.363 298.916 323.522C298.624 323.678 298.23 323.756 297.733 323.756C297.116 323.756 296.563 323.61 296.072 323.318C295.585 323.027 295.199 322.602 294.914 322.045C294.632 321.489 294.491 320.812 294.491 320.017C294.491 319.235 294.629 318.554 294.904 317.974C295.179 317.39 295.562 316.94 296.052 316.621C296.543 316.3 297.11 316.139 297.753 316.139C298.25 316.139 298.644 316.222 298.936 316.388C299.231 316.55 299.456 316.736 299.612 316.945C299.771 317.15 299.894 317.319 299.98 317.452H300.099V316.239H301.233V324.094C301.233 324.75 301.084 325.284 300.785 325.695C300.49 326.109 300.093 326.412 299.592 326.604C299.095 326.8 298.541 326.898 297.932 326.898ZM297.892 322.702C298.363 322.702 298.76 322.594 299.085 322.379C299.41 322.163 299.657 321.853 299.826 321.449C299.995 321.045 300.079 320.561 300.079 319.997C300.079 319.447 299.997 318.961 299.831 318.54C299.665 318.12 299.42 317.79 299.095 317.551C298.77 317.312 298.369 317.193 297.892 317.193C297.395 317.193 296.98 317.319 296.649 317.571C296.321 317.823 296.074 318.161 295.908 318.585C295.746 319.009 295.665 319.48 295.665 319.997C295.665 320.527 295.747 320.996 295.913 321.404C296.082 321.808 296.331 322.127 296.659 322.359C296.99 322.587 297.401 322.702 297.892 322.702ZM304.554 319.281V323.875H303.381V313.693H304.554V317.432H304.653C304.832 317.037 305.101 316.724 305.459 316.492C305.82 316.257 306.3 316.139 306.9 316.139C307.421 316.139 307.876 316.244 308.268 316.452C308.659 316.658 308.962 316.974 309.177 317.402C309.396 317.826 309.506 318.366 309.506 319.023V323.875H308.332V319.102C308.332 318.496 308.175 318.027 307.86 317.695C307.548 317.361 307.116 317.193 306.562 317.193C306.178 317.193 305.833 317.274 305.528 317.437C305.227 317.599 304.988 317.836 304.812 318.148C304.64 318.459 304.554 318.837 304.554 319.281ZM314.973 316.239V317.233H311.016V316.239H314.973ZM312.169 314.409H313.342V321.688C313.342 322.019 313.39 322.268 313.487 322.433C313.586 322.596 313.712 322.705 313.864 322.761C314.02 322.814 314.184 322.841 314.357 322.841C314.486 322.841 314.592 322.834 314.675 322.821C314.758 322.804 314.824 322.791 314.874 322.781L315.112 323.835C315.033 323.865 314.922 323.895 314.779 323.925C314.637 323.958 314.456 323.974 314.237 323.974C313.906 323.974 313.581 323.903 313.263 323.761C312.948 323.618 312.686 323.401 312.477 323.109C312.272 322.818 312.169 322.45 312.169 322.006V314.409ZM322.01 317.949L320.956 318.247C320.89 318.071 320.792 317.901 320.663 317.735C320.537 317.566 320.365 317.427 320.146 317.317C319.927 317.208 319.647 317.153 319.306 317.153C318.838 317.153 318.449 317.261 318.137 317.477C317.829 317.689 317.675 317.959 317.675 318.287C317.675 318.579 317.781 318.809 317.993 318.978C318.205 319.147 318.537 319.288 318.988 319.401L320.121 319.679C320.804 319.845 321.313 320.098 321.647 320.44C321.982 320.778 322.15 321.214 322.15 321.747C322.15 322.185 322.024 322.576 321.772 322.92C321.523 323.265 321.175 323.537 320.728 323.736C320.28 323.935 319.76 324.034 319.167 324.034C318.388 324.034 317.743 323.865 317.233 323.527C316.722 323.189 316.399 322.695 316.263 322.045L317.377 321.767C317.483 322.178 317.683 322.486 317.978 322.692C318.277 322.897 318.666 323 319.147 323C319.694 323 320.128 322.884 320.449 322.652C320.774 322.417 320.936 322.135 320.936 321.807C320.936 321.542 320.844 321.32 320.658 321.141C320.472 320.958 320.187 320.822 319.803 320.733L318.53 320.435C317.831 320.269 317.317 320.012 316.989 319.664C316.664 319.313 316.502 318.874 316.502 318.347C316.502 317.916 316.623 317.535 316.865 317.203C317.11 316.872 317.443 316.612 317.864 316.423C318.288 316.234 318.769 316.139 319.306 316.139C320.061 316.139 320.655 316.305 321.086 316.636C321.52 316.968 321.828 317.405 322.01 317.949ZM336.842 318.963V320.057H322.842V318.963H336.842ZM71.3949 339.239V340.233H67.4375V339.239H71.3949ZM68.5909 337.409H69.7642V344.688C69.7642 345.019 69.8123 345.268 69.9084 345.433C70.0078 345.596 70.1338 345.705 70.2862 345.761C70.442 345.814 70.6061 345.841 70.7784 345.841C70.9077 345.841 71.0137 345.834 71.0966 345.821C71.1795 345.804 71.2457 345.791 71.2955 345.781L71.5341 346.835C71.4545 346.865 71.3435 346.895 71.201 346.925C71.0585 346.958 70.8778 346.974 70.6591 346.974C70.3277 346.974 70.0028 346.903 69.6847 346.761C69.3698 346.618 69.108 346.401 68.8991 346.109C68.6937 345.818 68.5909 345.45 68.5909 345.006V337.409ZM73.1598 346.875V339.239H74.2933V340.392H74.3729C74.5121 340.014 74.764 339.708 75.1286 339.472C75.4931 339.237 75.9041 339.119 76.3615 339.119C76.4477 339.119 76.5554 339.121 76.6847 339.124C76.8139 339.128 76.9117 339.133 76.978 339.139V340.332C76.9382 340.322 76.8471 340.308 76.7045 340.288C76.5653 340.264 76.4179 340.253 76.2621 340.253C75.8909 340.253 75.5594 340.331 75.2678 340.487C74.9794 340.639 74.7507 340.851 74.5817 341.123C74.416 341.391 74.3331 341.698 74.3331 342.043V346.875H73.1598ZM81.3381 347.034C80.6023 347.034 79.9676 346.872 79.4339 346.547C78.9036 346.219 78.4943 345.761 78.206 345.175C77.9209 344.585 77.7784 343.899 77.7784 343.116C77.7784 342.334 77.9209 341.645 78.206 341.048C78.4943 340.448 78.8954 339.981 79.4091 339.646C79.9261 339.308 80.5294 339.139 81.2188 339.139C81.6165 339.139 82.0092 339.205 82.397 339.338C82.7848 339.471 83.1378 339.686 83.456 339.984C83.7741 340.279 84.0277 340.67 84.2166 341.158C84.4055 341.645 84.5 342.245 84.5 342.957V343.455H78.6136V342.44H83.3068C83.3068 342.009 83.2206 341.625 83.0483 341.287C82.8793 340.949 82.6373 340.682 82.3224 340.487C82.0109 340.291 81.643 340.193 81.2188 340.193C80.7514 340.193 80.3471 340.309 80.0057 340.541C79.6676 340.77 79.4074 341.068 79.2251 341.436C79.0429 341.804 78.9517 342.198 78.9517 342.619V343.295C78.9517 343.872 79.0511 344.361 79.25 344.762C79.4522 345.16 79.7322 345.463 80.0902 345.672C80.4482 345.877 80.8641 345.98 81.3381 345.98C81.6463 345.98 81.9247 345.937 82.1733 345.851C82.4252 345.761 82.6423 345.629 82.8246 345.453C83.0069 345.274 83.1477 345.052 83.2472 344.787L84.3807 345.105C84.2614 345.49 84.0608 345.828 83.7791 346.119C83.4974 346.408 83.1494 346.633 82.7351 346.795C82.3208 346.955 81.8551 347.034 81.3381 347.034ZM87.4581 342.281V346.875H86.2848V339.239H87.4183V340.432H87.5178C87.6967 340.044 87.9685 339.732 88.3331 339.497C88.6977 339.259 89.1683 339.139 89.745 339.139C90.2621 339.139 90.7145 339.245 91.1023 339.457C91.4901 339.666 91.7917 339.984 92.0071 340.412C92.2225 340.836 92.3303 341.373 92.3303 342.023V346.875H91.157V342.102C91.157 341.502 91.0012 341.035 90.6896 340.7C90.3781 340.362 89.9505 340.193 89.407 340.193C89.0324 340.193 88.6977 340.274 88.4027 340.437C88.111 340.599 87.8807 340.836 87.7116 341.148C87.5426 341.459 87.4581 341.837 87.4581 342.281ZM97.3578 347.034C96.7214 347.034 96.1596 346.873 95.6724 346.552C95.1852 346.227 94.804 345.77 94.5289 345.18C94.2538 344.586 94.1163 343.885 94.1163 343.077C94.1163 342.275 94.2538 341.579 94.5289 340.989C94.804 340.399 95.1868 339.943 95.6774 339.621C96.1679 339.3 96.7347 339.139 97.3777 339.139C97.8748 339.139 98.2676 339.222 98.5559 339.388C98.8476 339.55 99.0697 339.736 99.2221 339.945C99.3779 340.15 99.4989 340.319 99.585 340.452H99.6845V336.693H100.858V346.875H99.7243V345.702H99.585C99.4989 345.841 99.3762 346.017 99.2172 346.229C99.0581 346.437 98.831 346.625 98.536 346.79C98.2411 346.953 97.8483 347.034 97.3578 347.034ZM97.5169 345.98C97.9875 345.98 98.3852 345.857 98.71 345.612C99.0349 345.364 99.2818 345.021 99.4508 344.583C99.6199 344.142 99.7044 343.634 99.7044 343.057C99.7044 342.487 99.6215 341.988 99.4558 341.56C99.2901 341.129 99.0448 340.795 98.72 340.556C98.3952 340.314 97.9941 340.193 97.5169 340.193C97.0197 340.193 96.6054 340.321 96.274 340.576C95.9458 340.828 95.6989 341.171 95.5332 341.605C95.3708 342.036 95.2896 342.52 95.2896 343.057C95.2896 343.6 95.3725 344.094 95.5382 344.538C95.7072 344.979 95.9558 345.33 96.2839 345.592C96.6154 345.851 97.0263 345.98 97.5169 345.98ZM108.579 340.949L107.525 341.247C107.458 341.071 107.361 340.901 107.231 340.735C107.105 340.566 106.933 340.427 106.714 340.317C106.496 340.208 106.215 340.153 105.874 340.153C105.407 340.153 105.017 340.261 104.706 340.477C104.398 340.689 104.243 340.959 104.243 341.287C104.243 341.579 104.349 341.809 104.562 341.978C104.774 342.147 105.105 342.288 105.556 342.401L106.689 342.679C107.372 342.845 107.881 343.098 108.216 343.44C108.55 343.778 108.718 344.214 108.718 344.747C108.718 345.185 108.592 345.576 108.34 345.92C108.091 346.265 107.743 346.537 107.296 346.736C106.849 346.935 106.328 347.034 105.735 347.034C104.956 347.034 104.311 346.865 103.801 346.527C103.291 346.189 102.967 345.695 102.831 345.045L103.945 344.767C104.051 345.178 104.252 345.486 104.547 345.692C104.845 345.897 105.234 346 105.715 346C106.262 346 106.696 345.884 107.018 345.652C107.342 345.417 107.505 345.135 107.505 344.807C107.505 344.542 107.412 344.32 107.226 344.141C107.041 343.958 106.756 343.822 106.371 343.733L105.099 343.435C104.399 343.269 103.885 343.012 103.557 342.664C103.233 342.313 103.07 341.874 103.07 341.347C103.07 340.916 103.191 340.535 103.433 340.203C103.678 339.872 104.011 339.612 104.432 339.423C104.857 339.234 105.337 339.139 105.874 339.139C106.63 339.139 107.223 339.305 107.654 339.636C108.088 339.968 108.396 340.405 108.579 340.949ZM112.234 345.483L112.154 346.02C112.098 346.398 112.012 346.802 111.896 347.233C111.783 347.664 111.666 348.07 111.543 348.451C111.42 348.832 111.319 349.135 111.24 349.361H110.345C110.388 349.149 110.444 348.869 110.514 348.521C110.583 348.173 110.653 347.783 110.723 347.352C110.796 346.925 110.855 346.487 110.902 346.04L110.961 345.483H112.234ZM121.666 339.239V340.233H117.709V339.239H121.666ZM118.862 337.409H120.036V344.688C120.036 345.019 120.084 345.268 120.18 345.433C120.279 345.596 120.405 345.705 120.558 345.761C120.713 345.814 120.878 345.841 121.05 345.841C121.179 345.841 121.285 345.834 121.368 345.821C121.451 345.804 121.517 345.791 121.567 345.781L121.806 346.835C121.726 346.865 121.615 346.895 121.472 346.925C121.33 346.958 121.149 346.974 120.931 346.974C120.599 346.974 120.274 346.903 119.956 346.761C119.641 346.618 119.379 346.401 119.171 346.109C118.965 345.818 118.862 345.45 118.862 345.006V337.409ZM124.769 342.281V346.875H123.595V336.693H124.769V340.432H124.868C125.047 340.037 125.316 339.724 125.673 339.492C126.035 339.257 126.515 339.139 127.115 339.139C127.636 339.139 128.091 339.244 128.482 339.452C128.874 339.658 129.177 339.974 129.392 340.402C129.611 340.826 129.72 341.366 129.72 342.023V346.875H128.547V342.102C128.547 341.496 128.39 341.027 128.075 340.695C127.763 340.361 127.331 340.193 126.777 340.193C126.393 340.193 126.048 340.274 125.743 340.437C125.441 340.599 125.203 340.836 125.027 341.148C124.855 341.459 124.769 341.837 124.769 342.281ZM135.069 347.034C134.333 347.034 133.698 346.872 133.164 346.547C132.634 346.219 132.225 345.761 131.936 345.175C131.651 344.585 131.509 343.899 131.509 343.116C131.509 342.334 131.651 341.645 131.936 341.048C132.225 340.448 132.626 339.981 133.14 339.646C133.657 339.308 134.26 339.139 134.949 339.139C135.347 339.139 135.74 339.205 136.127 339.338C136.515 339.471 136.868 339.686 137.186 339.984C137.505 340.279 137.758 340.67 137.947 341.158C138.136 341.645 138.23 342.245 138.23 342.957V343.455H132.344V342.44H137.037C137.037 342.009 136.951 341.625 136.779 341.287C136.61 340.949 136.368 340.682 136.053 340.487C135.741 340.291 135.373 340.193 134.949 340.193C134.482 340.193 134.078 340.309 133.736 340.541C133.398 340.77 133.138 341.068 132.956 341.436C132.773 341.804 132.682 342.198 132.682 342.619V343.295C132.682 343.872 132.782 344.361 132.98 344.762C133.183 345.16 133.463 345.463 133.821 345.672C134.179 345.877 134.595 345.98 135.069 345.98C135.377 345.98 135.655 345.937 135.904 345.851C136.156 345.761 136.373 345.629 136.555 345.453C136.737 345.274 136.878 345.052 136.978 344.787L138.111 345.105C137.992 345.49 137.791 345.828 137.51 346.119C137.228 346.408 136.88 346.633 136.466 346.795C136.051 346.955 135.586 347.034 135.069 347.034ZM140.015 346.875V339.239H141.149V340.432H141.248C141.407 340.024 141.664 339.708 142.019 339.482C142.373 339.254 142.799 339.139 143.297 339.139C143.8 339.139 144.22 339.254 144.554 339.482C144.892 339.708 145.156 340.024 145.345 340.432H145.424C145.62 340.037 145.913 339.724 146.304 339.492C146.695 339.257 147.164 339.139 147.711 339.139C148.394 339.139 148.953 339.353 149.387 339.781C149.821 340.205 150.038 340.866 150.038 341.764V346.875H148.865V341.764C148.865 341.201 148.711 340.798 148.402 340.556C148.094 340.314 147.731 340.193 147.314 340.193C146.777 340.193 146.361 340.356 146.066 340.68C145.771 341.002 145.623 341.41 145.623 341.903V346.875H144.43V341.645C144.43 341.211 144.289 340.861 144.007 340.596C143.726 340.327 143.363 340.193 142.919 340.193C142.614 340.193 142.329 340.274 142.064 340.437C141.802 340.599 141.59 340.825 141.427 341.113C141.268 341.398 141.189 341.728 141.189 342.102V346.875H140.015ZM155.385 347.034C154.649 347.034 154.014 346.872 153.481 346.547C152.951 346.219 152.541 345.761 152.253 345.175C151.968 344.585 151.825 343.899 151.825 343.116C151.825 342.334 151.968 341.645 152.253 341.048C152.541 340.448 152.942 339.981 153.456 339.646C153.973 339.308 154.576 339.139 155.266 339.139C155.663 339.139 156.056 339.205 156.444 339.338C156.832 339.471 157.185 339.686 157.503 339.984C157.821 340.279 158.075 340.67 158.263 341.158C158.452 341.645 158.547 342.245 158.547 342.957V343.455H152.661V342.44H157.354C157.354 342.009 157.268 341.625 157.095 341.287C156.926 340.949 156.684 340.682 156.369 340.487C156.058 340.291 155.69 340.193 155.266 340.193C154.798 340.193 154.394 340.309 154.053 340.541C153.714 340.77 153.454 341.068 153.272 341.436C153.09 341.804 152.999 342.198 152.999 342.619V343.295C152.999 343.872 153.098 344.361 153.297 344.762C153.499 345.16 153.779 345.463 154.137 345.672C154.495 345.877 154.911 345.98 155.385 345.98C155.693 345.98 155.972 345.937 156.22 345.851C156.472 345.761 156.689 345.629 156.871 345.453C157.054 345.274 157.195 345.052 157.294 344.787L158.428 345.105C158.308 345.49 158.108 345.828 157.826 346.119C157.544 346.408 157.196 346.633 156.782 346.795C156.368 346.955 155.902 347.034 155.385 347.034ZM165.741 340.949L164.687 341.247C164.621 341.071 164.523 340.901 164.393 340.735C164.268 340.566 164.095 340.427 163.876 340.317C163.658 340.208 163.378 340.153 163.036 340.153C162.569 340.153 162.179 340.261 161.868 340.477C161.56 340.689 161.406 340.959 161.406 341.287C161.406 341.579 161.512 341.809 161.724 341.978C161.936 342.147 162.267 342.288 162.718 342.401L163.852 342.679C164.534 342.845 165.043 343.098 165.378 343.44C165.713 343.778 165.88 344.214 165.88 344.747C165.88 345.185 165.754 345.576 165.502 345.92C165.254 346.265 164.906 346.537 164.458 346.736C164.011 346.935 163.49 347.034 162.897 347.034C162.118 347.034 161.473 346.865 160.963 346.527C160.453 346.189 160.129 345.695 159.994 345.045L161.107 344.767C161.213 345.178 161.414 345.486 161.709 345.692C162.007 345.897 162.397 346 162.877 346C163.424 346 163.858 345.884 164.18 345.652C164.504 345.417 164.667 345.135 164.667 344.807C164.667 344.542 164.574 344.32 164.388 344.141C164.203 343.958 163.918 343.822 163.533 343.733L162.261 343.435C161.561 343.269 161.048 343.012 160.719 342.664C160.395 342.313 160.232 341.874 160.232 341.347C160.232 340.916 160.353 340.535 160.595 340.203C160.84 339.872 161.174 339.612 161.594 339.423C162.019 339.234 162.499 339.139 163.036 339.139C163.792 339.139 164.385 339.305 164.816 339.636C165.25 339.968 165.558 340.405 165.741 340.949ZM173.831 347.054C173.347 347.054 172.908 346.963 172.513 346.781C172.119 346.595 171.806 346.328 171.574 345.98C171.342 345.629 171.226 345.205 171.226 344.707C171.226 344.27 171.312 343.915 171.484 343.643C171.657 343.368 171.887 343.153 172.175 342.997C172.464 342.841 172.782 342.725 173.13 342.649C173.481 342.57 173.834 342.507 174.189 342.46C174.653 342.401 175.029 342.356 175.317 342.326C175.609 342.293 175.821 342.238 175.954 342.162C176.09 342.086 176.157 341.953 176.157 341.764V341.724C176.157 341.234 176.023 340.853 175.755 340.581C175.49 340.309 175.087 340.173 174.547 340.173C173.987 340.173 173.547 340.296 173.229 340.541C172.911 340.786 172.687 341.048 172.558 341.327L171.444 340.929C171.643 340.465 171.908 340.104 172.24 339.845C172.575 339.583 172.939 339.401 173.334 339.298C173.731 339.192 174.122 339.139 174.507 339.139C174.752 339.139 175.034 339.169 175.352 339.229C175.674 339.285 175.983 339.403 176.282 339.582C176.583 339.761 176.834 340.031 177.032 340.392C177.231 340.753 177.331 341.237 177.331 341.844V346.875H176.157V345.841H176.098C176.018 346.007 175.886 346.184 175.7 346.373C175.515 346.562 175.268 346.723 174.959 346.855C174.651 346.988 174.275 347.054 173.831 347.054ZM174.01 346C174.474 346 174.865 345.909 175.183 345.727C175.505 345.544 175.747 345.309 175.909 345.021C176.075 344.732 176.157 344.429 176.157 344.111V343.037C176.108 343.097 175.998 343.151 175.829 343.201C175.664 343.247 175.471 343.289 175.253 343.325C175.037 343.358 174.827 343.388 174.621 343.415C174.419 343.438 174.255 343.458 174.129 343.474C173.824 343.514 173.539 343.579 173.274 343.668C173.012 343.754 172.8 343.885 172.638 344.061C172.479 344.233 172.399 344.469 172.399 344.767C172.399 345.175 172.55 345.483 172.851 345.692C173.156 345.897 173.542 346 174.01 346ZM180.646 342.281V346.875H179.472V339.239H180.606V340.432H180.705C180.884 340.044 181.156 339.732 181.521 339.497C181.885 339.259 182.356 339.139 182.933 339.139C183.45 339.139 183.902 339.245 184.29 339.457C184.678 339.666 184.979 339.984 185.195 340.412C185.41 340.836 185.518 341.373 185.518 342.023V346.875H184.344V342.102C184.344 341.502 184.189 341.035 183.877 340.7C183.566 340.362 183.138 340.193 182.594 340.193C182.22 340.193 181.885 340.274 181.59 340.437C181.299 340.599 181.068 340.836 180.899 341.148C180.73 341.459 180.646 341.837 180.646 342.281ZM190.545 347.034C189.909 347.034 189.347 346.873 188.86 346.552C188.373 346.227 187.992 345.77 187.716 345.18C187.441 344.586 187.304 343.885 187.304 343.077C187.304 342.275 187.441 341.579 187.716 340.989C187.992 340.399 188.374 339.943 188.865 339.621C189.355 339.3 189.922 339.139 190.565 339.139C191.062 339.139 191.455 339.222 191.743 339.388C192.035 339.55 192.257 339.736 192.41 339.945C192.565 340.15 192.686 340.319 192.773 340.452H192.872V336.693H194.045V346.875H192.912V345.702H192.773C192.686 345.841 192.564 346.017 192.405 346.229C192.246 346.437 192.019 346.625 191.724 346.79C191.429 346.953 191.036 347.034 190.545 347.034ZM190.704 345.98C191.175 345.98 191.573 345.857 191.898 345.612C192.222 345.364 192.469 345.021 192.638 344.583C192.807 344.142 192.892 343.634 192.892 343.057C192.892 342.487 192.809 341.988 192.643 341.56C192.478 341.129 192.232 340.795 191.907 340.556C191.583 340.314 191.182 340.193 190.704 340.193C190.207 340.193 189.793 340.321 189.461 340.576C189.133 340.828 188.886 341.171 188.721 341.605C188.558 342.036 188.477 342.52 188.477 343.057C188.477 343.6 188.56 344.094 188.726 344.538C188.895 344.979 189.143 345.33 189.471 345.592C189.803 345.851 190.214 345.98 190.704 345.98ZM200.295 346.875V339.239H201.428V340.392H201.508C201.647 340.014 201.899 339.708 202.263 339.472C202.628 339.237 203.039 339.119 203.496 339.119C203.582 339.119 203.69 339.121 203.819 339.124C203.949 339.128 204.046 339.133 204.113 339.139V340.332C204.073 340.322 203.982 340.308 203.839 340.288C203.7 340.264 203.553 340.253 203.397 340.253C203.026 340.253 202.694 340.331 202.403 340.487C202.114 340.639 201.885 340.851 201.716 341.123C201.551 341.391 201.468 341.698 201.468 342.043V346.875H200.295ZM208.373 347.034C207.684 347.034 207.079 346.87 206.559 346.542C206.042 346.214 205.637 345.755 205.346 345.165C205.057 344.575 204.913 343.885 204.913 343.097C204.913 342.301 205.057 341.607 205.346 341.013C205.637 340.42 206.042 339.96 206.559 339.631C207.079 339.303 207.684 339.139 208.373 339.139C209.063 339.139 209.666 339.303 210.183 339.631C210.703 339.96 211.108 340.42 211.396 341.013C211.688 341.607 211.834 342.301 211.834 343.097C211.834 343.885 211.688 344.575 211.396 345.165C211.108 345.755 210.703 346.214 210.183 346.542C209.666 346.87 209.063 347.034 208.373 347.034ZM208.373 345.98C208.897 345.98 209.328 345.846 209.666 345.577C210.004 345.309 210.254 344.956 210.417 344.518C210.579 344.081 210.66 343.607 210.66 343.097C210.66 342.586 210.579 342.111 210.417 341.67C210.254 341.229 210.004 340.873 209.666 340.601C209.328 340.329 208.897 340.193 208.373 340.193C207.85 340.193 207.419 340.329 207.081 340.601C206.743 340.873 206.492 341.229 206.33 341.67C206.168 342.111 206.086 342.586 206.086 343.097C206.086 343.607 206.168 344.081 206.33 344.518C206.492 344.956 206.743 345.309 207.081 345.577C207.419 345.846 207.85 345.98 208.373 345.98ZM216.727 347.034C216.038 347.034 215.433 346.87 214.912 346.542C214.395 346.214 213.991 345.755 213.699 345.165C213.411 344.575 213.267 343.885 213.267 343.097C213.267 342.301 213.411 341.607 213.699 341.013C213.991 340.42 214.395 339.96 214.912 339.631C215.433 339.303 216.038 339.139 216.727 339.139C217.416 339.139 218.02 339.303 218.537 339.631C219.057 339.96 219.461 340.42 219.75 341.013C220.041 341.607 220.187 342.301 220.187 343.097C220.187 343.885 220.041 344.575 219.75 345.165C219.461 345.755 219.057 346.214 218.537 346.542C218.02 346.87 217.416 347.034 216.727 347.034ZM216.727 345.98C217.251 345.98 217.681 345.846 218.02 345.577C218.358 345.309 218.608 344.956 218.77 344.518C218.933 344.081 219.014 343.607 219.014 343.097C219.014 342.586 218.933 342.111 218.77 341.67C218.608 341.229 218.358 340.873 218.02 340.601C217.681 340.329 217.251 340.193 216.727 340.193C216.203 340.193 215.772 340.329 215.434 340.601C215.096 340.873 214.846 341.229 214.684 341.67C214.521 342.111 214.44 342.586 214.44 343.097C214.44 343.607 214.521 344.081 214.684 344.518C214.846 344.956 215.096 345.309 215.434 345.577C215.772 345.846 216.203 345.98 216.727 345.98ZM225.299 339.239V340.233H221.342V339.239H225.299ZM222.495 337.409H223.669V344.688C223.669 345.019 223.717 345.268 223.813 345.433C223.912 345.596 224.038 345.705 224.191 345.761C224.346 345.814 224.51 345.841 224.683 345.841C224.812 345.841 224.918 345.834 225.001 345.821C225.084 345.804 225.15 345.791 225.2 345.781L225.438 346.835C225.359 346.865 225.248 346.895 225.105 346.925C224.963 346.958 224.782 346.974 224.563 346.974C224.232 346.974 223.907 346.903 223.589 346.761C223.274 346.618 223.012 346.401 222.803 346.109C222.598 345.818 222.495 345.45 222.495 345.006V337.409ZM234.104 347.034C233.388 347.034 232.771 346.865 232.254 346.527C231.737 346.189 231.34 345.723 231.061 345.13C230.783 344.537 230.644 343.859 230.644 343.097C230.644 342.321 230.786 341.637 231.071 341.043C231.36 340.447 231.761 339.981 232.274 339.646C232.791 339.308 233.395 339.139 234.084 339.139C234.621 339.139 235.105 339.239 235.536 339.438C235.967 339.636 236.32 339.915 236.595 340.273C236.87 340.631 237.04 341.048 237.107 341.526H235.933C235.844 341.178 235.645 340.869 235.337 340.601C235.032 340.329 234.621 340.193 234.104 340.193C233.646 340.193 233.245 340.312 232.901 340.551C232.559 340.786 232.293 341.12 232.1 341.55C231.911 341.978 231.817 342.48 231.817 343.057C231.817 343.647 231.91 344.161 232.095 344.598C232.284 345.036 232.549 345.375 232.891 345.617C233.235 345.859 233.64 345.98 234.104 345.98C234.409 345.98 234.686 345.927 234.934 345.821C235.183 345.715 235.393 345.562 235.566 345.364C235.738 345.165 235.86 344.926 235.933 344.648H237.107C237.04 345.098 236.876 345.504 236.615 345.866C236.356 346.224 236.013 346.509 235.585 346.721C235.161 346.93 234.667 347.034 234.104 347.034ZM241.069 347.054C240.585 347.054 240.146 346.963 239.752 346.781C239.357 346.595 239.044 346.328 238.812 345.98C238.58 345.629 238.464 345.205 238.464 344.707C238.464 344.27 238.55 343.915 238.722 343.643C238.895 343.368 239.125 343.153 239.414 342.997C239.702 342.841 240.02 342.725 240.368 342.649C240.719 342.57 241.072 342.507 241.427 342.46C241.891 342.401 242.267 342.356 242.556 342.326C242.847 342.293 243.059 342.238 243.192 342.162C243.328 342.086 243.396 341.953 243.396 341.764V341.724C243.396 341.234 243.262 340.853 242.993 340.581C242.728 340.309 242.325 340.173 241.785 340.173C241.225 340.173 240.786 340.296 240.468 340.541C240.149 340.786 239.926 341.048 239.796 341.327L238.683 340.929C238.882 340.465 239.147 340.104 239.478 339.845C239.813 339.583 240.177 339.401 240.572 339.298C240.97 339.192 241.361 339.139 241.745 339.139C241.99 339.139 242.272 339.169 242.59 339.229C242.912 339.285 243.222 339.403 243.52 339.582C243.822 339.761 244.072 340.031 244.271 340.392C244.47 340.753 244.569 341.237 244.569 341.844V346.875H243.396V345.841H243.336C243.257 346.007 243.124 346.184 242.938 346.373C242.753 346.562 242.506 346.723 242.198 346.855C241.889 346.988 241.513 347.054 241.069 347.054ZM241.248 346C241.712 346 242.103 345.909 242.421 345.727C242.743 345.544 242.985 345.309 243.147 345.021C243.313 344.732 243.396 344.429 243.396 344.111V343.037C243.346 343.097 243.237 343.151 243.068 343.201C242.902 343.247 242.71 343.289 242.491 343.325C242.276 343.358 242.065 343.388 241.86 343.415C241.657 343.438 241.493 343.458 241.367 343.474C241.062 343.514 240.777 343.579 240.512 343.668C240.25 343.754 240.038 343.885 239.876 344.061C239.717 344.233 239.637 344.469 239.637 344.767C239.637 345.175 239.788 345.483 240.09 345.692C240.395 345.897 240.781 346 241.248 346ZM251.523 343.753V339.239H252.696V346.875H251.523V345.582H251.444C251.265 345.97 250.986 346.3 250.608 346.572C250.23 346.84 249.753 346.974 249.176 346.974C248.699 346.974 248.275 346.87 247.904 346.661C247.533 346.449 247.241 346.131 247.029 345.707C246.817 345.279 246.711 344.741 246.711 344.091V339.239H247.884V344.011C247.884 344.568 248.04 345.012 248.351 345.344C248.666 345.675 249.067 345.841 249.554 345.841C249.846 345.841 250.143 345.766 250.444 345.617C250.749 345.468 251.004 345.239 251.21 344.931C251.419 344.623 251.523 344.23 251.523 343.753ZM260.254 340.949L259.2 341.247C259.134 341.071 259.036 340.901 258.907 340.735C258.781 340.566 258.609 340.427 258.39 340.317C258.171 340.208 257.891 340.153 257.55 340.153C257.083 340.153 256.693 340.261 256.382 340.477C256.073 340.689 255.919 340.959 255.919 341.287C255.919 341.579 256.025 341.809 256.237 341.978C256.45 342.147 256.781 342.288 257.232 342.401L258.365 342.679C259.048 342.845 259.557 343.098 259.892 343.44C260.226 343.778 260.394 344.214 260.394 344.747C260.394 345.185 260.268 345.576 260.016 345.92C259.767 346.265 259.419 346.537 258.972 346.736C258.524 346.935 258.004 347.034 257.411 347.034C256.632 347.034 255.987 346.865 255.477 346.527C254.966 346.189 254.643 345.695 254.507 345.045L255.621 344.767C255.727 345.178 255.927 345.486 256.222 345.692C256.521 345.897 256.91 346 257.391 346C257.938 346 258.372 345.884 258.693 345.652C259.018 345.417 259.181 345.135 259.181 344.807C259.181 344.542 259.088 344.32 258.902 344.141C258.717 343.958 258.432 343.822 258.047 343.733L256.774 343.435C256.075 343.269 255.561 343.012 255.233 342.664C254.908 342.313 254.746 341.874 254.746 341.347C254.746 340.916 254.867 340.535 255.109 340.203C255.354 339.872 255.687 339.612 256.108 339.423C256.532 339.234 257.013 339.139 257.55 339.139C258.306 339.139 258.899 339.305 259.33 339.636C259.764 339.968 260.072 340.405 260.254 340.949ZM265.362 347.034C264.626 347.034 263.991 346.872 263.457 346.547C262.927 346.219 262.518 345.761 262.229 345.175C261.944 344.585 261.802 343.899 261.802 343.116C261.802 342.334 261.944 341.645 262.229 341.048C262.518 340.448 262.919 339.981 263.433 339.646C263.95 339.308 264.553 339.139 265.242 339.139C265.64 339.139 266.033 339.205 266.42 339.338C266.808 339.471 267.161 339.686 267.479 339.984C267.798 340.279 268.051 340.67 268.24 341.158C268.429 341.645 268.523 342.245 268.523 342.957V343.455H262.637V342.44H267.33C267.33 342.009 267.244 341.625 267.072 341.287C266.903 340.949 266.661 340.682 266.346 340.487C266.034 340.291 265.666 340.193 265.242 340.193C264.775 340.193 264.371 340.309 264.029 340.541C263.691 340.77 263.431 341.068 263.249 341.436C263.066 341.804 262.975 342.198 262.975 342.619V343.295C262.975 343.872 263.075 344.361 263.273 344.762C263.476 345.16 263.756 345.463 264.114 345.672C264.472 345.877 264.888 345.98 265.362 345.98C265.67 345.98 265.948 345.937 266.197 345.851C266.449 345.761 266.666 345.629 266.848 345.453C267.03 345.274 267.171 345.052 267.271 344.787L268.404 345.105C268.285 345.49 268.084 345.828 267.803 346.119C267.521 346.408 267.173 346.633 266.759 346.795C266.344 346.955 265.879 347.034 265.362 347.034ZM275.717 340.949L274.663 341.247C274.597 341.071 274.499 340.901 274.37 340.735C274.244 340.566 274.072 340.427 273.853 340.317C273.634 340.208 273.354 340.153 273.013 340.153C272.545 340.153 272.156 340.261 271.844 340.477C271.536 340.689 271.382 340.959 271.382 341.287C271.382 341.579 271.488 341.809 271.7 341.978C271.912 342.147 272.244 342.288 272.695 342.401L273.828 342.679C274.511 342.845 275.02 343.098 275.354 343.44C275.689 343.778 275.857 344.214 275.857 344.747C275.857 345.185 275.731 345.576 275.479 345.92C275.23 346.265 274.882 346.537 274.435 346.736C273.987 346.935 273.467 347.034 272.874 347.034C272.095 347.034 271.45 346.865 270.94 346.527C270.429 346.189 270.106 345.695 269.97 345.045L271.084 344.767C271.19 345.178 271.39 345.486 271.685 345.692C271.984 345.897 272.373 346 272.854 346C273.401 346 273.835 345.884 274.156 345.652C274.481 345.417 274.643 345.135 274.643 344.807C274.643 344.542 274.551 344.32 274.365 344.141C274.179 343.958 273.894 343.822 273.51 343.733L272.237 343.435C271.538 343.269 271.024 343.012 270.696 342.664C270.371 342.313 270.209 341.874 270.209 341.347C270.209 340.916 270.33 340.535 270.572 340.203C270.817 339.872 271.15 339.612 271.571 339.423C271.995 339.234 272.476 339.139 273.013 339.139C273.768 339.139 274.362 339.305 274.793 339.636C275.227 339.968 275.535 340.405 275.717 340.949ZM278.478 346.955C278.233 346.955 278.022 346.867 277.846 346.691C277.671 346.515 277.583 346.305 277.583 346.06C277.583 345.814 277.671 345.604 277.846 345.428C278.022 345.253 278.233 345.165 278.478 345.165C278.723 345.165 278.934 345.253 279.109 345.428C279.285 345.604 279.373 345.814 279.373 346.06C279.373 346.222 279.331 346.371 279.248 346.507C279.169 346.643 279.061 346.752 278.925 346.835C278.793 346.915 278.644 346.955 278.478 346.955Z" fill="#1E40AF"/>
</g>
<defs>
<filter id="filter0_d_1002_777" x="0" y="0" width="377.333" height="382.5" filterUnits="userSpaceOnUse" color-interpolation-filters="sRGB">
<feFlood flood-opacity="0" result="BackgroundImageFix"/>
<feColorMatrix in="SourceAlpha" type="matrix" values="0 0 0 0 0 0 0 0 0 0 0 0 0 0 0 0 0 0 127 0" result="hardAlpha"/>
<feOffset dy="1"/>
<feGaussianBlur stdDeviation="1"/>
<feComposite in2="hardAlpha" operator="out"/>
<feColorMatrix type="matrix" values="0 0 0 0 0 0 0 0 0 0 0 0 0 0 0 0 0 0 0.05 0"/>
<feBlend mode="normal" in2="BackgroundImageFix" result="effect1_dropShadow_1002_777"/>
<feBlend mode="normal" in="SourceGraphic" in2="effect1_dropShadow_1002_777" result="shape"/>
</filter>
</defs>
</svg>
