<svg width="378" height="380" viewBox="0 0 378 380" fill="none" xmlns="http://www.w3.org/2000/svg">
<g filter="url(#filter0_d_1002_686)">
<rect x="2" y="1" width="373.333" height="375.66" rx="24" fill="white" shape-rendering="crispEdges"/>
<rect x="2.5" y="1.5" width="372.333" height="374.66" rx="23.5" stroke="#F1F5F9" shape-rendering="crispEdges"/>
<path d="M28.179 47V44.7841L33.3565 39.9901C33.7969 39.5639 34.1662 39.1804 34.4645 38.8395C34.7675 38.4986 34.9972 38.1648 35.1534 37.8381C35.3097 37.5066 35.3878 37.1491 35.3878 36.7656C35.3878 36.3395 35.2907 35.9725 35.0966 35.6648C34.9025 35.3523 34.6373 35.1132 34.3011 34.9474C33.965 34.777 33.5838 34.6918 33.1577 34.6918C32.7126 34.6918 32.3243 34.7817 31.9929 34.9616C31.6615 35.1416 31.4058 35.3996 31.2259 35.7358C31.0459 36.072 30.956 36.4721 30.956 36.9361H28.0369C28.0369 35.9844 28.2524 35.1581 28.6832 34.4574C29.1141 33.7566 29.7178 33.2145 30.4943 32.831C31.2708 32.4474 32.1657 32.2557 33.179 32.2557C34.2206 32.2557 35.1274 32.4403 35.8991 32.8097C36.6757 33.1742 37.2794 33.6809 37.7102 34.3295C38.1411 34.9782 38.3565 35.7216 38.3565 36.5597C38.3565 37.1089 38.2476 37.651 38.0298 38.1861C37.8168 38.7211 37.4356 39.3153 36.8864 39.9688C36.3371 40.6174 35.563 41.3963 34.5639 42.3054L32.4403 44.3864V44.4858H38.5483V47H28.179ZM42.5735 47.1847C42.1048 47.1847 41.7023 47.0189 41.3661 46.6875C41.0347 46.3513 40.869 45.9489 40.869 45.4801C40.869 45.0161 41.0347 44.6184 41.3661 44.2869C41.7023 43.9555 42.1048 43.7898 42.5735 43.7898C43.0281 43.7898 43.4258 43.9555 43.7667 44.2869C44.1076 44.6184 44.2781 45.0161 44.2781 45.4801C44.2781 45.7926 44.1976 46.0791 44.0366 46.3395C43.8803 46.5952 43.6744 46.8011 43.4187 46.9574C43.163 47.1089 42.8813 47.1847 42.5735 47.1847ZM50.7642 47V32.4545H56.5028C57.6061 32.4545 58.5459 32.6652 59.3224 33.0866C60.099 33.5033 60.6908 34.0833 61.098 34.8267C61.5099 35.5653 61.7159 36.4176 61.7159 37.3835C61.7159 38.3494 61.5076 39.2017 61.0909 39.9403C60.6742 40.679 60.0705 41.2543 59.2798 41.6662C58.4938 42.0781 57.5421 42.2841 56.4247 42.2841H52.767V39.8196H55.9276C56.5194 39.8196 57.0071 39.7178 57.3906 39.5142C57.7789 39.3059 58.0677 39.0194 58.2571 38.6548C58.4512 38.2855 58.5483 37.8617 58.5483 37.3835C58.5483 36.9006 58.4512 36.4792 58.2571 36.1193C58.0677 35.7547 57.7789 35.473 57.3906 35.2741C57.0024 35.0705 56.5099 34.9688 55.9134 34.9688H53.8395V47H50.7642ZM63.6566 47V36.0909H66.5898V37.9943H66.7035C66.9023 37.3172 67.2362 36.8059 67.7049 36.4602C68.1737 36.1098 68.7134 35.9347 69.3242 35.9347C69.4757 35.9347 69.6391 35.9441 69.8143 35.9631C69.9895 35.982 70.1433 36.008 70.2759 36.0412V38.7259C70.1339 38.6832 69.9374 38.6454 69.6864 38.6122C69.4355 38.5791 69.2058 38.5625 68.9975 38.5625C68.5524 38.5625 68.1547 38.6596 67.8043 38.8537C67.4587 39.0431 67.1841 39.3082 66.9805 39.6491C66.7816 39.9901 66.6822 40.383 66.6822 40.8281V47H63.6566ZM76.304 47.2131C75.1818 47.2131 74.2159 46.9858 73.4062 46.5312C72.6013 46.072 71.9811 45.4233 71.5455 44.5852C71.1098 43.7424 70.892 42.7457 70.892 41.5952C70.892 40.473 71.1098 39.4882 71.5455 38.6406C71.9811 37.7931 72.5942 37.1326 73.3849 36.6591C74.1804 36.1856 75.1132 35.9489 76.1832 35.9489C76.9029 35.9489 77.5729 36.0649 78.1932 36.2969C78.8182 36.5241 79.3627 36.8674 79.8267 37.3267C80.2955 37.786 80.66 38.3636 80.9205 39.0597C81.1809 39.7509 81.3111 40.5606 81.3111 41.4886V42.3196H72.0994V40.4446H78.4631C78.4631 40.009 78.3684 39.6231 78.179 39.2869C77.9896 38.9508 77.7268 38.688 77.3906 38.4986C77.0592 38.3045 76.6733 38.2074 76.233 38.2074C75.7737 38.2074 75.3665 38.3139 75.0114 38.527C74.661 38.7353 74.3864 39.017 74.1875 39.3722C73.9886 39.7225 73.8868 40.1132 73.8821 40.544V42.3267C73.8821 42.8665 73.9815 43.3329 74.1804 43.7259C74.384 44.1188 74.6705 44.4219 75.0398 44.6349C75.4091 44.848 75.8471 44.9545 76.3537 44.9545C76.6899 44.9545 76.9976 44.9072 77.277 44.8125C77.5563 44.7178 77.7955 44.5758 77.9943 44.3864C78.1932 44.197 78.3447 43.965 78.4489 43.6903L81.2472 43.875C81.1051 44.5473 80.8139 45.1345 80.3736 45.6364C79.938 46.1335 79.3745 46.5218 78.6832 46.8011C77.9967 47.0758 77.2036 47.2131 76.304 47.2131ZM87.3054 47.1776C86.4768 47.1776 85.7263 46.9645 85.054 46.5384C84.3864 46.1075 83.8561 45.4754 83.4631 44.642C83.0748 43.804 82.8807 42.7765 82.8807 41.5597C82.8807 40.3097 83.0819 39.2704 83.4844 38.4418C83.8868 37.6084 84.4219 36.9858 85.0895 36.5739C85.7618 36.1572 86.4981 35.9489 87.2983 35.9489C87.9091 35.9489 88.4181 36.053 88.8253 36.2614C89.2372 36.465 89.5687 36.7206 89.8196 37.0284C90.0753 37.3314 90.2694 37.6297 90.402 37.9233H90.4943V32.4545H93.5128V47H90.5298V45.2528H90.402C90.2599 45.5559 90.0587 45.8565 89.7983 46.1548C89.5426 46.4484 89.2088 46.6922 88.7969 46.8864C88.3897 47.0805 87.8925 47.1776 87.3054 47.1776ZM88.2642 44.7699C88.7519 44.7699 89.1638 44.6373 89.5 44.3722C89.8409 44.1023 90.1013 43.7259 90.2812 43.2429C90.4659 42.7599 90.5582 42.1941 90.5582 41.5455C90.5582 40.8968 90.4683 40.3333 90.2884 39.8551C90.1084 39.3769 89.848 39.0076 89.5071 38.7472C89.1662 38.4867 88.7519 38.3565 88.2642 38.3565C87.767 38.3565 87.348 38.4915 87.0071 38.7614C86.6662 39.0312 86.4081 39.4053 86.233 39.8835C86.0578 40.3617 85.9702 40.9157 85.9702 41.5455C85.9702 42.1799 86.0578 42.741 86.233 43.2287C86.4129 43.7116 86.6709 44.0904 87.0071 44.3651C87.348 44.6349 87.767 44.7699 88.2642 44.7699ZM96.0004 47V36.0909H99.0259V47H96.0004ZM97.5202 34.6847C97.0704 34.6847 96.6845 34.5355 96.3626 34.2372C96.0453 33.9342 95.8867 33.572 95.8867 33.1506C95.8867 32.7339 96.0453 32.3764 96.3626 32.0781C96.6845 31.7751 97.0704 31.6236 97.5202 31.6236C97.9701 31.6236 98.3536 31.7751 98.6708 32.0781C98.9928 32.3764 99.1538 32.7339 99.1538 33.1506C99.1538 33.572 98.9928 33.9342 98.6708 34.2372C98.3536 34.5355 97.9701 34.6847 97.5202 34.6847ZM106.379 47.2131C105.261 47.2131 104.3 46.9763 103.495 46.5028C102.695 46.0246 102.079 45.3617 101.648 44.5142C101.222 43.6667 101.009 42.6913 101.009 41.5881C101.009 40.4706 101.225 39.4905 101.656 38.6477C102.091 37.8002 102.709 37.1397 103.509 36.6662C104.309 36.188 105.261 35.9489 106.364 35.9489C107.316 35.9489 108.149 36.1217 108.864 36.4673C109.579 36.813 110.145 37.2983 110.562 37.9233C110.978 38.5483 111.208 39.2822 111.251 40.125H108.396C108.315 39.5805 108.102 39.1425 107.756 38.8111C107.415 38.4749 106.968 38.3068 106.414 38.3068C105.945 38.3068 105.536 38.4347 105.185 38.6903C104.84 38.9413 104.57 39.3082 104.376 39.7912C104.182 40.2741 104.085 40.8589 104.085 41.5455C104.085 42.2415 104.179 42.8333 104.369 43.321C104.563 43.8087 104.835 44.1804 105.185 44.4361C105.536 44.6918 105.945 44.8196 106.414 44.8196C106.76 44.8196 107.07 44.7486 107.344 44.6065C107.624 44.4645 107.853 44.2585 108.033 43.9886C108.218 43.714 108.339 43.3849 108.396 43.0014H111.251C111.203 43.8348 110.976 44.5687 110.569 45.2031C110.166 45.8329 109.61 46.3253 108.9 46.6804C108.19 47.0355 107.349 47.2131 106.379 47.2131ZM118.99 36.0909V38.3636H112.421V36.0909H118.99ZM113.912 33.4773H116.938V43.6477C116.938 43.9271 116.98 44.1449 117.066 44.3011C117.151 44.4527 117.269 44.5592 117.421 44.6207C117.577 44.6823 117.757 44.7131 117.961 44.7131C118.103 44.7131 118.245 44.7012 118.387 44.6776C118.529 44.6491 118.638 44.6278 118.713 44.6136L119.189 46.8651C119.038 46.9124 118.825 46.9669 118.55 47.0284C118.275 47.0947 117.942 47.1349 117.549 47.1491C116.819 47.1776 116.18 47.0805 115.631 46.858C115.087 46.6354 114.663 46.2898 114.36 45.821C114.057 45.3523 113.908 44.7604 113.912 44.0455V33.4773ZM120.961 47V36.0909H123.987V47H120.961ZM122.481 34.6847C122.031 34.6847 121.645 34.5355 121.324 34.2372C121.006 33.9342 120.848 33.572 120.848 33.1506C120.848 32.7339 121.006 32.3764 121.324 32.0781C121.645 31.7751 122.031 31.6236 122.481 31.6236C122.931 31.6236 123.315 31.7751 123.632 32.0781C123.954 32.3764 124.115 32.7339 124.115 33.1506C124.115 33.572 123.954 33.9342 123.632 34.2372C123.315 34.5355 122.931 34.6847 122.481 34.6847ZM136.581 36.0909L132.767 47H129.358L125.544 36.0909H128.74L131.006 43.8963H131.119L133.378 36.0909H136.581ZM142.749 47.2131C141.627 47.2131 140.661 46.9858 139.852 46.5312C139.047 46.072 138.426 45.4233 137.991 44.5852C137.555 43.7424 137.337 42.7457 137.337 41.5952C137.337 40.473 137.555 39.4882 137.991 38.6406C138.426 37.7931 139.04 37.1326 139.83 36.6591C140.626 36.1856 141.558 35.9489 142.629 35.9489C143.348 35.9489 144.018 36.0649 144.638 36.2969C145.263 36.5241 145.808 36.8674 146.272 37.3267C146.741 37.786 147.105 38.3636 147.366 39.0597C147.626 39.7509 147.756 40.5606 147.756 41.4886V42.3196H138.545V40.4446H144.908C144.908 40.009 144.814 39.6231 144.624 39.2869C144.435 38.9508 144.172 38.688 143.836 38.4986C143.504 38.3045 143.119 38.2074 142.678 38.2074C142.219 38.2074 141.812 38.3139 141.457 38.527C141.106 38.7353 140.832 39.017 140.633 39.3722C140.434 39.7225 140.332 40.1132 140.327 40.544V42.3267C140.327 42.8665 140.427 43.3329 140.626 43.7259C140.829 44.1188 141.116 44.4219 141.485 44.6349C141.854 44.848 142.292 44.9545 142.799 44.9545C143.135 44.9545 143.443 44.9072 143.722 44.8125C144.002 44.7178 144.241 44.5758 144.44 44.3864C144.638 44.197 144.79 43.965 144.894 43.6903L147.692 43.875C147.55 44.5473 147.259 45.1345 146.819 45.6364C146.383 46.1335 145.82 46.5218 145.129 46.8011C144.442 47.0758 143.649 47.2131 142.749 47.2131ZM154.417 47V32.4545H160.155C161.254 32.4545 162.191 32.651 162.968 33.044C163.749 33.4323 164.343 33.9839 164.75 34.6989C165.162 35.4091 165.368 36.2448 165.368 37.206C165.368 38.1719 165.16 39.0028 164.743 39.6989C164.327 40.3902 163.723 40.9205 162.932 41.2898C162.146 41.6591 161.194 41.8438 160.077 41.8438H156.235V39.3722H159.58C160.167 39.3722 160.655 39.2917 161.043 39.1307C161.431 38.9697 161.72 38.7282 161.909 38.4062C162.104 38.0843 162.201 37.6842 162.201 37.206C162.201 36.723 162.104 36.3158 161.909 35.9844C161.72 35.6529 161.429 35.402 161.036 35.2315C160.648 35.0563 160.158 34.9688 159.566 34.9688H157.492V47H154.417ZM162.272 40.3807L165.887 47H162.492L158.955 40.3807H162.272ZM167.485 47V36.0909H170.51V47H167.485ZM169.005 34.6847C168.555 34.6847 168.169 34.5355 167.847 34.2372C167.53 33.9342 167.371 33.572 167.371 33.1506C167.371 32.7339 167.53 32.3764 167.847 32.0781C168.169 31.7751 168.555 31.6236 169.005 31.6236C169.454 31.6236 169.838 31.7751 170.155 32.0781C170.477 32.3764 170.638 32.7339 170.638 33.1506C170.638 33.572 170.477 33.9342 170.155 34.2372C169.838 34.5355 169.454 34.6847 169.005 34.6847ZM182.011 39.2017L179.241 39.3722C179.193 39.1354 179.092 38.9223 178.935 38.733C178.779 38.5388 178.573 38.3849 178.317 38.2713C178.067 38.1529 177.766 38.0938 177.415 38.0938C176.947 38.0938 176.551 38.1932 176.229 38.392C175.907 38.5862 175.746 38.8466 175.746 39.1733C175.746 39.4337 175.851 39.6539 176.059 39.8338C176.267 40.0137 176.625 40.1581 177.131 40.267L179.106 40.6648C180.166 40.8826 180.957 41.233 181.478 41.7159C181.999 42.1989 182.259 42.8333 182.259 43.6193C182.259 44.3343 182.049 44.9616 181.627 45.5014C181.21 46.0412 180.638 46.4626 179.908 46.7656C179.184 47.0639 178.348 47.2131 177.401 47.2131C175.957 47.2131 174.807 46.9124 173.95 46.3111C173.097 45.705 172.598 44.8812 172.451 43.8395L175.427 43.6832C175.517 44.1236 175.735 44.4598 176.08 44.6918C176.426 44.919 176.869 45.0327 177.408 45.0327C177.939 45.0327 178.365 44.9309 178.687 44.7273C179.013 44.5189 179.179 44.2514 179.184 43.9247C179.179 43.6501 179.063 43.4252 178.836 43.25C178.609 43.0701 178.258 42.9328 177.785 42.8381L175.896 42.4616C174.83 42.2486 174.037 41.8793 173.516 41.3537C173 40.8281 172.742 40.1581 172.742 39.3438C172.742 38.643 172.932 38.0393 173.31 37.5327C173.694 37.026 174.231 36.6354 174.923 36.3608C175.619 36.0862 176.433 35.9489 177.366 35.9489C178.744 35.9489 179.828 36.2401 180.619 36.8224C181.414 37.4048 181.878 38.1979 182.011 39.2017ZM186.906 43.8608L186.913 40.2315H187.353L190.848 36.0909H194.321L189.626 41.5739H188.909L186.906 43.8608ZM184.164 47V32.4545H187.19V47H184.164ZM190.983 47L187.772 42.2486L189.789 40.1108L194.527 47H190.983ZM202.998 47H199.702L204.724 32.4545H208.687L213.701 47H210.406L206.762 35.7784H206.648L202.998 47ZM202.792 41.2827H210.576V43.6832H202.792V41.2827ZM218.42 40.6932V47H215.395V36.0909H218.278V38.0156H218.406C218.648 37.3812 219.053 36.8793 219.621 36.5099C220.189 36.1359 220.878 35.9489 221.688 35.9489C222.445 35.9489 223.106 36.1146 223.669 36.446C224.232 36.7775 224.67 37.2509 224.983 37.8665C225.295 38.4773 225.452 39.2064 225.452 40.054V47H222.426V40.5938C222.431 39.9261 222.26 39.4053 221.915 39.0312C221.569 38.6525 221.093 38.4631 220.487 38.4631C220.08 38.4631 219.72 38.5507 219.408 38.7259C219.1 38.901 218.858 39.1567 218.683 39.4929C218.513 39.8243 218.425 40.2244 218.42 40.6932ZM230.947 47.206C230.251 47.206 229.631 47.0852 229.086 46.8438C228.542 46.5975 228.111 46.2353 227.794 45.7571C227.481 45.2741 227.325 44.6728 227.325 43.9531C227.325 43.3471 227.436 42.8381 227.659 42.4261C227.881 42.0142 228.184 41.6828 228.568 41.4318C228.951 41.1809 229.387 40.9915 229.875 40.8636C230.367 40.7358 230.883 40.6458 231.423 40.5938C232.057 40.5275 232.569 40.4659 232.957 40.4091C233.345 40.3475 233.627 40.2576 233.802 40.1392C233.977 40.0208 234.065 39.8456 234.065 39.6136V39.571C234.065 39.1212 233.923 38.7732 233.639 38.527C233.359 38.2808 232.962 38.1577 232.446 38.1577C231.901 38.1577 231.468 38.2784 231.146 38.5199C230.824 38.7566 230.611 39.0549 230.507 39.4148L227.708 39.1875C227.85 38.5246 228.13 37.9517 228.547 37.4688C228.963 36.9811 229.501 36.607 230.159 36.3466C230.822 36.0814 231.589 35.9489 232.46 35.9489C233.066 35.9489 233.646 36.0199 234.2 36.1619C234.759 36.304 235.253 36.5241 235.684 36.8224C236.12 37.1207 236.463 37.5043 236.714 37.973C236.965 38.437 237.091 38.9934 237.091 39.642V47H234.221V45.4872H234.136C233.961 45.8281 233.726 46.1288 233.433 46.3892C233.139 46.6449 232.787 46.8461 232.375 46.9929C231.963 47.1349 231.487 47.206 230.947 47.206ZM231.814 45.1179C232.259 45.1179 232.652 45.0303 232.993 44.8551C233.333 44.6752 233.601 44.4337 233.795 44.1307C233.989 43.8277 234.086 43.4844 234.086 43.1009V41.9432C233.992 42.0047 233.861 42.0616 233.696 42.1136C233.535 42.161 233.352 42.206 233.149 42.2486C232.945 42.2865 232.742 42.322 232.538 42.3551C232.334 42.3835 232.15 42.4096 231.984 42.4332C231.629 42.4853 231.319 42.5682 231.054 42.6818C230.788 42.7955 230.583 42.9493 230.436 43.1435C230.289 43.3329 230.216 43.5696 230.216 43.8537C230.216 44.2656 230.365 44.5805 230.663 44.7983C230.966 45.0114 231.35 45.1179 231.814 45.1179ZM242.463 32.4545V47H239.438V32.4545H242.463ZM246.755 51.0909C246.371 51.0909 246.012 51.0601 245.675 50.9986C245.344 50.9418 245.069 50.8684 244.852 50.7784L245.533 48.5199C245.888 48.6288 246.208 48.688 246.492 48.6974C246.781 48.7069 247.03 48.6406 247.238 48.4986C247.451 48.3565 247.624 48.1151 247.756 47.7741L247.934 47.3125L244.021 36.0909H247.202L249.461 44.1023H249.575L251.854 36.0909H255.058L250.817 48.179C250.614 48.7661 250.337 49.2775 249.987 49.7131C249.641 50.1534 249.203 50.492 248.673 50.7287C248.142 50.9702 247.503 51.0909 246.755 51.0909ZM262.408 36.0909V38.3636H255.839V36.0909H262.408ZM257.33 33.4773H260.356V43.6477C260.356 43.9271 260.398 44.1449 260.484 44.3011C260.569 44.4527 260.687 44.5592 260.839 44.6207C260.995 44.6823 261.175 44.7131 261.379 44.7131C261.521 44.7131 261.663 44.7012 261.805 44.6776C261.947 44.6491 262.056 44.6278 262.131 44.6136L262.607 46.8651C262.456 46.9124 262.243 46.9669 261.968 47.0284C261.693 47.0947 261.36 47.1349 260.967 47.1491C260.237 47.1776 259.598 47.0805 259.049 46.858C258.504 46.6354 258.081 46.2898 257.778 45.821C257.475 45.3523 257.326 44.7604 257.33 44.0455V33.4773ZM264.379 47V36.0909H267.405V47H264.379ZM265.899 34.6847C265.449 34.6847 265.063 34.5355 264.741 34.2372C264.424 33.9342 264.266 33.572 264.266 33.1506C264.266 32.7339 264.424 32.3764 264.741 32.0781C265.063 31.7751 265.449 31.6236 265.899 31.6236C266.349 31.6236 266.732 31.7751 267.05 32.0781C267.372 32.3764 267.533 32.7339 267.533 33.1506C267.533 33.572 267.372 33.9342 267.05 34.2372C266.732 34.5355 266.349 34.6847 265.899 34.6847ZM274.757 47.2131C273.64 47.2131 272.679 46.9763 271.874 46.5028C271.074 46.0246 270.458 45.3617 270.027 44.5142C269.601 43.6667 269.388 42.6913 269.388 41.5881C269.388 40.4706 269.604 39.4905 270.034 38.6477C270.47 37.8002 271.088 37.1397 271.888 36.6662C272.688 36.188 273.64 35.9489 274.743 35.9489C275.695 35.9489 276.528 36.1217 277.243 36.4673C277.958 36.813 278.524 37.2983 278.941 37.9233C279.357 38.5483 279.587 39.2822 279.63 40.125H276.775C276.694 39.5805 276.481 39.1425 276.135 38.8111C275.794 38.4749 275.347 38.3068 274.793 38.3068C274.324 38.3068 273.915 38.4347 273.564 38.6903C273.219 38.9413 272.949 39.3082 272.755 39.7912C272.56 40.2741 272.463 40.8589 272.463 41.5455C272.463 42.2415 272.558 42.8333 272.748 43.321C272.942 43.8087 273.214 44.1804 273.564 44.4361C273.915 44.6918 274.324 44.8196 274.793 44.8196C275.139 44.8196 275.449 44.7486 275.723 44.6065C276.003 44.4645 276.232 44.2585 276.412 43.9886C276.597 43.714 276.718 43.3849 276.775 43.0014H279.63C279.582 43.8348 279.355 44.5687 278.948 45.2031C278.545 45.8329 277.989 46.3253 277.279 46.6804C276.569 47.0355 275.728 47.2131 274.757 47.2131ZM290.643 39.2017L287.874 39.3722C287.826 39.1354 287.724 38.9223 287.568 38.733C287.412 38.5388 287.206 38.3849 286.95 38.2713C286.699 38.1529 286.399 38.0938 286.048 38.0938C285.58 38.0938 285.184 38.1932 284.862 38.392C284.54 38.5862 284.379 38.8466 284.379 39.1733C284.379 39.4337 284.483 39.6539 284.692 39.8338C284.9 40.0137 285.258 40.1581 285.764 40.267L287.739 40.6648C288.799 40.8826 289.59 41.233 290.111 41.7159C290.632 42.1989 290.892 42.8333 290.892 43.6193C290.892 44.3343 290.681 44.9616 290.26 45.5014C289.843 46.0412 289.27 46.4626 288.541 46.7656C287.817 47.0639 286.981 47.2131 286.034 47.2131C284.59 47.2131 283.439 46.9124 282.582 46.3111C281.73 45.705 281.231 44.8812 281.084 43.8395L284.06 43.6832C284.15 44.1236 284.367 44.4598 284.713 44.6918C285.059 44.919 285.501 45.0327 286.041 45.0327C286.571 45.0327 286.998 44.9309 287.32 44.7273C287.646 44.5189 287.812 44.2514 287.817 43.9247C287.812 43.6501 287.696 43.4252 287.469 43.25C287.241 43.0701 286.891 42.9328 286.418 42.8381L284.528 42.4616C283.463 42.2486 282.67 41.8793 282.149 41.3537C281.633 40.8281 281.375 40.1581 281.375 39.3438C281.375 38.643 281.564 38.0393 281.943 37.5327C282.327 37.026 282.864 36.6354 283.555 36.3608C284.251 36.0862 285.066 35.9489 285.999 35.9489C287.376 35.9489 288.461 36.2401 289.251 36.8224C290.047 37.4048 290.511 38.1979 290.643 39.2017Z" fill="#6D47D9"/>
<rect x="310.333" y="26" width="40" height="40" rx="20" fill="#EEF2FF"/>
<path d="M331.333 44V37L322.333 48H329.333V55L338.333 44H331.333V44" stroke="#4F46E5" stroke-width="2" stroke-linecap="round" stroke-linejoin="round"/>
<path d="M28.0043 113V102.818H31.8224C32.6046 102.818 33.2609 102.954 33.7912 103.226C34.3248 103.498 34.7275 103.879 34.9993 104.369C35.2744 104.857 35.4119 105.425 35.4119 106.075C35.4119 106.728 35.2727 107.294 34.9943 107.775C34.7192 108.252 34.3132 108.622 33.7763 108.884C33.2393 109.142 32.5798 109.271 31.7976 109.271H29.0781V107.74H31.549C32.0064 107.74 32.3809 107.677 32.6726 107.551C32.9643 107.422 33.1797 107.235 33.3189 106.989C33.4614 106.741 33.5327 106.436 33.5327 106.075C33.5327 105.713 33.4614 105.405 33.3189 105.15C33.1764 104.891 32.9593 104.696 32.6676 104.563C32.3759 104.427 31.9998 104.359 31.5391 104.359H29.8487V113H28.0043ZM33.2642 108.386L35.7848 113H33.7266L31.2507 108.386H33.2642ZM37.0302 113V105.364H38.8299V113H37.0302ZM37.935 104.28C37.65 104.28 37.4047 104.185 37.1992 103.996C36.9937 103.804 36.891 103.574 36.891 103.305C36.891 103.034 36.9937 102.803 37.1992 102.614C37.4047 102.422 37.65 102.326 37.935 102.326C38.2234 102.326 38.4686 102.422 38.6708 102.614C38.8763 102.803 38.979 103.034 38.979 103.305C38.979 103.574 38.8763 103.804 38.6708 103.996C38.4686 104.185 38.2234 104.28 37.935 104.28ZM46.7161 107.382L45.0755 107.561C45.0291 107.395 44.9479 107.24 44.8319 107.094C44.7192 106.948 44.5667 106.83 44.3745 106.741C44.1822 106.651 43.9469 106.607 43.6685 106.607C43.294 106.607 42.9791 106.688 42.7239 106.85C42.472 107.013 42.3477 107.223 42.351 107.482C42.3477 107.704 42.4289 107.884 42.5946 108.023C42.7637 108.163 43.0421 108.277 43.4299 108.366L44.7324 108.645C45.455 108.801 45.9919 109.048 46.3432 109.386C46.6979 109.724 46.8768 110.166 46.8801 110.713C46.8768 111.194 46.736 111.618 46.4576 111.986C46.1825 112.35 45.7997 112.635 45.3091 112.841C44.8186 113.046 44.2551 113.149 43.6188 113.149C42.6841 113.149 41.9318 112.954 41.3617 112.562C40.7916 112.168 40.4519 111.62 40.3425 110.917L42.0975 110.748C42.177 111.093 42.3461 111.353 42.6046 111.528C42.8631 111.704 43.1995 111.792 43.6138 111.792C44.0414 111.792 44.3844 111.704 44.6429 111.528C44.9048 111.353 45.0357 111.136 45.0357 110.877C45.0357 110.658 44.9512 110.478 44.7821 110.335C44.6164 110.193 44.3579 110.083 44.0066 110.007L42.704 109.734C41.9715 109.581 41.4296 109.324 41.0783 108.963C40.727 108.598 40.553 108.138 40.5563 107.581C40.553 107.11 40.6806 106.703 40.9391 106.358C41.2009 106.01 41.5639 105.741 42.0279 105.553C42.4952 105.36 43.0338 105.264 43.6436 105.264C44.5385 105.264 45.2428 105.455 45.7566 105.836C46.2736 106.217 46.5935 106.732 46.7161 107.382ZM50.0048 110.604L49.9998 108.431H50.2882L53.0325 105.364H55.1355L51.7598 109.122H51.3869L50.0048 110.604ZM48.3642 113V102.818H50.1639V113H48.3642ZM53.1568 113L50.671 109.525L51.8841 108.257L55.3095 113H53.1568ZM59.4396 104.364V102.818H67.5632V104.364H64.4162V113H62.5866V104.364H59.4396ZM68.2567 113V105.364H70.0018V106.636H70.0813C70.2205 106.196 70.4592 105.856 70.7972 105.617C71.1386 105.375 71.5281 105.254 71.9656 105.254C72.065 105.254 72.176 105.259 72.2987 105.269C72.4246 105.276 72.529 105.287 72.6119 105.304V106.96C72.5356 106.933 72.4147 106.91 72.2489 106.89C72.0865 106.867 71.9291 106.855 71.7766 106.855C71.4485 106.855 71.1535 106.926 70.8917 107.069C70.6332 107.208 70.4293 107.402 70.2802 107.651C70.131 107.899 70.0565 108.186 70.0565 108.511V113H68.2567ZM76.8738 113.149C76.1081 113.149 75.4469 112.99 74.8901 112.672C74.3366 112.35 73.9107 111.896 73.6124 111.31C73.3141 110.72 73.165 110.025 73.165 109.227C73.165 108.441 73.3141 107.752 73.6124 107.158C73.914 106.562 74.3349 106.098 74.8752 105.766C75.4154 105.432 76.0501 105.264 76.7793 105.264C77.2499 105.264 77.6941 105.34 78.1117 105.493C78.5326 105.642 78.9038 105.874 79.2253 106.189C79.5501 106.504 79.8053 106.905 79.9909 107.392C80.1766 107.876 80.2694 108.453 80.2694 109.122V109.674H74.0101V108.461H78.5442C78.5409 108.116 78.4663 107.81 78.3205 107.541C78.1747 107.269 77.9708 107.056 77.709 106.9C77.4505 106.744 77.1489 106.666 76.8042 106.666C76.4363 106.666 76.1131 106.756 75.8347 106.935C75.5563 107.11 75.3392 107.342 75.1834 107.631C75.031 107.916 74.9531 108.229 74.9498 108.57V109.629C74.9498 110.073 75.031 110.455 75.1934 110.773C75.3558 111.088 75.5828 111.33 75.8745 111.499C76.1661 111.664 76.5075 111.747 76.8986 111.747C77.1605 111.747 77.3974 111.711 77.6096 111.638C77.8217 111.562 78.0056 111.451 78.1614 111.305C78.3172 111.159 78.4348 110.978 78.5144 110.763L80.1948 110.952C80.0887 111.396 79.8865 111.784 79.5882 112.115C79.2933 112.443 78.9154 112.698 78.4547 112.881C77.994 113.06 77.467 113.149 76.8738 113.149ZM83.5916 108.526V113H81.7919V105.364H83.5121V106.661H83.6016C83.7772 106.234 84.0573 105.894 84.4418 105.642C84.8295 105.39 85.3085 105.264 85.8786 105.264C86.4055 105.264 86.8646 105.377 87.2557 105.602C87.6501 105.828 87.955 106.154 88.1705 106.582C88.3892 107.009 88.4969 107.528 88.4936 108.138V113H86.6939V108.416C86.6939 107.906 86.5613 107.506 86.2962 107.218C86.0343 106.93 85.6714 106.786 85.2074 106.786C84.8925 106.786 84.6125 106.855 84.3672 106.994C84.1252 107.13 83.9347 107.327 83.7955 107.586C83.6596 107.844 83.5916 108.158 83.5916 108.526ZM93.157 113.134C92.5571 113.134 92.0201 112.98 91.5462 112.672C91.0722 112.364 90.6977 111.916 90.4226 111.33C90.1475 110.743 90.0099 110.03 90.0099 109.192C90.0099 108.343 90.1491 107.627 90.4276 107.044C90.7093 106.457 91.0888 106.015 91.5661 105.717C92.0433 105.415 92.5753 105.264 93.1619 105.264C93.6094 105.264 93.9773 105.34 94.2656 105.493C94.554 105.642 94.7827 105.823 94.9517 106.035C95.1207 106.244 95.2517 106.441 95.3445 106.626H95.419V102.818H97.2237V113H95.4538V111.797H95.3445C95.2517 111.982 95.1174 112.18 94.9418 112.388C94.7661 112.594 94.5341 112.77 94.2457 112.915C93.9574 113.061 93.5945 113.134 93.157 113.134ZM93.6591 111.658C94.0402 111.658 94.3651 111.555 94.6335 111.349C94.902 111.141 95.1058 110.851 95.245 110.479C95.3842 110.108 95.4538 109.676 95.4538 109.182C95.4538 108.688 95.3842 108.259 95.245 107.894C95.1091 107.53 94.907 107.246 94.6385 107.044C94.3733 106.842 94.0469 106.741 93.6591 106.741C93.258 106.741 92.9233 106.845 92.6548 107.054C92.3864 107.263 92.1842 107.551 92.0483 107.919C91.9124 108.287 91.8445 108.708 91.8445 109.182C91.8445 109.659 91.9124 110.085 92.0483 110.46C92.1875 110.831 92.3913 111.124 92.6598 111.339C92.9316 111.552 93.2647 111.658 93.6591 111.658Z" fill="#64748B"/>
<g clip-path="url(#clip0_1002_686)">
<path d="M27.0049 263.328C53.9482 263.328 75.5029 252.551 91.6689 230.996C107.835 209.441 129.39 204.053 156.333 214.83C183.276 225.607 204.831 214.83 220.997 182.498C237.163 150.166 258.718 155.555 285.661 198.664C312.604 241.773 334.159 225.607 350.325 150.166" stroke="#6D47D9" stroke-width="2.4249"/>
<path d="M88.4365 230.996C88.4365 232.78 89.8853 234.229 91.6697 234.229C93.4542 234.229 94.9029 232.78 94.9029 230.996C94.9029 229.212 93.4542 227.763 91.6697 227.763C89.8853 227.763 88.4365 229.212 88.4365 230.996V230.996" fill="#6D47D9"/>
<path d="M153.101 214.83C153.101 216.614 154.55 218.063 156.334 218.063C158.119 218.063 159.567 216.614 159.567 214.83C159.567 213.046 158.119 211.597 156.334 211.597C154.55 211.597 153.101 213.046 153.101 214.83V214.83" fill="#6D47D9"/>
<path d="M217.766 182.498C217.766 184.282 219.214 185.731 220.999 185.731C222.783 185.731 224.232 184.282 224.232 182.498C224.232 180.714 222.783 179.265 220.999 179.265C219.214 179.265 217.766 180.714 217.766 182.498V182.498" fill="#6D47D9"/>
<path d="M282.431 198.664C282.431 200.448 283.879 201.897 285.664 201.897C287.448 201.897 288.897 200.448 288.897 198.664C288.897 196.88 287.448 195.431 285.664 195.431C283.879 195.431 282.431 196.88 282.431 198.664V198.664" fill="#6D47D9"/>
<path d="M347.095 150.166C347.095 151.951 348.544 153.399 350.328 153.399C352.113 153.399 353.562 151.951 353.562 150.166C353.562 148.382 352.113 146.933 350.328 146.933C348.544 146.933 347.095 148.382 347.095 150.166V150.166" fill="#6D47D9"/>
</g>
<rect x="257.831" y="199.66" width="76" height="55.5" rx="11.5" fill="white"/>
<rect x="257.831" y="199.66" width="76" height="55.5" rx="11.5" stroke="#F1F5F9"/>
<g filter="url(#filter1_dd_1002_686)">
<rect x="257.331" y="199.16" width="77.47" height="57" rx="12" fill="white" fill-opacity="0.01" shape-rendering="crispEdges"/>
</g>
<path d="M271.551 223.16V215.887H274.144C274.707 215.887 275.175 215.984 275.546 216.178C275.921 216.373 276.2 216.641 276.385 216.984C276.569 217.325 276.662 217.72 276.662 218.167C276.662 218.612 276.568 219.004 276.381 219.342C276.196 219.679 275.917 219.94 275.543 220.127C275.171 220.314 274.704 220.408 274.14 220.408H272.176V219.463H274.041C274.396 219.463 274.685 219.412 274.907 219.31C275.132 219.209 275.297 219.061 275.401 218.867C275.505 218.672 275.557 218.439 275.557 218.167C275.557 217.892 275.504 217.654 275.397 217.453C275.293 217.252 275.129 217.098 274.904 216.992C274.681 216.883 274.389 216.828 274.027 216.828H272.649V223.16H271.551ZM275.142 219.879L276.939 223.16H275.689L273.927 219.879H275.142ZM277.912 223.16V217.705H278.973V223.16H277.912ZM278.448 216.864C278.263 216.864 278.104 216.802 277.972 216.679C277.842 216.554 277.777 216.404 277.777 216.232C277.777 216.056 277.842 215.907 277.972 215.784C278.104 215.659 278.263 215.596 278.448 215.596C278.632 215.596 278.79 215.659 278.92 215.784C279.053 215.907 279.119 216.056 279.119 216.232C279.119 216.404 279.053 216.554 278.92 216.679C278.79 216.802 278.632 216.864 278.448 216.864ZM284.489 219.037L283.527 219.207C283.487 219.084 283.423 218.967 283.335 218.856C283.25 218.745 283.134 218.654 282.987 218.582C282.84 218.511 282.657 218.476 282.437 218.476C282.136 218.476 281.885 218.543 281.684 218.678C281.482 218.811 281.382 218.983 281.382 219.193C281.382 219.376 281.449 219.522 281.584 219.634C281.719 219.745 281.937 219.836 282.238 219.907L283.104 220.106C283.606 220.222 283.98 220.401 284.226 220.642C284.473 220.884 284.596 221.197 284.596 221.583C284.596 221.91 284.501 222.201 284.312 222.457C284.125 222.71 283.863 222.909 283.527 223.053C283.193 223.198 282.806 223.27 282.366 223.27C281.755 223.27 281.256 223.14 280.871 222.879C280.485 222.617 280.248 222.244 280.16 221.761L281.187 221.605C281.25 221.872 281.382 222.074 281.581 222.212C281.78 222.347 282.039 222.414 282.358 222.414C282.706 222.414 282.985 222.342 283.193 222.198C283.401 222.051 283.505 221.872 283.505 221.661C283.505 221.491 283.442 221.348 283.314 221.232C283.188 221.116 282.995 221.028 282.735 220.969L281.812 220.766C281.303 220.65 280.926 220.466 280.682 220.212C280.441 219.959 280.32 219.638 280.32 219.25C280.32 218.928 280.41 218.646 280.59 218.405C280.77 218.163 281.018 217.975 281.336 217.84C281.653 217.703 282.016 217.634 282.426 217.634C283.015 217.634 283.479 217.762 283.818 218.018C284.157 218.271 284.38 218.611 284.489 219.037ZM286.74 221.31L286.733 220.014H286.917L289.091 217.705H290.362L287.883 220.333H287.716L286.74 221.31ZM285.763 223.16V215.887H286.825V223.16H285.763ZM289.208 223.16L287.255 220.568L287.986 219.825L290.511 223.16H289.208ZM298.028 217.798C297.99 217.462 297.834 217.201 297.559 217.016C297.284 216.829 296.939 216.736 296.522 216.736C296.224 216.736 295.966 216.783 295.748 216.878C295.53 216.97 295.361 217.098 295.24 217.261C295.122 217.422 295.063 217.606 295.063 217.812C295.063 217.985 295.103 218.134 295.183 218.259C295.266 218.385 295.374 218.49 295.507 218.575C295.641 218.658 295.786 218.728 295.94 218.785C296.094 218.839 296.242 218.884 296.384 218.92L297.094 219.105C297.326 219.161 297.564 219.238 297.808 219.335C298.052 219.432 298.278 219.56 298.486 219.719C298.694 219.877 298.862 220.074 298.99 220.308C299.12 220.543 299.186 220.823 299.186 221.15C299.186 221.562 299.079 221.928 298.866 222.247C298.655 222.567 298.349 222.819 297.946 223.004C297.546 223.188 297.062 223.281 296.494 223.281C295.949 223.281 295.478 223.194 295.08 223.021C294.683 222.849 294.371 222.604 294.146 222.286C293.922 221.967 293.797 221.588 293.774 221.15H294.874C294.896 221.413 294.981 221.632 295.13 221.807C295.282 221.98 295.475 222.109 295.709 222.194C295.946 222.277 296.205 222.318 296.487 222.318C296.797 222.318 297.073 222.27 297.314 222.173C297.558 222.073 297.75 221.936 297.889 221.761C298.029 221.583 298.099 221.376 298.099 221.139C298.099 220.924 298.037 220.748 297.914 220.61C297.793 220.473 297.629 220.359 297.421 220.269C297.215 220.179 296.981 220.1 296.721 220.031L295.862 219.797C295.279 219.638 294.818 219.405 294.477 219.097C294.138 218.79 293.969 218.382 293.969 217.876C293.969 217.457 294.083 217.091 294.31 216.779C294.537 216.466 294.845 216.223 295.233 216.051C295.621 215.875 296.059 215.788 296.547 215.788C297.039 215.788 297.474 215.874 297.85 216.047C298.229 216.22 298.527 216.458 298.745 216.761C298.963 217.061 299.077 217.407 299.086 217.798H298.028ZM302.709 223.27C302.181 223.27 301.727 223.15 301.345 222.911C300.967 222.67 300.676 222.337 300.472 221.913C300.268 221.49 300.167 221.004 300.167 220.457C300.167 219.904 300.271 219.415 300.479 218.991C300.687 218.565 300.981 218.232 301.36 217.993C301.738 217.754 302.185 217.634 302.698 217.634C303.113 217.634 303.482 217.711 303.806 217.865C304.131 218.017 304.392 218.23 304.591 218.504C304.792 218.779 304.912 219.1 304.95 219.467H303.917C303.86 219.211 303.729 218.991 303.526 218.806C303.325 218.622 303.055 218.529 302.716 218.529C302.42 218.529 302.161 218.607 301.939 218.764C301.718 218.917 301.547 219.138 301.424 219.424C301.301 219.708 301.239 220.044 301.239 220.433C301.239 220.83 301.299 221.174 301.42 221.462C301.541 221.751 301.711 221.975 301.931 222.134C302.154 222.292 302.416 222.372 302.716 222.372C302.917 222.372 303.1 222.335 303.263 222.261C303.429 222.186 303.567 222.078 303.679 221.938C303.792 221.799 303.872 221.631 303.917 221.434H304.95C304.912 221.787 304.797 222.102 304.605 222.379C304.414 222.656 304.157 222.873 303.835 223.032C303.515 223.191 303.14 223.27 302.709 223.27ZM308.383 223.27C307.872 223.27 307.425 223.153 307.044 222.918C306.663 222.684 306.367 222.356 306.156 221.935C305.946 221.513 305.84 221.021 305.84 220.457C305.84 219.892 305.946 219.397 306.156 218.973C306.367 218.549 306.663 218.22 307.044 217.986C307.425 217.752 307.872 217.634 308.383 217.634C308.894 217.634 309.341 217.752 309.722 217.986C310.103 218.22 310.399 218.549 310.61 218.973C310.82 219.397 310.926 219.892 310.926 220.457C310.926 221.021 310.82 221.513 310.61 221.935C310.399 222.356 310.103 222.684 309.722 222.918C309.341 223.153 308.894 223.27 308.383 223.27ZM308.386 222.379C308.718 222.379 308.993 222.291 309.21 222.116C309.428 221.941 309.589 221.707 309.693 221.416C309.8 221.125 309.853 220.804 309.853 220.454C309.853 220.106 309.8 219.786 309.693 219.495C309.589 219.202 309.428 218.966 309.21 218.788C308.993 218.611 308.718 218.522 308.386 218.522C308.053 218.522 307.776 218.611 307.556 218.788C307.338 218.966 307.176 219.202 307.069 219.495C306.965 219.786 306.913 220.106 306.913 220.454C306.913 220.804 306.965 221.125 307.069 221.416C307.176 221.707 307.338 221.941 307.556 222.116C307.776 222.291 308.053 222.379 308.386 222.379ZM312.111 223.16V217.705H313.137V218.572H313.194C313.293 218.278 313.468 218.047 313.719 217.879C313.973 217.709 314.259 217.624 314.579 217.624C314.645 217.624 314.723 217.626 314.813 217.631C314.905 217.636 314.978 217.641 315.03 217.649V218.664C314.987 218.652 314.911 218.639 314.803 218.625C314.694 218.609 314.585 218.6 314.476 218.6C314.225 218.6 314.001 218.654 313.805 218.76C313.611 218.864 313.457 219.01 313.343 219.197C313.229 219.382 313.173 219.592 313.173 219.829V223.16H312.111ZM318.104 223.27C317.567 223.27 317.104 223.155 316.716 222.926C316.33 222.694 316.032 222.368 315.821 221.949C315.612 221.528 315.508 221.034 315.508 220.468C315.508 219.909 315.612 219.417 315.821 218.991C316.032 218.565 316.325 218.232 316.701 217.993C317.08 217.754 317.523 217.634 318.03 217.634C318.337 217.634 318.636 217.685 318.924 217.787C319.213 217.889 319.473 218.049 319.702 218.266C319.932 218.484 320.113 218.767 320.246 219.115C320.378 219.461 320.444 219.881 320.444 220.376V220.752H316.108V219.957H319.404C319.404 219.677 319.347 219.43 319.233 219.215C319.12 218.997 318.96 218.825 318.754 218.7C318.55 218.574 318.311 218.511 318.037 218.511C317.738 218.511 317.478 218.585 317.255 218.732C317.035 218.876 316.865 219.065 316.744 219.3C316.626 219.532 316.567 219.784 316.567 220.056V220.678C316.567 221.042 316.63 221.352 316.758 221.608C316.889 221.864 317.07 222.059 317.302 222.194C317.534 222.327 317.805 222.393 318.115 222.393C318.316 222.393 318.5 222.364 318.665 222.308C318.831 222.248 318.974 222.161 319.095 222.045C319.216 221.929 319.308 221.786 319.372 221.615L320.377 221.796C320.296 222.092 320.152 222.351 319.944 222.574C319.738 222.794 319.478 222.966 319.166 223.089C318.856 223.21 318.502 223.27 318.104 223.27Z" fill="#94A3B8"/>
<path d="M282.937 238.66V229.933H284.782V233.533H288.528V229.933H290.369V238.66H288.528V235.055H284.782V238.66H282.937ZM291.856 238.66V232.114H293.671V238.66H291.856ZM292.768 231.271C292.498 231.271 292.266 231.181 292.073 231.002C291.883 230.82 291.788 230.603 291.788 230.35C291.788 230.1 291.883 229.886 292.073 229.707C292.266 229.525 292.498 229.434 292.768 229.434C293.038 229.434 293.268 229.525 293.458 229.707C293.651 229.886 293.748 230.1 293.748 230.35C293.748 230.603 293.651 230.82 293.458 231.002C293.268 231.181 293.038 231.271 292.768 231.271ZM298.074 241.251C297.486 241.251 296.982 241.17 296.561 241.008C296.144 240.849 295.811 240.632 295.564 240.356C295.317 240.08 295.157 239.771 295.083 239.427L296.762 239.201C296.813 239.332 296.894 239.454 297.005 239.568C297.115 239.681 297.262 239.772 297.443 239.84C297.628 239.911 297.853 239.947 298.117 239.947C298.512 239.947 298.837 239.85 299.093 239.657C299.351 239.467 299.48 239.147 299.48 238.698V237.501H299.404C299.324 237.683 299.205 237.855 299.046 238.016C298.887 238.178 298.682 238.31 298.432 238.413C298.182 238.515 297.884 238.566 297.537 238.566C297.046 238.566 296.598 238.453 296.195 238.225C295.794 237.995 295.475 237.644 295.236 237.173C295 236.698 294.882 236.099 294.882 235.374C294.882 234.633 295.003 234.014 295.245 233.516C295.486 233.019 295.807 232.647 296.208 232.4C296.611 232.153 297.053 232.029 297.533 232.029C297.899 232.029 298.206 232.092 298.453 232.217C298.701 232.339 298.899 232.492 299.05 232.677C299.203 232.859 299.321 233.038 299.404 233.214H299.472V232.114H301.274V238.724C301.274 239.281 301.138 239.747 300.865 240.122C300.593 240.497 300.215 240.778 299.732 240.965C299.252 241.156 298.699 241.251 298.074 241.251ZM298.113 237.203C298.405 237.203 298.652 237.13 298.854 236.985C299.059 236.837 299.215 236.627 299.323 236.355C299.434 236.079 299.489 235.749 299.489 235.366C299.489 234.982 299.435 234.65 299.327 234.369C299.219 234.085 299.063 233.864 298.858 233.708C298.654 233.552 298.405 233.474 298.113 233.474C297.814 233.474 297.563 233.555 297.358 233.717C297.154 233.876 296.999 234.097 296.894 234.382C296.789 234.666 296.736 234.994 296.736 235.366C296.736 235.744 296.789 236.07 296.894 236.346C297.002 236.619 297.157 236.83 297.358 236.981C297.563 237.129 297.814 237.203 298.113 237.203ZM304.534 234.876V238.66H302.719V229.933H304.483V233.269H304.56C304.708 232.883 304.946 232.58 305.276 232.362C305.605 232.14 306.019 232.029 306.516 232.029C306.97 232.029 307.367 232.129 307.705 232.328C308.046 232.524 308.31 232.806 308.497 233.176C308.688 233.542 308.782 233.981 308.779 234.492V238.66H306.963V234.816C306.966 234.413 306.864 234.099 306.657 233.874C306.452 233.65 306.165 233.538 305.796 233.538C305.549 233.538 305.33 233.59 305.14 233.695C304.952 233.801 304.804 233.954 304.696 234.156C304.591 234.355 304.537 234.595 304.534 234.876Z" fill="#EF4444"/>
<rect x="27" y="327.66" width="128" height="8" rx="4" fill="#F1F5F9"/>
<rect x="27" y="343.66" width="192" height="8" rx="4" fill="#F1F5F9"/>
</g>
<defs>
<filter id="filter0_d_1002_686" x="0" y="0" width="377.333" height="379.66" filterUnits="userSpaceOnUse" color-interpolation-filters="sRGB">
<feFlood flood-opacity="0" result="BackgroundImageFix"/>
<feColorMatrix in="SourceAlpha" type="matrix" values="0 0 0 0 0 0 0 0 0 0 0 0 0 0 0 0 0 0 127 0" result="hardAlpha"/>
<feOffset dy="1"/>
<feGaussianBlur stdDeviation="1"/>
<feComposite in2="hardAlpha" operator="out"/>
<feColorMatrix type="matrix" values="0 0 0 0 0 0 0 0 0 0 0 0 0 0 0 0 0 0 0.05 0"/>
<feBlend mode="normal" in2="BackgroundImageFix" result="effect1_dropShadow_1002_686"/>
<feBlend mode="normal" in="SourceGraphic" in2="effect1_dropShadow_1002_686" result="shape"/>
</filter>
<filter id="filter1_dd_1002_686" x="245.331" y="197.16" width="101.47" height="81" filterUnits="userSpaceOnUse" color-interpolation-filters="sRGB">
<feFlood flood-opacity="0" result="BackgroundImageFix"/>
<feColorMatrix in="SourceAlpha" type="matrix" values="0 0 0 0 0 0 0 0 0 0 0 0 0 0 0 0 0 0 127 0" result="hardAlpha"/>
<feMorphology radius="4" operator="erode" in="SourceAlpha" result="effect1_dropShadow_1002_686"/>
<feOffset dy="4"/>
<feGaussianBlur stdDeviation="3"/>
<feComposite in2="hardAlpha" operator="out"/>
<feColorMatrix type="matrix" values="0 0 0 0 0 0 0 0 0 0 0 0 0 0 0 0 0 0 0.1 0"/>
<feBlend mode="normal" in2="BackgroundImageFix" result="effect1_dropShadow_1002_686"/>
<feColorMatrix in="SourceAlpha" type="matrix" values="0 0 0 0 0 0 0 0 0 0 0 0 0 0 0 0 0 0 127 0" result="hardAlpha"/>
<feMorphology radius="3" operator="erode" in="SourceAlpha" result="effect2_dropShadow_1002_686"/>
<feOffset dy="10"/>
<feGaussianBlur stdDeviation="7.5"/>
<feComposite in2="hardAlpha" operator="out"/>
<feColorMatrix type="matrix" values="0 0 0 0 0 0 0 0 0 0 0 0 0 0 0 0 0 0 0.1 0"/>
<feBlend mode="normal" in2="effect1_dropShadow_1002_686" result="effect2_dropShadow_1002_686"/>
<feBlend mode="normal" in="SourceGraphic" in2="effect2_dropShadow_1002_686" result="shape"/>
</filter>
<clipPath id="clip0_1002_686">
<rect width="323.333" height="161.66" fill="white" transform="translate(27 134)"/>
</clipPath>
</defs>
</svg>
