<svg width="378" height="380" viewBox="0 0 378 380" fill="none" xmlns="http://www.w3.org/2000/svg">
<g filter="url(#filter0_d_1002_711)">
<rect x="2" y="1" width="373.333" height="375.66" rx="24" fill="white" shape-rendering="crispEdges"/>
<rect x="2.5" y="1.5" width="372.333" height="374.66" rx="23.5" stroke="#F1F5F9" shape-rendering="crispEdges"/>
<path d="M33.5554 47.1989C32.4948 47.1989 31.5502 47.0166 30.7216 46.652C29.8977 46.2827 29.2467 45.776 28.7685 45.1321C28.295 44.4834 28.0511 43.7353 28.0369 42.8878H31.1335C31.1525 43.2429 31.2685 43.5554 31.4815 43.8253C31.6993 44.0904 31.9882 44.2964 32.348 44.4432C32.7079 44.59 33.1127 44.6634 33.5625 44.6634C34.0312 44.6634 34.4455 44.5805 34.8054 44.4148C35.1652 44.2491 35.447 44.0194 35.6506 43.7259C35.8542 43.4323 35.956 43.0937 35.956 42.7102C35.956 42.322 35.8471 41.9787 35.6293 41.6804C35.4162 41.3774 35.1084 41.1406 34.706 40.9702C34.3082 40.7997 33.8348 40.7145 33.2855 40.7145H31.929V38.456H33.2855C33.7495 38.456 34.1591 38.3755 34.5142 38.2145C34.8741 38.0535 35.1534 37.831 35.3523 37.5469C35.5511 37.258 35.6506 36.9219 35.6506 36.5384C35.6506 36.1738 35.563 35.8542 35.3878 35.5795C35.2173 35.3002 34.9759 35.0824 34.6634 34.9261C34.3556 34.7699 33.9957 34.6918 33.5838 34.6918C33.1671 34.6918 32.786 34.7675 32.4403 34.919C32.0947 35.0658 31.8177 35.2765 31.6094 35.5511C31.401 35.8258 31.2898 36.1477 31.2756 36.517H28.3281C28.3423 35.679 28.5814 34.9403 29.0455 34.3011C29.5095 33.6619 30.1345 33.1624 30.9205 32.8026C31.7112 32.438 32.6037 32.2557 33.598 32.2557C34.6018 32.2557 35.4801 32.438 36.233 32.8026C36.9858 33.1671 37.5705 33.6596 37.9872 34.2798C38.4086 34.8954 38.617 35.5866 38.6122 36.3537C38.617 37.1681 38.3636 37.8475 37.8523 38.392C37.3456 38.9366 36.6851 39.2822 35.8707 39.429V39.5426C36.9408 39.6799 37.7552 40.0516 38.3139 40.6577C38.8774 41.259 39.1567 42.0118 39.152 42.9162C39.1567 43.7448 38.9176 44.4811 38.4347 45.125C37.9564 45.7689 37.2959 46.2756 36.4531 46.6449C35.6103 47.0142 34.6444 47.1989 33.5554 47.1989ZM42.7493 47.1847C42.2805 47.1847 41.8781 47.0189 41.5419 46.6875C41.2105 46.3513 41.0447 45.9489 41.0447 45.4801C41.0447 45.0161 41.2105 44.6184 41.5419 44.2869C41.8781 43.9555 42.2805 43.7898 42.7493 43.7898C43.2038 43.7898 43.6016 43.9555 43.9425 44.2869C44.2834 44.6184 44.4538 45.0161 44.4538 45.4801C44.4538 45.7926 44.3733 46.0791 44.2124 46.3395C44.0561 46.5952 43.8501 46.8011 43.5945 46.9574C43.3388 47.1089 43.0571 47.1847 42.7493 47.1847ZM58.8306 36.6378C58.7738 36.0649 58.5299 35.6198 58.0991 35.3026C57.6682 34.9853 57.0835 34.8267 56.3448 34.8267C55.8429 34.8267 55.4192 34.8977 55.0735 35.0398C54.7279 35.1771 54.4627 35.3688 54.2781 35.6151C54.0981 35.8613 54.0082 36.1406 54.0082 36.4531C53.9987 36.7135 54.0531 36.9408 54.1715 37.1349C54.2946 37.3291 54.4627 37.4972 54.6758 37.6392C54.8888 37.7765 55.1351 37.8973 55.4144 38.0014C55.6938 38.1009 55.9921 38.1861 56.3093 38.2571L57.6161 38.5696C58.2506 38.7116 58.833 38.901 59.3633 39.1378C59.8936 39.3745 60.3529 39.6657 60.7411 40.0114C61.1294 40.357 61.43 40.7642 61.6431 41.233C61.8609 41.7017 61.9722 42.2391 61.9769 42.8452C61.9722 43.7353 61.7449 44.5071 61.2951 45.1605C60.85 45.8092 60.2061 46.3134 59.3633 46.6733C58.5252 47.0284 57.5143 47.206 56.3306 47.206C55.1564 47.206 54.1336 47.026 53.2624 46.6662C52.396 46.3063 51.7189 45.7737 51.2312 45.0682C50.7482 44.358 50.4949 43.4796 50.4712 42.4332H53.4471C53.4802 42.9209 53.6199 43.3281 53.8661 43.6548C54.1171 43.9768 54.4509 44.2206 54.8675 44.3864C55.2889 44.5473 55.7648 44.6278 56.2951 44.6278C56.8159 44.6278 57.2681 44.5521 57.6516 44.4006C58.0399 44.2491 58.3406 44.0384 58.5536 43.7685C58.7667 43.4986 58.8732 43.1884 58.8732 42.8381C58.8732 42.5114 58.7762 42.2367 58.582 42.0142C58.3926 41.7917 58.1133 41.6023 57.744 41.446C57.3794 41.2898 56.9319 41.1477 56.4016 41.0199L54.8178 40.6222C53.5915 40.3239 52.6232 39.8575 51.913 39.223C51.2028 38.5885 50.85 37.7339 50.8548 36.6591C50.85 35.7784 51.0844 35.009 51.5579 34.3509C52.0361 33.6927 52.6919 33.179 53.5252 32.8097C54.3585 32.4403 55.3055 32.2557 56.3661 32.2557C57.4457 32.2557 58.3879 32.4403 59.1928 32.8097C60.0025 33.179 60.6322 33.6927 61.082 34.3509C61.5318 35.009 61.7638 35.7713 61.7781 36.6378H58.8306ZM63.9886 47V36.0909H66.8722V38.0156H67C67.2273 37.3764 67.6061 36.8722 68.1364 36.5028C68.6667 36.1335 69.3011 35.9489 70.0398 35.9489C70.7879 35.9489 71.4247 36.1359 71.9503 36.5099C72.4759 36.8793 72.8262 37.3812 73.0014 38.0156H73.1151C73.3376 37.3906 73.7401 36.8911 74.3224 36.517C74.9096 36.1383 75.6032 35.9489 76.4034 35.9489C77.4214 35.9489 78.2476 36.2732 78.8821 36.9219C79.5213 37.5658 79.8409 38.4796 79.8409 39.6634V47H76.8224V40.2599C76.8224 39.6539 76.6615 39.1993 76.3395 38.8963C76.0175 38.5933 75.6151 38.4418 75.1321 38.4418C74.5829 38.4418 74.1544 38.617 73.8466 38.9673C73.5388 39.313 73.3849 39.7699 73.3849 40.3381V47H70.4517V40.196C70.4517 39.661 70.2978 39.2348 69.9901 38.9176C69.687 38.6004 69.2869 38.4418 68.7898 38.4418C68.4536 38.4418 68.1506 38.527 67.8807 38.6974C67.6155 38.8632 67.4048 39.0975 67.2486 39.4006C67.0923 39.6989 67.0142 40.0492 67.0142 40.4517V47H63.9886ZM85.3416 47.206C84.6456 47.206 84.0253 47.0852 83.4808 46.8438C82.9363 46.5975 82.5054 46.2353 82.1882 45.7571C81.8757 45.2741 81.7195 44.6728 81.7195 43.9531C81.7195 43.3471 81.8307 42.8381 82.0533 42.4261C82.2758 42.0142 82.5788 41.6828 82.9624 41.4318C83.3459 41.1809 83.7815 40.9915 84.2692 40.8636C84.7616 40.7358 85.2777 40.6458 85.8175 40.5938C86.4519 40.5275 86.9633 40.4659 87.3516 40.4091C87.7398 40.3475 88.0215 40.2576 88.1967 40.1392C88.3719 40.0208 88.4595 39.8456 88.4595 39.6136V39.571C88.4595 39.1212 88.3175 38.7732 88.0334 38.527C87.754 38.2808 87.3563 38.1577 86.8402 38.1577C86.2957 38.1577 85.8625 38.2784 85.5405 38.5199C85.2185 38.7566 85.0054 39.0549 84.9013 39.4148L82.103 39.1875C82.245 38.5246 82.5244 37.9517 82.9411 37.4688C83.3577 36.9811 83.8951 36.607 84.5533 36.3466C85.2161 36.0814 85.9832 35.9489 86.8544 35.9489C87.4605 35.9489 88.0405 36.0199 88.5945 36.1619C89.1532 36.304 89.648 36.5241 90.0788 36.8224C90.5144 37.1207 90.8577 37.5043 91.1087 37.973C91.3596 38.437 91.4851 38.9934 91.4851 39.642V47H88.6158V45.4872H88.5305C88.3554 45.8281 88.121 46.1288 87.8274 46.3892C87.5339 46.6449 87.1811 46.8461 86.7692 46.9929C86.3572 47.1349 85.8814 47.206 85.3416 47.206ZM86.2081 45.1179C86.6532 45.1179 87.0462 45.0303 87.3871 44.8551C87.728 44.6752 87.9955 44.4337 88.1896 44.1307C88.3838 43.8277 88.4808 43.4844 88.4808 43.1009V41.9432C88.3861 42.0047 88.2559 42.0616 88.0902 42.1136C87.9292 42.161 87.7469 42.206 87.5433 42.2486C87.3397 42.2865 87.1361 42.322 86.9325 42.3551C86.7289 42.3835 86.5443 42.4096 86.3786 42.4332C86.0234 42.4853 85.7133 42.5682 85.4482 42.6818C85.183 42.7955 84.977 42.9493 84.8303 43.1435C84.6835 43.3329 84.6101 43.5696 84.6101 43.8537C84.6101 44.2656 84.7592 44.5805 85.0575 44.7983C85.3606 45.0114 85.7441 45.1179 86.2081 45.1179ZM93.8324 47V36.0909H96.7656V37.9943H96.8793C97.0781 37.3172 97.4119 36.8059 97.8807 36.4602C98.3494 36.1098 98.8892 35.9347 99.5 35.9347C99.6515 35.9347 99.8149 35.9441 99.9901 35.9631C100.165 35.982 100.319 36.008 100.452 36.0412V38.7259C100.31 38.6832 100.113 38.6454 99.8622 38.6122C99.6113 38.5791 99.3816 38.5625 99.1733 38.5625C98.7282 38.5625 98.3305 38.6596 97.9801 38.8537C97.6345 39.0431 97.3598 39.3082 97.1562 39.6491C96.9574 39.9901 96.858 40.383 96.858 40.8281V47H93.8324ZM108.365 36.0909V38.3636H101.796V36.0909H108.365ZM103.287 33.4773H106.313V43.6477C106.313 43.9271 106.355 44.1449 106.441 44.3011C106.526 44.4527 106.644 44.5592 106.796 44.6207C106.952 44.6823 107.132 44.7131 107.336 44.7131C107.478 44.7131 107.62 44.7012 107.762 44.6776C107.904 44.6491 108.013 44.6278 108.088 44.6136L108.564 46.8651C108.413 46.9124 108.2 46.9669 107.925 47.0284C107.65 47.0947 107.317 47.1349 106.924 47.1491C106.194 47.1776 105.555 47.0805 105.006 46.858C104.462 46.6354 104.038 46.2898 103.735 45.821C103.432 45.3523 103.283 44.7604 103.287 44.0455V33.4773ZM115.022 47V32.4545H120.761C121.859 32.4545 122.797 32.651 123.573 33.044C124.354 33.4323 124.949 33.9839 125.356 34.6989C125.768 35.4091 125.974 36.2448 125.974 37.206C125.974 38.1719 125.765 39.0028 125.349 39.6989C124.932 40.3902 124.328 40.9205 123.538 41.2898C122.752 41.6591 121.8 41.8438 120.683 41.8438H116.84V39.3722H120.185C120.772 39.3722 121.26 39.2917 121.648 39.1307C122.037 38.9697 122.326 38.7282 122.515 38.4062C122.709 38.0843 122.806 37.6842 122.806 37.206C122.806 36.723 122.709 36.3158 122.515 35.9844C122.326 35.6529 122.034 35.402 121.641 35.2315C121.253 35.0563 120.763 34.9688 120.171 34.9688H118.097V47H115.022ZM122.877 40.3807L126.492 47H123.097L119.56 40.3807H122.877ZM132.886 47.2131C131.764 47.2131 130.798 46.9858 129.988 46.5312C129.183 46.072 128.563 45.4233 128.127 44.5852C127.692 43.7424 127.474 42.7457 127.474 41.5952C127.474 40.473 127.692 39.4882 128.127 38.6406C128.563 37.7931 129.176 37.1326 129.967 36.6591C130.762 36.1856 131.695 35.9489 132.765 35.9489C133.485 35.9489 134.155 36.0649 134.775 36.2969C135.4 36.5241 135.945 36.8674 136.409 37.3267C136.877 37.786 137.242 38.3636 137.502 39.0597C137.763 39.7509 137.893 40.5606 137.893 41.4886V42.3196H128.681V40.4446H135.045C135.045 40.009 134.95 39.6231 134.761 39.2869C134.572 38.9508 134.309 38.688 133.973 38.4986C133.641 38.3045 133.255 38.2074 132.815 38.2074C132.356 38.2074 131.949 38.3139 131.593 38.527C131.243 38.7353 130.968 39.017 130.77 39.3722C130.571 39.7225 130.469 40.1132 130.464 40.544V42.3267C130.464 42.8665 130.564 43.3329 130.762 43.7259C130.966 44.1188 131.252 44.4219 131.622 44.6349C131.991 44.848 132.429 44.9545 132.936 44.9545C133.272 44.9545 133.58 44.9072 133.859 44.8125C134.138 44.7178 134.377 44.5758 134.576 44.3864C134.775 44.197 134.927 43.965 135.031 43.6903L137.829 43.875C137.687 44.5473 137.396 45.1345 136.956 45.6364C136.52 46.1335 135.957 46.5218 135.265 46.8011C134.579 47.0758 133.786 47.2131 132.886 47.2131ZM144.797 47.2131C143.679 47.2131 142.718 46.9763 141.913 46.5028C141.113 46.0246 140.497 45.3617 140.066 44.5142C139.64 43.6667 139.427 42.6913 139.427 41.5881C139.427 40.4706 139.643 39.4905 140.074 38.6477C140.509 37.8002 141.127 37.1397 141.927 36.6662C142.727 36.188 143.679 35.9489 144.782 35.9489C145.734 35.9489 146.567 36.1217 147.282 36.4673C147.997 36.813 148.563 37.2983 148.98 37.9233C149.396 38.5483 149.626 39.2822 149.669 40.125H146.814C146.733 39.5805 146.52 39.1425 146.174 38.8111C145.833 38.4749 145.386 38.3068 144.832 38.3068C144.363 38.3068 143.954 38.4347 143.603 38.6903C143.258 38.9413 142.988 39.3082 142.794 39.7912C142.6 40.2741 142.502 40.8589 142.502 41.5455C142.502 42.2415 142.597 42.8333 142.787 43.321C142.981 43.8087 143.253 44.1804 143.603 44.4361C143.954 44.6918 144.363 44.8196 144.832 44.8196C145.178 44.8196 145.488 44.7486 145.762 44.6065C146.042 44.4645 146.271 44.2585 146.451 43.9886C146.636 43.714 146.757 43.3849 146.814 43.0014H149.669C149.621 43.8348 149.394 44.5687 148.987 45.2031C148.584 45.8329 148.028 46.3253 147.318 46.6804C146.608 47.0355 145.767 47.2131 144.797 47.2131ZM156.535 47.2131C155.432 47.2131 154.478 46.9787 153.673 46.5099C152.872 46.0365 152.254 45.3783 151.819 44.5355C151.383 43.688 151.165 42.7055 151.165 41.5881C151.165 40.4612 151.383 39.4763 151.819 38.6335C152.254 37.786 152.872 37.1278 153.673 36.6591C154.478 36.1856 155.432 35.9489 156.535 35.9489C157.638 35.9489 158.59 36.1856 159.39 36.6591C160.195 37.1278 160.815 37.786 161.251 38.6335C161.686 39.4763 161.904 40.4612 161.904 41.5881C161.904 42.7055 161.686 43.688 161.251 44.5355C160.815 45.3783 160.195 46.0365 159.39 46.5099C158.59 46.9787 157.638 47.2131 156.535 47.2131ZM156.549 44.8693C157.051 44.8693 157.47 44.7273 157.806 44.4432C158.142 44.1544 158.396 43.7614 158.566 43.2642C158.741 42.767 158.829 42.2012 158.829 41.5668C158.829 40.9323 158.741 40.3665 158.566 39.8693C158.396 39.3722 158.142 38.9792 157.806 38.6903C157.47 38.4015 157.051 38.2571 156.549 38.2571C156.042 38.2571 155.616 38.4015 155.271 38.6903C154.93 38.9792 154.672 39.3722 154.496 39.8693C154.326 40.3665 154.241 40.9323 154.241 41.5668C154.241 42.2012 154.326 42.767 154.496 43.2642C154.672 43.7614 154.93 44.1544 155.271 44.4432C155.616 44.7273 156.042 44.8693 156.549 44.8693ZM163.871 47V36.0909H166.755V38.0156H166.883C167.11 37.3764 167.489 36.8722 168.019 36.5028C168.549 36.1335 169.184 35.9489 169.923 35.9489C170.671 35.9489 171.308 36.1359 171.833 36.5099C172.359 36.8793 172.709 37.3812 172.884 38.0156H172.998C173.22 37.3906 173.623 36.8911 174.205 36.517C174.792 36.1383 175.486 35.9489 176.286 35.9489C177.304 35.9489 178.13 36.2732 178.765 36.9219C179.404 37.5658 179.724 38.4796 179.724 39.6634V47H176.705V40.2599C176.705 39.6539 176.544 39.1993 176.222 38.8963C175.9 38.5933 175.498 38.4418 175.015 38.4418C174.466 38.4418 174.037 38.617 173.729 38.9673C173.422 39.313 173.268 39.7699 173.268 40.3381V47H170.335V40.196C170.335 39.661 170.181 39.2348 169.873 38.9176C169.57 38.6004 169.17 38.4418 168.673 38.4418C168.336 38.4418 168.033 38.527 167.763 38.6974C167.498 38.8632 167.288 39.0975 167.131 39.4006C166.975 39.6989 166.897 40.0492 166.897 40.4517V47H163.871ZM182.114 47V36.0909H184.997V38.0156H185.125C185.352 37.3764 185.731 36.8722 186.261 36.5028C186.792 36.1335 187.426 35.9489 188.165 35.9489C188.913 35.9489 189.55 36.1359 190.075 36.5099C190.601 36.8793 190.951 37.3812 191.126 38.0156H191.24C191.463 37.3906 191.865 36.8911 192.447 36.517C193.035 36.1383 193.728 35.9489 194.528 35.9489C195.546 35.9489 196.373 36.2732 197.007 36.9219C197.646 37.5658 197.966 38.4796 197.966 39.6634V47H194.947V40.2599C194.947 39.6539 194.786 39.1993 194.464 38.8963C194.143 38.5933 193.74 38.4418 193.257 38.4418C192.708 38.4418 192.279 38.617 191.972 38.9673C191.664 39.313 191.51 39.7699 191.51 40.3381V47H188.577V40.196C188.577 39.661 188.423 39.2348 188.115 38.9176C187.812 38.6004 187.412 38.4418 186.915 38.4418C186.579 38.4418 186.276 38.527 186.006 38.6974C185.741 38.8632 185.53 39.0975 185.374 39.4006C185.217 39.6989 185.139 40.0492 185.139 40.4517V47H182.114ZM205.327 47.2131C204.205 47.2131 203.239 46.9858 202.43 46.5312C201.625 46.072 201.004 45.4233 200.569 44.5852C200.133 43.7424 199.915 42.7457 199.915 41.5952C199.915 40.473 200.133 39.4882 200.569 38.6406C201.004 37.7931 201.618 37.1326 202.408 36.6591C203.204 36.1856 204.137 35.9489 205.207 35.9489C205.926 35.9489 206.596 36.0649 207.217 36.2969C207.842 36.5241 208.386 36.8674 208.85 37.3267C209.319 37.786 209.683 38.3636 209.944 39.0597C210.204 39.7509 210.335 40.5606 210.335 41.4886V42.3196H201.123V40.4446H207.487C207.487 40.009 207.392 39.6231 207.202 39.2869C207.013 38.9508 206.75 38.688 206.414 38.4986C206.083 38.3045 205.697 38.2074 205.256 38.2074C204.797 38.2074 204.39 38.3139 204.035 38.527C203.684 38.7353 203.41 39.017 203.211 39.3722C203.012 39.7225 202.91 40.1132 202.906 40.544V42.3267C202.906 42.8665 203.005 43.3329 203.204 43.7259C203.407 44.1188 203.694 44.4219 204.063 44.6349C204.433 44.848 204.871 44.9545 205.377 44.9545C205.713 44.9545 206.021 44.9072 206.3 44.8125C206.58 44.7178 206.819 44.5758 207.018 44.3864C207.217 44.197 207.368 43.965 207.472 43.6903L210.271 43.875C210.129 44.5473 209.837 45.1345 209.397 45.6364C208.961 46.1335 208.398 46.5218 207.707 46.8011C207.02 47.0758 206.227 47.2131 205.327 47.2131ZM215.335 40.6932V47H212.309V36.0909H215.192V38.0156H215.32C215.562 37.3812 215.967 36.8793 216.535 36.5099C217.103 36.1359 217.792 35.9489 218.602 35.9489C219.359 35.9489 220.02 36.1146 220.583 36.446C221.147 36.7775 221.585 37.2509 221.897 37.8665C222.21 38.4773 222.366 39.2064 222.366 40.054V47H219.34V40.5938C219.345 39.9261 219.174 39.4053 218.829 39.0312C218.483 38.6525 218.007 38.4631 217.401 38.4631C216.994 38.4631 216.634 38.5507 216.322 38.7259C216.014 38.901 215.772 39.1567 215.597 39.4929C215.427 39.8243 215.339 40.2244 215.335 40.6932ZM228.77 47.1776C227.942 47.1776 227.191 46.9645 226.519 46.5384C225.851 46.1075 225.321 45.4754 224.928 44.642C224.54 43.804 224.346 42.7765 224.346 41.5597C224.346 40.3097 224.547 39.2704 224.949 38.4418C225.352 37.6084 225.887 36.9858 226.554 36.5739C227.227 36.1572 227.963 35.9489 228.763 35.9489C229.374 35.9489 229.883 36.053 230.29 36.2614C230.702 36.465 231.033 36.7206 231.284 37.0284C231.54 37.3314 231.734 37.6297 231.867 37.9233H231.959V32.4545H234.978V47H231.995V45.2528H231.867C231.725 45.5559 231.524 45.8565 231.263 46.1548C231.007 46.4484 230.674 46.6922 230.262 46.8864C229.855 47.0805 229.357 47.1776 228.77 47.1776ZM229.729 44.7699C230.217 44.7699 230.629 44.6373 230.965 44.3722C231.306 44.1023 231.566 43.7259 231.746 43.2429C231.931 42.7599 232.023 42.1941 232.023 41.5455C232.023 40.8968 231.933 40.3333 231.753 39.8551C231.573 39.3769 231.313 39.0076 230.972 38.7472C230.631 38.4867 230.217 38.3565 229.729 38.3565C229.232 38.3565 228.813 38.4915 228.472 38.7614C228.131 39.0312 227.873 39.4053 227.698 39.8835C227.523 40.3617 227.435 40.9157 227.435 41.5455C227.435 42.1799 227.523 42.741 227.698 43.2287C227.878 43.7116 228.136 44.0904 228.472 44.3651C228.813 44.6349 229.232 44.7699 229.729 44.7699ZM240.576 47.206C239.88 47.206 239.26 47.0852 238.715 46.8438C238.171 46.5975 237.74 46.2353 237.423 45.7571C237.11 45.2741 236.954 44.6728 236.954 43.9531C236.954 43.3471 237.065 42.8381 237.288 42.4261C237.51 42.0142 237.813 41.6828 238.197 41.4318C238.58 41.1809 239.016 40.9915 239.504 40.8636C239.996 40.7358 240.512 40.6458 241.052 40.5938C241.686 40.5275 242.198 40.4659 242.586 40.4091C242.974 40.3475 243.256 40.2576 243.431 40.1392C243.606 40.0208 243.694 39.8456 243.694 39.6136V39.571C243.694 39.1212 243.552 38.7732 243.268 38.527C242.988 38.2808 242.591 38.1577 242.075 38.1577C241.53 38.1577 241.097 38.2784 240.775 38.5199C240.453 38.7566 240.24 39.0549 240.136 39.4148L237.337 39.1875C237.479 38.5246 237.759 37.9517 238.175 37.4688C238.592 36.9811 239.129 36.607 239.788 36.3466C240.451 36.0814 241.218 35.9489 242.089 35.9489C242.695 35.9489 243.275 36.0199 243.829 36.1619C244.388 36.304 244.882 36.5241 245.313 36.8224C245.749 37.1207 246.092 37.5043 246.343 37.973C246.594 38.437 246.719 38.9934 246.719 39.642V47H243.85V45.4872H243.765C243.59 45.8281 243.355 46.1288 243.062 46.3892C242.768 46.6449 242.415 46.8461 242.004 46.9929C241.592 47.1349 241.116 47.206 240.576 47.206ZM241.442 45.1179C241.888 45.1179 242.281 45.0303 242.621 44.8551C242.962 44.6752 243.23 44.4337 243.424 44.1307C243.618 43.8277 243.715 43.4844 243.715 43.1009V41.9432C243.621 42.0047 243.49 42.0616 243.325 42.1136C243.164 42.161 242.981 42.206 242.778 42.2486C242.574 42.2865 242.371 42.322 242.167 42.3551C241.963 42.3835 241.779 42.4096 241.613 42.4332C241.258 42.4853 240.948 42.5682 240.683 42.6818C240.417 42.7955 240.211 42.9493 240.065 43.1435C239.918 43.3329 239.844 43.5696 239.844 43.8537C239.844 44.2656 239.994 44.5805 240.292 44.7983C240.595 45.0114 240.978 45.1179 241.442 45.1179ZM254.869 36.0909V38.3636H248.3V36.0909H254.869ZM249.791 33.4773H252.817V43.6477C252.817 43.9271 252.859 44.1449 252.945 44.3011C253.03 44.4527 253.148 44.5592 253.3 44.6207C253.456 44.6823 253.636 44.7131 253.839 44.7131C253.982 44.7131 254.124 44.7012 254.266 44.6776C254.408 44.6491 254.517 44.6278 254.592 44.6136L255.068 46.8651C254.917 46.9124 254.704 46.9669 254.429 47.0284C254.154 47.0947 253.821 47.1349 253.428 47.1491C252.698 47.1776 252.059 47.0805 251.51 46.858C250.965 46.6354 250.542 46.2898 250.239 45.821C249.936 45.3523 249.786 44.7604 249.791 44.0455V33.4773ZM256.84 47V36.0909H259.866V47H256.84ZM258.36 34.6847C257.91 34.6847 257.524 34.5355 257.202 34.2372C256.885 33.9342 256.727 33.572 256.727 33.1506C256.727 32.7339 256.885 32.3764 257.202 32.0781C257.524 31.7751 257.91 31.6236 258.36 31.6236C258.81 31.6236 259.193 31.7751 259.511 32.0781C259.833 32.3764 259.994 32.7339 259.994 33.1506C259.994 33.572 259.833 33.9342 259.511 34.2372C259.193 34.5355 258.81 34.6847 258.36 34.6847ZM267.218 47.2131C266.115 47.2131 265.161 46.9787 264.356 46.5099C263.556 46.0365 262.938 45.3783 262.502 44.5355C262.067 43.688 261.849 42.7055 261.849 41.5881C261.849 40.4612 262.067 39.4763 262.502 38.6335C262.938 37.786 263.556 37.1278 264.356 36.6591C265.161 36.1856 266.115 35.9489 267.218 35.9489C268.322 35.9489 269.273 36.1856 270.074 36.6591C270.878 37.1278 271.499 37.786 271.934 38.6335C272.37 39.4763 272.588 40.4612 272.588 41.5881C272.588 42.7055 272.37 43.688 271.934 44.5355C271.499 45.3783 270.878 46.0365 270.074 46.5099C269.273 46.9787 268.322 47.2131 267.218 47.2131ZM267.233 44.8693C267.734 44.8693 268.154 44.7273 268.49 44.4432C268.826 44.1544 269.079 43.7614 269.25 43.2642C269.425 42.767 269.512 42.2012 269.512 41.5668C269.512 40.9323 269.425 40.3665 269.25 39.8693C269.079 39.3722 268.826 38.9792 268.49 38.6903C268.154 38.4015 267.734 38.2571 267.233 38.2571C266.726 38.2571 266.3 38.4015 265.954 38.6903C265.613 38.9792 265.355 39.3722 265.18 39.8693C265.01 40.3665 264.924 40.9323 264.924 41.5668C264.924 42.2012 265.01 42.767 265.18 43.2642C265.355 43.7614 265.613 44.1544 265.954 44.4432C266.3 44.7273 266.726 44.8693 267.233 44.8693ZM277.581 40.6932V47H274.555V36.0909H277.439V38.0156H277.566C277.808 37.3812 278.213 36.8793 278.781 36.5099C279.349 36.1359 280.038 35.9489 280.848 35.9489C281.605 35.9489 282.266 36.1146 282.829 36.446C283.393 36.7775 283.831 37.2509 284.143 37.8665C284.456 38.4773 284.612 39.2064 284.612 40.054V47H281.586V40.5938C281.591 39.9261 281.421 39.4053 281.075 39.0312C280.729 38.6525 280.253 38.4631 279.647 38.4631C279.24 38.4631 278.88 38.5507 278.568 38.7259C278.26 38.901 278.019 39.1567 277.843 39.4929C277.673 39.8243 277.585 40.2244 277.581 40.6932ZM296.073 39.2017L293.303 39.3722C293.256 39.1354 293.154 38.9223 292.998 38.733C292.842 38.5388 292.636 38.3849 292.38 38.2713C292.129 38.1529 291.828 38.0938 291.478 38.0938C291.009 38.0938 290.614 38.1932 290.292 38.392C289.97 38.5862 289.809 38.8466 289.809 39.1733C289.809 39.4337 289.913 39.6539 290.121 39.8338C290.33 40.0137 290.687 40.1581 291.194 40.267L293.168 40.6648C294.229 40.8826 295.02 41.233 295.54 41.7159C296.061 42.1989 296.322 42.8333 296.322 43.6193C296.322 44.3343 296.111 44.9616 295.69 45.5014C295.273 46.0412 294.7 46.4626 293.971 46.7656C293.246 47.0639 292.411 47.2131 291.464 47.2131C290.02 47.2131 288.869 46.9124 288.012 46.3111C287.16 45.705 286.66 44.8812 286.513 43.8395L289.489 43.6832C289.579 44.1236 289.797 44.4598 290.143 44.6918C290.488 44.919 290.931 45.0327 291.471 45.0327C292.001 45.0327 292.427 44.9309 292.749 44.7273C293.076 44.5189 293.242 44.2514 293.246 43.9247C293.242 43.6501 293.126 43.4252 292.898 43.25C292.671 43.0701 292.321 42.9328 291.847 42.8381L289.958 42.4616C288.893 42.2486 288.1 41.8793 287.579 41.3537C287.063 40.8281 286.805 40.1581 286.805 39.3438C286.805 38.643 286.994 38.0393 287.373 37.5327C287.756 37.026 288.294 36.6354 288.985 36.3608C289.681 36.0862 290.496 35.9489 291.428 35.9489C292.806 35.9489 293.89 36.2401 294.681 36.8224C295.477 37.4048 295.941 38.1979 296.073 39.2017Z" fill="#0D8E8E"/>
<rect x="310.333" y="26" width="40" height="40" rx="20" fill="#F0FDFA"/>
<path d="M327.333 39H325.333C324.23 39 323.333 39.8962 323.333 41V53C323.333 54.1038 324.23 55 325.333 55H335.333C336.437 55 337.333 54.1038 337.333 53V41C337.333 39.8962 336.437 39 335.333 39H333.333M327.333 39C327.333 40.1038 328.23 41 329.333 41H331.333C332.437 41 333.333 40.1038 333.333 39M327.333 39C327.333 37.8962 328.23 37 329.333 37H331.333C332.437 37 333.333 37.8962 333.333 39M327.333 48L329.333 50L333.333 46" stroke="#0D9488" stroke-width="2" stroke-linecap="round" stroke-linejoin="round"/>
<path d="M28.0043 105V94.8182H31.8224C32.6046 94.8182 33.2609 94.9541 33.7912 95.2259C34.3248 95.4976 34.7275 95.8788 34.9993 96.3693C35.2744 96.8565 35.4119 97.425 35.4119 98.0746C35.4119 98.7275 35.2727 99.2943 34.9943 99.7749C34.7192 100.252 34.3132 100.622 33.7763 100.884C33.2393 101.142 32.5798 101.271 31.7976 101.271H29.0781V99.7401H31.549C32.0064 99.7401 32.3809 99.6771 32.6726 99.5511C32.9643 99.4219 33.1797 99.2346 33.3189 98.9893C33.4614 98.7408 33.5327 98.4358 33.5327 98.0746C33.5327 97.7133 33.4614 97.4051 33.3189 97.1499C33.1764 96.8913 32.9593 96.6958 32.6676 96.5632C32.3759 96.4273 31.9998 96.3594 31.5391 96.3594H29.8487V105H28.0043ZM33.2642 100.386L35.7848 105H33.7266L31.2507 100.386H33.2642ZM40.3015 105.149C39.5359 105.149 38.8746 104.99 38.3178 104.672C37.7643 104.35 37.3384 103.896 37.0401 103.31C36.7418 102.72 36.5927 102.025 36.5927 101.227C36.5927 100.441 36.7418 99.7517 37.0401 99.1584C37.3417 98.5618 37.7627 98.0978 38.3029 97.7663C38.8432 97.4316 39.4779 97.2642 40.207 97.2642C40.6777 97.2642 41.1218 97.3404 41.5394 97.4929C41.9603 97.642 42.3316 97.8741 42.6531 98.1889C42.9779 98.5038 43.2331 98.9048 43.4187 99.392C43.6043 99.8759 43.6971 100.453 43.6971 101.122V101.674H37.4379V100.461H41.9719C41.9686 100.116 41.8941 99.8097 41.7482 99.5412C41.6024 99.2694 41.3986 99.0556 41.1367 98.8999C40.8782 98.7441 40.5766 98.6662 40.2319 98.6662C39.864 98.6662 39.5408 98.7557 39.2624 98.9347C38.984 99.1103 38.7669 99.3423 38.6112 99.6307C38.4587 99.9157 38.3808 100.229 38.3775 100.57V101.629C38.3775 102.073 38.4587 102.455 38.6211 102.773C38.7835 103.088 39.0105 103.33 39.3022 103.499C39.5939 103.664 39.9353 103.747 40.3263 103.747C40.5882 103.747 40.8252 103.711 41.0373 103.638C41.2494 103.562 41.4334 103.451 41.5891 103.305C41.7449 103.159 41.8626 102.978 41.9421 102.763L43.6225 102.952C43.5165 103.396 43.3143 103.784 43.016 104.115C42.721 104.443 42.3432 104.698 41.8825 104.881C41.4218 105.06 40.8948 105.149 40.3015 105.149ZM48.5506 105.149C47.7883 105.149 47.1337 104.982 46.5868 104.647C46.0433 104.312 45.624 103.85 45.329 103.26C45.0373 102.667 44.8915 101.984 44.8915 101.212C44.8915 100.436 45.0407 99.7517 45.339 99.1584C45.6373 98.5618 46.0582 98.0978 46.6017 97.7663C47.1486 97.4316 47.7949 97.2642 48.5407 97.2642C49.1605 97.2642 49.709 97.3786 50.1863 97.6072C50.6668 97.8326 51.0497 98.1525 51.3347 98.5668C51.6197 98.9777 51.7821 99.4583 51.8219 100.009H50.1017C50.0321 99.6406 49.8664 99.334 49.6046 99.0888C49.3461 98.8402 48.9997 98.7159 48.5655 98.7159C48.1976 98.7159 47.8745 98.8153 47.5961 99.0142C47.3176 99.2098 47.1006 99.4915 46.9448 99.8594C46.7923 100.227 46.7161 100.668 46.7161 101.182C46.7161 101.702 46.7923 102.15 46.9448 102.524C47.0972 102.895 47.311 103.182 47.5861 103.384C47.8645 103.583 48.191 103.683 48.5655 103.683C48.8307 103.683 49.0676 103.633 49.2765 103.533C49.4886 103.431 49.6659 103.283 49.8084 103.091C49.9509 102.899 50.0487 102.665 50.1017 102.39H51.8219C51.7788 102.93 51.6197 103.409 51.3446 103.827C51.0695 104.241 50.695 104.566 50.2211 104.801C49.7471 105.033 49.1903 105.149 48.5506 105.149ZM56.6307 105.149C55.8849 105.149 55.2386 104.985 54.6918 104.657C54.1449 104.329 53.7206 103.87 53.419 103.28C53.1207 102.69 52.9716 102 52.9716 101.212C52.9716 100.423 53.1207 99.7318 53.419 99.1385C53.7206 98.5452 54.1449 98.0845 54.6918 97.7564C55.2386 97.4283 55.8849 97.2642 56.6307 97.2642C57.3764 97.2642 58.0227 97.4283 58.5696 97.7564C59.1165 98.0845 59.5391 98.5452 59.8374 99.1385C60.139 99.7318 60.2898 100.423 60.2898 101.212C60.2898 102 60.139 102.69 59.8374 103.28C59.5391 103.87 59.1165 104.329 58.5696 104.657C58.0227 104.985 57.3764 105.149 56.6307 105.149ZM56.6406 103.707C57.045 103.707 57.383 103.596 57.6548 103.374C57.9266 103.149 58.1288 102.847 58.2614 102.469C58.3973 102.092 58.4652 101.671 58.4652 101.207C58.4652 100.739 58.3973 100.317 58.2614 99.9389C58.1288 99.5578 57.9266 99.2545 57.6548 99.0291C57.383 98.8037 57.045 98.6911 56.6406 98.6911C56.2263 98.6911 55.8816 98.8037 55.6065 99.0291C55.3348 99.2545 55.1309 99.5578 54.995 99.9389C54.8625 100.317 54.7962 100.739 54.7962 101.207C54.7962 101.671 54.8625 102.092 54.995 102.469C55.1309 102.847 55.3348 103.149 55.6065 103.374C55.8816 103.596 56.2263 103.707 56.6406 103.707ZM61.8173 105V97.3636H63.5375V98.6612H63.627C63.786 98.2237 64.0495 97.8823 64.4174 97.6371C64.7853 97.3885 65.2245 97.2642 65.7349 97.2642C66.252 97.2642 66.6878 97.3902 67.0424 97.642C67.4004 97.8906 67.6523 98.2304 67.7981 98.6612H67.8777C68.0467 98.237 68.3317 97.8989 68.7328 97.647C69.1371 97.3918 69.6161 97.2642 70.1696 97.2642C70.8722 97.2642 71.4456 97.4863 71.8897 97.9304C72.3339 98.3745 72.5559 99.0225 72.5559 99.8743V105H70.7512V100.153C70.7512 99.6787 70.6253 99.3324 70.3734 99.1136C70.1215 98.8916 69.8133 98.7805 69.4487 98.7805C69.0145 98.7805 68.6748 98.9164 68.4295 99.1882C68.1876 99.4567 68.0666 99.8063 68.0666 100.237V105H66.3017V100.078C66.3017 99.6837 66.1824 99.3688 65.9437 99.1335C65.7084 98.8982 65.4002 98.7805 65.019 98.7805C64.7605 98.7805 64.5252 98.8468 64.313 98.9794C64.1009 99.1087 63.9319 99.2926 63.8059 99.5312C63.68 99.7666 63.617 100.042 63.617 100.357V105H61.8173ZM74.3817 105V97.3636H76.1019V98.6612H76.1914C76.3505 98.2237 76.614 97.8823 76.9819 97.6371C77.3498 97.3885 77.7889 97.2642 78.2994 97.2642C78.8164 97.2642 79.2522 97.3902 79.6069 97.642C79.9648 97.8906 80.2167 98.2304 80.3626 98.6612H80.4421C80.6112 98.237 80.8962 97.8989 81.2972 97.647C81.7016 97.3918 82.1805 97.2642 82.734 97.2642C83.4367 97.2642 84.0101 97.4863 84.4542 97.9304C84.8983 98.3745 85.1204 99.0225 85.1204 99.8743V105H83.3157V100.153C83.3157 99.6787 83.1897 99.3324 82.9379 99.1136C82.686 98.8916 82.3777 98.7805 82.0131 98.7805C81.579 98.7805 81.2392 98.9164 80.994 99.1882C80.752 99.4567 80.631 99.8063 80.631 100.237V105H78.8661V100.078C78.8661 99.6837 78.7468 99.3688 78.5082 99.1335C78.2728 98.8982 77.9646 98.7805 77.5835 98.7805C77.3249 98.7805 77.0896 98.8468 76.8775 98.9794C76.6654 99.1087 76.4963 99.2926 76.3704 99.5312C76.2444 99.7666 76.1815 100.042 76.1815 100.357V105H74.3817ZM90.3269 105.149C89.5613 105.149 88.9 104.99 88.3432 104.672C87.7897 104.35 87.3638 103.896 87.0655 103.31C86.7672 102.72 86.6181 102.025 86.6181 101.227C86.6181 100.441 86.7672 99.7517 87.0655 99.1584C87.3671 98.5618 87.7881 98.0978 88.3283 97.7663C88.8685 97.4316 89.5033 97.2642 90.2324 97.2642C90.7031 97.2642 91.1472 97.3404 91.5648 97.4929C91.9857 97.642 92.3569 97.8741 92.6784 98.1889C93.0033 98.5038 93.2585 98.9048 93.4441 99.392C93.6297 99.8759 93.7225 100.453 93.7225 101.122V101.674H87.4632V100.461H91.9973C91.994 100.116 91.9194 99.8097 91.7736 99.5412C91.6278 99.2694 91.4239 99.0556 91.1621 98.8999C90.9036 98.7441 90.602 98.6662 90.2573 98.6662C89.8894 98.6662 89.5662 98.7557 89.2878 98.9347C89.0094 99.1103 88.7923 99.3423 88.6365 99.6307C88.4841 99.9157 88.4062 100.229 88.4029 100.57V101.629C88.4029 102.073 88.4841 102.455 88.6465 102.773C88.8089 103.088 89.0359 103.33 89.3276 103.499C89.6193 103.664 89.9606 103.747 90.3517 103.747C90.6136 103.747 90.8506 103.711 91.0627 103.638C91.2748 103.562 91.4587 103.451 91.6145 103.305C91.7703 103.159 91.888 102.978 91.9675 102.763L93.6479 102.952C93.5418 103.396 93.3397 103.784 93.0414 104.115C92.7464 104.443 92.3685 104.698 91.9078 104.881C91.4471 105.06 90.9202 105.149 90.3269 105.149ZM97.0447 100.526V105H95.245V97.3636H96.9652V98.6612H97.0547C97.2304 98.2337 97.5104 97.8939 97.8949 97.642C98.2827 97.3902 98.7616 97.2642 99.3317 97.2642C99.8587 97.2642 100.318 97.3769 100.709 97.6023C101.103 97.8277 101.408 98.1541 101.624 98.5817C101.842 99.0092 101.95 99.5279 101.947 100.138V105H100.147V100.416C100.147 99.9058 100.014 99.5064 99.7493 99.218C99.4875 98.9297 99.1245 98.7855 98.6605 98.7855C98.3456 98.7855 98.0656 98.8551 97.8203 98.9943C97.5784 99.1302 97.3878 99.3274 97.2486 99.5859C97.1127 99.8445 97.0447 100.158 97.0447 100.526ZM106.61 105.134C106.01 105.134 105.473 104.98 104.999 104.672C104.525 104.364 104.151 103.916 103.876 103.33C103.601 102.743 103.463 102.03 103.463 101.192C103.463 100.343 103.602 99.6274 103.881 99.044C104.162 98.4574 104.542 98.0149 105.019 97.7166C105.496 97.415 106.028 97.2642 106.615 97.2642C107.063 97.2642 107.43 97.3404 107.719 97.4929C108.007 97.642 108.236 97.8227 108.405 98.0348C108.574 98.2436 108.705 98.4408 108.798 98.6264H108.872V94.8182H110.677V105H108.907V103.797H108.798C108.705 103.982 108.571 104.18 108.395 104.388C108.219 104.594 107.987 104.77 107.699 104.915C107.411 105.061 107.048 105.134 106.61 105.134ZM107.112 103.658C107.493 103.658 107.818 103.555 108.087 103.349C108.355 103.141 108.559 102.851 108.698 102.479C108.837 102.108 108.907 101.676 108.907 101.182C108.907 100.688 108.837 100.259 108.698 99.8942C108.562 99.5296 108.36 99.2462 108.092 99.044C107.826 98.8419 107.5 98.7408 107.112 98.7408C106.711 98.7408 106.376 98.8452 106.108 99.054C105.839 99.2628 105.637 99.5511 105.501 99.919C105.366 100.287 105.298 100.708 105.298 101.182C105.298 101.659 105.366 102.085 105.501 102.46C105.641 102.831 105.844 103.124 106.113 103.339C106.385 103.552 106.718 103.658 107.112 103.658ZM115.975 105.149C115.21 105.149 114.548 104.99 113.992 104.672C113.438 104.35 113.012 103.896 112.714 103.31C112.416 102.72 112.267 102.025 112.267 101.227C112.267 100.441 112.416 99.7517 112.714 99.1584C113.016 98.5618 113.436 98.0978 113.977 97.7663C114.517 97.4316 115.152 97.2642 115.881 97.2642C116.352 97.2642 116.796 97.3404 117.213 97.4929C117.634 97.642 118.005 97.8741 118.327 98.1889C118.652 98.5038 118.907 98.9048 119.093 99.392C119.278 99.8759 119.371 100.453 119.371 101.122V101.674H113.112V100.461H117.646C117.642 100.116 117.568 99.8097 117.422 99.5412C117.276 99.2694 117.072 99.0556 116.811 98.8999C116.552 98.7441 116.25 98.6662 115.906 98.6662C115.538 98.6662 115.215 98.7557 114.936 98.9347C114.658 99.1103 114.441 99.3423 114.285 99.6307C114.133 99.9157 114.055 100.229 114.051 100.57V101.629C114.051 102.073 114.133 102.455 114.295 102.773C114.457 103.088 114.684 103.33 114.976 103.499C115.268 103.664 115.609 103.747 116 103.747C116.262 103.747 116.499 103.711 116.711 103.638C116.923 103.562 117.107 103.451 117.263 103.305C117.419 103.159 117.536 102.978 117.616 102.763L119.296 102.952C119.19 103.396 118.988 103.784 118.69 104.115C118.395 104.443 118.017 104.698 117.556 104.881C117.096 105.06 116.569 105.149 115.975 105.149ZM123.727 105.134C123.127 105.134 122.59 104.98 122.116 104.672C121.643 104.364 121.268 103.916 120.993 103.33C120.718 102.743 120.58 102.03 120.58 101.192C120.58 100.343 120.719 99.6274 120.998 99.044C121.28 98.4574 121.659 98.0149 122.136 97.7166C122.614 97.415 123.146 97.2642 123.732 97.2642C124.18 97.2642 124.548 97.3404 124.836 97.4929C125.124 97.642 125.353 97.8227 125.522 98.0348C125.691 98.2436 125.822 98.4408 125.915 98.6264H125.989V94.8182H127.794V105H126.024V103.797H125.915C125.822 103.982 125.688 104.18 125.512 104.388C125.336 104.594 125.104 104.77 124.816 104.915C124.528 105.061 124.165 105.134 123.727 105.134ZM124.229 103.658C124.611 103.658 124.935 103.555 125.204 103.349C125.472 103.141 125.676 102.851 125.815 102.479C125.955 102.108 126.024 101.676 126.024 101.182C126.024 100.688 125.955 100.259 125.815 99.8942C125.679 99.5296 125.477 99.2462 125.209 99.044C124.944 98.8419 124.617 98.7408 124.229 98.7408C123.828 98.7408 123.494 98.8452 123.225 99.054C122.957 99.2628 122.754 99.5511 122.619 99.919C122.483 100.287 122.415 100.708 122.415 101.182C122.415 101.659 122.483 102.085 122.619 102.46C122.758 102.831 122.962 103.124 123.23 103.339C123.502 103.552 123.835 103.658 124.229 103.658ZM134.572 105H132.603L136.187 94.8182H138.464L142.054 105H140.085L137.366 96.9062H137.286L134.572 105ZM134.636 101.008H140.006V102.489H134.636V101.008ZM146.414 105.149C145.652 105.149 144.997 104.982 144.45 104.647C143.907 104.312 143.487 103.85 143.192 103.26C142.901 102.667 142.755 101.984 142.755 101.212C142.755 100.436 142.904 99.7517 143.202 99.1584C143.501 98.5618 143.921 98.0978 144.465 97.7663C145.012 97.4316 145.658 97.2642 146.404 97.2642C147.024 97.2642 147.572 97.3786 148.05 97.6072C148.53 97.8326 148.913 98.1525 149.198 98.5668C149.483 98.9777 149.645 99.4583 149.685 100.009H147.965C147.895 99.6406 147.73 99.334 147.468 99.0888C147.209 98.8402 146.863 98.7159 146.429 98.7159C146.061 98.7159 145.738 98.8153 145.459 99.0142C145.181 99.2098 144.964 99.4915 144.808 99.8594C144.656 100.227 144.579 100.668 144.579 101.182C144.579 101.702 144.656 102.15 144.808 102.524C144.961 102.895 145.174 103.182 145.449 103.384C145.728 103.583 146.054 103.683 146.429 103.683C146.694 103.683 146.931 103.633 147.14 103.533C147.352 103.431 147.529 103.283 147.672 103.091C147.814 102.899 147.912 102.665 147.965 102.39H149.685C149.642 102.93 149.483 103.409 149.208 103.827C148.933 104.241 148.558 104.566 148.084 104.801C147.61 105.033 147.054 105.149 146.414 105.149ZM154.976 97.3636V98.7557H150.586V97.3636H154.976ZM151.67 95.5341H153.47V102.703C153.47 102.945 153.506 103.131 153.579 103.26C153.655 103.386 153.755 103.472 153.877 103.518C154 103.565 154.136 103.588 154.285 103.588C154.398 103.588 154.501 103.58 154.593 103.563C154.69 103.547 154.762 103.532 154.812 103.518L155.115 104.925C155.019 104.959 154.882 104.995 154.703 105.035C154.527 105.075 154.312 105.098 154.056 105.104C153.606 105.118 153.2 105.05 152.838 104.901C152.477 104.748 152.19 104.513 151.978 104.195C151.77 103.876 151.667 103.479 151.67 103.001V95.5341ZM156.481 105V97.3636H158.281V105H156.481ZM157.386 96.2798C157.101 96.2798 156.856 96.1854 156.65 95.9964C156.445 95.8042 156.342 95.5739 156.342 95.3054C156.342 95.0336 156.445 94.8033 156.65 94.6143C156.856 94.4221 157.101 94.326 157.386 94.326C157.675 94.326 157.92 94.4221 158.122 94.6143C158.327 94.8033 158.43 95.0336 158.43 95.3054C158.43 95.5739 158.327 95.8042 158.122 95.9964C157.92 96.1854 157.675 96.2798 157.386 96.2798ZM163.463 105.149C162.717 105.149 162.071 104.985 161.524 104.657C160.977 104.329 160.553 103.87 160.251 103.28C159.953 102.69 159.804 102 159.804 101.212C159.804 100.423 159.953 99.7318 160.251 99.1385C160.553 98.5452 160.977 98.0845 161.524 97.7564C162.071 97.4283 162.717 97.2642 163.463 97.2642C164.208 97.2642 164.855 97.4283 165.402 97.7564C165.949 98.0845 166.371 98.5452 166.669 99.1385C166.971 99.7318 167.122 100.423 167.122 101.212C167.122 102 166.971 102.69 166.669 103.28C166.371 103.87 165.949 104.329 165.402 104.657C164.855 104.985 164.208 105.149 163.463 105.149ZM163.473 103.707C163.877 103.707 164.215 103.596 164.487 103.374C164.759 103.149 164.961 102.847 165.093 102.469C165.229 102.092 165.297 101.671 165.297 101.207C165.297 100.739 165.229 100.317 165.093 99.9389C164.961 99.5578 164.759 99.2545 164.487 99.0291C164.215 98.8037 163.877 98.6911 163.473 98.6911C163.058 98.6911 162.714 98.8037 162.439 99.0291C162.167 99.2545 161.963 99.5578 161.827 99.9389C161.694 100.317 161.628 100.739 161.628 101.207C161.628 101.671 161.694 102.092 161.827 102.469C161.963 102.847 162.167 103.149 162.439 103.374C162.714 103.596 163.058 103.707 163.473 103.707ZM170.449 100.526V105H168.649V97.3636H170.369V98.6612H170.459C170.635 98.2337 170.915 97.8939 171.299 97.642C171.687 97.3902 172.166 97.2642 172.736 97.2642C173.263 97.2642 173.722 97.3769 174.113 97.6023C174.508 97.8277 174.812 98.1541 175.028 98.5817C175.247 99.0092 175.354 99.5279 175.351 100.138V105H173.551V100.416C173.551 99.9058 173.419 99.5064 173.154 99.218C172.892 98.9297 172.529 98.7855 172.065 98.7855C171.75 98.7855 171.47 98.8551 171.225 98.9943C170.983 99.1302 170.792 99.3274 170.653 99.5859C170.517 99.8445 170.449 100.158 170.449 100.526ZM183.216 99.3821L181.575 99.5611C181.529 99.3954 181.448 99.2396 181.332 99.0938C181.219 98.9479 181.067 98.8303 180.874 98.7408C180.682 98.6513 180.447 98.6065 180.169 98.6065C179.794 98.6065 179.479 98.6877 179.224 98.8501C178.972 99.0125 178.848 99.223 178.851 99.4815C178.848 99.7036 178.929 99.8842 179.095 100.023C179.264 100.163 179.542 100.277 179.93 100.366L181.232 100.645C181.955 100.801 182.492 101.048 182.843 101.386C183.198 101.724 183.377 102.166 183.38 102.713C183.377 103.194 183.236 103.618 182.958 103.986C182.682 104.35 182.3 104.635 181.809 104.841C181.319 105.046 180.755 105.149 180.119 105.149C179.184 105.149 178.432 104.954 177.862 104.562C177.292 104.168 176.952 103.62 176.843 102.917L178.597 102.748C178.677 103.093 178.846 103.353 179.105 103.528C179.363 103.704 179.7 103.792 180.114 103.792C180.541 103.792 180.884 103.704 181.143 103.528C181.405 103.353 181.536 103.136 181.536 102.877C181.536 102.658 181.451 102.478 181.282 102.335C181.116 102.193 180.858 102.083 180.507 102.007L179.204 101.734C178.472 101.581 177.93 101.324 177.578 100.963C177.227 100.598 177.053 100.138 177.056 99.581C177.053 99.1103 177.181 98.7027 177.439 98.358C177.701 98.0099 178.064 97.7415 178.528 97.5526C178.995 97.3603 179.534 97.2642 180.144 97.2642C181.039 97.2642 181.743 97.4548 182.257 97.8359C182.774 98.2171 183.093 98.7325 183.216 99.3821Z" fill="#64748B"/>
<rect x="27" y="134" width="24" height="24" rx="12" fill="#D1FAE5"/>
<path d="M34.3335 146.667L37.0002 149.333L43.6668 142.667" stroke="#059669" stroke-width="2" stroke-linecap="round" stroke-linejoin="round"/>
<rect x="67" y="136" width="283.333" height="8" rx="4" fill="#F1F5F9"/>
<rect x="67" y="148" width="94.44" height="8" rx="4" fill="#F1F5F9"/>
<rect x="27" y="182" width="24" height="24" rx="12" fill="#D1FAE5"/>
<path d="M34.3335 194.667L37.0002 197.333L43.6668 190.667" stroke="#059669" stroke-width="2" stroke-linecap="round" stroke-linejoin="round"/>
<rect x="67" y="184" width="283.333" height="8" rx="4" fill="#F1F5F9"/>
<rect x="67" y="196" width="94.44" height="8" rx="4" fill="#F1F5F9"/>
<rect x="27" y="230" width="24" height="24" rx="12" fill="#D1FAE5"/>
<path d="M34.3335 242.667L37.0002 245.333L43.6668 238.667" stroke="#059669" stroke-width="2" stroke-linecap="round" stroke-linejoin="round"/>
<rect x="67" y="232" width="283.333" height="8" rx="4" fill="#F1F5F9"/>
<rect x="67" y="244" width="94.44" height="8" rx="4" fill="#F1F5F9"/>
</g>
<defs>
<filter id="filter0_d_1002_711" x="0" y="0" width="377.333" height="379.66" filterUnits="userSpaceOnUse" color-interpolation-filters="sRGB">
<feFlood flood-opacity="0" result="BackgroundImageFix"/>
<feColorMatrix in="SourceAlpha" type="matrix" values="0 0 0 0 0 0 0 0 0 0 0 0 0 0 0 0 0 0 127 0" result="hardAlpha"/>
<feOffset dy="1"/>
<feGaussianBlur stdDeviation="1"/>
<feComposite in2="hardAlpha" operator="out"/>
<feColorMatrix type="matrix" values="0 0 0 0 0 0 0 0 0 0 0 0 0 0 0 0 0 0 0.05 0"/>
<feBlend mode="normal" in2="BackgroundImageFix" result="effect1_dropShadow_1002_711"/>
<feBlend mode="normal" in="SourceGraphic" in2="effect1_dropShadow_1002_711" result="shape"/>
</filter>
</defs>
</svg>
