<svg width="377" height="382" viewBox="0 0 377 382" fill="none" xmlns="http://www.w3.org/2000/svg">
<g filter="url(#filter0_d_1002_745)">
<rect x="2" y="1" width="373" height="378" rx="24" fill="white"/>
<rect x="2.5" y="1.5" width="372" height="377" rx="23.5" stroke="#F1F5F9"/>
<path d="M27.9588 44.4432V42.0213L34.0312 32.4545H36.1193V35.8068H34.8835L31.0554 41.8651V41.9787H39.6847V44.4432H27.9588ZM34.9403 47V43.7045L34.9972 42.6321V32.4545H37.8807V47H34.9403ZM43.2571 47.1847C42.7884 47.1847 42.3859 47.0189 42.0497 46.6875C41.7183 46.3513 41.5526 45.9489 41.5526 45.4801C41.5526 45.0161 41.7183 44.6184 42.0497 44.2869C42.3859 43.9555 42.7884 43.7898 43.2571 43.7898C43.7116 43.7898 44.1094 43.9555 44.4503 44.2869C44.7912 44.6184 44.9616 45.0161 44.9616 45.4801C44.9616 45.7926 44.8812 46.0791 44.7202 46.3395C44.5639 46.5952 44.358 46.8011 44.1023 46.9574C43.8466 47.1089 43.5649 47.1847 43.2571 47.1847ZM54.7219 47L50.56 32.4545H53.9194L56.3271 42.5611H56.4478L59.104 32.4545H61.9805L64.6296 42.5824H64.7575L67.1651 32.4545H70.5245L66.3626 47H63.3654L60.5955 37.4901H60.4819L57.7191 47H54.7219ZM75.8707 47.2131C74.7675 47.2131 73.8134 46.9787 73.0085 46.5099C72.2083 46.0365 71.5904 45.3783 71.1548 44.5355C70.7192 43.688 70.5014 42.7055 70.5014 41.5881C70.5014 40.4612 70.7192 39.4763 71.1548 38.6335C71.5904 37.786 72.2083 37.1278 73.0085 36.6591C73.8134 36.1856 74.7675 35.9489 75.8707 35.9489C76.974 35.9489 77.9257 36.1856 78.7259 36.6591C79.5308 37.1278 80.151 37.786 80.5866 38.6335C81.0223 39.4763 81.2401 40.4612 81.2401 41.5881C81.2401 42.7055 81.0223 43.688 80.5866 44.5355C80.151 45.3783 79.5308 46.0365 78.7259 46.5099C77.9257 46.9787 76.974 47.2131 75.8707 47.2131ZM75.8849 44.8693C76.3868 44.8693 76.8059 44.7273 77.142 44.4432C77.4782 44.1544 77.7315 43.7614 77.902 43.2642C78.0772 42.767 78.1648 42.2012 78.1648 41.5668C78.1648 40.9323 78.0772 40.3665 77.902 39.8693C77.7315 39.3722 77.4782 38.9792 77.142 38.6903C76.8059 38.4015 76.3868 38.2571 75.8849 38.2571C75.3783 38.2571 74.9522 38.4015 74.6065 38.6903C74.2656 38.9792 74.0076 39.3722 73.8324 39.8693C73.6619 40.3665 73.5767 40.9323 73.5767 41.5668C73.5767 42.2012 73.6619 42.767 73.8324 43.2642C74.0076 43.7614 74.2656 44.1544 74.6065 44.4432C74.9522 44.7273 75.3783 44.8693 75.8849 44.8693ZM83.2074 47V36.0909H86.1406V37.9943H86.2543C86.4531 37.3172 86.7869 36.8059 87.2557 36.4602C87.7244 36.1098 88.2642 35.9347 88.875 35.9347C89.0265 35.9347 89.1899 35.9441 89.3651 35.9631C89.5402 35.982 89.6941 36.008 89.8267 36.0412V38.7259C89.6847 38.6832 89.4882 38.6454 89.2372 38.6122C88.9863 38.5791 88.7566 38.5625 88.5483 38.5625C88.1032 38.5625 87.7055 38.6596 87.3551 38.8537C87.0095 39.0431 86.7348 39.3082 86.5312 39.6491C86.3324 39.9901 86.233 40.383 86.233 40.8281V47H83.2074ZM94.1325 43.8608L94.1396 40.2315H94.5799L98.0742 36.0909H101.547L96.8526 41.5739H96.1353L94.1325 43.8608ZM91.391 47V32.4545H94.4165V47H91.391ZM98.2092 47L94.9989 42.2486L97.016 40.1108L101.753 47H98.2092ZM108.898 36.0909V38.3636H102.165V36.0909H108.898ZM103.706 47V35.3026C103.706 34.5118 103.86 33.8561 104.168 33.3352C104.48 32.8144 104.907 32.4238 105.446 32.1634C105.986 31.9029 106.599 31.7727 107.286 31.7727C107.75 31.7727 108.174 31.8082 108.557 31.8793C108.945 31.9503 109.234 32.0142 109.424 32.071L108.884 34.3438C108.766 34.3059 108.619 34.2704 108.444 34.2372C108.273 34.2041 108.098 34.1875 107.918 34.1875C107.473 34.1875 107.163 34.2917 106.988 34.5C106.812 34.7036 106.725 34.9901 106.725 35.3594V47H103.706ZM113.772 32.4545V47H110.746V32.4545H113.772ZM121.125 47.2131C120.021 47.2131 119.067 46.9787 118.262 46.5099C117.462 46.0365 116.844 45.3783 116.409 44.5355C115.973 43.688 115.755 42.7055 115.755 41.5881C115.755 40.4612 115.973 39.4763 116.409 38.6335C116.844 37.786 117.462 37.1278 118.262 36.6591C119.067 36.1856 120.021 35.9489 121.125 35.9489C122.228 35.9489 123.18 36.1856 123.98 36.6591C124.785 37.1278 125.405 37.786 125.841 38.6335C126.276 39.4763 126.494 40.4612 126.494 41.5881C126.494 42.7055 126.276 43.688 125.841 44.5355C125.405 45.3783 124.785 46.0365 123.98 46.5099C123.18 46.9787 122.228 47.2131 121.125 47.2131ZM121.139 44.8693C121.641 44.8693 122.06 44.7273 122.396 44.4432C122.732 44.1544 122.985 43.7614 123.156 43.2642C123.331 42.767 123.419 42.2012 123.419 41.5668C123.419 40.9323 123.331 40.3665 123.156 39.8693C122.985 39.3722 122.732 38.9792 122.396 38.6903C122.06 38.4015 121.641 38.2571 121.139 38.2571C120.632 38.2571 120.206 38.4015 119.86 38.6903C119.52 38.9792 119.261 39.3722 119.086 39.8693C118.916 40.3665 118.831 40.9323 118.831 41.5668C118.831 42.2012 118.916 42.767 119.086 43.2642C119.261 43.7614 119.52 44.1544 119.86 44.4432C120.206 44.7273 120.632 44.8693 121.139 44.8693ZM130.34 47L127.371 36.0909H130.432L132.123 43.4205H132.222L133.983 36.0909H136.988L138.777 43.3778H138.87L140.532 36.0909H143.586L140.624 47H137.421L135.546 40.1392H135.411L133.536 47H130.34ZM152.392 47H149.097L154.118 32.4545H158.081L163.096 47H159.8L156.157 35.7784H156.043L152.392 47ZM152.186 41.2827H159.971V43.6832H152.186V41.2827ZM169.211 47.2131C168.093 47.2131 167.132 46.9763 166.327 46.5028C165.527 46.0246 164.911 45.3617 164.48 44.5142C164.054 43.6667 163.841 42.6913 163.841 41.5881C163.841 40.4706 164.057 39.4905 164.488 38.6477C164.923 37.8002 165.541 37.1397 166.341 36.6662C167.141 36.188 168.093 35.9489 169.196 35.9489C170.148 35.9489 170.981 36.1217 171.696 36.4673C172.411 36.813 172.977 37.2983 173.394 37.9233C173.81 38.5483 174.04 39.2822 174.083 40.125H171.228C171.147 39.5805 170.934 39.1425 170.588 38.8111C170.248 38.4749 169.8 38.3068 169.246 38.3068C168.777 38.3068 168.368 38.4347 168.017 38.6903C167.672 38.9413 167.402 39.3082 167.208 39.7912C167.014 40.2741 166.917 40.8589 166.917 41.5455C166.917 42.2415 167.011 42.8333 167.201 43.321C167.395 43.8087 167.667 44.1804 168.017 44.4361C168.368 44.6918 168.777 44.8196 169.246 44.8196C169.592 44.8196 169.902 44.7486 170.176 44.6065C170.456 44.4645 170.685 44.2585 170.865 43.9886C171.05 43.714 171.171 43.3849 171.228 43.0014H174.083C174.035 43.8348 173.808 44.5687 173.401 45.2031C172.998 45.8329 172.442 46.3253 171.732 46.6804C171.022 47.0355 170.181 47.2131 169.211 47.2131ZM180.949 47.2131C179.831 47.2131 178.87 46.9763 178.065 46.5028C177.265 46.0246 176.65 45.3617 176.219 44.5142C175.793 43.6667 175.58 42.6913 175.58 41.5881C175.58 40.4706 175.795 39.4905 176.226 38.6477C176.661 37.8002 177.279 37.1397 178.08 36.6662C178.88 36.188 179.831 35.9489 180.935 35.9489C181.886 35.9489 182.72 36.1217 183.435 36.4673C184.15 36.813 184.715 37.2983 185.132 37.9233C185.549 38.5483 185.778 39.2822 185.821 40.125H182.966C182.885 39.5805 182.672 39.1425 182.327 38.8111C181.986 38.4749 181.538 38.3068 180.984 38.3068C180.516 38.3068 180.106 38.4347 179.756 38.6903C179.41 38.9413 179.14 39.3082 178.946 39.7912C178.752 40.2741 178.655 40.8589 178.655 41.5455C178.655 42.2415 178.75 42.8333 178.939 43.321C179.133 43.8087 179.405 44.1804 179.756 44.4361C180.106 44.6918 180.516 44.8196 180.984 44.8196C181.33 44.8196 181.64 44.7486 181.915 44.6065C182.194 44.4645 182.424 44.2585 182.604 43.9886C182.788 43.714 182.909 43.3849 182.966 43.0014H185.821C185.774 43.8348 185.546 44.5687 185.139 45.2031C184.737 45.8329 184.18 46.3253 183.47 46.6804C182.76 47.0355 181.92 47.2131 180.949 47.2131ZM192.73 47.2131C191.608 47.2131 190.642 46.9858 189.832 46.5312C189.027 46.072 188.407 45.4233 187.971 44.5852C187.536 43.7424 187.318 42.7457 187.318 41.5952C187.318 40.473 187.536 39.4882 187.971 38.6406C188.407 37.7931 189.02 37.1326 189.811 36.6591C190.606 36.1856 191.539 35.9489 192.609 35.9489C193.329 35.9489 193.999 36.0649 194.619 36.2969C195.244 36.5241 195.788 36.8674 196.252 37.3267C196.721 37.786 197.086 38.3636 197.346 39.0597C197.607 39.7509 197.737 40.5606 197.737 41.4886V42.3196H188.525V40.4446H194.889C194.889 40.009 194.794 39.6231 194.605 39.2869C194.415 38.9508 194.153 38.688 193.816 38.4986C193.485 38.3045 193.099 38.2074 192.659 38.2074C192.199 38.2074 191.792 38.3139 191.437 38.527C191.087 38.7353 190.812 39.017 190.613 39.3722C190.414 39.7225 190.313 40.1132 190.308 40.544V42.3267C190.308 42.8665 190.407 43.3329 190.606 43.7259C190.81 44.1188 191.096 44.4219 191.466 44.6349C191.835 44.848 192.273 44.9545 192.779 44.9545C193.116 44.9545 193.423 44.9072 193.703 44.8125C193.982 44.7178 194.221 44.5758 194.42 44.3864C194.619 44.197 194.77 43.965 194.875 43.6903L197.673 43.875C197.531 44.5473 197.24 45.1345 196.799 45.6364C196.364 46.1335 195.8 46.5218 195.109 46.8011C194.422 47.0758 193.629 47.2131 192.73 47.2131ZM202.737 32.4545V47H199.711V32.4545H202.737ZM210.132 47.2131C209.01 47.2131 208.044 46.9858 207.234 46.5312C206.429 46.072 205.809 45.4233 205.374 44.5852C204.938 43.7424 204.72 42.7457 204.72 41.5952C204.72 40.473 204.938 39.4882 205.374 38.6406C205.809 37.7931 206.422 37.1326 207.213 36.6591C208.009 36.1856 208.941 35.9489 210.011 35.9489C210.731 35.9489 211.401 36.0649 212.021 36.2969C212.646 36.5241 213.191 36.8674 213.655 37.3267C214.124 37.786 214.488 38.3636 214.749 39.0597C215.009 39.7509 215.139 40.5606 215.139 41.4886V42.3196H205.928V40.4446H212.291C212.291 40.009 212.196 39.6231 212.007 39.2869C211.818 38.9508 211.555 38.688 211.219 38.4986C210.887 38.3045 210.501 38.2074 210.061 38.2074C209.602 38.2074 209.195 38.3139 208.839 38.527C208.489 38.7353 208.214 39.017 208.016 39.3722C207.817 39.7225 207.715 40.1132 207.71 40.544V42.3267C207.71 42.8665 207.81 43.3329 208.009 43.7259C208.212 44.1188 208.499 44.4219 208.868 44.6349C209.237 44.848 209.675 44.9545 210.182 44.9545C210.518 44.9545 210.826 44.9072 211.105 44.8125C211.384 44.7178 211.624 44.5758 211.822 44.3864C212.021 44.197 212.173 43.965 212.277 43.6903L215.075 43.875C214.933 44.5473 214.642 45.1345 214.202 45.6364C213.766 46.1335 213.203 46.5218 212.511 46.8011C211.825 47.0758 211.032 47.2131 210.132 47.2131ZM217.114 47V36.0909H220.047V37.9943H220.161C220.359 37.3172 220.693 36.8059 221.162 36.4602C221.631 36.1098 222.17 35.9347 222.781 35.9347C222.933 35.9347 223.096 35.9441 223.271 35.9631C223.446 35.982 223.6 36.008 223.733 36.0412V38.7259C223.591 38.6832 223.394 38.6454 223.143 38.6122C222.893 38.5791 222.663 38.5625 222.455 38.5625C222.009 38.5625 221.612 38.6596 221.261 38.8537C220.916 39.0431 220.641 39.3082 220.438 39.6491C220.239 39.9901 220.139 40.383 220.139 40.8281V47H217.114ZM228.096 47.206C227.4 47.206 226.779 47.0852 226.235 46.8438C225.69 46.5975 225.259 46.2353 224.942 45.7571C224.63 45.2741 224.473 44.6728 224.473 43.9531C224.473 43.3471 224.585 42.8381 224.807 42.4261C225.03 42.0142 225.333 41.6828 225.716 41.4318C226.1 41.1809 226.535 40.9915 227.023 40.8636C227.516 40.7358 228.032 40.6458 228.571 40.5938C229.206 40.5275 229.717 40.4659 230.105 40.4091C230.494 40.3475 230.775 40.2576 230.951 40.1392C231.126 40.0208 231.213 39.8456 231.213 39.6136V39.571C231.213 39.1212 231.071 38.7732 230.787 38.527C230.508 38.2808 230.11 38.1577 229.594 38.1577C229.05 38.1577 228.616 38.2784 228.294 38.5199C227.972 38.7566 227.759 39.0549 227.655 39.4148L224.857 39.1875C224.999 38.5246 225.278 37.9517 225.695 37.4688C226.112 36.9811 226.649 36.607 227.307 36.3466C227.97 36.0814 228.737 35.9489 229.608 35.9489C230.214 35.9489 230.794 36.0199 231.348 36.1619C231.907 36.304 232.402 36.5241 232.833 36.8224C233.268 37.1207 233.612 37.5043 233.863 37.973C234.114 38.437 234.239 38.9934 234.239 39.642V47H231.37V45.4872H231.284C231.109 45.8281 230.875 46.1288 230.581 46.3892C230.288 46.6449 229.935 46.8461 229.523 46.9929C229.111 47.1349 228.635 47.206 228.096 47.206ZM228.962 45.1179C229.407 45.1179 229.8 45.0303 230.141 44.8551C230.482 44.6752 230.749 44.4337 230.944 44.1307C231.138 43.8277 231.235 43.4844 231.235 43.1009V41.9432C231.14 42.0047 231.01 42.0616 230.844 42.1136C230.683 42.161 230.501 42.206 230.297 42.2486C230.094 42.2865 229.89 42.322 229.686 42.3551C229.483 42.3835 229.298 42.4096 229.132 42.4332C228.777 42.4853 228.467 42.5682 228.202 42.6818C227.937 42.7955 227.731 42.9493 227.584 43.1435C227.437 43.3329 227.364 43.5696 227.364 43.8537C227.364 44.2656 227.513 44.5805 227.811 44.7983C228.114 45.0114 228.498 45.1179 228.962 45.1179ZM242.389 36.0909V38.3636H235.819V36.0909H242.389ZM237.311 33.4773H240.336V43.6477C240.336 43.9271 240.379 44.1449 240.464 44.3011C240.549 44.4527 240.668 44.5592 240.819 44.6207C240.975 44.6823 241.155 44.7131 241.359 44.7131C241.501 44.7131 241.643 44.7012 241.785 44.6776C241.927 44.6491 242.036 44.6278 242.112 44.6136L242.588 46.8651C242.436 46.9124 242.223 46.9669 241.949 47.0284C241.674 47.0947 241.34 47.1349 240.947 47.1491C240.218 47.1776 239.579 47.0805 239.029 46.858C238.485 46.6354 238.061 46.2898 237.758 45.821C237.455 45.3523 237.306 44.7604 237.311 44.0455V33.4773ZM244.36 47V36.0909H247.385V47H244.36ZM245.88 34.6847C245.43 34.6847 245.044 34.5355 244.722 34.2372C244.405 33.9342 244.246 33.572 244.246 33.1506C244.246 32.7339 244.405 32.3764 244.722 32.0781C245.044 31.7751 245.43 31.6236 245.88 31.6236C246.329 31.6236 246.713 31.7751 247.03 32.0781C247.352 32.3764 247.513 32.7339 247.513 33.1506C247.513 33.572 247.352 33.9342 247.03 34.2372C246.713 34.5355 246.329 34.6847 245.88 34.6847ZM254.738 47.2131C253.635 47.2131 252.681 46.9787 251.876 46.5099C251.076 46.0365 250.458 45.3783 250.022 44.5355C249.586 43.688 249.369 42.7055 249.369 41.5881C249.369 40.4612 249.586 39.4763 250.022 38.6335C250.458 37.786 251.076 37.1278 251.876 36.6591C252.681 36.1856 253.635 35.9489 254.738 35.9489C255.841 35.9489 256.793 36.1856 257.593 36.6591C258.398 37.1278 259.018 37.786 259.454 38.6335C259.889 39.4763 260.107 40.4612 260.107 41.5881C260.107 42.7055 259.889 43.688 259.454 44.5355C259.018 45.3783 258.398 46.0365 257.593 46.5099C256.793 46.9787 255.841 47.2131 254.738 47.2131ZM254.752 44.8693C255.254 44.8693 255.673 44.7273 256.009 44.4432C256.345 44.1544 256.599 43.7614 256.769 43.2642C256.944 42.767 257.032 42.2012 257.032 41.5668C257.032 40.9323 256.944 40.3665 256.769 39.8693C256.599 39.3722 256.345 38.9792 256.009 38.6903C255.673 38.4015 255.254 38.2571 254.752 38.2571C254.246 38.2571 253.819 38.4015 253.474 38.6903C253.133 38.9792 252.875 39.3722 252.7 39.8693C252.529 40.3665 252.444 40.9323 252.444 41.5668C252.444 42.2012 252.529 42.767 252.7 43.2642C252.875 43.7614 253.133 44.1544 253.474 44.4432C253.819 44.7273 254.246 44.8693 254.752 44.8693ZM265.1 40.6932V47H262.075V36.0909H264.958V38.0156H265.086C265.327 37.3812 265.732 36.8793 266.3 36.5099C266.869 36.1359 267.558 35.9489 268.367 35.9489C269.125 35.9489 269.785 36.1146 270.349 36.446C270.912 36.7775 271.35 37.2509 271.663 37.8665C271.975 38.4773 272.131 39.2064 272.131 40.054V47H269.106V40.5938C269.111 39.9261 268.94 39.4053 268.594 39.0312C268.249 38.6525 267.773 38.4631 267.167 38.4631C266.76 38.4631 266.4 38.5507 266.087 38.7259C265.78 38.901 265.538 39.1567 265.363 39.4929C265.192 39.8243 265.105 40.2244 265.1 40.6932Z" fill="#5642E6"/>
<rect x="310" y="26" width="40" height="40" rx="20" fill="#EEF2FF"/>
<path d="M331 44V37L322 48H329V55L338 44H331V44" fill="#4F46E5"/>
<path d="M29.3118 113H27.343L30.9276 102.818H33.2045L36.794 113H34.8253L32.1058 104.906H32.0263L29.3118 113ZM29.3764 109.008H34.7457V110.489H29.3764V109.008ZM41.1541 113.149C40.3918 113.149 39.7372 112.982 39.1903 112.647C38.6468 112.312 38.2275 111.85 37.9325 111.26C37.6409 110.667 37.495 109.984 37.495 109.212C37.495 108.436 37.6442 107.752 37.9425 107.158C38.2408 106.562 38.6617 106.098 39.2053 105.766C39.7521 105.432 40.3984 105.264 41.1442 105.264C41.764 105.264 42.3125 105.379 42.7898 105.607C43.2704 105.833 43.6532 106.152 43.9382 106.567C44.2232 106.978 44.3857 107.458 44.4254 108.009H42.7053C42.6357 107.641 42.4699 107.334 42.2081 107.089C41.9496 106.84 41.6032 106.716 41.169 106.716C40.8011 106.716 40.478 106.815 40.1996 107.014C39.9212 107.21 39.7041 107.491 39.5483 107.859C39.3958 108.227 39.3196 108.668 39.3196 109.182C39.3196 109.702 39.3958 110.15 39.5483 110.524C39.7008 110.895 39.9145 111.182 40.1896 111.384C40.468 111.583 40.7945 111.683 41.169 111.683C41.4342 111.683 41.6712 111.633 41.88 111.533C42.0921 111.431 42.2694 111.283 42.4119 111.091C42.5545 110.899 42.6522 110.665 42.7053 110.39H44.4254C44.3823 110.93 44.2232 111.409 43.9482 111.827C43.6731 112.241 43.2985 112.566 42.8246 112.801C42.3506 113.033 41.7938 113.149 41.1541 113.149ZM49.7164 105.364V106.756H45.3265V105.364H49.7164ZM46.4103 103.534H48.21V110.703C48.21 110.945 48.2465 111.131 48.3194 111.26C48.3957 111.386 48.4951 111.472 48.6177 111.518C48.7404 111.565 48.8762 111.588 49.0254 111.588C49.1381 111.588 49.2408 111.58 49.3336 111.563C49.4297 111.547 49.5027 111.532 49.5524 111.518L49.8556 112.925C49.7595 112.959 49.622 112.995 49.443 113.035C49.2673 113.075 49.0519 113.098 48.7967 113.104C48.3459 113.118 47.9399 113.05 47.5787 112.901C47.2174 112.748 46.9307 112.513 46.7186 112.195C46.5098 111.876 46.407 111.479 46.4103 111.001V103.534ZM51.2216 113V105.364H53.0213V113H51.2216ZM52.1264 104.28C51.8414 104.28 51.5961 104.185 51.3906 103.996C51.1851 103.804 51.0824 103.574 51.0824 103.305C51.0824 103.034 51.1851 102.803 51.3906 102.614C51.5961 102.422 51.8414 102.326 52.1264 102.326C52.4148 102.326 52.66 102.422 52.8622 102.614C53.0677 102.803 53.1705 103.034 53.1705 103.305C53.1705 103.574 53.0677 103.804 52.8622 103.996C52.66 104.185 52.4148 104.28 52.1264 104.28ZM58.2029 113.149C57.4572 113.149 56.8109 112.985 56.264 112.657C55.7172 112.329 55.2929 111.87 54.9913 111.28C54.693 110.69 54.5439 110 54.5439 109.212C54.5439 108.423 54.693 107.732 54.9913 107.138C55.2929 106.545 55.7172 106.085 56.264 105.756C56.8109 105.428 57.4572 105.264 58.2029 105.264C58.9487 105.264 59.595 105.428 60.1419 105.756C60.6887 106.085 61.1113 106.545 61.4096 107.138C61.7112 107.732 61.862 108.423 61.862 109.212C61.862 110 61.7112 110.69 61.4096 111.28C61.1113 111.87 60.6887 112.329 60.1419 112.657C59.595 112.985 58.9487 113.149 58.2029 113.149ZM58.2129 111.707C58.6172 111.707 58.9553 111.596 59.2271 111.374C59.4989 111.149 59.7011 110.847 59.8336 110.469C59.9695 110.092 60.0375 109.671 60.0375 109.207C60.0375 108.739 59.9695 108.317 59.8336 107.939C59.7011 107.558 59.4989 107.254 59.2271 107.029C58.9553 106.804 58.6172 106.691 58.2129 106.691C57.7986 106.691 57.4539 106.804 57.1788 107.029C56.907 107.254 56.7032 107.558 56.5673 107.939C56.4347 108.317 56.3684 108.739 56.3684 109.207C56.3684 109.671 56.4347 110.092 56.5673 110.469C56.7032 110.847 56.907 111.149 57.1788 111.374C57.4539 111.596 57.7986 111.707 58.2129 111.707ZM65.1893 108.526V113H63.3896V105.364H65.1097V106.661H65.1992C65.3749 106.234 65.6549 105.894 66.0394 105.642C66.4272 105.39 66.9061 105.264 67.4762 105.264C68.0032 105.264 68.4622 105.377 68.8533 105.602C69.2478 105.828 69.5527 106.154 69.7681 106.582C69.9869 107.009 70.0946 107.528 70.0913 108.138V113H68.2915V108.416C68.2915 107.906 68.159 107.506 67.8938 107.218C67.632 106.93 67.2691 106.786 66.805 106.786C66.4902 106.786 66.2101 106.855 65.9648 106.994C65.7229 107.13 65.5323 107.327 65.3931 107.586C65.2572 107.844 65.1893 108.158 65.1893 108.526ZM75.473 113V102.818H79.2912C80.0734 102.818 80.7296 102.964 81.2599 103.256C81.7936 103.547 82.1963 103.948 82.468 104.459C82.7431 104.966 82.8807 105.543 82.8807 106.189C82.8807 106.842 82.7431 107.422 82.468 107.929C82.1929 108.436 81.7869 108.835 81.25 109.127C80.7131 109.415 80.0518 109.56 79.2663 109.56H76.7358V108.043H79.0178C79.4751 108.043 79.8497 107.964 80.1413 107.805C80.433 107.646 80.6484 107.427 80.7876 107.148C80.9302 106.87 81.0014 106.55 81.0014 106.189C81.0014 105.828 80.9302 105.509 80.7876 105.234C80.6484 104.959 80.4313 104.746 80.1364 104.593C79.8447 104.437 79.4685 104.359 79.0078 104.359H77.3175V113H75.473ZM84.4032 113V105.364H86.1483V106.636H86.2278C86.367 106.196 86.6056 105.856 86.9437 105.617C87.2851 105.375 87.6745 105.254 88.112 105.254C88.2115 105.254 88.3225 105.259 88.4451 105.269C88.5711 105.276 88.6755 105.287 88.7583 105.304V106.96C88.6821 106.933 88.5611 106.91 88.3954 106.89C88.233 106.867 88.0756 106.855 87.9231 106.855C87.595 106.855 87.3 106.926 87.0382 107.069C86.7797 107.208 86.5758 107.402 86.4267 107.651C86.2775 107.899 86.2029 108.186 86.2029 108.511V113H84.4032ZM92.9705 113.149C92.2248 113.149 91.5785 112.985 91.0316 112.657C90.4847 112.329 90.0605 111.87 89.7589 111.28C89.4606 110.69 89.3114 110 89.3114 109.212C89.3114 108.423 89.4606 107.732 89.7589 107.138C90.0605 106.545 90.4847 106.085 91.0316 105.756C91.5785 105.428 92.2248 105.264 92.9705 105.264C93.7163 105.264 94.3626 105.428 94.9094 105.756C95.4563 106.085 95.8789 106.545 96.1772 107.138C96.4788 107.732 96.6296 108.423 96.6296 109.212C96.6296 110 96.4788 110.69 96.1772 111.28C95.8789 111.87 95.4563 112.329 94.9094 112.657C94.3626 112.985 93.7163 113.149 92.9705 113.149ZM92.9805 111.707C93.3848 111.707 93.7229 111.596 93.9947 111.374C94.2665 111.149 94.4686 110.847 94.6012 110.469C94.7371 110.092 94.805 109.671 94.805 109.207C94.805 108.739 94.7371 108.317 94.6012 107.939C94.4686 107.558 94.2665 107.254 93.9947 107.029C93.7229 106.804 93.3848 106.691 92.9805 106.691C92.5662 106.691 92.2215 106.804 91.9464 107.029C91.6746 107.254 91.4708 107.558 91.3349 107.939C91.2023 108.317 91.136 108.739 91.136 109.207C91.136 109.671 91.2023 110.092 91.3349 110.469C91.4708 110.847 91.6746 111.149 91.9464 111.374C92.2215 111.596 92.5662 111.707 92.9805 111.707ZM101.478 116.023C100.832 116.023 100.277 115.935 99.8127 115.759C99.3487 115.587 98.9758 115.355 98.6941 115.063C98.4123 114.772 98.2168 114.448 98.1074 114.094L99.7282 113.701C99.8011 113.85 99.9071 113.998 100.046 114.143C100.186 114.293 100.373 114.415 100.608 114.511C100.847 114.611 101.147 114.661 101.508 114.661C102.018 114.661 102.441 114.536 102.776 114.288C103.11 114.042 103.278 113.638 103.278 113.075V111.628H103.188C103.096 111.813 102.96 112.004 102.781 112.2C102.605 112.395 102.371 112.559 102.08 112.692C101.791 112.824 101.428 112.891 100.991 112.891C100.404 112.891 99.8723 112.753 99.3951 112.478C98.9211 112.2 98.5433 111.785 98.2615 111.235C97.9831 110.682 97.8439 109.989 97.8439 109.157C97.8439 108.318 97.9831 107.611 98.2615 107.034C98.5433 106.454 98.9228 106.015 99.4 105.717C99.8773 105.415 100.409 105.264 100.996 105.264C101.443 105.264 101.811 105.34 102.1 105.493C102.391 105.642 102.623 105.823 102.796 106.035C102.968 106.244 103.099 106.441 103.188 106.626H103.288V105.364H105.063V113.124C105.063 113.777 104.907 114.317 104.595 114.745C104.284 115.173 103.858 115.492 103.318 115.705C102.777 115.917 102.164 116.023 101.478 116.023ZM101.493 111.479C101.874 111.479 102.199 111.386 102.468 111.2C102.736 111.015 102.94 110.748 103.079 110.4C103.218 110.052 103.288 109.634 103.288 109.147C103.288 108.666 103.218 108.246 103.079 107.884C102.943 107.523 102.741 107.243 102.472 107.044C102.207 106.842 101.881 106.741 101.493 106.741C101.092 106.741 100.757 106.845 100.489 107.054C100.22 107.263 100.018 107.549 99.8823 107.914C99.7464 108.275 99.6784 108.686 99.6784 109.147C99.6784 109.614 99.7464 110.024 99.8823 110.375C100.021 110.723 100.225 110.995 100.494 111.19C100.766 111.383 101.099 111.479 101.493 111.479ZM106.907 113V105.364H108.652V106.636H108.732C108.871 106.196 109.11 105.856 109.448 105.617C109.789 105.375 110.178 105.254 110.616 105.254C110.715 105.254 110.826 105.259 110.949 105.269C111.075 105.276 111.179 105.287 111.262 105.304V106.96C111.186 106.933 111.065 106.91 110.899 106.89C110.737 106.867 110.579 106.855 110.427 106.855C110.099 106.855 109.804 106.926 109.542 107.069C109.284 107.208 109.08 107.402 108.931 107.651C108.781 107.899 108.707 108.186 108.707 108.511V113H106.907ZM115.524 113.149C114.759 113.149 114.097 112.99 113.54 112.672C112.987 112.35 112.561 111.896 112.263 111.31C111.964 110.72 111.815 110.025 111.815 109.227C111.815 108.441 111.964 107.752 112.263 107.158C112.564 106.562 112.985 106.098 113.526 105.766C114.066 105.432 114.701 105.264 115.43 105.264C115.9 105.264 116.344 105.34 116.762 105.493C117.183 105.642 117.554 105.874 117.876 106.189C118.201 106.504 118.456 106.905 118.641 107.392C118.827 107.876 118.92 108.453 118.92 109.122V109.674H112.661V108.461H117.195C117.191 108.116 117.117 107.81 116.971 107.541C116.825 107.269 116.621 107.056 116.359 106.9C116.101 106.744 115.799 106.666 115.455 106.666C115.087 106.666 114.763 106.756 114.485 106.935C114.207 107.11 113.99 107.342 113.834 107.631C113.681 107.916 113.603 108.229 113.6 108.57V109.629C113.6 110.073 113.681 110.455 113.844 110.773C114.006 111.088 114.233 111.33 114.525 111.499C114.817 111.664 115.158 111.747 115.549 111.747C115.811 111.747 116.048 111.711 116.26 111.638C116.472 111.562 116.656 111.451 116.812 111.305C116.968 111.159 117.085 110.978 117.165 110.763L118.845 110.952C118.739 111.396 118.537 111.784 118.239 112.115C117.944 112.443 117.566 112.698 117.105 112.881C116.644 113.06 116.117 113.149 115.524 113.149ZM126.478 107.382L124.837 107.561C124.791 107.395 124.71 107.24 124.594 107.094C124.481 106.948 124.328 106.83 124.136 106.741C123.944 106.651 123.709 106.607 123.43 106.607C123.056 106.607 122.741 106.688 122.486 106.85C122.234 107.013 122.109 107.223 122.113 107.482C122.109 107.704 122.191 107.884 122.356 108.023C122.525 108.163 122.804 108.277 123.192 108.366L124.494 108.645C125.217 108.801 125.754 109.048 126.105 109.386C126.46 109.724 126.639 110.166 126.642 110.713C126.639 111.194 126.498 111.618 126.219 111.986C125.944 112.35 125.561 112.635 125.071 112.841C124.58 113.046 124.017 113.149 123.381 113.149C122.446 113.149 121.693 112.954 121.123 112.562C120.553 112.168 120.214 111.62 120.104 110.917L121.859 110.748C121.939 111.093 122.108 111.353 122.366 111.528C122.625 111.704 122.961 111.792 123.376 111.792C123.803 111.792 124.146 111.704 124.405 111.528C124.666 111.353 124.797 111.136 124.797 110.877C124.797 110.658 124.713 110.478 124.544 110.335C124.378 110.193 124.12 110.083 123.768 110.007L122.466 109.734C121.733 109.581 121.191 109.324 120.84 108.963C120.489 108.598 120.315 108.138 120.318 107.581C120.315 107.11 120.442 106.703 120.701 106.358C120.963 106.01 121.326 105.741 121.79 105.553C122.257 105.36 122.796 105.264 123.405 105.264C124.3 105.264 125.005 105.455 125.518 105.836C126.035 106.217 126.355 106.732 126.478 107.382ZM134.161 107.382L132.521 107.561C132.474 107.395 132.393 107.24 132.277 107.094C132.164 106.948 132.012 106.83 131.82 106.741C131.628 106.651 131.392 106.607 131.114 106.607C130.739 106.607 130.424 106.688 130.169 106.85C129.917 107.013 129.793 107.223 129.796 107.482C129.793 107.704 129.874 107.884 130.04 108.023C130.209 108.163 130.487 108.277 130.875 108.366L132.178 108.645C132.9 108.801 133.437 109.048 133.789 109.386C134.143 109.724 134.322 110.166 134.325 110.713C134.322 111.194 134.181 111.618 133.903 111.986C133.628 112.35 133.245 112.635 132.754 112.841C132.264 113.046 131.7 113.149 131.064 113.149C130.129 113.149 129.377 112.954 128.807 112.562C128.237 112.168 127.897 111.62 127.788 110.917L129.543 110.748C129.622 111.093 129.791 111.353 130.05 111.528C130.308 111.704 130.645 111.792 131.059 111.792C131.487 111.792 131.83 111.704 132.088 111.528C132.35 111.353 132.481 111.136 132.481 110.877C132.481 110.658 132.396 110.478 132.227 110.335C132.062 110.193 131.803 110.083 131.452 110.007L130.149 109.734C129.417 109.581 128.875 109.324 128.524 108.963C128.172 108.598 127.998 108.138 128.002 107.581C127.998 107.11 128.126 106.703 128.384 106.358C128.646 106.01 129.009 105.741 129.473 105.553C129.941 105.36 130.479 105.264 131.089 105.264C131.984 105.264 132.688 105.455 133.202 105.836C133.719 106.217 134.039 106.732 134.161 107.382Z" fill="#64748B"/>
<rect x="27" y="156" width="323.33" height="4" fill="#F1F5F9"/>
<rect x="27" y="156.344" width="270.721" height="4" fill="#6366F1"/>
<rect x="27" y="142" width="32" height="32" rx="16" fill="#4F46E5"/>
<path d="M38.3333 158.667L40.9999 161.333L47.6666 154.667" stroke="white" stroke-width="2" stroke-linecap="round" stroke-linejoin="round"/>
<rect x="124" y="142" width="32" height="32" rx="16" fill="#4F46E5"/>
<path d="M135.333 158.667L138 161.333L144.667 154.667" stroke="white" stroke-width="2" stroke-linecap="round" stroke-linejoin="round"/>
<rect x="221" y="142" width="32" height="32" rx="16" fill="#4F46E5"/>
<path d="M232.333 158.667L235 161.333L241.667 154.667" stroke="white" stroke-width="2" stroke-linecap="round" stroke-linejoin="round"/>
<rect x="319" y="143" width="30" height="30" rx="15" fill="white" stroke="#E2E8F0" stroke-width="2"/>
<rect x="27" y="206" width="192" height="8" rx="4" fill="#F1F5F9"/>
<rect x="27" y="222" width="128" height="8" rx="4" fill="#F1F5F9"/>
<rect width="371" height="93.5" transform="translate(3 284.5)" fill="#F4F2FF"/>
<path d="M39 314.5C33.48 314.5 29 318.98 29 324.5C29 330.02 33.48 334.5 39 334.5C44.52 334.5 49 330.02 49 324.5C49 318.98 44.52 314.5 39 314.5V314.5M38 329.5H36V323.5H38V329.5V329.5M38 321.5H36V319.5H38V321.5V321.5" fill="#6366F1"/>
<path d="M68.6506 323.375H67.358L71.0966 313.193H72.3693L76.108 323.375H74.8153L71.7727 314.804H71.6932L68.6506 323.375ZM69.1278 319.398H74.3381V320.491H69.1278V319.398ZM82.3473 320.253V315.739H83.5206V323.375H82.3473V322.082H82.2678C82.0888 322.47 81.8104 322.8 81.4325 323.072C81.0547 323.34 80.5774 323.474 80.0007 323.474C79.5234 323.474 79.0992 323.37 78.728 323.161C78.3568 322.949 78.0651 322.631 77.853 322.207C77.6409 321.779 77.5348 321.241 77.5348 320.591V315.739H78.7081V320.511C78.7081 321.068 78.8639 321.512 79.1754 321.844C79.4903 322.175 79.8913 322.341 80.3786 322.341C80.6702 322.341 80.9669 322.266 81.2685 322.117C81.5734 321.968 81.8286 321.739 82.0341 321.431C82.2429 321.123 82.3473 320.73 82.3473 320.253ZM88.9906 315.739V316.733H85.0332V315.739H88.9906ZM86.1866 313.909H87.3599V321.188C87.3599 321.519 87.408 321.768 87.5041 321.933C87.6035 322.096 87.7295 322.205 87.8819 322.261C88.0377 322.314 88.2018 322.341 88.3741 322.341C88.5034 322.341 88.6094 322.334 88.6923 322.321C88.7752 322.304 88.8414 322.291 88.8912 322.281L89.1298 323.335C89.0502 323.365 88.9392 323.395 88.7967 323.425C88.6542 323.458 88.4735 323.474 88.2548 323.474C87.9234 323.474 87.5985 323.403 87.2804 323.261C86.9655 323.118 86.7037 322.901 86.4949 322.609C86.2894 322.318 86.1866 321.95 86.1866 321.506V313.909ZM93.7757 323.534C93.0864 323.534 92.4815 323.37 91.9611 323.042C91.4441 322.714 91.0397 322.255 90.748 321.665C90.4597 321.075 90.3155 320.385 90.3155 319.597C90.3155 318.801 90.4597 318.107 90.748 317.513C91.0397 316.92 91.4441 316.46 91.9611 316.131C92.4815 315.803 93.0864 315.639 93.7757 315.639C94.4651 315.639 95.0684 315.803 95.5854 316.131C96.1058 316.46 96.5101 316.92 96.7985 317.513C97.0901 318.107 97.236 318.801 97.236 319.597C97.236 320.385 97.0901 321.075 96.7985 321.665C96.5101 322.255 96.1058 322.714 95.5854 323.042C95.0684 323.37 94.4651 323.534 93.7757 323.534ZM93.7757 322.48C94.2994 322.48 94.7303 322.346 95.0684 322.077C95.4064 321.809 95.6567 321.456 95.8191 321.018C95.9815 320.581 96.0627 320.107 96.0627 319.597C96.0627 319.086 95.9815 318.611 95.8191 318.17C95.6567 317.729 95.4064 317.373 95.0684 317.101C94.7303 316.829 94.2994 316.693 93.7757 316.693C93.2521 316.693 92.8212 316.829 92.4831 317.101C92.1451 317.373 91.8948 317.729 91.7324 318.17C91.57 318.611 91.4888 319.086 91.4888 319.597C91.4888 320.107 91.57 320.581 91.7324 321.018C91.8948 321.456 92.1451 321.809 92.4831 322.077C92.8212 322.346 93.2521 322.48 93.7757 322.48ZM103.402 318.463V319.557H98.9474V318.463H103.402ZM107.714 323.554C107.23 323.554 106.791 323.463 106.396 323.281C106.002 323.095 105.689 322.828 105.456 322.48C105.224 322.129 105.108 321.705 105.108 321.207C105.108 320.77 105.195 320.415 105.367 320.143C105.539 319.868 105.77 319.653 106.058 319.497C106.346 319.341 106.665 319.225 107.013 319.149C107.364 319.07 107.717 319.007 108.072 318.96C108.536 318.901 108.912 318.856 109.2 318.826C109.492 318.793 109.704 318.738 109.836 318.662C109.972 318.586 110.04 318.453 110.04 318.264V318.224C110.04 317.734 109.906 317.353 109.638 317.081C109.372 316.809 108.97 316.673 108.43 316.673C107.869 316.673 107.43 316.796 107.112 317.041C106.794 317.286 106.57 317.548 106.441 317.827L105.327 317.429C105.526 316.965 105.791 316.604 106.123 316.345C106.457 316.083 106.822 315.901 107.216 315.798C107.614 315.692 108.005 315.639 108.39 315.639C108.635 315.639 108.917 315.669 109.235 315.729C109.556 315.785 109.866 315.903 110.165 316.082C110.466 316.261 110.716 316.531 110.915 316.892C111.114 317.253 111.214 317.737 111.214 318.344V323.375H110.04V322.341H109.981C109.901 322.507 109.769 322.684 109.583 322.873C109.397 323.062 109.15 323.223 108.842 323.355C108.534 323.488 108.158 323.554 107.714 323.554ZM107.893 322.5C108.357 322.5 108.748 322.409 109.066 322.227C109.387 322.044 109.629 321.809 109.792 321.521C109.957 321.232 110.04 320.929 110.04 320.611V319.537C109.991 319.597 109.881 319.651 109.712 319.701C109.546 319.747 109.354 319.789 109.135 319.825C108.92 319.858 108.71 319.888 108.504 319.915C108.302 319.938 108.138 319.958 108.012 319.974C107.707 320.014 107.422 320.079 107.157 320.168C106.895 320.254 106.683 320.385 106.52 320.561C106.361 320.733 106.282 320.969 106.282 321.267C106.282 321.675 106.433 321.983 106.734 322.192C107.039 322.397 107.425 322.5 107.893 322.5ZM118.764 317.449L117.71 317.747C117.644 317.571 117.546 317.401 117.417 317.235C117.291 317.066 117.119 316.927 116.9 316.817C116.681 316.708 116.401 316.653 116.06 316.653C115.592 316.653 115.203 316.761 114.891 316.977C114.583 317.189 114.429 317.459 114.429 317.787C114.429 318.079 114.535 318.309 114.747 318.478C114.959 318.647 115.291 318.788 115.741 318.901L116.875 319.179C117.558 319.345 118.067 319.598 118.401 319.94C118.736 320.278 118.903 320.714 118.903 321.247C118.903 321.685 118.777 322.076 118.526 322.42C118.277 322.765 117.929 323.037 117.482 323.236C117.034 323.435 116.514 323.534 115.92 323.534C115.142 323.534 114.497 323.365 113.987 323.027C113.476 322.689 113.153 322.195 113.017 321.545L114.131 321.267C114.237 321.678 114.437 321.986 114.732 322.192C115.031 322.397 115.42 322.5 115.901 322.5C116.447 322.5 116.882 322.384 117.203 322.152C117.528 321.917 117.69 321.635 117.69 321.307C117.69 321.042 117.598 320.82 117.412 320.641C117.226 320.458 116.941 320.322 116.557 320.233L115.284 319.935C114.585 319.769 114.071 319.512 113.743 319.164C113.418 318.813 113.256 318.374 113.256 317.847C113.256 317.416 113.377 317.035 113.619 316.703C113.864 316.372 114.197 316.112 114.618 315.923C115.042 315.734 115.523 315.639 116.06 315.639C116.815 315.639 117.409 315.805 117.839 316.136C118.274 316.468 118.582 316.905 118.764 317.449ZM126.079 317.449L125.025 317.747C124.958 317.571 124.861 317.401 124.731 317.235C124.605 317.066 124.433 316.927 124.214 316.817C123.996 316.708 123.715 316.653 123.374 316.653C122.907 316.653 122.517 316.761 122.206 316.977C121.898 317.189 121.743 317.459 121.743 317.787C121.743 318.079 121.849 318.309 122.062 318.478C122.274 318.647 122.605 318.788 123.056 318.901L124.189 319.179C124.872 319.345 125.381 319.598 125.716 319.94C126.05 320.278 126.218 320.714 126.218 321.247C126.218 321.685 126.092 322.076 125.84 322.42C125.591 322.765 125.243 323.037 124.796 323.236C124.349 323.435 123.828 323.534 123.235 323.534C122.456 323.534 121.811 323.365 121.301 323.027C120.791 322.689 120.467 322.195 120.331 321.545L121.445 321.267C121.551 321.678 121.752 321.986 122.047 322.192C122.345 322.397 122.734 322.5 123.215 322.5C123.762 322.5 124.196 322.384 124.518 322.152C124.842 321.917 125.005 321.635 125.005 321.307C125.005 321.042 124.912 320.82 124.726 320.641C124.541 320.458 124.256 320.322 123.871 320.233L122.599 319.935C121.899 319.769 121.385 319.512 121.057 319.164C120.733 318.813 120.57 318.374 120.57 317.847C120.57 317.416 120.691 317.035 120.933 316.703C121.178 316.372 121.511 316.112 121.932 315.923C122.357 315.734 122.837 315.639 123.374 315.639C124.13 315.639 124.723 315.805 125.154 316.136C125.588 316.468 125.896 316.905 126.079 317.449ZM127.984 323.375V315.739H129.157V323.375H127.984ZM128.581 314.466C128.352 314.466 128.155 314.388 127.989 314.232C127.827 314.076 127.745 313.889 127.745 313.67C127.745 313.452 127.827 313.264 127.989 313.109C128.155 312.953 128.352 312.875 128.581 312.875C128.809 312.875 129.005 312.953 129.167 313.109C129.333 313.264 129.416 313.452 129.416 313.67C129.416 313.889 129.333 314.076 129.167 314.232C129.005 314.388 128.809 314.466 128.581 314.466ZM134.389 326.398C133.822 326.398 133.335 326.325 132.927 326.179C132.519 326.036 132.18 325.848 131.908 325.612C131.639 325.38 131.426 325.132 131.267 324.866L132.201 324.21C132.307 324.349 132.441 324.509 132.604 324.688C132.766 324.87 132.988 325.027 133.27 325.16C133.555 325.296 133.928 325.364 134.389 325.364C135.005 325.364 135.514 325.214 135.915 324.916C136.316 324.618 136.517 324.151 136.517 323.514V321.963H136.417C136.331 322.102 136.208 322.275 136.049 322.48C135.893 322.682 135.668 322.863 135.373 323.022C135.081 323.178 134.687 323.256 134.19 323.256C133.573 323.256 133.02 323.11 132.529 322.818C132.042 322.527 131.656 322.102 131.371 321.545C131.089 320.989 130.948 320.312 130.948 319.517C130.948 318.735 131.086 318.054 131.361 317.474C131.636 316.89 132.019 316.44 132.509 316.121C133 315.8 133.567 315.639 134.21 315.639C134.707 315.639 135.101 315.722 135.393 315.888C135.688 316.05 135.913 316.236 136.069 316.445C136.228 316.65 136.351 316.819 136.437 316.952H136.556V315.739H137.69V323.594C137.69 324.25 137.541 324.784 137.242 325.195C136.947 325.609 136.55 325.912 136.049 326.104C135.552 326.3 134.999 326.398 134.389 326.398ZM134.349 322.202C134.82 322.202 135.217 322.094 135.542 321.879C135.867 321.663 136.114 321.353 136.283 320.949C136.452 320.545 136.536 320.061 136.536 319.497C136.536 318.947 136.454 318.461 136.288 318.04C136.122 317.62 135.877 317.29 135.552 317.051C135.227 316.812 134.826 316.693 134.349 316.693C133.852 316.693 133.437 316.819 133.106 317.071C132.778 317.323 132.531 317.661 132.365 318.085C132.203 318.509 132.122 318.98 132.122 319.497C132.122 320.027 132.204 320.496 132.37 320.904C132.539 321.308 132.788 321.627 133.116 321.859C133.447 322.087 133.858 322.202 134.349 322.202ZM141.011 318.781V323.375H139.838V315.739H140.971V316.932H141.07C141.249 316.544 141.521 316.232 141.886 315.997C142.25 315.759 142.721 315.639 143.298 315.639C143.815 315.639 144.267 315.745 144.655 315.957C145.043 316.166 145.344 316.484 145.56 316.912C145.775 317.336 145.883 317.873 145.883 318.523V323.375H144.71V318.602C144.71 318.002 144.554 317.535 144.242 317.2C143.931 316.862 143.503 316.693 142.96 316.693C142.585 316.693 142.25 316.774 141.955 316.937C141.664 317.099 141.433 317.336 141.264 317.648C141.095 317.959 141.011 318.337 141.011 318.781ZM148.027 323.375V315.739H149.2V323.375H148.027ZM148.624 314.466C148.395 314.466 148.198 314.388 148.032 314.232C147.87 314.076 147.788 313.889 147.788 313.67C147.788 313.452 147.87 313.264 148.032 313.109C148.198 312.953 148.395 312.875 148.624 312.875C148.852 312.875 149.048 312.953 149.21 313.109C149.376 313.264 149.459 313.452 149.459 313.67C149.459 313.889 149.376 314.076 149.21 314.232C149.048 314.388 148.852 314.466 148.624 314.466ZM152.523 318.781V323.375H151.349V315.739H152.483V316.932H152.582C152.761 316.544 153.033 316.232 153.398 315.997C153.762 315.759 154.233 315.639 154.809 315.639C155.327 315.639 155.779 315.745 156.167 315.957C156.555 316.166 156.856 316.484 157.072 316.912C157.287 317.336 157.395 317.873 157.395 318.523V323.375H156.221V318.602C156.221 318.002 156.066 317.535 155.754 317.2C155.443 316.862 155.015 316.693 154.471 316.693C154.097 316.693 153.762 316.774 153.467 316.937C153.175 317.099 152.945 317.336 152.776 317.648C152.607 317.959 152.523 318.337 152.523 318.781ZM162.621 326.398C162.054 326.398 161.567 326.325 161.159 326.179C160.752 326.036 160.412 325.848 160.14 325.612C159.872 325.38 159.658 325.132 159.499 324.866L160.434 324.21C160.54 324.349 160.674 324.509 160.836 324.688C160.999 324.87 161.221 325.027 161.502 325.16C161.788 325.296 162.16 325.364 162.621 325.364C163.238 325.364 163.746 325.214 164.147 324.916C164.548 324.618 164.749 324.151 164.749 323.514V321.963H164.65C164.563 322.102 164.441 322.275 164.282 322.48C164.126 322.682 163.9 322.863 163.605 323.022C163.314 323.178 162.919 323.256 162.422 323.256C161.806 323.256 161.252 323.11 160.762 322.818C160.275 322.527 159.888 322.102 159.603 321.545C159.322 320.989 159.181 320.312 159.181 319.517C159.181 318.735 159.318 318.054 159.593 317.474C159.868 316.89 160.251 316.44 160.742 316.121C161.232 315.8 161.799 315.639 162.442 315.639C162.939 315.639 163.334 315.722 163.625 315.888C163.92 316.05 164.146 316.236 164.301 316.445C164.461 316.65 164.583 316.819 164.669 316.952H164.789V315.739H165.922V323.594C165.922 324.25 165.773 324.784 165.475 325.195C165.18 325.609 164.782 325.912 164.282 326.104C163.784 326.3 163.231 326.398 162.621 326.398ZM162.581 322.202C163.052 322.202 163.45 322.094 163.775 321.879C164.099 321.663 164.346 321.353 164.515 320.949C164.684 320.545 164.769 320.061 164.769 319.497C164.769 318.947 164.686 318.461 164.52 318.04C164.355 317.62 164.109 317.29 163.784 317.051C163.46 316.812 163.059 316.693 162.581 316.693C162.084 316.693 161.67 316.819 161.338 317.071C161.01 317.323 160.763 317.661 160.598 318.085C160.435 318.509 160.354 318.98 160.354 319.497C160.354 320.027 160.437 320.496 160.603 320.904C160.772 321.308 161.02 321.627 161.348 321.859C161.68 322.087 162.091 322.202 162.581 322.202ZM169.82 321.983L169.74 322.52C169.684 322.898 169.598 323.302 169.482 323.733C169.369 324.164 169.252 324.57 169.129 324.951C169.006 325.332 168.905 325.635 168.826 325.861H167.931C167.974 325.649 168.03 325.369 168.1 325.021C168.169 324.673 168.239 324.283 168.309 323.852C168.382 323.425 168.441 322.987 168.488 322.54L168.547 321.983H169.82ZM175.931 326.239V315.739H177.065V316.952H177.204C177.29 316.819 177.41 316.65 177.562 316.445C177.718 316.236 177.94 316.05 178.228 315.888C178.52 315.722 178.914 315.639 179.411 315.639C180.054 315.639 180.621 315.8 181.112 316.121C181.602 316.443 181.985 316.899 182.26 317.489C182.535 318.079 182.673 318.775 182.673 319.577C182.673 320.385 182.535 321.086 182.26 321.68C181.985 322.27 181.604 322.727 181.117 323.052C180.629 323.373 180.068 323.534 179.431 323.534C178.941 323.534 178.548 323.453 178.253 323.29C177.958 323.125 177.731 322.937 177.572 322.729C177.413 322.517 177.29 322.341 177.204 322.202H177.105V326.239H175.931ZM177.085 319.557C177.085 320.134 177.169 320.642 177.338 321.083C177.507 321.521 177.754 321.864 178.079 322.112C178.404 322.357 178.802 322.48 179.272 322.48C179.763 322.48 180.172 322.351 180.5 322.092C180.832 321.83 181.08 321.479 181.246 321.038C181.415 320.594 181.499 320.1 181.499 319.557C181.499 319.02 181.417 318.536 181.251 318.105C181.088 317.671 180.842 317.328 180.51 317.076C180.182 316.821 179.769 316.693 179.272 316.693C178.795 316.693 178.394 316.814 178.069 317.056C177.744 317.295 177.499 317.629 177.333 318.06C177.168 318.488 177.085 318.987 177.085 319.557ZM184.463 323.375V315.739H185.596V316.892H185.676C185.815 316.514 186.067 316.208 186.431 315.972C186.796 315.737 187.207 315.619 187.664 315.619C187.75 315.619 187.858 315.621 187.987 315.624C188.117 315.628 188.214 315.633 188.281 315.639V316.832C188.241 316.822 188.15 316.808 188.007 316.788C187.868 316.764 187.721 316.753 187.565 316.753C187.194 316.753 186.862 316.831 186.57 316.987C186.282 317.139 186.053 317.351 185.884 317.623C185.719 317.891 185.636 318.198 185.636 318.543V323.375H184.463ZM189.672 323.375V315.739H190.845V323.375H189.672ZM190.268 314.466C190.039 314.466 189.842 314.388 189.676 314.232C189.514 314.076 189.433 313.889 189.433 313.67C189.433 313.452 189.514 313.264 189.676 313.109C189.842 312.953 190.039 312.875 190.268 312.875C190.497 312.875 190.692 312.953 190.855 313.109C191.02 313.264 191.103 313.452 191.103 313.67C191.103 313.889 191.02 314.076 190.855 314.232C190.692 314.388 190.497 314.466 190.268 314.466ZM196.096 323.534C195.407 323.534 194.802 323.37 194.281 323.042C193.764 322.714 193.36 322.255 193.068 321.665C192.78 321.075 192.636 320.385 192.636 319.597C192.636 318.801 192.78 318.107 193.068 317.513C193.36 316.92 193.764 316.46 194.281 316.131C194.802 315.803 195.407 315.639 196.096 315.639C196.785 315.639 197.389 315.803 197.906 316.131C198.426 316.46 198.83 316.92 199.119 317.513C199.41 318.107 199.556 318.801 199.556 319.597C199.556 320.385 199.41 321.075 199.119 321.665C198.83 322.255 198.426 322.714 197.906 323.042C197.389 323.37 196.785 323.534 196.096 323.534ZM196.096 322.48C196.62 322.48 197.051 322.346 197.389 322.077C197.727 321.809 197.977 321.456 198.139 321.018C198.302 320.581 198.383 320.107 198.383 319.597C198.383 319.086 198.302 318.611 198.139 318.17C197.977 317.729 197.727 317.373 197.389 317.101C197.051 316.829 196.62 316.693 196.096 316.693C195.572 316.693 195.142 316.829 194.803 317.101C194.465 317.373 194.215 317.729 194.053 318.17C193.89 318.611 193.809 319.086 193.809 319.597C193.809 320.107 193.89 320.581 194.053 321.018C194.215 321.456 194.465 321.809 194.803 322.077C195.142 322.346 195.572 322.48 196.096 322.48ZM201.347 323.375V315.739H202.481V316.892H202.56C202.7 316.514 202.951 316.208 203.316 315.972C203.681 315.737 204.092 315.619 204.549 315.619C204.635 315.619 204.743 315.621 204.872 315.624C205.001 315.628 205.099 315.633 205.165 315.639V316.832C205.126 316.822 205.035 316.808 204.892 316.788C204.753 316.764 204.605 316.753 204.45 316.753C204.078 316.753 203.747 316.831 203.455 316.987C203.167 317.139 202.938 317.351 202.769 317.623C202.603 317.891 202.521 318.198 202.521 318.543V323.375H201.347ZM206.556 323.375V315.739H207.73V323.375H206.556ZM207.153 314.466C206.924 314.466 206.727 314.388 206.561 314.232C206.399 314.076 206.318 313.889 206.318 313.67C206.318 313.452 206.399 313.264 206.561 313.109C206.727 312.953 206.924 312.875 207.153 312.875C207.382 312.875 207.577 312.953 207.74 313.109C207.905 313.264 207.988 313.452 207.988 313.67C207.988 313.889 207.905 314.076 207.74 314.232C207.577 314.388 207.382 314.466 207.153 314.466ZM213.2 315.739V316.733H209.242V315.739H213.2ZM210.396 313.909H211.569V321.188C211.569 321.519 211.617 321.768 211.713 321.933C211.813 322.096 211.938 322.205 212.091 322.261C212.247 322.314 212.411 322.341 212.583 322.341C212.712 322.341 212.818 322.334 212.901 322.321C212.984 322.304 213.05 322.291 213.1 322.281L213.339 323.335C213.259 323.365 213.148 323.395 213.006 323.425C212.863 323.458 212.683 323.474 212.464 323.474C212.132 323.474 211.808 323.403 211.489 323.261C211.174 323.118 210.913 322.901 210.704 322.609C210.498 322.318 210.396 321.95 210.396 321.506V313.909ZM214.964 323.375V315.739H216.138V323.375H214.964ZM215.561 314.466C215.332 314.466 215.135 314.388 214.969 314.232C214.807 314.076 214.726 313.889 214.726 313.67C214.726 313.452 214.807 313.264 214.969 313.109C215.135 312.953 215.332 312.875 215.561 312.875C215.79 312.875 215.985 312.953 216.148 313.109C216.313 313.264 216.396 313.452 216.396 313.67C216.396 313.889 216.313 314.076 216.148 314.232C215.985 314.388 215.79 314.466 215.561 314.466ZM218.068 323.375V322.48L222.403 316.912V316.832H218.207V315.739H223.915V316.673L219.699 322.202V322.281H224.054V323.375H218.068ZM225.861 323.375V315.739H227.034V323.375H225.861ZM226.458 314.466C226.229 314.466 226.032 314.388 225.866 314.232C225.704 314.076 225.622 313.889 225.622 313.67C225.622 313.452 225.704 313.264 225.866 313.109C226.032 312.953 226.229 312.875 226.458 312.875C226.686 312.875 226.882 312.953 227.044 313.109C227.21 313.264 227.293 313.452 227.293 313.67C227.293 313.889 227.21 314.076 227.044 314.232C226.882 314.388 226.686 314.466 226.458 314.466ZM230.357 318.781V323.375H229.183V315.739H230.317V316.932H230.416C230.595 316.544 230.867 316.232 231.232 315.997C231.596 315.759 232.067 315.639 232.643 315.639C233.161 315.639 233.613 315.745 234.001 315.957C234.388 316.166 234.69 316.484 234.906 316.912C235.121 317.336 235.229 317.873 235.229 318.523V323.375H234.055V318.602C234.055 318.002 233.9 317.535 233.588 317.2C233.277 316.862 232.849 316.693 232.305 316.693C231.931 316.693 231.596 316.774 231.301 316.937C231.009 317.099 230.779 317.336 230.61 317.648C230.441 317.959 230.357 318.337 230.357 318.781ZM240.455 326.398C239.888 326.398 239.401 326.325 238.993 326.179C238.586 326.036 238.246 325.848 237.974 325.612C237.706 325.38 237.492 325.132 237.333 324.866L238.268 324.21C238.374 324.349 238.508 324.509 238.67 324.688C238.833 324.87 239.055 325.027 239.336 325.16C239.622 325.296 239.994 325.364 240.455 325.364C241.072 325.364 241.58 325.214 241.981 324.916C242.382 324.618 242.583 324.151 242.583 323.514V321.963H242.483C242.397 322.102 242.275 322.275 242.116 322.48C241.96 322.682 241.734 322.863 241.439 323.022C241.148 323.178 240.753 323.256 240.256 323.256C239.64 323.256 239.086 323.11 238.596 322.818C238.108 322.527 237.722 322.102 237.437 321.545C237.156 320.989 237.015 320.312 237.015 319.517C237.015 318.735 237.152 318.054 237.427 317.474C237.702 316.89 238.085 316.44 238.576 316.121C239.066 315.8 239.633 315.639 240.276 315.639C240.773 315.639 241.168 315.722 241.459 315.888C241.754 316.05 241.98 316.236 242.135 316.445C242.295 316.65 242.417 316.819 242.503 316.952H242.623V315.739H243.756V323.594C243.756 324.25 243.607 324.784 243.309 325.195C243.014 325.609 242.616 325.912 242.116 326.104C241.618 326.3 241.065 326.398 240.455 326.398ZM240.415 322.202C240.886 322.202 241.284 322.094 241.608 321.879C241.933 321.663 242.18 321.353 242.349 320.949C242.518 320.545 242.603 320.061 242.603 319.497C242.603 318.947 242.52 318.461 242.354 318.04C242.189 317.62 241.943 317.29 241.618 317.051C241.294 316.812 240.893 316.693 240.415 316.693C239.918 316.693 239.504 316.819 239.172 317.071C238.844 317.323 238.597 317.661 238.432 318.085C238.269 318.509 238.188 318.98 238.188 319.497C238.188 320.027 238.271 320.496 238.437 320.904C238.606 321.308 238.854 321.627 239.182 321.859C239.514 322.087 239.925 322.202 240.415 322.202ZM252.089 323.554C251.605 323.554 251.166 323.463 250.771 323.281C250.377 323.095 250.064 322.828 249.831 322.48C249.599 322.129 249.483 321.705 249.483 321.207C249.483 320.77 249.57 320.415 249.742 320.143C249.914 319.868 250.145 319.653 250.433 319.497C250.721 319.341 251.04 319.225 251.388 319.149C251.739 319.07 252.092 319.007 252.447 318.96C252.911 318.901 253.287 318.856 253.575 318.826C253.867 318.793 254.079 318.738 254.211 318.662C254.347 318.586 254.415 318.453 254.415 318.264V318.224C254.415 317.734 254.281 317.353 254.013 317.081C253.747 316.809 253.345 316.673 252.805 316.673C252.244 316.673 251.805 316.796 251.487 317.041C251.169 317.286 250.945 317.548 250.816 317.827L249.702 317.429C249.901 316.965 250.166 316.604 250.498 316.345C250.832 316.083 251.197 315.901 251.591 315.798C251.989 315.692 252.38 315.639 252.765 315.639C253.01 315.639 253.292 315.669 253.61 315.729C253.931 315.785 254.241 315.903 254.54 316.082C254.841 316.261 255.091 316.531 255.29 316.892C255.489 317.253 255.589 317.737 255.589 318.344V323.375H254.415V322.341H254.356C254.276 322.507 254.144 322.684 253.958 322.873C253.772 323.062 253.525 323.223 253.217 323.355C252.909 323.488 252.533 323.554 252.089 323.554ZM252.268 322.5C252.732 322.5 253.123 322.409 253.441 322.227C253.762 322.044 254.004 321.809 254.167 321.521C254.332 321.232 254.415 320.929 254.415 320.611V319.537C254.366 319.597 254.256 319.651 254.087 319.701C253.921 319.747 253.729 319.789 253.51 319.825C253.295 319.858 253.085 319.888 252.879 319.915C252.677 319.938 252.513 319.958 252.387 319.974C252.082 320.014 251.797 320.079 251.532 320.168C251.27 320.254 251.058 320.385 250.895 320.561C250.736 320.733 250.657 320.969 250.657 321.267C250.657 321.675 250.808 321.983 251.109 322.192C251.414 322.397 251.8 322.5 252.268 322.5ZM258.903 318.781V323.375H257.73V315.739H258.864V316.932H258.963C259.142 316.544 259.414 316.232 259.778 315.997C260.143 315.759 260.614 315.639 261.19 315.639C261.707 315.639 262.16 315.745 262.548 315.957C262.935 316.166 263.237 316.484 263.452 316.912C263.668 317.336 263.776 317.873 263.776 318.523V323.375H262.602V318.602C262.602 318.002 262.446 317.535 262.135 317.2C261.823 316.862 261.396 316.693 260.852 316.693C260.478 316.693 260.143 316.774 259.848 316.937C259.556 317.099 259.326 317.336 259.157 317.648C258.988 317.959 258.903 318.337 258.903 318.781ZM268.803 323.534C268.167 323.534 267.605 323.373 267.118 323.052C266.631 322.727 266.249 322.27 265.974 321.68C265.699 321.086 265.562 320.385 265.562 319.577C265.562 318.775 265.699 318.079 265.974 317.489C266.249 316.899 266.632 316.443 267.123 316.121C267.613 315.8 268.18 315.639 268.823 315.639C269.32 315.639 269.713 315.722 270.001 315.888C270.293 316.05 270.515 316.236 270.667 316.445C270.823 316.65 270.944 316.819 271.03 316.952H271.13V313.193H272.303V323.375H271.17V322.202H271.03C270.944 322.341 270.822 322.517 270.662 322.729C270.503 322.937 270.276 323.125 269.981 323.29C269.686 323.453 269.294 323.534 268.803 323.534ZM268.962 322.48C269.433 322.48 269.831 322.357 270.155 322.112C270.48 321.864 270.727 321.521 270.896 321.083C271.065 320.642 271.15 320.134 271.15 319.557C271.15 318.987 271.067 318.488 270.901 318.06C270.735 317.629 270.49 317.295 270.165 317.056C269.84 316.814 269.439 316.693 268.962 316.693C268.465 316.693 268.051 316.821 267.719 317.076C267.391 317.328 267.144 317.671 266.979 318.105C266.816 318.536 266.735 319.02 266.735 319.557C266.735 320.1 266.818 320.594 266.983 321.038C267.153 321.479 267.401 321.83 267.729 322.092C268.061 322.351 268.472 322.48 268.962 322.48ZM281.953 315.739V316.733H277.836V315.739H281.953ZM279.069 323.375V314.685C279.069 314.247 279.172 313.883 279.378 313.591C279.583 313.299 279.85 313.08 280.178 312.935C280.506 312.789 280.853 312.716 281.217 312.716C281.506 312.716 281.741 312.739 281.923 312.786C282.105 312.832 282.241 312.875 282.331 312.915L281.993 313.929C281.933 313.909 281.85 313.884 281.744 313.854C281.641 313.825 281.506 313.81 281.336 313.81C280.949 313.81 280.669 313.907 280.496 314.103C280.327 314.299 280.243 314.585 280.243 314.963V323.375H279.069ZM286.385 323.534C285.696 323.534 285.091 323.37 284.57 323.042C284.053 322.714 283.649 322.255 283.357 321.665C283.069 321.075 282.925 320.385 282.925 319.597C282.925 318.801 283.069 318.107 283.357 317.513C283.649 316.92 284.053 316.46 284.57 316.131C285.091 315.803 285.696 315.639 286.385 315.639C287.075 315.639 287.678 315.803 288.195 316.131C288.715 316.46 289.119 316.92 289.408 317.513C289.7 318.107 289.845 318.801 289.845 319.597C289.845 320.385 289.7 321.075 289.408 321.665C289.119 322.255 288.715 322.714 288.195 323.042C287.678 323.37 287.075 323.534 286.385 323.534ZM286.385 322.48C286.909 322.48 287.34 322.346 287.678 322.077C288.016 321.809 288.266 321.456 288.428 321.018C288.591 320.581 288.672 320.107 288.672 319.597C288.672 319.086 288.591 318.611 288.428 318.17C288.266 317.729 288.016 317.373 287.678 317.101C287.34 316.829 286.909 316.693 286.385 316.693C285.861 316.693 285.431 316.829 285.093 317.101C284.754 317.373 284.504 317.729 284.342 318.17C284.179 318.611 284.098 319.086 284.098 319.597C284.098 320.107 284.179 320.581 284.342 321.018C284.504 321.456 284.754 321.809 285.093 322.077C285.431 322.346 285.861 322.48 286.385 322.48ZM292.81 313.193V323.375H291.636V313.193H292.81ZM296.132 313.193V323.375H294.959V313.193H296.132ZM301.383 323.534C300.694 323.534 300.089 323.37 299.569 323.042C299.051 322.714 298.647 322.255 298.355 321.665C298.067 321.075 297.923 320.385 297.923 319.597C297.923 318.801 298.067 318.107 298.355 317.513C298.647 316.92 299.051 316.46 299.569 316.131C300.089 315.803 300.694 315.639 301.383 315.639C302.073 315.639 302.676 315.803 303.193 316.131C303.713 316.46 304.118 316.92 304.406 317.513C304.698 318.107 304.843 318.801 304.843 319.597C304.843 320.385 304.698 321.075 304.406 321.665C304.118 322.255 303.713 322.714 303.193 323.042C302.676 323.37 302.073 323.534 301.383 323.534ZM301.383 322.48C301.907 322.48 302.338 322.346 302.676 322.077C303.014 321.809 303.264 321.456 303.426 321.018C303.589 320.581 303.67 320.107 303.67 319.597C303.67 319.086 303.589 318.611 303.426 318.17C303.264 317.729 303.014 317.373 302.676 317.101C302.338 316.829 301.907 316.693 301.383 316.693C300.859 316.693 300.429 316.829 300.091 317.101C299.752 317.373 299.502 317.729 299.34 318.17C299.177 318.611 299.096 319.086 299.096 319.597C299.096 320.107 299.177 320.581 299.34 321.018C299.502 321.456 299.752 321.809 300.091 322.077C300.429 322.346 300.859 322.48 301.383 322.48ZM308.105 323.375L305.778 315.739H307.011L308.662 321.585H308.741L310.372 315.739H311.625L313.235 321.565H313.315L314.966 315.739H316.199L313.872 323.375H312.718L311.048 317.509H310.929L309.258 323.375H308.105ZM317.75 323.375V315.739H318.923V323.375H317.75ZM318.346 314.466C318.118 314.466 317.92 314.388 317.755 314.232C317.592 314.076 317.511 313.889 317.511 313.67C317.511 313.452 317.592 313.264 317.755 313.109C317.92 312.953 318.118 312.875 318.346 312.875C318.575 312.875 318.77 312.953 318.933 313.109C319.099 313.264 319.181 313.452 319.181 313.67C319.181 313.889 319.099 314.076 318.933 314.232C318.77 314.388 318.575 314.466 318.346 314.466ZM322.245 318.781V323.375H321.072V315.739H322.205V316.932H322.305C322.484 316.544 322.756 316.232 323.12 315.997C323.485 315.759 323.955 315.639 324.532 315.639C325.049 315.639 325.502 315.745 325.889 315.957C326.277 316.166 326.579 316.484 326.794 316.912C327.01 317.336 327.117 317.873 327.117 318.523V323.375H325.944V318.602C325.944 318.002 325.788 317.535 325.477 317.2C325.165 316.862 324.738 316.693 324.194 316.693C323.82 316.693 323.485 316.774 323.19 316.937C322.898 317.099 322.668 317.336 322.499 317.648C322.33 317.959 322.245 318.337 322.245 318.781ZM332.344 326.398C331.777 326.398 331.29 326.325 330.882 326.179C330.474 326.036 330.135 325.848 329.863 325.612C329.594 325.38 329.381 325.132 329.222 324.866L330.156 324.21C330.262 324.349 330.397 324.509 330.559 324.688C330.721 324.87 330.943 325.027 331.225 325.16C331.51 325.296 331.883 325.364 332.344 325.364C332.96 325.364 333.469 325.214 333.87 324.916C334.271 324.618 334.472 324.151 334.472 323.514V321.963H334.372C334.286 322.102 334.163 322.275 334.004 322.48C333.848 322.682 333.623 322.863 333.328 323.022C333.036 323.178 332.642 323.256 332.145 323.256C331.528 323.256 330.975 323.11 330.484 322.818C329.997 322.527 329.611 322.102 329.326 321.545C329.044 320.989 328.903 320.312 328.903 319.517C328.903 318.735 329.041 318.054 329.316 317.474C329.591 316.89 329.974 316.44 330.464 316.121C330.955 315.8 331.522 315.639 332.165 315.639C332.662 315.639 333.056 315.722 333.348 315.888C333.643 316.05 333.868 316.236 334.024 316.445C334.183 316.65 334.306 316.819 334.392 316.952H334.511V315.739H335.645V323.594C335.645 324.25 335.496 324.784 335.197 325.195C334.902 325.609 334.505 325.912 334.004 326.104C333.507 326.3 332.954 326.398 332.344 326.398ZM332.304 322.202C332.775 322.202 333.172 322.094 333.497 321.879C333.822 321.663 334.069 321.353 334.238 320.949C334.407 320.545 334.491 320.061 334.491 319.497C334.491 318.947 334.409 318.461 334.243 318.04C334.077 317.62 333.832 317.29 333.507 317.051C333.182 316.812 332.781 316.693 332.304 316.693C331.807 316.693 331.393 316.819 331.061 317.071C330.733 317.323 330.486 317.661 330.32 318.085C330.158 318.509 330.077 318.98 330.077 319.497C330.077 320.027 330.16 320.496 330.325 320.904C330.494 321.308 330.743 321.627 331.071 321.859C331.402 322.087 331.813 322.202 332.304 322.202ZM72.8864 343.253V338.739H74.0597V346.375H72.8864V345.082H72.8068C72.6278 345.47 72.3494 345.8 71.9716 346.072C71.5938 346.34 71.1165 346.474 70.5398 346.474C70.0625 346.474 69.6383 346.37 69.267 346.161C68.8958 345.949 68.6042 345.631 68.392 345.207C68.1799 344.779 68.0739 344.241 68.0739 343.591V338.739H69.2472V343.511C69.2472 344.068 69.4029 344.512 69.7145 344.844C70.0294 345.175 70.4304 345.341 70.9176 345.341C71.2093 345.341 71.5059 345.266 71.8075 345.117C72.1125 344.968 72.3677 344.739 72.5732 344.431C72.782 344.123 72.8864 343.73 72.8864 343.253ZM76.2086 349.239V338.739H77.3422V339.952H77.4814C77.5675 339.819 77.6868 339.65 77.8393 339.445C77.9951 339.236 78.2172 339.05 78.5055 338.888C78.7972 338.722 79.1916 338.639 79.6887 338.639C80.3317 338.639 80.8985 338.8 81.389 339.121C81.8796 339.443 82.2624 339.899 82.5375 340.489C82.8126 341.079 82.9501 341.775 82.9501 342.577C82.9501 343.385 82.8126 344.086 82.5375 344.68C82.2624 345.27 81.8812 345.727 81.394 346.052C80.9068 346.373 80.345 346.534 79.7086 346.534C79.2181 346.534 78.8253 346.453 78.5304 346.29C78.2354 346.125 78.0083 345.937 77.8493 345.729C77.6902 345.517 77.5675 345.341 77.4814 345.202H77.3819V349.239H76.2086ZM77.362 342.557C77.362 343.134 77.4466 343.642 77.6156 344.083C77.7846 344.521 78.0315 344.864 78.3564 345.112C78.6812 345.357 79.0789 345.48 79.5495 345.48C80.0401 345.48 80.4494 345.351 80.7775 345.092C81.109 344.83 81.3575 344.479 81.5233 344.038C81.6923 343.594 81.7768 343.1 81.7768 342.557C81.7768 342.02 81.694 341.536 81.5282 341.105C81.3658 340.671 81.1189 340.328 80.7875 340.076C80.4593 339.821 80.0467 339.693 79.5495 339.693C79.0723 339.693 78.6712 339.814 78.3464 340.056C78.0216 340.295 77.7763 340.629 77.6106 341.06C77.4449 341.488 77.362 341.987 77.362 342.557ZM91.9984 338.739V339.733H88.041V338.739H91.9984ZM89.1944 336.909H90.3677V344.188C90.3677 344.519 90.4158 344.768 90.5119 344.933C90.6113 345.096 90.7373 345.205 90.8897 345.261C91.0455 345.314 91.2096 345.341 91.3819 345.341C91.5112 345.341 91.6172 345.334 91.7001 345.321C91.783 345.304 91.8493 345.291 91.899 345.281L92.1376 346.335C92.0581 346.365 91.947 346.395 91.8045 346.425C91.662 346.458 91.4814 346.474 91.2626 346.474C90.9312 346.474 90.6064 346.403 90.2882 346.261C89.9733 346.118 89.7115 345.901 89.5027 345.609C89.2972 345.318 89.1944 344.95 89.1944 344.506V336.909ZM96.7836 346.534C96.0942 346.534 95.4893 346.37 94.9689 346.042C94.4519 345.714 94.0475 345.255 93.7559 344.665C93.4675 344.075 93.3233 343.385 93.3233 342.597C93.3233 341.801 93.4675 341.107 93.7559 340.513C94.0475 339.92 94.4519 339.46 94.9689 339.131C95.4893 338.803 96.0942 338.639 96.7836 338.639C97.473 338.639 98.0762 338.803 98.5932 339.131C99.1136 339.46 99.5179 339.92 99.8063 340.513C100.098 341.107 100.244 341.801 100.244 342.597C100.244 343.385 100.098 344.075 99.8063 344.665C99.5179 345.255 99.1136 345.714 98.5932 346.042C98.0762 346.37 97.473 346.534 96.7836 346.534ZM96.7836 345.48C97.3072 345.48 97.7381 345.346 98.0762 345.077C98.4142 344.809 98.6645 344.456 98.8269 344.018C98.9893 343.581 99.0705 343.107 99.0705 342.597C99.0705 342.086 98.9893 341.611 98.8269 341.17C98.6645 340.729 98.4142 340.373 98.0762 340.101C97.7381 339.829 97.3072 339.693 96.7836 339.693C96.2599 339.693 95.829 339.829 95.4909 340.101C95.1529 340.373 94.9026 340.729 94.7402 341.17C94.5778 341.611 94.4966 342.086 94.4966 342.597C94.4966 343.107 94.5778 343.581 94.7402 344.018C94.9026 344.456 95.1529 344.809 95.4909 345.077C95.829 345.346 96.2599 345.48 96.7836 345.48ZM107.066 343.591L107.046 342.139H107.285L110.626 338.739H112.077L108.518 342.338H108.418L107.066 343.591ZM105.972 346.375V336.193H107.146V346.375H105.972ZM110.825 346.375L107.842 342.597L108.677 341.781L112.316 346.375H110.825ZM116.475 346.534C115.739 346.534 115.104 346.372 114.571 346.047C114.04 345.719 113.631 345.261 113.343 344.675C113.058 344.085 112.915 343.399 112.915 342.616C112.915 341.834 113.058 341.145 113.343 340.548C113.631 339.948 114.032 339.481 114.546 339.146C115.063 338.808 115.666 338.639 116.355 338.639C116.753 338.639 117.146 338.705 117.534 338.838C117.922 338.971 118.275 339.186 118.593 339.484C118.911 339.779 119.164 340.17 119.353 340.658C119.542 341.145 119.637 341.745 119.637 342.457V342.955H113.75V341.94H118.444C118.444 341.509 118.357 341.125 118.185 340.787C118.016 340.449 117.774 340.182 117.459 339.987C117.148 339.791 116.78 339.693 116.355 339.693C115.888 339.693 115.484 339.809 115.142 340.041C114.804 340.27 114.544 340.568 114.362 340.936C114.18 341.304 114.088 341.698 114.088 342.119V342.795C114.088 343.372 114.188 343.861 114.387 344.262C114.589 344.66 114.869 344.963 115.227 345.172C115.585 345.377 116.001 345.48 116.475 345.48C116.783 345.48 117.061 345.437 117.31 345.351C117.562 345.261 117.779 345.129 117.961 344.953C118.144 344.774 118.284 344.552 118.384 344.287L119.517 344.605C119.398 344.99 119.198 345.328 118.916 345.619C118.634 345.908 118.286 346.133 117.872 346.295C117.458 346.455 116.992 346.534 116.475 346.534ZM124.623 346.534C123.887 346.534 123.253 346.372 122.719 346.047C122.189 345.719 121.779 345.261 121.491 344.675C121.206 344.085 121.064 343.399 121.064 342.616C121.064 341.834 121.206 341.145 121.491 340.548C121.779 339.948 122.181 339.481 122.694 339.146C123.211 338.808 123.815 338.639 124.504 338.639C124.902 338.639 125.294 338.705 125.682 338.838C126.07 338.971 126.423 339.186 126.741 339.484C127.059 339.779 127.313 340.17 127.502 340.658C127.691 341.145 127.785 341.745 127.785 342.457V342.955H121.899V341.94H126.592C126.592 341.509 126.506 341.125 126.333 340.787C126.164 340.449 125.922 340.182 125.608 339.987C125.296 339.791 124.928 339.693 124.504 339.693C124.037 339.693 123.632 339.809 123.291 340.041C122.953 340.27 122.693 340.568 122.51 340.936C122.328 341.304 122.237 341.698 122.237 342.119V342.795C122.237 343.372 122.336 343.861 122.535 344.262C122.737 344.66 123.017 344.963 123.375 345.172C123.733 345.377 124.149 345.48 124.623 345.48C124.931 345.48 125.21 345.437 125.458 345.351C125.71 345.261 125.927 345.129 126.11 344.953C126.292 344.774 126.433 344.552 126.532 344.287L127.666 344.605C127.547 344.99 127.346 345.328 127.064 345.619C126.783 345.908 126.435 346.133 126.02 346.295C125.606 346.455 125.14 346.534 124.623 346.534ZM129.57 349.239V338.739H130.703V339.952H130.843C130.929 339.819 131.048 339.65 131.201 339.445C131.356 339.236 131.578 339.05 131.867 338.888C132.158 338.722 132.553 338.639 133.05 338.639C133.693 338.639 134.26 338.8 134.75 339.121C135.241 339.443 135.624 339.899 135.899 340.489C136.174 341.079 136.311 341.775 136.311 342.577C136.311 343.385 136.174 344.086 135.899 344.68C135.624 345.27 135.243 345.727 134.755 346.052C134.268 346.373 133.706 346.534 133.07 346.534C132.579 346.534 132.187 346.453 131.892 346.29C131.597 346.125 131.37 345.937 131.211 345.729C131.051 345.517 130.929 345.341 130.843 345.202H130.743V349.239H129.57ZM130.723 342.557C130.723 343.134 130.808 343.642 130.977 344.083C131.146 344.521 131.393 344.864 131.718 345.112C132.042 345.357 132.44 345.48 132.911 345.48C133.401 345.48 133.811 345.351 134.139 345.092C134.47 344.83 134.719 344.479 134.885 344.038C135.054 343.594 135.138 343.1 135.138 342.557C135.138 342.02 135.055 341.536 134.89 341.105C134.727 340.671 134.48 340.328 134.149 340.076C133.821 339.821 133.408 339.693 132.911 339.693C132.434 339.693 132.033 339.814 131.708 340.056C131.383 340.295 131.138 340.629 130.972 341.06C130.806 341.488 130.723 341.987 130.723 342.557ZM142.039 346.375V338.739H143.212V346.375H142.039ZM142.635 337.466C142.407 337.466 142.209 337.388 142.044 337.232C141.881 337.076 141.8 336.889 141.8 336.67C141.8 336.452 141.881 336.264 142.044 336.109C142.209 335.953 142.407 335.875 142.635 335.875C142.864 335.875 143.06 335.953 143.222 336.109C143.388 336.264 143.471 336.452 143.471 336.67C143.471 336.889 143.388 337.076 143.222 337.232C143.06 337.388 142.864 337.466 142.635 337.466ZM146.534 341.781V346.375H145.361V338.739H146.494V339.932H146.594C146.773 339.544 147.045 339.232 147.409 338.997C147.774 338.759 148.244 338.639 148.821 338.639C149.338 338.639 149.791 338.745 150.178 338.957C150.566 339.166 150.868 339.484 151.083 339.912C151.299 340.336 151.406 340.873 151.406 341.523V346.375H150.233V341.602C150.233 341.002 150.077 340.535 149.766 340.2C149.454 339.862 149.027 339.693 148.483 339.693C148.109 339.693 147.774 339.774 147.479 339.937C147.187 340.099 146.957 340.336 146.788 340.648C146.619 340.959 146.534 341.337 146.534 341.781ZM156.653 346.534C155.937 346.534 155.32 346.365 154.803 346.027C154.286 345.689 153.888 345.223 153.61 344.63C153.332 344.037 153.192 343.359 153.192 342.597C153.192 341.821 153.335 341.137 153.62 340.543C153.908 339.947 154.309 339.481 154.823 339.146C155.34 338.808 155.943 338.639 156.633 338.639C157.17 338.639 157.654 338.739 158.085 338.938C158.515 339.136 158.868 339.415 159.143 339.773C159.419 340.131 159.589 340.548 159.656 341.026H158.482C158.393 340.678 158.194 340.369 157.886 340.101C157.581 339.829 157.17 339.693 156.653 339.693C156.195 339.693 155.794 339.812 155.45 340.051C155.108 340.286 154.841 340.62 154.649 341.05C154.46 341.478 154.366 341.98 154.366 342.557C154.366 343.147 154.459 343.661 154.644 344.098C154.833 344.536 155.098 344.875 155.44 345.117C155.784 345.359 156.189 345.48 156.653 345.48C156.958 345.48 157.234 345.427 157.483 345.321C157.732 345.215 157.942 345.062 158.114 344.864C158.287 344.665 158.409 344.426 158.482 344.148H159.656C159.589 344.598 159.425 345.004 159.163 345.366C158.905 345.724 158.562 346.009 158.134 346.221C157.71 346.43 157.216 346.534 156.653 346.534ZM161.371 346.375V338.739H162.544V346.375H161.371ZM161.967 337.466C161.739 337.466 161.541 337.388 161.376 337.232C161.213 337.076 161.132 336.889 161.132 336.67C161.132 336.452 161.213 336.264 161.376 336.109C161.541 335.953 161.739 335.875 161.967 335.875C162.196 335.875 162.392 335.953 162.554 336.109C162.72 336.264 162.803 336.452 162.803 336.67C162.803 336.889 162.72 337.076 162.554 337.232C162.392 337.388 162.196 337.466 161.967 337.466ZM167.577 346.534C166.94 346.534 166.378 346.373 165.891 346.052C165.404 345.727 165.023 345.27 164.748 344.68C164.473 344.086 164.335 343.385 164.335 342.577C164.335 341.775 164.473 341.079 164.748 340.489C165.023 339.899 165.406 339.443 165.896 339.121C166.387 338.8 166.953 338.639 167.596 338.639C168.094 338.639 168.486 338.722 168.775 338.888C169.066 339.05 169.288 339.236 169.441 339.445C169.597 339.65 169.718 339.819 169.804 339.952H169.903V336.193H171.077V346.375H169.943V345.202H169.804C169.718 345.341 169.595 345.517 169.436 345.729C169.277 345.937 169.05 346.125 168.755 346.29C168.46 346.453 168.067 346.534 167.577 346.534ZM167.736 345.48C168.206 345.48 168.604 345.357 168.929 345.112C169.254 344.864 169.501 344.521 169.67 344.083C169.839 343.642 169.923 343.134 169.923 342.557C169.923 341.987 169.84 341.488 169.675 341.06C169.509 340.629 169.264 340.295 168.939 340.056C168.614 339.814 168.213 339.693 167.736 339.693C167.238 339.693 166.824 339.821 166.493 340.076C166.165 340.328 165.918 340.671 165.752 341.105C165.59 341.536 165.508 342.02 165.508 342.557C165.508 343.1 165.591 343.594 165.757 344.038C165.926 344.479 166.175 344.83 166.503 345.092C166.834 345.351 167.245 345.48 167.736 345.48ZM176.59 346.534C175.854 346.534 175.22 346.372 174.686 346.047C174.156 345.719 173.746 345.261 173.458 344.675C173.173 344.085 173.03 343.399 173.03 342.616C173.03 341.834 173.173 341.145 173.458 340.548C173.746 339.948 174.147 339.481 174.661 339.146C175.178 338.808 175.781 338.639 176.471 338.639C176.868 338.639 177.261 338.705 177.649 338.838C178.037 338.971 178.39 339.186 178.708 339.484C179.026 339.779 179.28 340.17 179.469 340.658C179.657 341.145 179.752 341.745 179.752 342.457V342.955H173.866V341.94H178.559C178.559 341.509 178.473 341.125 178.3 340.787C178.131 340.449 177.889 340.182 177.574 339.987C177.263 339.791 176.895 339.693 176.471 339.693C176.003 339.693 175.599 339.809 175.258 340.041C174.92 340.27 174.659 340.568 174.477 340.936C174.295 341.304 174.204 341.698 174.204 342.119V342.795C174.204 343.372 174.303 343.861 174.502 344.262C174.704 344.66 174.984 344.963 175.342 345.172C175.7 345.377 176.116 345.48 176.59 345.48C176.898 345.48 177.177 345.437 177.425 345.351C177.677 345.261 177.894 345.129 178.077 344.953C178.259 344.774 178.4 344.552 178.499 344.287L179.633 344.605C179.513 344.99 179.313 345.328 179.031 345.619C178.749 345.908 178.401 346.133 177.987 346.295C177.573 346.455 177.107 346.534 176.59 346.534ZM182.71 341.781V346.375H181.537V338.739H182.67V339.932H182.77C182.949 339.544 183.22 339.232 183.585 338.997C183.95 338.759 184.42 338.639 184.997 338.639C185.514 338.639 185.966 338.745 186.354 338.957C186.742 339.166 187.044 339.484 187.259 339.912C187.474 340.336 187.582 340.873 187.582 341.523V346.375H186.409V341.602C186.409 341.002 186.253 340.535 185.942 340.2C185.63 339.862 185.202 339.693 184.659 339.693C184.284 339.693 183.95 339.774 183.655 339.937C183.363 340.099 183.133 340.336 182.964 340.648C182.795 340.959 182.71 341.337 182.71 341.781ZM193.047 338.739V339.733H189.09V338.739H193.047ZM190.243 336.909H191.417V344.188C191.417 344.519 191.465 344.768 191.561 344.933C191.66 345.096 191.786 345.205 191.939 345.261C192.094 345.314 192.258 345.341 192.431 345.341C192.56 345.341 192.666 345.334 192.749 345.321C192.832 345.304 192.898 345.291 192.948 345.281L193.186 346.335C193.107 346.365 192.996 346.395 192.853 346.425C192.711 346.458 192.53 346.474 192.311 346.474C191.98 346.474 191.655 346.403 191.337 346.261C191.022 346.118 190.76 345.901 190.551 345.609C190.346 345.318 190.243 344.95 190.243 344.506V336.909ZM200.085 340.449L199.031 340.747C198.964 340.571 198.866 340.401 198.737 340.235C198.611 340.066 198.439 339.927 198.22 339.817C198.001 339.708 197.721 339.653 197.38 339.653C196.913 339.653 196.523 339.761 196.212 339.977C195.903 340.189 195.749 340.459 195.749 340.787C195.749 341.079 195.855 341.309 196.067 341.478C196.28 341.647 196.611 341.788 197.062 341.901L198.195 342.179C198.878 342.345 199.387 342.598 199.722 342.94C200.056 343.278 200.224 343.714 200.224 344.247C200.224 344.685 200.098 345.076 199.846 345.42C199.597 345.765 199.249 346.037 198.802 346.236C198.354 346.435 197.834 346.534 197.241 346.534C196.462 346.534 195.817 346.365 195.307 346.027C194.796 345.689 194.473 345.195 194.337 344.545L195.451 344.267C195.557 344.678 195.758 344.986 196.053 345.192C196.351 345.397 196.74 345.5 197.221 345.5C197.768 345.5 198.202 345.384 198.523 345.152C198.848 344.917 199.011 344.635 199.011 344.307C199.011 344.042 198.918 343.82 198.732 343.641C198.547 343.458 198.262 343.322 197.877 343.233L196.604 342.935C195.905 342.769 195.391 342.512 195.063 342.164C194.738 341.813 194.576 341.374 194.576 340.847C194.576 340.416 194.697 340.035 194.939 339.703C195.184 339.372 195.517 339.112 195.938 338.923C196.362 338.734 196.843 338.639 197.38 338.639C198.136 338.639 198.729 338.805 199.16 339.136C199.594 339.468 199.902 339.905 200.085 340.449ZM205.927 346.375V338.739H207.061V339.932H207.16C207.319 339.524 207.576 339.208 207.931 338.982C208.286 338.754 208.711 338.639 209.209 338.639C209.712 338.639 210.132 338.754 210.466 338.982C210.805 339.208 211.068 339.524 211.257 339.932H211.336C211.532 339.537 211.825 339.224 212.216 338.992C212.608 338.757 213.077 338.639 213.623 338.639C214.306 338.639 214.865 338.853 215.299 339.281C215.733 339.705 215.95 340.366 215.95 341.264V346.375H214.777V341.264C214.777 340.701 214.623 340.298 214.314 340.056C214.006 339.814 213.643 339.693 213.226 339.693C212.689 339.693 212.273 339.856 211.978 340.18C211.683 340.502 211.535 340.91 211.535 341.403V346.375H210.342V341.145C210.342 340.711 210.201 340.361 209.92 340.096C209.638 339.827 209.275 339.693 208.831 339.693C208.526 339.693 208.241 339.774 207.976 339.937C207.714 340.099 207.502 340.325 207.339 340.613C207.18 340.898 207.101 341.228 207.101 341.602V346.375H205.927ZM221.198 346.534C220.508 346.534 219.903 346.37 219.383 346.042C218.866 345.714 218.462 345.255 218.17 344.665C217.882 344.075 217.737 343.385 217.737 342.597C217.737 341.801 217.882 341.107 218.17 340.513C218.462 339.92 218.866 339.46 219.383 339.131C219.903 338.803 220.508 338.639 221.198 338.639C221.887 338.639 222.49 338.803 223.007 339.131C223.528 339.46 223.932 339.92 224.22 340.513C224.512 341.107 224.658 341.801 224.658 342.597C224.658 343.385 224.512 344.075 224.22 344.665C223.932 345.255 223.528 345.714 223.007 346.042C222.49 346.37 221.887 346.534 221.198 346.534ZM221.198 345.48C221.721 345.48 222.152 345.346 222.49 345.077C222.828 344.809 223.079 344.456 223.241 344.018C223.403 343.581 223.485 343.107 223.485 342.597C223.485 342.086 223.403 341.611 223.241 341.17C223.079 340.729 222.828 340.373 222.49 340.101C222.152 339.829 221.721 339.693 221.198 339.693C220.674 339.693 220.243 339.829 219.905 340.101C219.567 340.373 219.317 340.729 219.154 341.17C218.992 341.611 218.911 342.086 218.911 342.597C218.911 343.107 218.992 343.581 219.154 344.018C219.317 344.456 219.567 344.809 219.905 345.077C220.243 345.346 220.674 345.48 221.198 345.48ZM232.42 338.739L229.596 346.375H228.403L225.579 338.739H226.852L228.96 344.824H229.039L231.147 338.739H232.42ZM233.968 346.375V338.739H235.142V346.375H233.968ZM234.565 337.466C234.336 337.466 234.139 337.388 233.973 337.232C233.811 337.076 233.73 336.889 233.73 336.67C233.73 336.452 233.811 336.264 233.973 336.109C234.139 335.953 234.336 335.875 234.565 335.875C234.794 335.875 234.989 335.953 235.152 336.109C235.317 336.264 235.4 336.452 235.4 336.67C235.4 336.889 235.317 337.076 235.152 337.232C234.989 337.388 234.794 337.466 234.565 337.466ZM238.464 341.781V346.375H237.291V338.739H238.424V339.932H238.524C238.703 339.544 238.974 339.232 239.339 338.997C239.704 338.759 240.174 338.639 240.751 338.639C241.268 338.639 241.72 338.745 242.108 338.957C242.496 339.166 242.798 339.484 243.013 339.912C243.228 340.336 243.336 340.873 243.336 341.523V346.375H242.163V341.602C242.163 341.002 242.007 340.535 241.695 340.2C241.384 339.862 240.956 339.693 240.413 339.693C240.038 339.693 239.704 339.774 239.409 339.937C239.117 340.099 238.887 340.336 238.718 340.648C238.548 340.959 238.464 341.337 238.464 341.781ZM248.562 349.398C247.996 349.398 247.509 349.325 247.101 349.179C246.693 349.036 246.353 348.848 246.082 348.612C245.813 348.38 245.599 348.132 245.44 347.866L246.375 347.21C246.481 347.349 246.615 347.509 246.778 347.688C246.94 347.87 247.162 348.027 247.444 348.16C247.729 348.296 248.102 348.364 248.562 348.364C249.179 348.364 249.688 348.214 250.089 347.916C250.49 347.618 250.69 347.151 250.69 346.514V344.963H250.591C250.505 345.102 250.382 345.275 250.223 345.48C250.067 345.682 249.842 345.863 249.547 346.022C249.255 346.178 248.861 346.256 248.364 346.256C247.747 346.256 247.194 346.11 246.703 345.818C246.216 345.527 245.83 345.102 245.545 344.545C245.263 343.989 245.122 343.312 245.122 342.517C245.122 341.735 245.26 341.054 245.535 340.474C245.81 339.89 246.193 339.44 246.683 339.121C247.174 338.8 247.741 338.639 248.384 338.639C248.881 338.639 249.275 338.722 249.567 338.888C249.862 339.05 250.087 339.236 250.243 339.445C250.402 339.65 250.525 339.819 250.611 339.952H250.73V338.739H251.864V346.594C251.864 347.25 251.714 347.784 251.416 348.195C251.121 348.609 250.723 348.912 250.223 349.104C249.726 349.3 249.172 349.398 248.562 349.398ZM248.523 345.202C248.993 345.202 249.391 345.094 249.716 344.879C250.041 344.663 250.288 344.353 250.457 343.949C250.626 343.545 250.71 343.061 250.71 342.497C250.71 341.947 250.627 341.461 250.462 341.04C250.296 340.62 250.051 340.29 249.726 340.051C249.401 339.812 249 339.693 248.523 339.693C248.026 339.693 247.611 339.819 247.28 340.071C246.952 340.323 246.705 340.661 246.539 341.085C246.377 341.509 246.295 341.98 246.295 342.497C246.295 343.027 246.378 343.496 246.544 343.904C246.713 344.308 246.962 344.627 247.29 344.859C247.621 345.087 248.032 345.202 248.523 345.202ZM261.27 338.739V339.733H257.312V338.739H261.27ZM258.466 336.909H259.639V344.188C259.639 344.519 259.687 344.768 259.783 344.933C259.883 345.096 260.009 345.205 260.161 345.261C260.317 345.314 260.481 345.341 260.653 345.341C260.783 345.341 260.889 345.334 260.972 345.321C261.054 345.304 261.121 345.291 261.17 345.281L261.409 346.335C261.33 346.365 261.219 346.395 261.076 346.425C260.933 346.458 260.753 346.474 260.534 346.474C260.203 346.474 259.878 346.403 259.56 346.261C259.245 346.118 258.983 345.901 258.774 345.609C258.569 345.318 258.466 344.95 258.466 344.506V336.909ZM266.055 346.534C265.366 346.534 264.761 346.37 264.24 346.042C263.723 345.714 263.319 345.255 263.027 344.665C262.739 344.075 262.595 343.385 262.595 342.597C262.595 341.801 262.739 341.107 263.027 340.513C263.319 339.92 263.723 339.46 264.24 339.131C264.761 338.803 265.366 338.639 266.055 338.639C266.744 338.639 267.348 338.803 267.865 339.131C268.385 339.46 268.789 339.92 269.078 340.513C269.369 341.107 269.515 341.801 269.515 342.597C269.515 343.385 269.369 344.075 269.078 344.665C268.789 345.255 268.385 345.714 267.865 346.042C267.348 346.37 266.744 346.534 266.055 346.534ZM266.055 345.48C266.579 345.48 267.01 345.346 267.348 345.077C267.686 344.809 267.936 344.456 268.098 344.018C268.261 343.581 268.342 343.107 268.342 342.597C268.342 342.086 268.261 341.611 268.098 341.17C267.936 340.729 267.686 340.373 267.348 340.101C267.01 339.829 266.579 339.693 266.055 339.693C265.531 339.693 265.1 339.829 264.762 340.101C264.424 340.373 264.174 340.729 264.012 341.17C263.849 341.611 263.768 342.086 263.768 342.597C263.768 343.107 263.849 343.581 264.012 344.018C264.174 344.456 264.424 344.809 264.762 345.077C265.1 345.346 265.531 345.48 266.055 345.48ZM278.346 346.534C277.63 346.534 277.014 346.365 276.497 346.027C275.98 345.689 275.582 345.223 275.303 344.63C275.025 344.037 274.886 343.359 274.886 342.597C274.886 341.821 275.028 341.137 275.313 340.543C275.602 339.947 276.003 339.481 276.517 339.146C277.034 338.808 277.637 338.639 278.326 338.639C278.863 338.639 279.347 338.739 279.778 338.938C280.209 339.136 280.562 339.415 280.837 339.773C281.112 340.131 281.283 340.548 281.349 341.026H280.176C280.086 340.678 279.887 340.369 279.579 340.101C279.274 339.829 278.863 339.693 278.346 339.693C277.889 339.693 277.488 339.812 277.143 340.051C276.802 340.286 276.535 340.62 276.343 341.05C276.154 341.478 276.059 341.98 276.059 342.557C276.059 343.147 276.152 343.661 276.338 344.098C276.526 344.536 276.792 344.875 277.133 345.117C277.478 345.359 277.882 345.48 278.346 345.48C278.651 345.48 278.928 345.427 279.176 345.321C279.425 345.215 279.635 345.062 279.808 344.864C279.98 344.665 280.103 344.426 280.176 344.148H281.349C281.283 344.598 281.119 345.004 280.857 345.366C280.598 345.724 280.255 346.009 279.828 346.221C279.403 346.43 278.91 346.534 278.346 346.534ZM284.237 336.193V346.375H283.064V336.193H284.237ZM289.489 346.534C288.799 346.534 288.194 346.37 287.674 346.042C287.157 345.714 286.753 345.255 286.461 344.665C286.173 344.075 286.028 343.385 286.028 342.597C286.028 341.801 286.173 341.107 286.461 340.513C286.753 339.92 287.157 339.46 287.674 339.131C288.194 338.803 288.799 338.639 289.489 338.639C290.178 338.639 290.781 338.803 291.298 339.131C291.819 339.46 292.223 339.92 292.511 340.513C292.803 341.107 292.949 341.801 292.949 342.597C292.949 343.385 292.803 344.075 292.511 344.665C292.223 345.255 291.819 345.714 291.298 346.042C290.781 346.37 290.178 346.534 289.489 346.534ZM289.489 345.48C290.012 345.48 290.443 345.346 290.781 345.077C291.119 344.809 291.37 344.456 291.532 344.018C291.694 343.581 291.776 343.107 291.776 342.597C291.776 342.086 291.694 341.611 291.532 341.17C291.37 340.729 291.119 340.373 290.781 340.101C290.443 339.829 290.012 339.693 289.489 339.693C288.965 339.693 288.534 339.829 288.196 340.101C287.858 340.373 287.608 340.729 287.445 341.17C287.283 341.611 287.202 342.086 287.202 342.597C287.202 343.107 287.283 343.581 287.445 344.018C287.608 344.456 287.858 344.809 288.196 345.077C288.534 345.346 288.965 345.48 289.489 345.48ZM300.149 340.449L299.095 340.747C299.029 340.571 298.931 340.401 298.802 340.235C298.676 340.066 298.503 339.927 298.285 339.817C298.066 339.708 297.786 339.653 297.444 339.653C296.977 339.653 296.588 339.761 296.276 339.977C295.968 340.189 295.814 340.459 295.814 340.787C295.814 341.079 295.92 341.309 296.132 341.478C296.344 341.647 296.675 341.788 297.126 341.901L298.26 342.179C298.943 342.345 299.451 342.598 299.786 342.94C300.121 343.278 300.288 343.714 300.288 344.247C300.288 344.685 300.162 345.076 299.91 345.42C299.662 345.765 299.314 346.037 298.866 346.236C298.419 346.435 297.898 346.534 297.305 346.534C296.526 346.534 295.882 346.365 295.371 346.027C294.861 345.689 294.538 345.195 294.402 344.545L295.515 344.267C295.622 344.678 295.822 344.986 296.117 345.192C296.415 345.397 296.805 345.5 297.285 345.5C297.832 345.5 298.266 345.384 298.588 345.152C298.913 344.917 299.075 344.635 299.075 344.307C299.075 344.042 298.982 343.82 298.797 343.641C298.611 343.458 298.326 343.322 297.942 343.233L296.669 342.935C295.97 342.769 295.456 342.512 295.128 342.164C294.803 341.813 294.64 341.374 294.64 340.847C294.64 340.416 294.761 340.035 295.003 339.703C295.249 339.372 295.582 339.112 296.003 338.923C296.427 338.734 296.907 338.639 297.444 338.639C298.2 338.639 298.793 338.805 299.224 339.136C299.658 339.468 299.967 339.905 300.149 340.449ZM306.867 343.253V338.739H308.04V346.375H306.867V345.082H306.787C306.608 345.47 306.33 345.8 305.952 346.072C305.574 346.34 305.097 346.474 304.52 346.474C304.043 346.474 303.619 346.37 303.248 346.161C302.876 345.949 302.585 345.631 302.373 345.207C302.16 344.779 302.054 344.241 302.054 343.591V338.739H303.228V343.511C303.228 344.068 303.383 344.512 303.695 344.844C304.01 345.175 304.411 345.341 304.898 345.341C305.19 345.341 305.486 345.266 305.788 345.117C306.093 344.968 306.348 344.739 306.554 344.431C306.762 344.123 306.867 343.73 306.867 343.253ZM310.189 346.375V338.739H311.323V339.892H311.402C311.541 339.514 311.793 339.208 312.158 338.972C312.522 338.737 312.933 338.619 313.391 338.619C313.477 338.619 313.585 338.621 313.714 338.624C313.843 338.628 313.941 338.633 314.007 338.639V339.832C313.968 339.822 313.876 339.808 313.734 339.788C313.595 339.764 313.447 339.753 313.291 339.753C312.92 339.753 312.589 339.831 312.297 339.987C312.009 340.139 311.78 340.351 311.611 340.623C311.445 340.891 311.362 341.198 311.362 341.543V346.375H310.189ZM318.367 346.534C317.632 346.534 316.997 346.372 316.463 346.047C315.933 345.719 315.524 345.261 315.235 344.675C314.95 344.085 314.808 343.399 314.808 342.616C314.808 341.834 314.95 341.145 315.235 340.548C315.524 339.948 315.925 339.481 316.438 339.146C316.955 338.808 317.559 338.639 318.248 338.639C318.646 338.639 319.039 338.705 319.426 338.838C319.814 338.971 320.167 339.186 320.485 339.484C320.803 339.779 321.057 340.17 321.246 340.658C321.435 341.145 321.529 341.745 321.529 342.457V342.955H315.643V341.94H320.336C320.336 341.509 320.25 341.125 320.078 340.787C319.909 340.449 319.667 340.182 319.352 339.987C319.04 339.791 318.672 339.693 318.248 339.693C317.781 339.693 317.376 339.809 317.035 340.041C316.697 340.27 316.437 340.568 316.254 340.936C316.072 341.304 315.981 341.698 315.981 342.119V342.795C315.981 343.372 316.08 343.861 316.279 344.262C316.481 344.66 316.762 344.963 317.119 345.172C317.477 345.377 317.893 345.48 318.367 345.48C318.676 345.48 318.954 345.437 319.203 345.351C319.454 345.261 319.672 345.129 319.854 344.953C320.036 344.774 320.177 344.552 320.276 344.287L321.41 344.605C321.291 344.99 321.09 345.328 320.808 345.619C320.527 345.908 320.179 346.133 319.764 346.295C319.35 346.455 318.884 346.534 318.367 346.534ZM324.169 346.455C323.924 346.455 323.713 346.367 323.538 346.191C323.362 346.015 323.274 345.805 323.274 345.56C323.274 345.314 323.362 345.104 323.538 344.928C323.713 344.753 323.924 344.665 324.169 344.665C324.414 344.665 324.625 344.753 324.801 344.928C324.976 345.104 325.064 345.314 325.064 345.56C325.064 345.722 325.023 345.871 324.94 346.007C324.86 346.143 324.753 346.252 324.617 346.335C324.484 346.415 324.335 346.455 324.169 346.455Z" fill="#3730A3"/>
</g>
<defs>
<filter id="filter0_d_1002_745" x="0" y="0" width="377" height="382" filterUnits="userSpaceOnUse" color-interpolation-filters="sRGB">
<feFlood flood-opacity="0" result="BackgroundImageFix"/>
<feColorMatrix in="SourceAlpha" type="matrix" values="0 0 0 0 0 0 0 0 0 0 0 0 0 0 0 0 0 0 127 0" result="hardAlpha"/>
<feOffset dy="1"/>
<feGaussianBlur stdDeviation="1"/>
<feComposite in2="hardAlpha" operator="out"/>
<feColorMatrix type="matrix" values="0 0 0 0 0 0 0 0 0 0 0 0 0 0 0 0 0 0 0.05 0"/>
<feBlend mode="normal" in2="BackgroundImageFix" result="effect1_dropShadow_1002_745"/>
<feBlend mode="normal" in="SourceGraphic" in2="effect1_dropShadow_1002_745" result="shape"/>
</filter>
</defs>
</svg>
