<svg width="101" height="100" viewBox="0 0 101 100" fill="none" xmlns="http://www.w3.org/2000/svg">
<g clip-path="url(#clip0_928_456)">
<path d="M0 51.6222L6.02652 56.0063C13.9571 48.7909 23.3394 43.2218 33.2684 40.3905C35.0531 39.8854 36.8064 39.48 38.5282 39.1682L39.2886 25.124C25.4132 29.7638 11.4937 38.8377 0 51.6222Z" fill="#EC2227"/>
<path d="M45.3403 23.6459L44.4354 38.8251C53.7925 38.4883 61.8614 41.2136 67.7622 46.3336L82.9133 28.3792C72.5068 21.8124 59.1529 20.4653 45.3403 23.6459Z" fill="#F89520"/>
<path d="M87.5008 32.1904L71.0363 50.2633C75.0267 55.7762 77.1759 62.9043 76.9371 71.2049L99.9497 65.6857C100.54 52.4148 96.4683 40.4473 87.5008 32.1904Z" fill="#8EC641"/>
<path d="M57.9463 54.9343C57.3242 52.8763 55.9354 51.5854 53.9056 50.9306C46.6788 51.0054 39.1441 50.7809 32.1058 51.0491C31.3266 51.2923 30.1766 52.0469 29.9127 52.7641C29.8372 52.9699 29.5984 54.3294 29.7995 55.2836C29.9629 56.0631 31.1946 57.2542 31.7602 57.803C38.0381 63.8211 44.4102 70.3567 50.5624 76.4621C51.6433 77.5348 52.8499 78.8444 54.1381 78.9816C56.4256 79.2186 57.3368 77.9713 57.8269 76.6929C58.0972 69.6708 57.8646 62.156 57.9463 54.9406V54.9343Z" fill="#025C87"/>
</g>
<defs>
<clipPath id="clip0_928_456">
<rect width="100" height="57" fill="white" transform="translate(0 22)"/>
</clipPath>
</defs>
</svg>
