<?xml version="1.0" encoding="UTF-8"?>
<svg id="Layer_2" data-name="Layer 2" xmlns="http://www.w3.org/2000/svg" viewBox="0 0 909.49 248.93">
  <defs>
    <style>
      .cls-1, .cls-2 {
        fill: #025c87;
      }

      .cls-1, .cls-3 {
        fill-rule: evenodd;
      }

      .cls-4 {
        fill: #ec2227;
      }

      .cls-5 {
        fill: #8ec641;
      }

      .cls-3, .cls-6 {
        fill: #989898;
      }

      .cls-7 {
        fill: #f89520;
      }
    </style>
  </defs>
  <g id="Layer_1-2" data-name="Layer 1">
    <g>
      <g id="Monitor_Compliance" data-name="Monitor Compliance">
        <path class="cls-3" d="M397.78,227.14h-.19l-10.8-25.73h-6.86v33.98h4.61v-27.94h.1l11.47,27.94h3.07l11.47-27.94h.1v27.94h4.61v-33.98h-6.86l-10.7,25.73ZM442.23,215.57c-1.09-1.09-2.37-1.95-3.84-2.57-1.47-.62-3.06-.94-4.75-.94s-3.28.31-4.75.94c-1.47.62-2.75,1.48-3.84,2.57-1.09,1.09-1.94,2.35-2.57,3.79-.62,1.44-.94,2.99-.94,4.66s.31,3.22.94,4.68c.62,1.46,1.48,2.72,2.57,3.79,1.09,1.07,2.37,1.92,3.84,2.54,1.47.62,3.05.94,4.75.94s3.28-.31,4.75-.94c1.47-.62,2.75-1.47,3.84-2.54s1.95-2.34,2.57-3.79c.62-1.46.94-3.02.94-4.68s-.31-3.22-.94-4.66c-.62-1.44-1.48-2.7-2.57-3.79ZM440.6,227.21c-.35.98-.85,1.81-1.49,2.5-.64.69-1.43,1.23-2.35,1.63-.93.4-1.97.6-3.12.6s-2.19-.2-3.12-.6c-.93-.4-1.71-.94-2.35-1.63-.64-.69-1.14-1.52-1.49-2.5-.35-.97-.53-2.04-.53-3.19s.18-2.21.53-3.19c.35-.98.85-1.81,1.49-2.5.64-.69,1.42-1.23,2.35-1.63.93-.4,1.97-.6,3.12-.6s2.19.2,3.12.6c.93.4,1.71.95,2.35,1.63.64.69,1.13,1.52,1.49,2.5.35.98.53,2.04.53,3.19s-.18,2.22-.53,3.19ZM468.84,214.13c-.75-.7-1.63-1.22-2.64-1.56-1.01-.34-2.06-.5-3.14-.5-1.76,0-3.31.38-4.66,1.13-1.34.75-2.29,1.74-2.83,2.95h-.1v-3.51h-4.32v22.75h4.32v-11.71c0-1.31.16-2.45.48-3.41.32-.96.77-1.75,1.34-2.38.58-.62,1.25-1.08,2.02-1.37.77-.29,1.6-.43,2.5-.43.67,0,1.32.1,1.94.31.62.21,1.18.54,1.66,1.01.48.46.87,1.07,1.15,1.82.29.75.43,1.66.43,2.71v13.44h4.32v-14.64c0-1.5-.22-2.81-.67-3.91-.45-1.1-1.05-2.01-1.8-2.71ZM478.18,235.39h4.32v-22.75h-4.32v22.75ZM480.34,201.32c-.86,0-1.61.31-2.23.94-.62.62-.94,1.37-.94,2.23s.31,1.61.94,2.23c.62.62,1.37.94,2.23.94s1.61-.31,2.23-.94c.62-.62.94-1.37.94-2.23s-.31-1.61-.94-2.23c-.62-.62-1.37-.94-2.23-.94ZM498.63,231.94c-.83,0-1.46-.15-1.9-.46-.43-.3-.75-.71-.96-1.2-.21-.5-.33-1.06-.36-1.68-.03-.62-.05-1.26-.05-1.9v-10.32h6.19v-3.74h-6.19v-6.38h-4.32v6.38h-4.99v3.74h4.99v11.86c0,.93.04,1.85.12,2.76.08.91.34,1.74.77,2.47.43.74,1.1,1.34,2.02,1.8s2.2.7,3.87.7c.45,0,1.08-.05,1.9-.17.81-.11,1.48-.31,1.99-.6v-3.94c-.45.26-.94.43-1.49.53-.54.1-1.07.14-1.58.14ZM526.71,215.57c-1.09-1.09-2.37-1.95-3.84-2.57-1.47-.62-3.05-.94-4.75-.94s-3.28.31-4.75.94c-1.47.62-2.75,1.48-3.84,2.57-1.09,1.09-1.94,2.35-2.57,3.79-.62,1.44-.94,2.99-.94,4.66s.31,3.22.94,4.68c.62,1.46,1.48,2.72,2.57,3.79,1.09,1.07,2.37,1.92,3.84,2.54,1.47.62,3.06.94,4.75.94s3.28-.31,4.75-.94c1.47-.62,2.75-1.47,3.84-2.54,1.09-1.07,1.95-2.34,2.57-3.79.62-1.46.94-3.02.94-4.68s-.31-3.22-.94-4.66c-.62-1.44-1.48-2.7-2.57-3.79ZM525.07,227.21c-.35.98-.85,1.81-1.49,2.5-.64.69-1.42,1.23-2.35,1.63-.93.4-1.97.6-3.12.6s-2.19-.2-3.12-.6c-.93-.4-1.71-.94-2.35-1.63-.64-.69-1.14-1.52-1.49-2.5-.35-.97-.53-2.04-.53-3.19s.17-2.21.53-3.19c.35-.98.85-1.81,1.49-2.5.64-.69,1.42-1.23,2.35-1.63.93-.4,1.97-.6,3.12-.6s2.19.2,3.12.6c.93.4,1.71.95,2.35,1.63s1.13,1.52,1.49,2.5c.35.98.53,2.04.53,3.19s-.18,2.22-.53,3.19ZM544.75,212.38c-.71.21-1.35.49-1.94.84-.59.35-1.13.78-1.61,1.27-.48.5-.86,1.05-1.15,1.66h-.1v-3.51h-4.32v22.75h4.32v-11.42c0-2.5.56-4.33,1.68-5.52,1.12-1.18,2.74-1.78,4.85-1.78.35,0,.7.03,1.05.1.35.06.7.14,1.06.24l.19-4.66c-.58-.19-1.22-.29-1.92-.29s-1.41.1-2.11.31ZM588.43,230.74c-1.47.8-3.19,1.2-5.14,1.2s-3.76-.35-5.33-1.06c-1.57-.7-2.9-1.66-3.98-2.88-1.09-1.22-1.92-2.62-2.5-4.22-.58-1.6-.87-3.29-.87-5.09,0-1.92.3-3.72.91-5.4s1.46-3.14,2.57-4.39c1.1-1.25,2.43-2.23,3.98-2.95,1.55-.72,3.29-1.08,5.21-1.08,1.57,0,3.09.34,4.56,1.01,1.47.67,2.69,1.63,3.65,2.88l3.84-2.93c-1.38-1.79-3.14-3.12-5.3-3.98-2.16-.86-4.36-1.3-6.6-1.3-2.62,0-5.02.45-7.2,1.34-2.18.9-4.04,2.15-5.59,3.77-1.55,1.62-2.76,3.54-3.62,5.76-.86,2.22-1.3,4.65-1.3,7.27,0,2.14.4,4.26,1.2,6.36.8,2.1,1.96,3.98,3.48,5.64,1.52,1.66,3.36,3.01,5.52,4.03,2.16,1.03,4.58,1.54,7.27,1.54,1.95,0,3.67-.25,5.16-.74,1.49-.5,2.76-1.07,3.82-1.73,1.05-.65,1.9-1.31,2.54-1.97.64-.66,1.09-1.16,1.34-1.51l-3.89-2.93c-1.03,1.44-2.27,2.56-3.74,3.36ZM620.11,215.57c-1.09-1.09-2.37-1.95-3.84-2.57-1.47-.62-3.06-.94-4.75-.94s-3.28.31-4.75.94c-1.47.62-2.75,1.48-3.84,2.57-1.09,1.09-1.95,2.35-2.57,3.79-.62,1.44-.94,2.99-.94,4.66s.31,3.22.94,4.68c.62,1.46,1.48,2.72,2.57,3.79,1.09,1.07,2.37,1.92,3.84,2.54,1.47.62,3.05.94,4.75.94s3.28-.31,4.75-.94c1.47-.62,2.75-1.47,3.84-2.54,1.09-1.07,1.94-2.34,2.57-3.79.62-1.46.94-3.02.94-4.68s-.31-3.22-.94-4.66c-.62-1.44-1.48-2.7-2.57-3.79ZM618.48,227.21c-.35.98-.85,1.81-1.49,2.5-.64.69-1.43,1.23-2.35,1.63-.93.4-1.97.6-3.12.6s-2.19-.2-3.12-.6c-.93-.4-1.71-.94-2.35-1.63-.64-.69-1.14-1.52-1.49-2.5-.35-.97-.53-2.04-.53-3.19s.18-2.21.53-3.19c.35-.98.85-1.81,1.49-2.5s1.42-1.23,2.35-1.63c.93-.4,1.97-.6,3.12-.6s2.19.2,3.12.6,1.71.95,2.35,1.63c.64.69,1.13,1.52,1.49,2.5.35.98.53,2.04.53,3.19s-.18,2.22-.53,3.19ZM661.73,215.21c-.64-.94-1.52-1.7-2.64-2.28-1.12-.58-2.56-.86-4.32-.86-1.38,0-2.74.35-4.08,1.05-1.34.7-2.38,1.76-3.12,3.17-.74-1.41-1.68-2.46-2.83-3.17-1.15-.7-2.58-1.05-4.27-1.05-1.02,0-1.96.15-2.81.45-.85.3-1.58.67-2.21,1.1-.62.43-1.14.89-1.54,1.37-.4.48-.65.88-.74,1.2h-.1v-3.55h-4.03v22.75h4.32v-11.81c0-1.28.16-2.39.48-3.34.32-.94.75-1.72,1.29-2.33.54-.61,1.18-1.06,1.9-1.37.72-.3,1.46-.46,2.23-.46,1.05,0,1.89.18,2.52.55.62.37,1.1.88,1.44,1.54.34.66.56,1.43.67,2.33.11.9.17,1.89.17,2.98v11.9h4.32v-12.43c0-2.02.45-3.66,1.34-4.94.9-1.28,2.38-1.92,4.46-1.92,1.05,0,1.9.18,2.54.55.64.37,1.14.86,1.49,1.46.35.61.58,1.31.7,2.11.11.8.17,1.63.17,2.49v12.67h4.32v-13.25c0-1.28-.12-2.52-.36-3.72-.24-1.2-.68-2.27-1.32-3.22ZM690.7,215.52c-1.01-1.09-2.22-1.94-3.65-2.54-1.42-.61-3.02-.91-4.78-.91-1.54,0-3.03.34-4.49,1.01-1.46.67-2.6,1.62-3.43,2.83h-.1v-3.27h-4.32v36.29h4.32v-16.8h.1c.77,1.19,1.87,2.12,3.31,2.81,1.44.69,2.98,1.03,4.61,1.03,1.76,0,3.35-.3,4.78-.91,1.42-.61,2.64-1.45,3.65-2.52,1.01-1.07,1.78-2.34,2.33-3.79.54-1.46.81-3.03.81-4.73s-.27-3.22-.81-4.68c-.54-1.46-1.32-2.73-2.33-3.82ZM688.71,227.21c-.35.98-.85,1.81-1.49,2.5-.64.69-1.42,1.23-2.35,1.63-.93.4-1.97.6-3.12.6s-2.19-.2-3.12-.6c-.93-.4-1.71-.94-2.35-1.63-.64-.69-1.13-1.52-1.49-2.5-.35-.97-.53-2.04-.53-3.19s.18-2.21.53-3.19c.35-.98.85-1.81,1.49-2.5.64-.69,1.42-1.23,2.35-1.63.93-.4,1.97-.6,3.12-.6s2.19.2,3.12.6c.93.4,1.71.95,2.35,1.63.64.69,1.13,1.52,1.49,2.5.35.98.53,2.04.53,3.19s-.18,2.22-.53,3.19ZM699.6,235.39h4.32v-36.29h-4.32v36.29ZM711.12,235.39h4.32v-22.75h-4.32v22.75ZM713.28,201.32c-.86,0-1.61.31-2.23.94s-.94,1.37-.94,2.23.31,1.61.94,2.23,1.37.94,2.23.94,1.61-.31,2.23-.94.94-1.37.94-2.23-.31-1.61-.94-2.23-1.37-.94-2.23-.94ZM740.93,231.27v-11.62c0-.99-.19-1.95-.55-2.86-.37-.91-.94-1.72-1.7-2.42-.77-.7-1.75-1.26-2.95-1.68-1.2-.42-2.63-.62-4.29-.62s-3.2.28-4.8.84c-1.6.56-3.01,1.4-4.22,2.52l2.59,2.69c.38-.29.79-.59,1.2-.91.42-.32.88-.6,1.39-.84.51-.24,1.08-.44,1.7-.6.62-.16,1.35-.24,2.18-.24.93,0,1.73.14,2.4.41.67.27,1.23.64,1.68,1.1.45.46.78.98,1.01,1.56.22.58.34,1.15.34,1.73v.96h-3.17c-1.73,0-3.35.14-4.87.41-1.52.27-2.85.72-3.98,1.34-1.14.62-2.03,1.43-2.69,2.42-.66.99-.98,2.22-.98,3.7,0,1.12.21,2.1.62,2.95.42.85.98,1.56,1.71,2.14.72.58,1.56,1.01,2.52,1.3.96.29,1.97.43,3.02.43,1.73,0,3.25-.3,4.56-.91,1.31-.61,2.45-1.65,3.41-3.12h.1c0,1.15.05,2.3.14,3.45h3.84c-.06-.61-.11-1.25-.14-1.92-.03-.67-.05-1.41-.05-2.21ZM736.89,225.89c0,.77-.11,1.55-.34,2.33-.22.79-.59,1.5-1.1,2.14-.51.64-1.18,1.16-2.02,1.56-.83.4-1.84.6-3.02.6-1.51,0-2.7-.29-3.58-.86-.88-.58-1.32-1.52-1.32-2.83,0-.9.28-1.63.84-2.21.56-.58,1.28-1.02,2.16-1.34.88-.32,1.86-.54,2.93-.65,1.07-.11,2.12-.17,3.14-.17h2.3v1.44ZM764.9,214.13c-.75-.7-1.63-1.22-2.64-1.56-1.01-.34-2.06-.5-3.14-.5-1.76,0-3.31.38-4.66,1.13-1.34.75-2.29,1.74-2.83,2.95h-.1v-3.51h-4.32v22.75h4.32v-11.71c0-1.31.16-2.45.48-3.41.32-.96.77-1.75,1.34-2.38.58-.62,1.25-1.08,2.02-1.37.77-.29,1.6-.43,2.5-.43.67,0,1.32.1,1.94.31.62.21,1.18.54,1.66,1.01.48.46.87,1.07,1.15,1.82.29.75.43,1.66.43,2.71v13.44h4.32v-14.64c0-1.5-.22-2.81-.67-3.91-.45-1.1-1.05-2.01-1.8-2.71ZM779.21,218.57c.59-.75,1.33-1.35,2.21-1.78.88-.43,1.91-.65,3.1-.65s2.26.21,3.14.65c.88.43,1.72,1.06,2.52,1.9l3.26-2.98c-1.12-1.21-2.44-2.12-3.96-2.71-1.52-.59-3.11-.89-4.78-.89-1.79,0-3.42.3-4.87.89-1.45.59-2.7,1.42-3.74,2.47-1.04,1.06-1.85,2.32-2.43,3.79-.57,1.47-.86,3.09-.86,4.85s.29,3.37.86,4.82c.58,1.46,1.39,2.7,2.45,3.74,1.05,1.04,2.31,1.85,3.77,2.42,1.46.58,3.06.86,4.82.86,1.66,0,3.24-.27,4.73-.81,1.49-.55,2.79-1.44,3.91-2.69l-3.07-3.07c-.74.83-1.54,1.46-2.4,1.9-.86.43-1.9.65-3.12.65-1.12,0-2.13-.2-3.02-.6-.9-.4-1.66-.95-2.3-1.66-.64-.7-1.14-1.53-1.49-2.47-.35-.94-.53-1.94-.53-3s.15-2.07.46-3.05c.3-.98.75-1.84,1.34-2.59ZM818.54,224.07c0-1.47-.2-2.92-.6-4.35-.4-1.42-1.05-2.7-1.95-3.84-.9-1.13-2.04-2.05-3.43-2.76-1.39-.7-3.1-1.05-5.11-1.05-1.7,0-3.26.3-4.7.91-1.44.61-2.68,1.45-3.72,2.52-1.04,1.07-1.86,2.34-2.45,3.79-.59,1.46-.89,3.03-.89,4.73s.27,3.27.81,4.73c.54,1.45,1.32,2.72,2.33,3.79,1.01,1.07,2.24,1.91,3.7,2.52,1.46.61,3.08.91,4.87.91,4.32,0,7.68-1.55,10.08-4.65l-3.26-2.5c-.83,1.02-1.74,1.85-2.74,2.47-.99.62-2.16.94-3.5.94-.99,0-1.95-.16-2.88-.48-.93-.32-1.75-.77-2.45-1.34-.7-.58-1.27-1.27-1.7-2.09-.43-.82-.65-1.72-.65-2.71h18.24v-1.54ZM800.3,222.15c0-.77.17-1.54.5-2.33.34-.79.81-1.5,1.42-2.14.61-.64,1.35-1.16,2.23-1.56.88-.4,1.85-.6,2.9-.6s2.04.17,2.86.5c.82.34,1.5.8,2.04,1.39.54.59.95,1.29,1.22,2.09.27.8.42,1.68.46,2.64h-13.63Z"/>
      </g>
      <g id="hs">
        <path class="cls-3" d="M190.88,108.56h-60.42v-47.64h-21.91v116.2h21.91v-51.13h60.42v51.13h21.91V60.91h-21.91v47.64ZM326.92,142.42c-.17-1.88-.5-3.84-1-5.89-.5-2.05-1.25-4.09-2.24-6.14-1-2.05-2.38-3.9-4.15-5.56-1.77-1.66-4.01-3.15-6.72-4.48-2.71-1.33-6-2.6-9.88-3.82l-42.5-13.45c-4.65-1.55-7.61-3.49-8.88-5.81-1.27-2.32-1.91-4.76-1.91-7.3,0-1.1.14-2.54.41-4.32.28-1.77,1.13-3.32,2.57-4.65,1.33-1.22,2.79-1.96,4.4-2.24,1.6-.27,3.18-.41,4.73-.41h59.43v-17.43h-66.9c-2.88,0-6.03.36-9.46,1.08-3.43.72-6.64,2.52-9.63,5.39-3.32,3.1-5.4,6.59-6.23,10.46-.83,3.88-1.25,7.58-1.25,11.12,0,1.66.05,3.43.17,5.31.11,1.88.39,3.79.83,5.73.44,1.94,1.05,3.85,1.83,5.73.77,1.88,1.83,3.6,3.15,5.15,1.1,1.44,2.38,2.66,3.82,3.65,1.44,1,2.82,1.85,4.15,2.57,1.33.72,2.52,1.27,3.57,1.66,1.05.39,1.8.64,2.24.75l45.82,14.44c2.54.78,4.56,1.69,6.06,2.74,1.49,1.05,2.63,2.16,3.4,3.32.77,1.16,1.27,2.35,1.49,3.57.22,1.22.33,2.38.33,3.49,0,1-.08,2.21-.25,3.65-.17,1.44-.61,2.82-1.33,4.15-.72,1.33-1.8,2.46-3.24,3.4-1.44.94-3.49,1.41-6.14,1.41h-64.41v17.43h71.38c3.87,0,7.58-.44,11.12-1.33,3.54-.88,6.75-3.21,9.63-6.97,2.43-3.1,4.01-6.56,4.73-10.38.72-3.82,1.08-7.55,1.08-11.2,0-1.33-.08-2.93-.25-4.81Z"/>
      </g>
      <g id="watch">
        <path class="cls-1" d="M481.05,60.91l-23.07,89.47c-.33,1.44-.78,2.38-1.33,2.82-.56.44-1,.66-1.33.66-.55,0-1.05-.33-1.49-1-.44-.66-.78-1.27-1-1.83l-21.58-79.51c-.33-1.33-.83-2.68-1.49-4.07-.66-1.38-1.61-2.66-2.82-3.82-1.22-1.16-2.77-2.13-4.65-2.91-1.88-.77-4.26-1.16-7.14-1.16-3.1,0-5.62.41-7.55,1.25-1.94.83-3.49,1.85-4.65,3.07-1.16,1.22-2.02,2.52-2.57,3.9-.55,1.39-1,2.63-1.33,3.74l-21.58,79.51c-.22.56-.55,1.16-1,1.83-.44.66-.94,1-1.49,1-.89,0-1.47-.44-1.74-1.33-.28-.88-.53-1.6-.75-2.16l-23.07-89.47h-22.24l27.89,101.26c1.77,6.42,4.2,10.74,7.3,12.95,3.1,2.21,6.97,3.32,11.62,3.32,3.43,0,6.22-.47,8.38-1.41,2.16-.94,3.9-2.16,5.23-3.65,1.33-1.49,2.35-3.1,3.07-4.81.72-1.71,1.3-3.4,1.74-5.06l20.58-75.2c.22-.55.47-1.22.75-1.99.27-.77.75-1.16,1.41-1.16,1,0,1.77,1.05,2.32,3.15l20.42,75.2c.55,1.99,1.25,3.88,2.08,5.64.83,1.77,1.94,3.35,3.32,4.73,1.38,1.38,3.12,2.49,5.23,3.32,2.1.83,4.76,1.25,7.97,1.25,3.43,0,6.22-.5,8.38-1.49,2.16-1,3.93-2.27,5.31-3.82,1.38-1.55,2.43-3.29,3.15-5.23.72-1.94,1.35-3.84,1.91-5.73l28.05-101.26h-22.24ZM577.33,95.94c-1.99-2.1-4.59-3.76-7.8-4.98-3.21-1.22-6.7-1.83-10.46-1.83h-49.97v14.94h43.33c1.55,0,3.18.22,4.9.66,1.71.44,3.24,1.49,4.56,3.15,1.11,1.33,1.8,2.71,2.07,4.15.28,1.44.42,2.82.42,4.15v6.14h-38.18c-2.32,0-4.9.25-7.72.75-2.82.5-5.62,1.97-8.38,4.4-3.32,2.88-5.39,6.2-6.22,9.96-.83,3.76-1.24,7.58-1.24,11.45,0,1.66.05,3.54.17,5.64.11,2.1.41,4.26.91,6.47.5,2.22,1.27,4.34,2.32,6.39,1.05,2.05,2.46,3.85,4.23,5.39,2.54,2.21,5.23,3.49,8.05,3.82,2.82.33,5.45.5,7.89.5h42c2.1,0,4.26-.19,6.47-.58,2.21-.39,4.09-1.35,5.64-2.91s2.52-3.43,2.9-5.64c.39-2.21.58-4.09.58-5.64v-45.65c0-4.98-.61-9.21-1.83-12.7-1.22-3.49-2.77-6.17-4.65-8.05ZM564.38,157.53c0,.66-.06,1.3-.17,1.91-.11.61-.5,1.19-1.16,1.74-.66.56-1.41.86-2.24.91-.83.06-1.52.08-2.07.08h-27.06c-1.22,0-2.41-.27-3.57-.83-1.16-.55-2.07-1.16-2.74-1.83-1.22-1.22-1.97-2.82-2.24-4.81-.28-1.99-.41-3.65-.41-4.98,0-3.21.28-5.48.83-6.81.55-1.33,1-2.21,1.33-2.66,1.1-1.44,2.41-2.29,3.9-2.57,1.49-.27,2.57-.41,3.24-.41h32.37v20.25ZM635.01,161.68c-3.04-.33-5.67-1.44-7.88-3.32-1.44-1.1-2.52-2.46-3.24-4.07-.72-1.6-1.22-3.24-1.49-4.9-.28-1.66-.42-3.32-.42-4.98v-40.34h24.57v-14.94h-24.57v-28.22h-19.42v28.22h-12.12v14.94h12.12v44.32c0,5.64.75,10.18,2.24,13.61,1.49,3.43,3.68,6.31,6.56,8.63,2.76,2.21,5.89,3.85,9.38,4.9,3.49,1.05,8.22,1.58,14.19,1.58h12.12v-14.94h-4.81c-1.77,0-4.18-.17-7.22-.5ZM690.12,161.93c-2.16-.17-4.23-.58-6.23-1.25-1.99-.66-3.82-1.6-5.48-2.82-1.66-1.22-3.04-2.88-4.15-4.98-.55-1.1-1.03-2.46-1.41-4.07-.39-1.6-.69-3.24-.91-4.9-.22-1.66-.36-3.29-.42-4.9-.06-1.6-.08-3.07-.08-4.4,0-.66.03-1.69.08-3.07.05-1.38.11-2.88.17-4.48.05-1.6.19-3.21.42-4.81.22-1.6.5-3.01.83-4.23,1.11-3.76,3.35-7.03,6.72-9.79,3.38-2.76,8.33-4.15,14.86-4.15h31.37v-14.94h-37.68c-3.98,0-7.44.33-10.37,1-2.93.66-5.48,1.47-7.64,2.41-2.16.94-3.96,1.97-5.39,3.07-1.44,1.11-2.6,2.1-3.49,2.99-2.44,2.55-4.31,5.34-5.64,8.38-1.33,3.05-2.32,6.14-2.99,9.3-.66,3.15-1.05,6.28-1.16,9.38-.11,3.1-.17,5.98-.17,8.63,0,6.31.41,12.15,1.24,17.51.83,5.37,3.07,10.21,6.72,14.53,1.99,2.32,4.18,4.21,6.56,5.64,2.38,1.44,4.73,2.55,7.05,3.32,2.32.78,4.59,1.27,6.81,1.49,2.21.22,4.15.33,5.81.33h42.33v-14.94h-31.54c-1.99,0-4.07-.08-6.22-.25ZM815.95,104.24c-1.94-3.87-4.12-6.81-6.56-8.8-3.21-2.54-6.89-4.23-11.04-5.06-4.15-.83-8.71-1.25-13.7-1.25h-26.39v-32.22l-19.25,10.09-.17,110.11h19.42v-73.04h22.74c1.88,0,4.15.25,6.81.75,2.66.5,5.09,1.97,7.3,4.4,1,1.11,1.77,2.35,2.32,3.74.55,1.38.99,2.77,1.33,4.15.33,1.39.52,2.71.58,3.98.05,1.27.08,2.35.08,3.24v52.79h19.42v-57.93c0-6.08-.97-11.06-2.91-14.94Z"/>
      </g>
      <g id="go">
        <path class="cls-2" d="M835.06,73.79c-.75-2.49-2.42-4.06-4.86-4.86-8.7.09-17.76-.18-26.23.14-.94.29-2.32,1.21-2.64,2.08-.09.25-.37,1.9-.14,3.05.2.95,1.68,2.39,2.36,3.05,7.55,7.3,15.22,15.22,22.62,22.62,1.3,1.3,2.75,2.89,4.3,3.05,2.76.29,3.85-1.23,4.44-2.78.32-8.51.05-17.63.14-26.37Z"/>
      </g>
      <g id="Shape_3_copy_5" data-name="Shape 3 copy 5">
        <path class="cls-4" d="M720.22,56.49l11.4,8.36c15.01-13.75,32.77-24.38,51.56-29.79,3.37-.97,6.69-1.74,9.95-2.34l1.44-26.79c-26.25,8.87-52.6,26.17-74.35,50.55Z"/>
      </g>
      <g id="Shape_3_copy_5-2" data-name="Shape 3 copy 5">
        <path class="cls-7" d="M806.04,3.14l-1.71,28.94c17.71-.64,32.98,4.55,44.15,14.32l28.68-34.24c-19.71-12.53-44.98-15.09-71.12-9.02Z"/>
      </g>
      <g id="Shape_3_copy_2" data-name="Shape 3 copy 2">
        <path class="cls-5" d="M885.82,19.43l-31.16,34.47c7.55,10.51,11.62,24.11,11.17,39.94l43.55-10.53c1.12-25.31-6.58-48.13-23.56-63.88Z"/>
      </g>
      <g id="E">
        <path class="cls-6" d="M92.34,61.02H17.9c-2.21,0-4.62.22-7.21.65-2.6.44-4.84,1.68-6.71,3.75-1.22,1.41-2.18,3.18-2.9,5.29-.72,2.12-1.08,4.32-1.08,6.6v.7l92.34.11v-17.1ZM31,157.91c-1.77,0-3.29-.08-4.56-.24-1.27-.16-2.24-.57-2.9-1.22-1.11-.87-1.66-2.33-1.66-4.4v-26.71h68.8v-17.1l-90.68-.08v49.92c0,2.17.22,4.48.66,6.92.44,2.44,1.66,4.59,3.65,6.43,1.88,1.85,3.92,2.91,6.13,3.18,2.21.27,4.58.41,7.13.41h75.43v-17.1H31Z"/>
      </g>
    </g>
  </g>
</svg>