<svg width="11" height="11" viewBox="0 0 11 11" fill="none" xmlns="http://www.w3.org/2000/svg">
<path d="M1.69877 2.77164C1.53137 2.77212 1.36554 2.73635 1.21089 2.66638C1.05623 2.59642 0.915807 2.49366 0.79775 2.36404L0.142152 1.72691C0.0580302 1.645 0.00714715 1.52995 0.000697133 1.40707C-0.00575288 1.2842 0.0327585 1.16355 0.107759 1.07168C0.18276 0.979814 0.288106 0.924246 0.400623 0.917202C0.51314 0.910158 0.623611 0.952215 0.707733 1.03412L1.38074 1.68981C1.41927 1.73706 1.46624 1.7752 1.51877 1.80188C1.5713 1.82857 1.62827 1.84323 1.68619 1.84496C1.7441 1.8467 1.80172 1.83548 1.85551 1.81199C1.90931 1.78849 1.95813 1.75323 1.99897 1.70836L3.52927 0.117368C3.61155 0.0373638 3.71909 -0.00457933 3.82917 0.000397209C3.93925 0.00537375 4.04324 0.0568803 4.11919 0.144038C4.19514 0.231195 4.2371 0.34718 4.2362 0.467493C4.2353 0.587806 4.19162 0.703027 4.11438 0.78882L2.59045 2.37193C2.47316 2.49927 2.33404 2.60012 2.18104 2.6687C2.02804 2.73729 1.86416 2.77227 1.69877 2.77164ZM10.191 1.84422C10.191 1.72124 10.1462 1.60329 10.0666 1.51633C9.98698 1.42937 9.87897 1.38051 9.76636 1.38051H5.52026C5.40765 1.38051 5.29965 1.42937 5.22002 1.51633C5.14039 1.60329 5.09565 1.72124 5.09565 1.84422C5.09565 1.96721 5.14039 2.08515 5.22002 2.17212C5.29965 2.25908 5.40765 2.30793 5.52026 2.30793H9.76636C9.87897 2.30793 9.98698 2.25908 10.0666 2.17212C10.1462 2.08515 10.191 1.96721 10.191 1.84422ZM2.59045 6.08161L4.11438 4.4985C4.15691 4.45715 4.19139 4.40687 4.21577 4.35067C4.24015 4.29446 4.25393 4.23348 4.25628 4.17134C4.25864 4.1092 4.24953 4.04718 4.22948 3.98897C4.20944 3.93075 4.17888 3.87754 4.13962 3.83248C4.10037 3.78743 4.05321 3.75147 4.00096 3.72672C3.94872 3.70198 3.89245 3.68897 3.8355 3.68846C3.77855 3.68796 3.7221 3.69996 3.66949 3.72377C3.61688 3.74758 3.56919 3.7827 3.52927 3.82705L2.00067 5.41804C1.91984 5.50245 1.81231 5.54956 1.70047 5.54956C1.58863 5.54956 1.4811 5.50245 1.40027 5.41804L0.725142 4.68306C0.64506 4.59859 0.537802 4.55185 0.426471 4.55291C0.315139 4.55396 0.208642 4.60273 0.129916 4.68871C0.0511897 4.77468 0.00653393 4.89099 0.00556649 5.01257C0.00459905 5.13415 0.0473974 5.25129 0.124743 5.33874L0.79775 6.07372C1.03539 6.33331 1.35735 6.4798 1.69346 6.48128C2.02958 6.48276 2.3526 6.3391 2.59215 6.08161H2.59045ZM10.191 5.5539C10.191 5.43092 10.1462 5.31297 10.0666 5.22601C9.98698 5.13905 9.87897 5.09019 9.76636 5.09019H5.52026C5.40765 5.09019 5.29965 5.13905 5.22002 5.22601C5.14039 5.31297 5.09565 5.43092 5.09565 5.5539C5.09565 5.67689 5.14039 5.79483 5.22002 5.8818C5.29965 5.96876 5.40765 6.01761 5.52026 6.01761H9.76636C9.87897 6.01761 9.98698 5.96876 10.0666 5.8818C10.1462 5.79483 10.191 5.67689 10.191 5.5539ZM2.59045 9.79129L4.11268 8.20818C4.15521 8.16683 4.1897 8.11655 4.21407 8.06035C4.23845 8.00414 4.25223 7.94316 4.25459 7.88102C4.25694 7.81888 4.24783 7.75686 4.22779 7.69865C4.20774 7.64043 4.17719 7.58722 4.13793 7.54217C4.09867 7.49711 4.05151 7.46115 3.99927 7.43641C3.94702 7.41166 3.89075 7.39865 3.8338 7.39814C3.77686 7.39764 3.7204 7.40964 3.66779 7.43345C3.61518 7.45726 3.56749 7.49238 3.52757 7.53673L1.99897 9.12772C1.95813 9.17259 1.90931 9.20785 1.85551 9.23135C1.80172 9.25484 1.7441 9.26606 1.68619 9.26433C1.62827 9.26259 1.5713 9.24793 1.51877 9.22124C1.46624 9.19456 1.41927 9.15642 1.38074 9.10917L0.707733 8.45348C0.623611 8.37158 0.51314 8.32952 0.400623 8.33656C0.288106 8.34361 0.18276 8.39918 0.107759 8.49104C0.0327585 8.58291 -0.00575288 8.70356 0.000697133 8.82644C0.00714715 8.94931 0.0580302 9.06436 0.142152 9.14627L0.79775 9.78341C1.03539 10.043 1.35735 10.1895 1.69346 10.191C2.02958 10.1924 2.3526 10.0488 2.59215 9.79129H2.59045ZM10.191 9.26359C10.191 9.1406 10.1462 9.02266 10.0666 8.93569C9.98698 8.84873 9.87897 8.79988 9.76636 8.79988H5.52026C5.40765 8.79988 5.29965 8.84873 5.22002 8.93569C5.14039 9.02266 5.09565 9.1406 5.09565 9.26359C5.09565 9.38657 5.14039 9.50452 5.22002 9.59148C5.29965 9.67844 5.40765 9.7273 5.52026 9.7273H9.76636C9.87897 9.7273 9.98698 9.67844 10.0666 9.59148C10.1462 9.50452 10.191 9.38657 10.191 9.26359Z" fill="#445F72" fill-opacity="0.86"/>
</svg>
