<svg width="7" height="7" viewBox="0 0 7 7" fill="none" xmlns="http://www.w3.org/2000/svg">
<path d="M3.26111 4.61991C2.51106 4.61991 1.90232 4.01117 1.90232 3.26111C1.90232 2.51106 2.51106 1.90232 3.26111 1.90232C4.01117 1.90232 4.61991 2.51106 4.61991 3.26111C4.61991 4.01117 4.01117 4.61991 3.26111 4.61991ZM3.26111 2.44583C2.81271 2.44583 2.44583 2.81271 2.44583 3.26111C2.44583 3.70951 2.81271 4.07639 3.26111 4.07639C3.70951 4.07639 4.07639 3.70951 4.07639 3.26111C4.07639 2.81271 3.70951 2.44583 3.26111 2.44583ZM3.53287 1.08704V0.271759C3.53287 0.122292 3.41058 0 3.26111 0C3.11164 0 2.98935 0.122292 2.98935 0.271759V1.08704C2.98935 1.2365 3.11164 1.3588 3.26111 1.3588C3.41058 1.3588 3.53287 1.2365 3.53287 1.08704ZM3.53287 6.25046V5.43519C3.53287 5.28572 3.41058 5.16343 3.26111 5.16343C3.11164 5.16343 2.98935 5.28572 2.98935 5.43519V6.25046C2.98935 6.39993 3.11164 6.52222 3.26111 6.52222C3.41058 6.52222 3.53287 6.39993 3.53287 6.25046ZM1.3588 3.26111C1.3588 3.11164 1.2365 2.98935 1.08704 2.98935H0.271759C0.122292 2.98935 0 3.11164 0 3.26111C0 3.41058 0.122292 3.53287 0.271759 3.53287H1.08704C1.2365 3.53287 1.3588 3.41058 1.3588 3.26111ZM6.52222 3.26111C6.52222 3.11164 6.39993 2.98935 6.25046 2.98935H5.43519C5.28572 2.98935 5.16343 3.11164 5.16343 3.26111C5.16343 3.41058 5.28572 3.53287 5.43519 3.53287H6.25046C6.39993 3.53287 6.52222 3.41058 6.52222 3.26111ZM1.8235 1.8235C1.92949 1.71752 1.92949 1.54631 1.8235 1.44032L1.27999 0.896806C1.174 0.79082 1.00279 0.79082 0.896806 0.896806C0.79082 1.00279 0.79082 1.174 0.896806 1.27999L1.44032 1.8235C1.49468 1.87786 1.56262 1.90232 1.63327 1.90232C1.70393 1.90232 1.77187 1.87514 1.82622 1.8235H1.8235ZM5.62813 5.62813C5.73412 5.52215 5.73412 5.35094 5.62813 5.24495L5.08462 4.70144C4.97863 4.59545 4.80742 4.59545 4.70144 4.70144C4.59545 4.80742 4.59545 4.97863 4.70144 5.08462L5.24495 5.62813C5.29931 5.68249 5.36725 5.70694 5.4379 5.70694C5.50856 5.70694 5.5765 5.67977 5.63085 5.62813H5.62813ZM1.27999 5.62813L1.8235 5.08462C1.92949 4.97863 1.92949 4.80742 1.8235 4.70144C1.71752 4.59545 1.54631 4.59545 1.44032 4.70144L0.896806 5.24495C0.79082 5.35094 0.79082 5.52215 0.896806 5.62813C0.951157 5.68249 1.0191 5.70694 1.08975 5.70694C1.16041 5.70694 1.22835 5.67977 1.2827 5.62813H1.27999ZM5.08462 1.8235L5.62813 1.27999C5.73412 1.174 5.73412 1.00279 5.62813 0.896806C5.52215 0.79082 5.35094 0.79082 5.24495 0.896806L4.70144 1.44032C4.59545 1.54631 4.59545 1.71752 4.70144 1.8235C4.75579 1.87786 4.82373 1.90232 4.89438 1.90232C4.96504 1.90232 5.03298 1.87514 5.08733 1.8235H5.08462Z" fill="#445F72"/>
</svg>
