<svg width="25" height="15" viewBox="0 0 25 15" fill="none" xmlns="http://www.w3.org/2000/svg">
<g clip-path="url(#clip0_689_189)">
<path d="M0 7.41532L1.49855 8.51269C3.47058 6.70664 5.80357 5.31268 8.27251 4.604C8.71629 4.47756 9.15227 4.37609 9.58042 4.29804L9.7695 0.782715C6.31924 1.94408 2.85803 4.21531 0 7.41532Z" fill="#EC2227"/>
<path d="M11.2743 0.411724L11.0493 4.21115C13.3761 4.12686 15.3825 4.80901 16.8498 6.09057L20.6172 1.59651C18.0295 -0.0472047 14.709 -0.384376 11.2743 0.411724Z" fill="#F89520"/>
<path d="M21.7581 2.55078L17.6641 7.0745C18.6563 8.45441 19.1907 10.2386 19.1314 12.3163L24.8537 10.9348C25.0006 7.61304 23.988 4.61752 21.7581 2.55078Z" fill="#8EC641"/>
<path d="M14.4092 8.24384C14.2545 7.72871 13.9091 7.40559 13.4044 7.24169C11.6074 7.26042 9.73381 7.20423 7.98368 7.27135C7.78991 7.33223 7.50395 7.5211 7.43832 7.70062C7.41957 7.75213 7.36019 8.09242 7.4102 8.33125C7.45083 8.52638 7.7571 8.82452 7.89774 8.96189C9.45879 10.4682 11.0433 12.1041 12.5731 13.6323C12.8419 13.9008 13.1419 14.2286 13.4622 14.263C14.031 14.3223 14.2576 14.0101 14.3795 13.6901C14.4467 11.9324 14.3889 10.0515 14.4092 8.2454V8.24384Z" fill="#025C87"/>
</g>
<defs>
<clipPath id="clip0_689_189">
<rect width="24.866" height="14.2674" fill="white"/>
</clipPath>
</defs>
</svg>
