<svg width="11" height="11" viewBox="0 0 11 11" fill="none" xmlns="http://www.w3.org/2000/svg">
<path d="M9.76635 9.34172H1.27387C1.16125 9.34172 1.05325 9.29699 0.973617 9.21735C0.893984 9.13772 0.849247 9.02972 0.849247 8.9171V0.424624C0.849247 0.312007 0.80451 0.204002 0.724878 0.124369C0.645246 0.044737 0.537241 0 0.424624 0C0.312007 0 0.204002 0.044737 0.124369 0.124369C0.044737 0.204002 0 0.312007 0 0.424624V8.9171C0 9.25495 0.134211 9.57896 0.373108 9.81786C0.612005 10.0568 0.93602 10.191 1.27387 10.191H9.76635C9.87896 10.191 9.98697 10.1462 10.0666 10.0666C10.1462 9.98697 10.191 9.87896 10.191 9.76635C10.191 9.65373 10.1462 9.54572 10.0666 9.46609C9.98697 9.38646 9.87896 9.34172 9.76635 9.34172Z" fill="#3876F1"/>
<path d="M6.36936 8.49248C6.48197 8.49248 6.58998 8.44774 6.66961 8.36811C6.74924 8.28847 6.79398 8.18047 6.79398 8.06785V5.09549C6.79398 4.98287 6.74924 4.87486 6.66961 4.79523C6.58998 4.7156 6.48197 4.67086 6.36936 4.67086C6.25674 4.67086 6.14873 4.7156 6.0691 4.79523C5.98947 4.87486 5.94473 4.98287 5.94473 5.09549V8.06785C5.94473 8.18047 5.98947 8.28847 6.0691 8.36811C6.14873 8.44774 6.25674 8.49248 6.36936 8.49248Z" fill="#3876F1"/>
<path d="M2.97237 8.49248C3.08498 8.49248 3.19299 8.44774 3.27262 8.36811C3.35225 8.28847 3.39699 8.18047 3.39699 8.06785V5.09549C3.39699 4.98287 3.35225 4.87486 3.27262 4.79523C3.19299 4.7156 3.08498 4.67086 2.97237 4.67086C2.85975 4.67086 2.75174 4.7156 2.67211 4.79523C2.59248 4.87486 2.54774 4.98287 2.54774 5.09549V8.06785C2.54774 8.18047 2.59248 8.28847 2.67211 8.36811C2.75174 8.44774 2.85975 8.49248 2.97237 8.49248Z" fill="#3876F1"/>
<path d="M8.06785 8.49248C8.18047 8.49248 8.28847 8.44774 8.36811 8.36811C8.44774 8.28847 8.49248 8.18047 8.49248 8.06785V2.97237C8.49248 2.85975 8.44774 2.75174 8.36811 2.67211C8.28847 2.59248 8.18047 2.54774 8.06785 2.54774C7.95523 2.54774 7.84723 2.59248 7.7676 2.67211C7.68796 2.75174 7.64323 2.85975 7.64323 2.97237V8.06785C7.64323 8.18047 7.68796 8.28847 7.7676 8.36811C7.84723 8.44774 7.95523 8.49248 8.06785 8.49248Z" fill="#3876F1"/>
<path d="M4.67086 8.49248C4.78348 8.49248 4.89148 8.44774 4.97112 8.36811C5.05075 8.28847 5.09549 8.18047 5.09549 8.06785V2.97237C5.09549 2.85975 5.05075 2.75174 4.97112 2.67211C4.89148 2.59248 4.78348 2.54774 4.67086 2.54774C4.55824 2.54774 4.45024 2.59248 4.37061 2.67211C4.29097 2.75174 4.24624 2.85975 4.24624 2.97237V8.06785C4.24624 8.18047 4.29097 8.28847 4.37061 8.36811C4.45024 8.44774 4.55824 8.49248 4.67086 8.49248Z" fill="#3876F1"/>
</svg>
