<svg width="11" height="11" viewBox="0 0 11 11" fill="none" xmlns="http://www.w3.org/2000/svg">
<path d="M2.97237 1.51857e-07H1.6985C1.24803 1.51857e-07 0.816007 0.178948 0.497478 0.497478C0.178948 0.816007 1.51857e-07 1.24803 1.51857e-07 1.6985V2.97237C1.51857e-07 3.42284 0.178948 3.85485 0.497478 4.17338C0.816007 4.49191 1.24803 4.67086 1.6985 4.67086H2.97237C3.42284 4.67086 3.85485 4.49191 4.17338 4.17338C4.49191 3.85485 4.67086 3.42284 4.67086 2.97237V1.6985C4.67086 1.24803 4.49191 0.816007 4.17338 0.497478C3.85485 0.178948 3.42284 1.51857e-07 2.97237 1.51857e-07ZM3.82161 2.97237C3.82161 3.1976 3.73214 3.41361 3.57288 3.57288C3.41361 3.73214 3.1976 3.82161 2.97237 3.82161H1.6985C1.47326 3.82161 1.25725 3.73214 1.09799 3.57288C0.938722 3.41361 0.849248 3.1976 0.849248 2.97237V1.6985C0.849248 1.47326 0.938722 1.25725 1.09799 1.09799C1.25725 0.938722 1.47326 0.849248 1.6985 0.849248H2.97237C3.1976 0.849248 3.41361 0.938722 3.57288 1.09799C3.73214 1.25725 3.82161 1.47326 3.82161 1.6985V2.97237Z" fill="#445F72" fill-opacity="0.86"/>
<path d="M8.49248 0H7.2186C6.76814 0 6.33612 0.178948 6.01759 0.497478C5.69906 0.816007 5.52011 1.24803 5.52011 1.6985V2.97237C5.52011 3.42284 5.69906 3.85485 6.01759 4.17338C6.33612 4.49191 6.76814 4.67086 7.2186 4.67086H8.49248C8.94294 4.67086 9.37496 4.49191 9.69349 4.17338C10.012 3.85485 10.191 3.42284 10.191 2.97237V1.6985C10.191 1.24803 10.012 0.816007 9.69349 0.497478C9.37496 0.178948 8.94294 0 8.49248 0ZM9.34172 2.97237C9.34172 3.1976 9.25225 3.41361 9.09298 3.57288C8.93372 3.73214 8.71771 3.82161 8.49248 3.82161H7.2186C6.99337 3.82161 6.77736 3.73214 6.6181 3.57288C6.45883 3.41361 6.36936 3.1976 6.36936 2.97237V1.6985C6.36936 1.47326 6.45883 1.25725 6.6181 1.09799C6.77736 0.938722 6.99337 0.849248 7.2186 0.849248H8.49248C8.71771 0.849248 8.93372 0.938722 9.09298 1.09799C9.25225 1.25725 9.34172 1.47326 9.34172 1.6985V2.97237Z" fill="#445F72" fill-opacity="0.86"/>
<path d="M2.97237 5.52011H1.6985C1.24803 5.52011 0.816007 5.69906 0.497478 6.01759C0.178948 6.33612 0 6.76814 0 7.2186V8.49248C0 8.94294 0.178948 9.37496 0.497478 9.69349C0.816007 10.012 1.24803 10.191 1.6985 10.191H2.97237C3.42284 10.191 3.85485 10.012 4.17338 9.69349C4.49191 9.37496 4.67086 8.94294 4.67086 8.49248V7.2186C4.67086 6.76814 4.49191 6.33612 4.17338 6.01759C3.85485 5.69906 3.42284 5.52011 2.97237 5.52011ZM3.82161 8.49248C3.82161 8.71771 3.73214 8.93372 3.57288 9.09298C3.41361 9.25225 3.1976 9.34172 2.97237 9.34172H1.6985C1.47326 9.34172 1.25725 9.25225 1.09799 9.09298C0.938722 8.93372 0.849248 8.71771 0.849248 8.49248V7.2186C0.849248 6.99337 0.938722 6.77736 1.09799 6.6181C1.25725 6.45883 1.47326 6.36936 1.6985 6.36936H2.97237C3.1976 6.36936 3.41361 6.45883 3.57288 6.6181C3.73214 6.77736 3.82161 6.99337 3.82161 7.2186V8.49248Z" fill="#445F72" fill-opacity="0.86"/>
<path d="M8.49248 5.52011H7.2186C6.76814 5.52011 6.33612 5.69906 6.01759 6.01759C5.69906 6.33612 5.52011 6.76814 5.52011 7.2186V8.49248C5.52011 8.94294 5.69906 9.37496 6.01759 9.69349C6.33612 10.012 6.76814 10.191 7.2186 10.191H8.49248C8.94294 10.191 9.37496 10.012 9.69349 9.69349C10.012 9.37496 10.191 8.94294 10.191 8.49248V7.2186C10.191 6.76814 10.012 6.33612 9.69349 6.01759C9.37496 5.69906 8.94294 5.52011 8.49248 5.52011ZM9.34172 8.49248C9.34172 8.71771 9.25225 8.93372 9.09298 9.09298C8.93372 9.25225 8.71771 9.34172 8.49248 9.34172H7.2186C6.99337 9.34172 6.77736 9.25225 6.6181 9.09298C6.45883 8.93372 6.36936 8.71771 6.36936 8.49248V7.2186C6.36936 6.99337 6.45883 6.77736 6.6181 6.6181C6.77736 6.45883 6.99337 6.36936 7.2186 6.36936H8.49248C8.71771 6.36936 8.93372 6.45883 9.09298 6.6181C9.25225 6.77736 9.34172 6.99337 9.34172 7.2186V8.49248Z" fill="#445F72" fill-opacity="0.86"/>
</svg>
