<svg width="11" height="11" viewBox="0 0 11 11" fill="none" xmlns="http://www.w3.org/2000/svg">
<g clip-path="url(#clip0_689_199)">
<path d="M9.34172 2.43099V0.849693C9.34172 0.615301 9.15192 0.42507 8.9171 0.42507C8.68228 0.42507 8.49248 0.615301 8.49248 0.849693V1.85435L6.28316 0.363499C5.56172 -0.12312 4.62925 -0.12312 3.90781 0.363499L0.935446 2.36942C0.34989 2.76475 0 3.42249 0 4.12949V8.0683C0 9.23899 0.952431 10.1914 2.12312 10.1914H3.39699C3.63181 10.1914 3.82161 10.0012 3.82161 9.76679V6.3698C3.82161 6.13584 4.01185 5.94518 4.24624 5.94518H5.94473C6.17912 5.94518 6.36936 6.13584 6.36936 6.3698V9.76679C6.36936 10.0012 6.55916 10.1914 6.79398 10.1914H8.06785C9.23854 10.1914 10.191 9.23899 10.191 8.0683V4.12949C10.191 3.45816 9.87505 2.83099 9.34172 2.43099ZM9.34172 8.0683C9.34172 8.77063 8.77018 9.34217 8.06785 9.34217H7.2186V6.3698C7.2186 5.66748 6.64706 5.09593 5.94473 5.09593H4.24624C3.54391 5.09593 2.97237 5.66748 2.97237 6.3698V9.34217H2.12312C1.42079 9.34217 0.849248 8.77063 0.849248 8.0683V4.12949C0.849248 3.70529 1.05901 3.31039 1.4106 3.07345L4.38297 1.06753C4.81608 0.775384 5.37489 0.775384 5.80758 1.06753L8.77995 3.07345C9.13153 3.31039 9.3413 3.70529 9.3413 4.12949L9.34172 8.0683Z" fill="#445F72" fill-opacity="0.86"/>
</g>
<defs>
<clipPath id="clip0_689_199">
<rect width="10.191" height="10.191" fill="white"/>
</clipPath>
</defs>
</svg>
