<svg width="7" height="7" viewBox="0 0 7 7" fill="none" xmlns="http://www.w3.org/2000/svg">
<path d="M3.80071 2.22906C4.46949 2.89785 4.45835 3.9679 3.80071 4.61439C3.80071 4.62553 3.80071 4.62553 3.80071 4.62553L3.0539 5.37234C2.39627 6.02998 1.31507 6.02998 0.657433 5.37234C-0.000203465 4.71471 -0.000203465 3.63351 0.657433 2.97587L1.06985 2.56345C1.18131 2.45199 1.3708 2.53002 1.3708 2.68606C1.38195 2.87555 1.41539 3.07619 1.48226 3.26568C1.50456 3.33255 1.49341 3.41058 1.43768 3.45516L1.29278 3.60007C0.980678 3.91217 0.969531 4.4249 1.28163 4.737C1.59373 5.06024 2.10646 5.06024 2.41856 4.737L3.17651 3.99019C3.48861 3.67809 3.48861 3.17651 3.17651 2.85326C3.13193 2.81982 3.08734 2.78638 3.0539 2.76409C3.00932 2.73065 2.97588 2.68606 2.97588 2.61919C2.97588 2.50772 3.02046 2.38511 3.10964 2.2848L3.34371 2.05072C3.41059 1.99499 3.49976 1.98384 3.57778 2.03957C3.65581 2.09531 3.73383 2.16219 3.80071 2.22906ZM5.37235 0.657424C6.02999 1.31506 6.02999 2.39626 5.37235 3.0539L4.95993 3.46631C4.84847 3.57777 4.65898 3.49975 4.65898 3.3437C4.64784 3.15421 4.6144 2.95358 4.54752 2.76409C4.52523 2.69721 4.53637 2.61919 4.5921 2.5746L4.73701 2.4297C5.04911 2.1176 5.06025 1.60487 4.74815 1.29277C4.43605 0.969523 3.92332 0.969523 3.61122 1.29277L2.85327 2.03957C2.54117 2.35167 2.54117 2.85326 2.85327 3.17651C2.89785 3.20994 2.94244 3.24338 2.97588 3.26568C3.02046 3.29912 3.0539 3.3437 3.0539 3.41058C3.0539 3.52204 3.00932 3.64465 2.92015 3.74497L2.68607 3.97904C2.6192 4.03478 2.53002 4.04592 2.452 3.99019C2.37397 3.93446 2.29595 3.86758 2.22907 3.8007C1.56029 3.13192 1.57144 2.06187 2.22907 1.41538C2.22907 1.40423 2.22907 1.40423 2.22907 1.40423L2.97588 0.657424C3.63352 -0.000212038 4.71471 -0.000212038 5.37235 0.657424Z" fill="#445F72" fill-opacity="0.86"/>
</svg>
