<svg width="6" height="7" viewBox="0 0 6 7" fill="none" xmlns="http://www.w3.org/2000/svg">
<path d="M5.86161 3.71216L5.34527 1.85441C5.19393 1.31017 4.865 0.832133 4.41078 0.496289C3.95656 0.160444 3.40312 -0.0139348 2.83842 0.00087067C2.27372 0.0156761 1.73017 0.218816 1.29417 0.578001C0.858178 0.937186 0.554755 1.4318 0.432136 1.98323L0.0323779 3.78092C-0.0117788 3.97955 -0.0107578 4.18557 0.0353653 4.38376C0.0814885 4.58196 0.171536 4.76726 0.29886 4.92599C0.426184 5.08472 0.587533 5.21283 0.770995 5.30085C0.954458 5.38888 1.15535 5.43458 1.35883 5.43457H1.66157C1.72395 5.74174 1.89059 6.01789 2.13328 6.21625C2.37596 6.41461 2.67976 6.52297 2.9932 6.52297C3.30663 6.52297 3.61043 6.41461 3.85311 6.21625C4.0958 6.01789 4.26244 5.74174 4.32482 5.43457H4.55255C4.76202 5.43459 4.96867 5.38617 5.15633 5.2931C5.344 5.20004 5.50761 5.06484 5.63437 4.89808C5.76114 4.73132 5.84764 4.53751 5.88711 4.33178C5.92657 4.12606 5.91767 3.914 5.86161 3.71216ZM2.9932 5.97809C2.82518 5.97739 2.66148 5.9248 2.52449 5.82751C2.38751 5.73022 2.28393 5.59298 2.22792 5.43457H3.75847C3.70246 5.59298 3.59888 5.73022 3.4619 5.82751C3.32491 5.9248 3.16121 5.97739 2.9932 5.97809ZM5.20151 4.56902C5.12578 4.66948 5.02767 4.75089 4.91497 4.8068C4.80227 4.8627 4.67808 4.89155 4.55228 4.89105H1.35883C1.23676 4.89103 1.11624 4.86359 1.00618 4.81077C0.896127 4.75794 0.799338 4.68107 0.722962 4.58584C0.646586 4.4906 0.592572 4.37943 0.564907 4.26053C0.537242 4.14163 0.536633 4.01803 0.563124 3.89886L0.96261 2.1009C1.05891 1.66777 1.29723 1.27926 1.63969 0.997135C1.98214 0.715007 2.40908 0.555451 2.85263 0.543831C3.29619 0.532212 3.73089 0.669195 4.08765 0.933006C4.44441 1.19682 4.70275 1.57231 4.82159 1.9998L5.33793 3.85755C5.37205 3.97859 5.37749 4.10591 5.3538 4.22941C5.33012 4.35291 5.27798 4.46919 5.20151 4.56902Z" fill="#445F72" fill-opacity="0.86"/>
</svg>
