<svg width="14" height="14" viewBox="0 0 14 14" fill="none" xmlns="http://www.w3.org/2000/svg">
<g clip-path="url(#clip0_689_268)">
<path d="M6.82812 5.80957V9.07031H8.05078V9.68164H4.99316V9.07031H6.2168V6.4209H5.40137V5.80957H6.82812ZM6.52246 3.36328C6.65749 3.36336 6.78733 3.41721 6.88281 3.5127C6.97829 3.60822 7.03122 3.73799 7.03125 3.87305C7.03125 3.97374 7.00218 4.0725 6.94629 4.15625C6.8903 4.24004 6.8099 4.30518 6.7168 4.34375C6.62379 4.38222 6.52157 4.39266 6.42285 4.37305C6.32405 4.35339 6.23336 4.30461 6.16211 4.2334C6.09087 4.16216 6.04213 4.07147 6.02246 3.97266C6.0028 3.87381 6.01319 3.77084 6.05176 3.67773C6.09035 3.58485 6.15562 3.50511 6.23926 3.44922C6.323 3.39334 6.42179 3.36328 6.52246 3.36328Z" fill="#696D70" stroke="#696D70" stroke-width="0.203819"/>
<path d="M5.42773 1.02539C6.51487 0.809146 7.64193 0.919647 8.66602 1.34375C9.69012 1.76795 10.5658 2.48656 11.1816 3.4082C11.7975 4.32995 12.126 5.41389 12.126 6.52246C12.126 8.00898 11.5355 9.43422 10.4844 10.4854C9.43325 11.5365 8.008 12.1269 6.52148 12.127C5.41291 12.127 4.32897 11.7985 3.40723 11.1826C2.48558 10.5667 1.76697 9.6911 1.34277 8.66699C0.918671 7.64291 0.808169 6.51585 1.02441 5.42871C1.24072 4.34153 1.7738 3.34241 2.55762 2.55859C3.34144 1.77477 4.34056 1.24169 5.42773 1.02539ZM6.52148 1.52832C5.53388 1.52832 4.56824 1.82145 3.74707 2.37012C2.92593 2.91878 2.28616 3.69894 1.9082 4.61133C1.53031 5.52365 1.43146 6.52756 1.62402 7.49609C1.8167 8.46475 2.29187 9.35535 2.99023 10.0537C3.68851 10.7519 4.57838 11.2272 5.54688 11.4199C6.51553 11.6126 7.52016 11.5137 8.43262 11.1357C9.34496 10.7578 10.1252 10.118 10.6738 9.29688C11.2225 8.47572 11.5146 7.51005 11.5146 6.52246C11.5146 5.19812 10.9892 3.92768 10.0527 2.99121C9.11628 2.05475 7.84583 1.52834 6.52148 1.52832Z" fill="#696D70" stroke="#696D70" stroke-width="0.203819"/>
</g>
<defs>
<clipPath id="clip0_689_268">
<rect width="13.0444" height="13.0444" fill="white"/>
</clipPath>
</defs>
</svg>
