<svg width="11" height="11" viewBox="0 0 11 11" fill="none" xmlns="http://www.w3.org/2000/svg">
<path d="M1.54232 10.2038C1.52872 10.2038 1.51554 10.2038 1.50193 10.2038C1.06743 10.1924 0.66736 10.0074 0.375706 9.68344C-0.163813 9.0844 -0.116196 8.07467 0.479443 7.47903L2.97424 4.98466C3.0818 4.87667 3.12049 4.71639 3.0767 4.55568C2.9245 3.99533 2.90962 3.41797 3.03333 2.83977C3.33434 1.43039 4.49203 0.31266 5.91459 0.0584188C6.3423 -0.0181086 6.77128 -0.0198092 7.1909 0.0554428C7.50169 0.110287 7.74317 0.321163 7.83713 0.61877C7.94385 0.958467 7.83586 1.33345 7.54718 1.6217L6.59186 2.56427C6.31211 2.84402 6.2696 3.28278 6.49748 3.56125C6.62842 3.72196 6.81294 3.81549 7.01701 3.8257C7.21769 3.8342 7.41496 3.7598 7.55738 3.6178L8.65428 2.53366C8.88343 2.3045 9.22058 2.22117 9.53434 2.32066C9.84173 2.41716 10.0675 2.67268 10.1232 2.98687C10.1976 3.40649 10.1963 3.83632 10.1202 4.2636C9.86511 5.68659 8.74738 6.84428 7.338 7.14486C6.75852 7.26858 6.18116 7.2537 5.62209 7.10107C5.46181 7.05685 5.30152 7.09597 5.19353 7.20353L2.65282 9.74382C2.35947 10.0372 1.95685 10.2038 1.54232 10.2038ZM6.61099 0.847502C6.43158 0.847502 6.24791 0.862382 6.06425 0.895119C4.97841 1.08941 4.09409 1.94227 3.86451 3.01705C3.76927 3.46134 3.78033 3.90392 3.89682 4.33205C4.02011 4.78356 3.89682 5.26356 3.5754 5.5854L1.08061 8.07977C0.80426 8.35612 0.769397 8.8493 1.00791 9.11417C1.14183 9.26297 1.3255 9.348 1.52447 9.3531C1.72046 9.36118 1.91093 9.2838 2.05208 9.14308L4.59237 6.60279C4.91336 6.2818 5.39378 6.15766 5.84572 6.28095C6.27257 6.39744 6.71516 6.4085 7.16072 6.31326C8.2355 6.08411 9.08836 5.20021 9.28308 4.11352C9.34175 3.78531 9.3426 3.45581 9.28563 3.13525V3.13227L8.15685 4.22024C7.84691 4.53017 7.41538 4.70321 6.9745 4.6743C6.53404 4.65219 6.12037 4.44259 5.83977 4.09907C5.33851 3.48727 5.40568 2.54769 5.99325 1.96055L6.94856 1.01799C7.02467 0.941461 7.02977 0.88449 7.02679 0.873011C6.89287 0.85643 6.75342 0.846652 6.61184 0.846652L6.61099 0.847502Z" fill="#445F72" fill-opacity="0.86"/>
</svg>
