<svg width="7" height="7" viewBox="0 0 7 7" fill="none" xmlns="http://www.w3.org/2000/svg">
<path d="M6.52222 2.71705V4.3476C6.52222 5.09684 5.91267 5.7064 5.16343 5.7064H3.53287V5.97816H4.34815C4.49843 5.97816 4.61991 6.09964 4.61991 6.24992C4.61991 6.4002 4.49843 6.52168 4.34815 6.52168H2.17407C2.02379 6.52168 1.90232 6.4002 1.90232 6.24992C1.90232 6.09964 2.02379 5.97816 2.17407 5.97816H2.98935V5.7064H1.3588C0.609556 5.7064 0 5.09684 0 4.3476V2.71705C0 2.09662 0.419053 1.55555 1.01937 1.40119C1.16367 1.36477 1.31287 1.45119 1.35037 1.59659C1.38787 1.74198 1.3001 1.89009 1.15471 1.92732C0.794896 2.01999 0.543519 2.34474 0.543519 2.71705V4.3476C0.543519 4.79709 0.909307 5.16288 1.3588 5.16288H5.16343C5.61292 5.16288 5.9787 4.79709 5.9787 4.3476V2.71705C5.9787 2.34474 5.72733 2.01999 5.36752 1.92732C5.22213 1.89009 5.13462 1.7417 5.17185 1.59659C5.20935 1.45119 5.35909 1.3645 5.50285 1.40119C6.10317 1.55555 6.52222 2.09662 6.52222 2.71705ZM1.71317 2.48171L1.97216 2.33224C1.92677 2.1969 1.90232 2.05233 1.90232 1.90204C1.90232 1.75176 1.92705 1.60691 1.97216 1.47185L1.71317 1.32238C1.583 1.24738 1.53843 1.08106 1.61371 0.951157C1.68871 0.820985 1.85503 0.776416 1.98493 0.851693L2.24473 1.0017C2.43659 0.785656 2.69585 0.630753 2.98935 0.570966V0.271759C2.98935 0.121748 3.11083 0 3.26111 0C3.41139 0 3.53287 0.121748 3.53287 0.271759V0.570966C3.82637 0.630753 4.0859 0.785656 4.27749 1.0017L4.53729 0.851693C4.66665 0.776416 4.83324 0.820985 4.90852 0.951157C4.98352 1.08133 4.93895 1.24738 4.80905 1.32238L4.55007 1.47185C4.59545 1.60718 4.61991 1.75176 4.61991 1.90204C4.61991 2.05233 4.59518 2.19717 4.55007 2.33224L4.80905 2.48171C4.93922 2.55671 4.98379 2.72303 4.90852 2.85293C4.85797 2.94016 4.76693 2.98881 4.6729 2.98881C4.6267 2.98881 4.57996 2.97712 4.53729 2.95239L4.27749 2.80238C4.08563 3.01843 3.82637 3.17333 3.53287 3.23312V3.53233C3.53287 3.68261 3.41139 3.80409 3.26111 3.80409C3.11083 3.80409 2.98935 3.68261 2.98935 3.53233V3.23312C2.69585 3.17333 2.43632 3.01843 2.24473 2.80238L1.98493 2.95239C1.94226 2.97712 1.89552 2.98881 1.84932 2.98881C1.75529 2.98881 1.66398 2.94016 1.61371 2.85293C1.5387 2.72276 1.58327 2.55671 1.71317 2.48171ZM2.44583 1.90177C2.44583 2.35126 2.81162 2.71705 3.26111 2.71705C3.7106 2.71705 4.07639 2.35126 4.07639 1.90177C4.07639 1.45228 3.7106 1.08649 3.26111 1.08649C2.81162 1.08649 2.44583 1.45228 2.44583 1.90177Z" fill="#445F72"/>
<path d="M3.26111 2.30941C3.48613 2.30941 3.66875 2.12679 3.66875 1.90177C3.66875 1.67675 3.48613 1.49413 3.26111 1.49413C3.03609 1.49413 2.85347 1.67675 2.85347 1.90177C2.85347 2.12679 3.03609 2.30941 3.26111 2.30941Z" fill="#445F72"/>
</svg>
