<svg width="34" height="34" viewBox="0 0 34 34" fill="none" xmlns="http://www.w3.org/2000/svg">
<path d="M29.7498 29.7498L23.5972 23.5972M23.5972 23.5972C24.6496 22.5448 25.4845 21.2954 26.054 19.9203C26.6236 18.5453 26.9168 17.0715 26.9168 15.5831C26.9168 14.0948 26.6236 12.621 26.054 11.2459C25.4845 9.87089 24.6496 8.62148 23.5972 7.56905C22.5448 6.51663 21.2954 5.6818 19.9203 5.11223C18.5453 4.54266 17.0715 4.24951 15.5831 4.24951C14.0948 4.24951 12.621 4.54266 11.2459 5.11223C9.87089 5.6818 8.62148 6.51663 7.56905 7.56905C5.44359 9.69452 4.24951 12.5773 4.24951 15.5831C4.24951 18.589 5.44359 21.4718 7.56905 23.5972C9.69452 25.7227 12.5773 26.9168 15.5831 26.9168C18.589 26.9168 21.4718 25.7227 23.5972 23.5972Z" stroke="#2563EB" stroke-width="2" stroke-linecap="round" stroke-linejoin="round"/>
</svg>
