<svg width="34" height="34" viewBox="0 0 34 34" fill="none" xmlns="http://www.w3.org/2000/svg">
<path d="M28.5768 9.56229H25.9404L19.4719 16.028C19.6947 16.5957 19.7152 17.2229 19.53 17.804C19.3447 18.3852 18.965 18.8848 18.4547 19.2189C17.9444 19.5529 17.3346 19.7011 16.7279 19.6385C16.1212 19.5759 15.5546 19.3062 15.1233 18.8749C14.692 18.4437 14.4224 17.877 14.3597 17.2703C14.2971 16.6636 14.4453 16.0538 14.7794 15.5435C15.1135 15.0332 15.6131 14.6535 16.1942 14.4683C16.7753 14.283 17.4025 14.3035 17.9703 14.5263L24.4373 8.05921V5.4228C24.4375 5.07001 24.5776 4.7317 24.8269 4.48213L27.2778 2.0313C27.3231 1.98565 27.3801 1.95322 27.4425 1.93749C27.5049 1.92177 27.5704 1.92334 27.6319 1.94205C27.758 1.97888 27.8515 2.08371 27.877 2.21263L28.5287 5.47238L31.787 6.12404C31.9145 6.14954 32.0193 6.24304 32.0562 6.36913C32.0748 6.43038 32.0764 6.49552 32.061 6.55763C32.0455 6.61974 32.0135 6.67651 31.9683 6.72188L29.5161 9.17271C29.2669 9.4217 28.9291 9.56178 28.5768 9.56229Z" fill="#2563EB"/>
<path d="M3.71875 17C3.71875 20.5224 5.11802 23.9006 7.60874 26.3913C10.0995 28.882 13.4776 30.2813 17 30.2813C18.7441 30.2813 20.4712 29.9377 22.0825 29.2703C23.6939 28.6028 25.158 27.6245 26.3913 26.3913C27.6245 25.158 28.6028 23.6939 29.2703 22.0825C29.9377 20.4712 30.2812 18.7441 30.2812 17C30.2812 15.7278 30.1027 14.4982 29.7698 13.3351C29.7037 13.068 29.7437 12.7857 29.8814 12.5476C30.0192 12.3094 30.2439 12.134 30.5084 12.0582C30.7729 11.9824 31.0565 12.0121 31.2995 12.1411C31.5425 12.2702 31.7259 12.4884 31.8112 12.75C32.1994 14.1015 32.4062 15.5267 32.4062 17C32.4062 25.5085 25.5085 32.4063 17 32.4063C8.4915 32.4063 1.59375 25.5085 1.59375 17C1.59375 8.49151 8.4915 1.59376 17 1.59376C18.4379 1.59234 19.8673 1.79209 21.25 2.18734C21.3848 2.22516 21.5108 2.28925 21.6208 2.37593C21.7307 2.46261 21.8225 2.57017 21.8907 2.69242C21.959 2.81468 22.0024 2.94922 22.0185 3.08831C22.0346 3.2274 22.023 3.36829 21.9845 3.5029C21.9459 3.63751 21.8811 3.76316 21.7939 3.87265C21.7066 3.98214 21.5985 4.07329 21.4759 4.14088C21.3533 4.20846 21.2185 4.25115 21.0793 4.26647C20.9401 4.2818 20.7993 4.26946 20.6649 4.23017C19.473 3.88997 18.2395 3.71784 17 3.71876C13.4776 3.71876 10.0995 5.11803 7.60874 7.60875C5.11802 10.0995 3.71875 13.4776 3.71875 17Z" fill="#2563EB"/>
<path d="M10.094 17.0002C10.0979 17.9385 10.2931 18.8661 10.6675 19.7265C11.0419 20.5868 11.5878 21.3618 12.2717 22.0042C12.9557 22.6466 13.7634 23.1428 14.6455 23.4626C15.5276 23.7823 16.4657 23.919 17.4024 23.8641C18.3391 23.8093 19.2547 23.5641 20.0935 23.1435C20.9323 22.723 21.6766 22.1359 22.2809 21.4181C22.8852 20.7003 23.3368 19.8669 23.6083 18.9687C23.8797 18.0705 23.9653 17.1264 23.8597 16.1941C23.83 16.0053 23.8518 15.8119 23.923 15.6345C23.9942 15.4571 24.1121 15.3023 24.2641 15.1864C24.4161 15.0705 24.5967 14.998 24.7866 14.9763C24.9765 14.9547 25.1688 14.9849 25.343 15.0636C25.6985 15.2223 25.938 15.5609 25.9691 15.949C26.1891 17.8123 25.8231 19.6978 24.922 21.3435C24.021 22.9891 22.6296 24.3132 20.9413 25.1317C19.253 25.9501 17.3517 26.2222 15.5016 25.9102C13.6516 25.5982 11.9446 24.7176 10.6181 23.3908C9.29197 22.0654 8.41113 20.3602 8.09777 18.5116C7.7844 16.663 8.05403 14.7628 8.86928 13.0744C9.68452 11.386 11.005 9.9931 12.6475 9.08894C14.29 8.18478 16.1731 7.81414 18.0358 8.02844C18.1766 8.04151 18.3134 8.08255 18.4381 8.14916C18.5629 8.21578 18.6731 8.30662 18.7622 8.41638C18.8514 8.52613 18.9178 8.65258 18.9575 8.78831C18.9971 8.92405 19.0093 9.06634 18.9933 9.20684C18.9772 9.34734 18.9333 9.48323 18.8641 9.60654C18.7949 9.72985 18.7017 9.8381 18.5901 9.92495C18.4785 10.0118 18.3507 10.0755 18.2141 10.1123C18.0776 10.1491 17.9351 10.1583 17.795 10.1393C16.8274 10.0274 15.8471 10.1214 14.9185 10.4152C13.9899 10.7089 13.1338 11.1957 12.4066 11.8436C11.6794 12.4915 11.0974 13.2858 10.6988 14.1746C10.3002 15.0633 10.0941 16.0262 10.094 17.0002Z" fill="#2563EB"/>
</svg>
