<svg width="20" height="20" viewBox="0 0 20 20" fill="none" xmlns="http://www.w3.org/2000/svg">
<path d="M15.8332 3.33341H14.1665V2.50008C14.1665 2.27907 14.0787 2.06711 13.9224 1.91083C13.7661 1.75455 13.5542 1.66675 13.3332 1.66675C13.1122 1.66675 12.9002 1.75455 12.7439 1.91083C12.5876 2.06711 12.4998 2.27907 12.4998 2.50008V3.33341H7.49984V2.50008C7.49984 2.27907 7.41204 2.06711 7.25576 1.91083C7.09948 1.75455 6.88752 1.66675 6.6665 1.66675C6.44549 1.66675 6.23353 1.75455 6.07725 1.91083C5.92097 2.06711 5.83317 2.27907 5.83317 2.50008V3.33341H4.1665C3.50346 3.33341 2.86758 3.59681 2.39874 4.06565C1.9299 4.53449 1.6665 5.17037 1.6665 5.83341V15.8334C1.6665 16.4965 1.9299 17.1323 2.39874 17.6012C2.86758 18.07 3.50346 18.3334 4.1665 18.3334H15.8332C16.4962 18.3334 17.1321 18.07 17.6009 17.6012C18.0698 17.1323 18.3332 16.4965 18.3332 15.8334V5.83341C18.3332 5.17037 18.0698 4.53449 17.6009 4.06565C17.1321 3.59681 16.4962 3.33341 15.8332 3.33341ZM16.6665 15.8334C16.6665 16.0544 16.5787 16.2664 16.4224 16.4227C16.2661 16.579 16.0542 16.6667 15.8332 16.6667H4.1665C3.94549 16.6667 3.73353 16.579 3.57725 16.4227C3.42097 16.2664 3.33317 16.0544 3.33317 15.8334V10.0001H16.6665V15.8334ZM16.6665 8.33341H3.33317V5.83341C3.33317 5.6124 3.42097 5.40044 3.57725 5.24416C3.73353 5.08788 3.94549 5.00008 4.1665 5.00008H5.83317V5.83341C5.83317 6.05443 5.92097 6.26639 6.07725 6.42267C6.23353 6.57895 6.44549 6.66675 6.6665 6.66675C6.88752 6.66675 7.09948 6.57895 7.25576 6.42267C7.41204 6.26639 7.49984 6.05443 7.49984 5.83341V5.00008H12.4998V5.83341C12.4998 6.05443 12.5876 6.26639 12.7439 6.42267C12.9002 6.57895 13.1122 6.66675 13.3332 6.66675C13.5542 6.66675 13.7661 6.57895 13.9224 6.42267C14.0787 6.26639 14.1665 6.05443 14.1665 5.83341V5.00008H15.8332C16.0542 5.00008 16.2661 5.08788 16.4224 5.24416C16.5787 5.40044 16.6665 5.6124 16.6665 5.83341V8.33341Z" fill="#585858"/>
</svg>
