<svg width="14" height="14" viewBox="0 0 14 14" fill="none" xmlns="http://www.w3.org/2000/svg">
<path d="M9.32372 2.33081H4.66201C4.01836 2.33081 3.49658 2.85259 3.49658 3.49624V11.0715C3.49658 11.7152 4.01836 12.2369 4.66201 12.2369H9.32372C9.96737 12.2369 10.4891 11.7152 10.4891 11.0715V3.49624C10.4891 2.85259 9.96737 2.33081 9.32372 2.33081Z" stroke="#2563EB" stroke-width="1.16543"/>
<path d="M8.1582 1.16553H5.82734C5.50552 1.16553 5.24463 1.42642 5.24463 1.74824V2.33095C5.24463 2.65278 5.50552 2.91367 5.82734 2.91367H8.1582C8.48002 2.91367 8.74091 2.65278 8.74091 2.33095V1.74824C8.74091 1.42642 8.48002 1.16553 8.1582 1.16553Z" fill="#2563EB"/>
<path d="M5.24463 6.99258L6.41006 8.158L8.74091 5.82715" stroke="#2563EB" stroke-width="1.16543" stroke-linecap="round" stroke-linejoin="round"/>
</svg>
