<svg width="200" height="24" viewBox="0 0 200 24" fill="none" xmlns="http://www.w3.org/2000/svg">
<path d="M14.1989 15.2414C13.1421 15.2414 12.3165 14.6113 12.153 13.686H13.174C13.3016 14.1207 13.7124 14.4079 14.2149 14.4079C15.0643 14.4079 15.5748 13.6103 15.5588 12.2184C15.5588 12.2184 15.5548 12.2184 15.5509 12.2184H15.5469H15.5429C15.3196 12.7808 14.7293 13.1596 13.9836 13.1596C12.8908 13.1596 12.0733 12.35 12.0733 11.2573C12.0733 10.0928 12.9786 9.25132 14.2228 9.25132C15.0683 9.25132 15.7543 9.65811 16.1371 10.3919C16.4083 10.8625 16.5479 11.4647 16.5479 12.1825C16.5479 14.1008 15.6745 15.2414 14.1989 15.2414ZM14.2268 12.354C14.8849 12.354 15.3834 11.8755 15.3834 11.2414C15.3834 10.5993 14.8809 10.0968 14.2348 10.0968C13.5927 10.0968 13.0862 10.5953 13.0862 11.2254C13.0862 11.8755 13.5728 12.354 14.2268 12.354ZM18.0936 14.2843C17.7706 14.2843 17.5194 14.033 17.5194 13.71C17.5194 13.3909 17.7706 13.1357 18.0936 13.1357C18.4127 13.1357 18.6639 13.3909 18.6639 13.71C18.6639 14.033 18.4127 14.2843 18.0936 14.2843ZM18.0936 11.4049C17.7706 11.4049 17.5194 11.1496 17.5194 10.8306C17.5194 10.5116 17.7706 10.2563 18.0936 10.2563C18.4127 10.2563 18.6639 10.5116 18.6639 10.8306C18.6639 11.1496 18.4127 11.4049 18.0936 11.4049ZM22.463 15.1257V14.037H19.5916V13.1516C20.0901 12.2105 20.7321 11.1855 21.9804 9.37097H23.444V13.1955H24.2177V14.037H23.444V15.1257H22.463ZM20.5248 13.1915V13.2194H22.4789V10.1327H22.463C21.5337 11.4806 20.9834 12.3301 20.5248 13.1915ZM26.4215 15.1257V10.352H26.3976L24.91 11.3969V10.4278L26.4135 9.37097H27.4305V15.1257H26.4215Z" fill="white"/>
<path d="M152.013 12.5068C152.295 12.5071 152.523 12.735 152.523 13.0166V14.0381C152.523 14.3198 152.295 14.5486 152.013 14.5488H151.502C151.221 14.5488 150.992 14.3199 150.992 14.0381V13.0166C150.992 12.7349 151.221 12.5068 151.502 12.5068H152.013ZM154.565 11.4854C154.847 11.4854 155.076 11.7142 155.076 11.9961V14.0381C155.076 14.3199 154.847 14.5488 154.565 14.5488H154.054C153.773 14.5486 153.545 14.3198 153.544 14.0381V11.9961C153.544 11.7143 153.772 11.4856 154.054 11.4854H154.565ZM157.118 10.4648C157.4 10.4648 157.628 10.6844 157.628 10.9551V14.0586C157.628 14.3291 157.4 14.5488 157.118 14.5488H156.608C156.326 14.5488 156.097 14.3291 156.097 14.0586V10.9551C156.097 10.6844 156.326 10.4648 156.608 10.4648H157.118ZM159.67 9.44336C159.952 9.44343 160.181 9.65769 160.181 9.92188V14.0693C160.181 14.3336 159.952 14.5478 159.67 14.5479H159.16C158.878 14.5478 158.649 14.3336 158.649 14.0693V9.92188C158.649 9.65768 158.878 9.44343 159.16 9.44336H159.67Z" fill="white"/>
<path d="M165.504 13.485C166.155 12.9344 167.109 12.9345 167.76 13.485C167.792 13.5146 167.811 13.5563 167.813 13.6003C167.813 13.6444 167.796 13.6875 167.765 13.7184L166.745 14.7477C166.715 14.7777 166.674 14.7946 166.632 14.7946C166.59 14.7945 166.549 14.7776 166.52 14.7477L165.499 13.7184C165.468 13.6875 165.45 13.6444 165.451 13.6003C165.452 13.5563 165.471 13.5145 165.504 13.485ZM164.144 12.113C165.546 10.808 167.719 10.808 169.122 12.113C169.154 12.1435 169.171 12.1853 169.172 12.2292C169.172 12.2732 169.155 12.3161 169.124 12.3473L168.535 12.9421C168.474 13.0029 168.376 13.0042 168.313 12.945C167.853 12.528 167.253 12.2975 166.632 12.2975C166.011 12.2978 165.412 12.5284 164.952 12.945C164.89 13.0042 164.791 13.0029 164.73 12.9421L164.142 12.3473C164.11 12.3161 164.093 12.2732 164.094 12.2292C164.094 12.1852 164.112 12.1435 164.144 12.113ZM162.782 10.7438C164.934 8.68175 168.329 8.68175 170.48 10.7438C170.512 10.7744 170.529 10.8163 170.529 10.86C170.529 10.9035 170.513 10.9453 170.482 10.9762L169.892 11.5719C169.831 11.6329 169.733 11.6338 169.671 11.5739C168.851 10.7945 167.763 10.3601 166.632 10.36C165.501 10.36 164.413 10.7945 163.593 11.5739C163.531 11.6342 163.432 11.6331 163.371 11.5719L162.781 10.9762C162.751 10.9453 162.733 10.9036 162.733 10.86C162.734 10.8165 162.751 10.7744 162.782 10.7438Z" fill="white"/>
<path opacity="0.35" d="M174.443 8.93286H184.482C185.093 8.93286 185.588 9.42847 185.588 10.0393V13.9524C185.588 14.5632 185.093 15.0588 184.482 15.0588H174.443C173.832 15.0588 173.336 14.5632 173.336 13.9524V10.0393C173.336 9.42847 173.832 8.93286 174.443 8.93286Z" stroke="white" stroke-width="0.510471"/>
<path opacity="0.4" d="M186.175 11.2305V13.2724C186.586 13.0994 186.853 12.6971 186.853 12.2514C186.853 11.8057 186.586 11.4034 186.175 11.2305" fill="white"/>
<path d="M174.255 10.5498C174.255 10.1739 174.56 9.86914 174.936 9.86914H183.886C184.262 9.86914 184.567 10.1739 184.567 10.5498V13.4407C184.567 13.8166 184.262 14.1214 183.886 14.1214H174.936C174.56 14.1214 174.255 13.8166 174.255 13.4407V10.5498Z" fill="white"/>
</svg>
