<svg width="64" height="64" viewBox="0 0 64 64" fill="none" xmlns="http://www.w3.org/2000/svg">
<path d="M33 33C32.448 33 32 32.552 32 32V28C32 27.448 32.448 27 33 27C33.552 27 34 27.448 34 28V32C34 32.552 33.552 33 33 33Z" fill="white"/>
<path d="M33 23C32.448 23 32 22.552 32 22V12C32 11.448 32.448 11 33 11C33.552 11 34 11.448 34 12V22C34 22.552 33.552 23 33 23Z" fill="white"/>
<path d="M3 33C2.448 33 2 32.552 2 32V28C2 27.448 2.448 27 3 27C3.552 27 4 27.448 4 28V32C4 32.552 3.552 33 3 33Z" fill="white"/>
<path d="M18 58C10.048 58 2 55.94 2 52V48C2 47.448 2.448 47 3 47C3.552 47 4 47.448 4 48V52C4 53.63 9.454 56 18 56C26.546 56 32 53.63 32 52V48C32 47.448 32.448 47 33 47C33.552 47 34 47.448 34 48V52C34 55.94 25.952 58 18 58Z" fill="white"/>
<path d="M18 48C10.048 48 2 45.94 2 42V38C2 37.448 2.448 37 3 37C3.552 37 4 37.448 4 38V42C4 43.63 9.454 46 18 46C26.546 46 32 43.63 32 42V38C32 37.448 32.448 37 33 37C33.552 37 34 37.448 34 38V42C34 45.94 25.952 48 18 48Z" fill="white"/>
<path d="M18 38C10.048 38 2 35.94 2 32C2 31.448 2.448 31 3 31C3.552 31 4 31.448 4 32C4 33.63 9.454 36 18 36C26.546 36 32 33.63 32 32C32 31.448 32.448 31 33 31C33.552 31 34 31.448 34 32C34 35.94 25.952 38 18 38Z" fill="white"/>
<path d="M18 28C10.048 28 2 25.94 2 22C2 21.448 2.448 21 3 21C3.552 21 4 21.448 4 22C4 23.63 9.454 26 18 26C26.546 26 32 23.63 32 22C32 21.448 32.448 21 33 21C33.552 21 34 21.448 34 22C34 25.94 25.952 28 18 28Z" fill="white"/>
<path d="M18 18C13.666 18 9.64 17.41 6.666 16.342C6.146 16.154 5.876 15.582 6.062 15.062C6.25 14.542 6.828 14.278 7.342 14.458C10.066 15.438 13.952 16 18 16C26.546 16 32 13.63 32 12C32 10.37 26.546 8 18 8C9.454 8 4 10.37 4 12C4 12.552 3.552 13 3 13C2.448 13 2 12.552 2 12C2 8.06 10.048 6 18 6C25.952 6 34 8.06 34 12C34 15.94 25.952 18 18 18Z" fill="white"/>
<path d="M3 23C2.448 23 2 22.552 2 22V12C2 11.448 2.448 11 3 11C3.552 11 4 11.448 4 12V22C4 22.552 3.552 23 3 23Z" fill="white"/>
<path d="M41 28H37C36.448 28 36 27.552 36 27C36 26.448 36.448 26 37 26H40.586L46.294 20.292C46.48 20.106 46.734 20 47 20H50C50.552 20 51 20.448 51 21C51 21.552 50.552 22 50 22H47.414L41.706 27.708C41.52 27.894 41.266 28 41 28Z" fill="white"/>
<path d="M44 32H37C36.448 32 36 31.552 36 31C36 30.448 36.448 30 37 30H43.586L47.294 26.292C47.48 26.106 47.734 26 48 26H57C57.552 26 58 26.448 58 27C58 27.552 57.552 28 57 28H48.414L44.706 31.708C44.52 31.894 44.266 32 44 32Z" fill="white"/>
<path d="M50 48H47C46.734 48 46.48 47.894 46.292 47.708L40.586 42H37C36.448 42 36 41.552 36 41C36 40.448 36.448 40 37 40H41C41.266 40 41.52 40.106 41.708 40.292L47.414 46H50C50.552 46 51 46.448 51 47C51 47.552 50.552 48 50 48Z" fill="white"/>
<path d="M57 42H48C47.734 42 47.48 41.894 47.292 41.708L43.586 38H37C36.448 38 36 37.552 36 37C36 36.448 36.448 36 37 36H44C44.266 36 44.52 36.106 44.708 36.292L48.414 40H57C57.552 40 58 40.448 58 41C58 41.552 57.552 42 57 42Z" fill="white"/>
<path d="M53 24C51.346 24 50 22.654 50 21C50 19.346 51.346 18 53 18C54.654 18 56 19.346 56 21C56 22.654 54.654 24 53 24ZM53 20C52.45 20 52 20.45 52 21C52 21.55 52.45 22 53 22C53.55 22 54 21.55 54 21C54 20.45 53.55 20 53 20Z" fill="white"/>
<path d="M53 50C51.346 50 50 48.654 50 47C50 45.346 51.346 44 53 44C54.654 44 56 45.346 56 47C56 48.654 54.654 50 53 50ZM53 46C52.45 46 52 46.45 52 47C52 47.55 52.45 48 53 48C53.55 48 54 47.55 54 47C54 46.45 53.55 46 53 46Z" fill="white"/>
<path d="M59 44C57.346 44 56 42.654 56 41C56 39.346 57.346 38 59 38C60.654 38 62 39.346 62 41C62 42.654 60.654 44 59 44ZM59 40C58.45 40 58 40.45 58 41C58 41.55 58.45 42 59 42C59.55 42 60 41.55 60 41C60 40.45 59.55 40 59 40Z" fill="white"/>
<path d="M59 30C57.346 30 56 28.654 56 27C56 26.448 56.448 26 57 26C57.552 26 58 26.448 58 27C58 27.55 58.45 28 59 28C59.55 28 60 27.55 60 27C60 26.45 59.55 26 59 26C58.448 26 58 25.552 58 25C58 24.448 58.448 24 59 24C60.654 24 62 25.346 62 27C62 28.654 60.654 30 59 30Z" fill="white"/>
<path d="M47 55.9995C46.74 55.9995 46.48 55.8995 46.298 55.7175C46.1 55.5195 46 55.2595 46 54.9995C46 54.7175 46.12 54.4575 46.298 54.2795C46.66 53.9395 47.34 53.9195 47.698 54.2995C47.9 54.4795 48 54.7395 48 54.9995C48 55.2595 47.9 55.5195 47.718 55.6995C47.52 55.8995 47.26 55.9995 47 55.9995Z" fill="white"/>
<path d="M43 55.9998C42.74 55.9998 42.48 55.8998 42.298 55.6998C42.1 55.5198 42 55.2598 42 54.9998C42 54.7178 42.12 54.4578 42.298 54.2798C42.638 53.9198 43.34 53.9198 43.698 54.2998C43.9 54.4578 44 54.7178 44 54.9998C44 55.2598 43.9 55.5198 43.7 55.6998C43.52 55.8998 43.26 55.9998 43 55.9998Z" fill="white"/>
<path d="M39 55.9997C38.74 55.9997 38.48 55.8997 38.298 55.7177C38.1 55.5197 38 55.2597 38 54.9997C38 54.7397 38.1 54.4797 38.298 54.2977C38.66 53.9197 39.34 53.9197 39.698 54.2977C39.878 54.4577 39.998 54.7177 39.998 54.9997C39.998 55.2597 39.898 55.5197 39.698 55.6997C39.52 55.8997 39.26 55.9997 39 55.9997Z" fill="white"/>
<path d="M47 13.9998C46.74 13.9998 46.48 13.8998 46.298 13.6998C46.1 13.5198 46 13.2598 46 12.9998C46 12.7398 46.1 12.4798 46.298 12.2978C46.678 11.9198 47.32 11.9198 47.698 12.2778C47.9 12.4798 48 12.7398 48 12.9998C48 13.2598 47.9 13.5198 47.7 13.6998C47.52 13.8998 47.26 13.9998 47 13.9998Z" fill="white"/>
<path d="M43 13.9999C42.74 13.9999 42.48 13.8999 42.298 13.6999C42.1 13.5199 42 13.2599 42 12.9999C42 12.7399 42.1 12.4799 42.28 12.2979C42.7 11.8999 43.322 11.9199 43.7 12.2779C43.9 12.4799 44 12.7399 44 12.9999C44 13.2599 43.9 13.5199 43.718 13.6999C43.52 13.8999 43.26 13.9999 43 13.9999Z" fill="white"/>
<path d="M39 13.9998C38.74 13.9998 38.48 13.8998 38.298 13.6998C38.1 13.5198 38 13.2598 38 12.9998C38 12.7398 38.1 12.4798 38.298 12.2978C38.678 11.9198 39.32 11.9198 39.698 12.2778C39.9 12.4798 40 12.7398 40 12.9998C40 13.2598 39.9 13.5198 39.718 13.6998C39.52 13.8998 39.26 13.9998 39 13.9998Z" fill="white"/>
</svg>
