<svg width="64" height="64" viewBox="0 0 64 64" fill="none" xmlns="http://www.w3.org/2000/svg">
<path d="M53.8184 0.484863H16.9699C14.5456 0.484863 12.5093 2.42426 12.5093 4.94547V7.0788H10.085C7.75775 7.0788 5.81836 9.0182 5.81836 11.4424V59.0546C5.81836 61.4788 7.75775 63.5152 10.279 63.5152H47.0305C49.4547 63.5152 51.4911 61.5758 51.4911 59.0546V56.9212H53.9153C56.3396 56.9212 58.3759 54.9818 58.3759 52.4606V4.94547C58.182 2.42426 56.2426 0.484863 53.8184 0.484863ZM49.4547 59.0546C49.4547 60.4121 48.3881 61.5758 46.9335 61.5758H10.182C8.82442 61.5758 7.66078 60.5091 7.66078 59.0546V11.4424C7.66078 10.0849 8.72745 8.92123 10.182 8.92123H13.5759H47.0305C48.3881 8.92123 49.5517 9.98789 49.5517 11.3455V59.0546H49.4547ZM56.2426 52.5576C56.2426 53.9152 55.1759 55.0788 53.7214 55.0788H51.3941V11.4424C51.3941 9.0182 49.4547 6.98183 46.9335 6.98183H14.5456V4.94547C14.5456 3.58789 15.6123 2.42426 17.0668 2.42426H53.8184C55.1759 2.42426 56.3396 3.49092 56.3396 4.94547V52.5576H56.2426Z" fill="white"/>
<path d="M43.2489 11.5396C41.3095 11.5396 39.758 13.0911 39.758 15.0305C39.758 15.6123 39.9519 16.1941 40.2428 16.6789L35.2974 21.5274C34.8125 21.2365 34.2307 21.0426 33.5519 21.0426C32.8731 21.0426 32.2913 21.2365 31.7095 21.5274L27.2489 17.4547C27.4428 16.9699 27.6368 16.485 27.6368 15.9032C27.6368 13.9638 26.0853 12.4123 24.1459 12.4123C22.2065 12.4123 20.655 13.9638 20.655 15.9032C20.655 16.485 20.8489 17.0668 21.0428 17.5517L15.7095 22.5941C15.2247 22.3032 14.6428 22.1092 13.9641 22.1092C12.0247 22.1092 10.4731 23.6608 10.4731 25.6002C10.4731 27.5396 12.0247 29.0911 13.9641 29.0911C15.9034 29.0911 17.455 27.5396 17.455 25.6002C17.455 25.0183 17.261 24.4365 17.0671 23.9517L22.3034 18.9092C22.7883 19.2002 23.4671 19.3941 24.0489 19.3941C24.7277 19.3941 25.4065 19.2002 25.8913 18.8123L30.255 22.885C30.061 23.3699 29.8671 23.8547 29.8671 24.4365C29.8671 26.3759 31.4186 27.9274 33.358 27.9274C35.2974 27.9274 36.8489 26.3759 36.8489 24.4365C36.8489 23.8547 36.655 23.2729 36.3641 22.788L41.3095 17.9396C41.7944 18.2305 42.3762 18.4244 43.055 18.4244C44.9944 18.4244 46.5459 16.8729 46.5459 14.9335C46.7398 13.188 45.1883 11.5396 43.2489 11.5396ZM13.9641 27.3456C13.0913 27.3456 12.4125 26.6668 12.4125 25.7941C12.4125 24.9214 13.0913 24.2426 13.9641 24.2426C14.8368 24.2426 15.5156 24.9214 15.5156 25.7941C15.5156 26.6668 14.8368 27.3456 13.9641 27.3456ZM22.4974 16.0971C22.4974 15.2244 23.1762 14.5456 24.0489 14.5456C24.9216 14.5456 25.6004 15.2244 25.6004 16.0971C25.6004 16.9699 24.9216 17.6486 24.0489 17.6486C23.2731 17.6486 22.4974 16.9699 22.4974 16.0971ZM33.5519 26.182C32.6792 26.182 32.0004 25.5032 32.0004 24.6305C32.0004 23.7577 32.6792 23.0789 33.5519 23.0789C34.4247 23.0789 35.1035 23.7577 35.1035 24.6305C35.1035 25.5032 34.4247 26.182 33.5519 26.182ZM43.2489 16.6789C42.3762 16.6789 41.6974 16.0002 41.6974 15.1274C41.6974 14.2547 42.3762 13.5759 43.2489 13.5759C44.1216 13.5759 44.8004 14.2547 44.8004 15.1274C44.8004 16.0002 44.1216 16.6789 43.2489 16.6789Z" fill="white"/>
<path d="M44.8972 34.3271H12.3154C11.7336 34.3271 11.3457 34.715 11.3457 35.2968C11.3457 35.8787 11.7336 36.2665 12.3154 36.2665H44.8972C45.479 36.2665 45.8669 35.8787 45.8669 35.2968C45.8669 34.715 45.3821 34.3271 44.8972 34.3271Z" fill="white"/>
<path d="M44.8972 41.2119H30.9336C30.3517 41.2119 29.9639 41.5998 29.9639 42.1816C29.9639 42.7634 30.3517 43.1513 30.9336 43.1513H44.8002C45.3821 43.1513 45.7699 42.7634 45.7699 42.1816C45.7699 41.5998 45.382 41.2119 44.8972 41.2119Z" fill="white"/>
<path d="M44.8972 48H30.9336C30.3517 48 29.9639 48.3879 29.9639 48.9697C29.9639 49.5515 30.3517 49.9394 30.9336 49.9394H44.8002C45.382 49.9394 45.7699 49.5515 45.7699 48.9697C45.8669 48.4848 45.382 48 44.8972 48Z" fill="white"/>
<path d="M44.8972 54.8848H30.9336C30.3517 54.8848 29.9639 55.2726 29.9639 55.8545C29.9639 56.4363 30.3517 56.8242 30.9336 56.8242H44.8002C45.382 56.8242 45.7699 56.4363 45.7699 55.8545C45.8669 55.3696 45.382 54.8848 44.8972 54.8848Z" fill="white"/>
<path d="M19.5881 40.8242C15.0306 40.8242 11.3457 44.5091 11.3457 49.0666C11.3457 53.6242 15.0306 57.3091 19.5881 57.3091C24.0487 57.3091 27.6366 53.7212 27.8306 49.3576C28.1215 45.0909 24.4366 40.8242 19.5881 40.8242ZM25.7942 48.1939H20.5578V42.7636C23.273 43.2485 25.4063 45.4788 25.7942 48.1939ZM18.6184 42.7636V48.7757L14.5457 52.8485C13.7699 51.7818 13.2851 50.4242 13.2851 49.0666C13.2851 45.8666 15.6124 43.2485 18.6184 42.7636ZM19.5881 55.2727C18.2306 55.2727 17.0669 54.8848 16.0002 54.1091L19.976 50.1333H25.6972C25.2124 53.0424 22.5942 55.2727 19.5881 55.2727Z" fill="white"/>
</svg>
