<svg width="64" height="64" viewBox="0 0 64 64" fill="none" xmlns="http://www.w3.org/2000/svg">
<path d="M59.901 31.5654C59.8209 31.4004 51.6861 15 32.0001 15C12.3141 15 4.17932 31.4004 4.09924 31.5654C4.03392 31.701 4 31.8495 4 32C4 32.1505 4.03392 32.299 4.09924 32.4346C4.17932 32.5996 12.3141 49 32.0001 49C51.6861 49 59.8209 32.5996 59.901 32.4346C59.9663 32.299 60.0002 32.1505 60.0002 32C60.0002 31.8495 59.9663 31.701 59.901 31.5654ZM32.0001 47C15.3644 47 7.53723 34.5107 6.13342 32C7.53723 29.4893 15.3644 17 32.0001 17C48.6359 17 56.463 29.4893 57.8668 32C56.463 34.5107 48.6359 47 32.0001 47Z" fill="white"/>
<path d="M32 19.4287C29.5136 19.4287 27.0831 20.166 25.0158 21.5474C22.9484 22.9287 21.3371 24.8921 20.3856 27.1892C19.4342 29.4863 19.1852 32.0139 19.6703 34.4525C20.1553 36.8911 21.3526 39.1311 23.1108 40.8892C24.8689 42.6474 27.1089 43.8447 29.5475 44.3297C31.9861 44.8148 34.5137 44.5658 36.8108 43.6144C39.1079 42.6629 41.0713 41.0516 42.4527 38.9842C43.834 36.9169 44.5713 34.4864 44.5713 32C44.5675 28.6671 43.2418 25.4717 40.885 23.115C38.5283 20.7582 35.3329 19.4325 32 19.4287ZM32 42.5713C29.9092 42.5713 27.8654 41.9513 26.1269 40.7897C24.3885 39.6281 23.0335 37.9771 22.2334 36.0455C21.4333 34.1138 21.2239 31.9883 21.6318 29.9376C22.0397 27.887 23.0466 26.0034 24.525 24.525C26.0034 23.0465 27.887 22.0397 29.9376 21.6318C31.9883 21.2239 34.1138 21.4333 36.0455 22.2334C37.9771 23.0335 39.6281 24.3885 40.7897 26.1269C41.9513 27.8653 42.5713 29.9092 42.5713 32C42.5682 34.8027 41.4534 37.4897 39.4716 39.4716C37.4897 41.4534 34.8027 42.5681 32 42.5713Z" fill="white"/>
<path d="M35.7929 28.2929L30.4999 33.5859L28.2069 31.2929C28.1144 31.1987 28.0041 31.1238 27.8824 31.0724C27.7608 31.021 27.6301 30.9943 27.4981 30.9937C27.366 30.9931 27.2351 31.0186 27.113 31.0689C26.9909 31.1192 26.8799 31.1931 26.7865 31.2865C26.6931 31.3799 26.6192 31.4909 26.5689 31.613C26.5186 31.7351 26.4931 31.866 26.4937 31.9981C26.4943 32.1301 26.521 32.2608 26.5724 32.3824C26.6238 32.5041 26.6987 32.6144 26.7929 32.7069L29.7929 35.7069C29.8858 35.7998 29.996 35.8735 30.1173 35.9238C30.2386 35.974 30.3687 35.9999 30.5 35.9999C30.6313 35.9999 30.7613 35.974 30.8826 35.9238C31.004 35.8735 31.1142 35.7998 31.207 35.7069L37.207 29.7069C37.3008 29.6143 37.3754 29.504 37.4264 29.3825C37.4774 29.2609 37.5039 29.1305 37.5043 28.9986C37.5047 28.8668 37.4791 28.7362 37.4288 28.6143C37.3785 28.4924 37.3047 28.3817 37.2114 28.2885C37.1182 28.1952 37.0075 28.1214 36.8856 28.0711C36.7637 28.0208 36.6331 27.9952 36.5013 27.9956C36.3694 27.996 36.239 28.0225 36.1174 28.0735C35.9958 28.1246 35.8856 28.1991 35.7929 28.2929Z" fill="white"/>
<path d="M32 13C32.1313 13 32.2614 12.9742 32.3827 12.9239C32.5041 12.8737 32.6143 12.8 32.7072 12.7072C32.8 12.6143 32.8737 12.5041 32.924 12.3827C32.9742 12.2614 33 12.1313 33 12V8C33 7.73478 32.8946 7.48043 32.7071 7.29289C32.5196 7.10536 32.2652 7 32 7C31.7348 7 31.4804 7.10536 31.2929 7.29289C31.1054 7.48043 31 7.73478 31 8V12C31 12.1313 31.0258 12.2614 31.0761 12.3827C31.1263 12.5041 31.2 12.6143 31.2928 12.7072C31.3857 12.8 31.4959 12.8737 31.6173 12.9239C31.7386 12.9742 31.8687 13 32 13Z" fill="white"/>
<path d="M14.1508 15.5643C14.2436 15.6572 14.3538 15.7308 14.4752 15.7811C14.5965 15.8313 14.7265 15.8572 14.8578 15.8572C14.9891 15.8572 15.1191 15.8313 15.2404 15.7811C15.3618 15.7308 15.472 15.6572 15.5648 15.5643C15.6577 15.4715 15.7313 15.3613 15.7816 15.24C15.8318 15.1186 15.8577 14.9886 15.8577 14.8573C15.8577 14.726 15.8318 14.596 15.7816 14.4747C15.7313 14.3534 15.6577 14.2431 15.5648 14.1503L12.7362 11.3222C12.5487 11.1346 12.2944 11.0293 12.0292 11.0293C11.764 11.0293 11.5097 11.1346 11.3222 11.3222C11.1346 11.5097 11.0293 11.764 11.0293 12.0292C11.0293 12.2944 11.1346 12.5487 11.3222 12.7362L14.1508 15.5643Z" fill="white"/>
<path d="M14.1508 48.4354L11.3222 51.2636C11.2293 51.3564 11.1557 51.4666 11.1054 51.5879C11.0552 51.7093 11.0293 51.8393 11.0293 51.9706C11.0293 52.1019 11.0552 52.2319 11.1054 52.3532C11.1557 52.4745 11.2293 52.5848 11.3222 52.6776C11.415 52.7705 11.5252 52.8441 11.6465 52.8944C11.7679 52.9446 11.8979 52.9705 12.0292 52.9705C12.1605 52.9705 12.2905 52.9446 12.4118 52.8944C12.5331 52.8441 12.6434 52.7705 12.7362 52.6776L15.5648 49.8495C15.6577 49.7567 15.7313 49.6464 15.7816 49.5251C15.8318 49.4038 15.8577 49.2738 15.8577 49.1425C15.8577 49.0112 15.8318 48.8811 15.7816 48.7598C15.7313 48.6385 15.6577 48.5283 15.5648 48.4354C15.472 48.3426 15.3618 48.2689 15.2404 48.2187C15.1191 48.1684 14.9891 48.1426 14.8578 48.1426C14.7265 48.1426 14.5965 48.1684 14.4752 48.2187C14.3538 48.2689 14.2436 48.3426 14.1508 48.4354Z" fill="white"/>
<path d="M32 51C31.8687 51 31.7386 51.0258 31.6173 51.076C31.4959 51.1263 31.3857 51.2 31.2928 51.2928C31.2 51.3857 31.1263 51.4959 31.0761 51.6173C31.0258 51.7386 31 51.8687 31 52V56C31 56.2652 31.1054 56.5196 31.2929 56.7071C31.4804 56.8946 31.7348 57 32 57C32.2652 57 32.5196 56.8946 32.7071 56.7071C32.8946 56.5196 33 56.2652 33 56V52C33 51.8687 32.9742 51.7386 32.924 51.6173C32.8737 51.4959 32.8 51.3857 32.7072 51.2928C32.6143 51.2 32.5041 51.1263 32.3827 51.076C32.2614 51.0258 32.1313 51 32 51Z" fill="white"/>
<path d="M49.849 48.4354C49.7562 48.3426 49.6459 48.2689 49.5246 48.2187C49.4033 48.1684 49.2733 48.1426 49.142 48.1426C49.0107 48.1426 48.8807 48.1684 48.7593 48.2187C48.638 48.2689 48.5278 48.3426 48.435 48.4354C48.3421 48.5283 48.2685 48.6385 48.2182 48.7598C48.168 48.8811 48.1421 49.0112 48.1421 49.1425C48.1421 49.2738 48.168 49.4038 48.2182 49.5251C48.2685 49.6464 48.3421 49.7567 48.435 49.8495L51.2636 52.6776C51.4511 52.8651 51.7054 52.9705 51.9706 52.9705C52.2358 52.9705 52.4901 52.8651 52.6776 52.6776C52.8651 52.4901 52.9705 52.2358 52.9705 51.9706C52.9705 51.7054 52.8651 51.4511 52.6776 51.2636L49.849 48.4354Z" fill="white"/>
<path d="M49.1419 15.8573C49.2733 15.8575 49.4033 15.8317 49.5247 15.7814C49.646 15.7311 49.7562 15.6573 49.8489 15.5643L52.6775 12.7362C52.7704 12.6434 52.844 12.5331 52.8943 12.4118C52.9445 12.2905 52.9704 12.1605 52.9704 12.0292C52.9704 11.8979 52.9445 11.7679 52.8943 11.6465C52.844 11.5252 52.7704 11.415 52.6775 11.3222C52.5847 11.2293 52.4745 11.1557 52.3532 11.1054C52.2318 11.0552 52.1018 11.0293 51.9705 11.0293C51.8392 11.0293 51.7092 11.0552 51.5879 11.1054C51.4666 11.1557 51.3563 11.2293 51.2635 11.3222L48.4349 14.1503C48.2951 14.2901 48.1999 14.4683 48.1613 14.6622C48.1227 14.8562 48.1425 15.0572 48.2182 15.2399C48.2939 15.4226 48.422 15.5788 48.5864 15.6887C48.7508 15.7986 48.9442 15.8573 49.1419 15.8573Z" fill="white"/>
</svg>
