<svg width="64" height="64" viewBox="0 0 64 64" fill="none" xmlns="http://www.w3.org/2000/svg">
<path d="M50.0166 9.3125H43.5447C43.4422 8.92514 43.2084 8.58539 42.8832 8.35127C42.558 8.11714 42.1616 8.00317 41.7617 8.02881H39.7207V7.64648C39.7207 5.63574 37.7773 4 35.3896 4H28.6103C26.2227 4 24.2793 5.63574 24.2793 7.64648V8.02881H22.2383C21.8384 8.00317 21.442 8.11714 21.1168 8.35127C20.7917 8.58539 20.5578 8.92514 20.4553 9.3125H13.9834C13.1047 9.31182 12.2616 9.65974 11.6391 10.2799C11.0167 10.9001 10.6656 11.7419 10.6631 12.6206V56.7017C10.6669 57.5791 11.0187 58.4191 11.6412 59.0375C12.2636 59.6558 13.106 60.002 13.9834 60H18.0068C18.2721 60 18.5264 59.8947 18.7139 59.7071C18.9015 59.5196 19.0068 59.2652 19.0068 59C19.0068 58.7348 18.9015 58.4804 18.7139 58.2929C18.5264 58.1054 18.2721 58 18.0068 58H13.9834C13.6363 58.0024 13.3024 57.8671 13.0549 57.6237C12.8074 57.3803 12.6665 57.0488 12.6631 56.7017V12.6207C12.6652 12.2723 12.8054 11.9389 13.0529 11.6937C13.3004 11.4485 13.635 11.3114 13.9834 11.3125H20.4248V13.3779H15.6387C15.5073 13.3779 15.3773 13.4037 15.2559 13.454C15.1346 13.5042 15.0243 13.5779 14.9315 13.6707C14.8386 13.7636 14.765 13.8739 14.7147 13.9952C14.6645 14.1165 14.6386 14.2466 14.6387 14.3779V19.0962C14.6387 19.3614 14.744 19.6158 14.9316 19.8033C15.1191 19.9908 15.3734 20.0962 15.6387 20.0962C15.9039 20.0962 16.1582 19.9908 16.3458 19.8033C16.5333 19.6158 16.6387 19.3614 16.6387 19.0962V15.3779H20.4248V16.2183C20.4412 16.4394 20.5012 16.6551 20.6014 16.8529C20.7017 17.0507 20.8401 17.2267 21.0087 17.3707C21.1773 17.5147 21.3728 17.6239 21.5838 17.6919C21.7949 17.7599 22.0173 17.7855 22.2383 17.7671H41.7617C41.9827 17.7855 42.2051 17.7599 42.4162 17.6919C42.6272 17.6239 42.8227 17.5147 42.9913 17.3707C43.1599 17.2267 43.2983 17.0507 43.3985 16.8529C43.4988 16.6551 43.5588 16.4394 43.5752 16.2183V15.3779H47.3613V53.9507H16.6387V23.5195C16.6387 23.2543 16.5333 23 16.3458 22.8124C16.1582 22.6249 15.9039 22.5195 15.6387 22.5195C15.3734 22.5195 15.1191 22.6249 14.9316 22.8124C14.744 23 14.6387 23.2543 14.6387 23.5195V54.9507C14.6386 55.082 14.6645 55.2121 14.7147 55.3334C14.765 55.4548 14.8386 55.565 14.9315 55.6579C15.0243 55.7507 15.1346 55.8244 15.2559 55.8746C15.3773 55.9249 15.5073 55.9507 15.6387 55.9507H48.3613C48.4927 55.9507 48.6227 55.9249 48.744 55.8746C48.8654 55.8244 48.9756 55.7507 49.0685 55.6579C49.1614 55.565 49.235 55.4548 49.2853 55.3334C49.3355 55.2121 49.3614 55.082 49.3613 54.9507V14.3779C49.3614 14.2466 49.3355 14.1165 49.2853 13.9952C49.235 13.8739 49.1614 13.7636 49.0685 13.6707C48.9756 13.5779 48.8654 13.5042 48.744 13.454C48.6227 13.4037 48.4927 13.3779 48.3613 13.3779H43.5752V11.3125H50.0166C50.365 11.3114 50.6996 11.4485 50.9471 11.6937C51.1946 11.9389 51.3348 12.2722 51.3369 12.6206V56.7017C51.3335 57.0488 51.1926 57.3803 50.9451 57.6237C50.6976 57.8671 50.3637 58.0024 50.0166 58H22.6709C22.4057 58 22.1513 58.1054 21.9638 58.2929C21.7763 58.4804 21.6709 58.7348 21.6709 59C21.6709 59.2652 21.7763 59.5196 21.9638 59.7071C22.1513 59.8947 22.4057 60 22.6709 60H50.0166C50.894 60.002 51.7364 59.6558 52.3588 59.0375C52.9813 58.4191 53.3331 57.5791 53.3369 56.7017V12.6207C53.3344 11.742 52.9833 10.9001 52.3609 10.2799C51.7384 9.65975 50.8953 9.31182 50.0166 9.3125ZM41.5752 15.7671L22.4248 15.7617V10.0288H25.2672L25.2793 10.0313C25.4106 10.0313 25.5407 10.0054 25.662 9.9552C25.7834 9.90496 25.8936 9.8313 25.9865 9.73843C26.0793 9.64557 26.153 9.53532 26.2032 9.41397C26.2535 9.29263 26.2793 9.16258 26.2793 9.03125V7.64648C26.2793 6.75391 27.3467 6 28.6103 6H35.3896C36.6533 6 37.7206 6.75391 37.7206 7.64648V9.03125C37.7206 9.16258 37.7465 9.29263 37.7967 9.41397C37.8469 9.53532 37.9206 9.64557 38.0135 9.73843C38.1063 9.8313 38.2166 9.90496 38.3379 9.9552C38.4593 10.0054 38.5893 10.0313 38.7206 10.0313L38.7326 10.0288L41.5751 10.0337L41.5752 15.7671Z" fill="white"/>
<path d="M20 25H40C40.2652 25 40.5196 24.8946 40.7071 24.7071C40.8946 24.5196 41 24.2652 41 24C41 23.7348 40.8946 23.4804 40.7071 23.2929C40.5196 23.1054 40.2652 23 40 23H20C19.7348 23 19.4804 23.1054 19.2929 23.2929C19.1054 23.4804 19 23.7348 19 24C19 24.2652 19.1054 24.5196 19.2929 24.7071C19.4804 24.8946 19.7348 25 20 25Z" fill="white"/>
<path d="M20 41C19.7348 41 19.4804 41.1054 19.2929 41.2929C19.1054 41.4804 19 41.7348 19 42C19 42.2652 19.1054 42.5196 19.2929 42.7071C19.4804 42.8946 19.7348 43 20 43H26.3556C27.9522 44.2939 29.9449 45 32 45C34.0551 45 36.0478 44.2939 37.6444 43H43.3398C43.6051 43 43.8594 42.8946 44.0469 42.7071C44.2345 42.5196 44.3398 42.2652 44.3398 42C44.3398 41.7348 44.2345 41.4804 44.0469 41.2929C43.8594 41.1054 43.6051 41 43.3398 41H39.4782C40.2809 39.804 40.7827 38.4317 40.941 37H41.8203C42.0855 37 42.3399 36.8946 42.5274 36.7071C42.715 36.5196 42.8203 36.2652 42.8203 36C42.8203 35.7348 42.715 35.4804 42.5274 35.2929C42.3399 35.1054 42.0855 35 41.8203 35H40.941C40.7827 33.5683 40.2809 32.1961 39.4782 31H44.75C45.0152 31 45.2696 30.8946 45.4571 30.7071C45.6446 30.5196 45.75 30.2652 45.75 30C45.75 29.7348 45.6446 29.4804 45.4571 29.2929C45.2696 29.1054 45.0152 29 44.75 29H37.6444C36.0478 27.7061 34.0551 27 32 27C29.9449 27 27.9522 27.7061 26.3556 29H20C19.7348 29 19.4804 29.1054 19.2929 29.2929C19.1054 29.4804 19 29.7348 19 30C19 30.2652 19.1054 30.5196 19.2929 30.7071C19.4804 30.8946 19.7348 31 20 31H24.5218C23.7191 32.196 23.2173 33.5683 23.059 35H20C19.7348 35 19.4804 35.1054 19.2929 35.2929C19.1054 35.4804 19 35.7348 19 36C19 36.2652 19.1054 36.5196 19.2929 36.7071C19.4804 36.8946 19.7348 37 20 37H23.059C23.2173 38.4317 23.7191 39.8039 24.5218 41H20ZM39 36C39 37.3845 38.5895 38.7378 37.8203 39.889C37.0511 41.0401 35.9579 41.9373 34.6788 42.4672C33.3997 42.997 31.9922 43.1356 30.6344 42.8655C29.2765 42.5954 28.0292 41.9287 27.0503 40.9497C26.0713 39.9708 25.4046 38.7235 25.1345 37.3656C24.8644 36.0078 25.003 34.6003 25.5328 33.3212C26.0627 32.0421 26.9599 30.9489 28.111 30.1797C29.2622 29.4105 30.6155 29 32 29C33.8559 29.0022 35.6351 29.7404 36.9474 31.0526C38.2596 32.3649 38.9978 34.1441 39 36Z" fill="white"/>
<path d="M20 49H40.4385C40.7037 49 40.9581 48.8946 41.1456 48.7071C41.3331 48.5196 41.4385 48.2652 41.4385 48C41.4385 47.7348 41.3331 47.4804 41.1456 47.2929C40.9581 47.1054 40.7037 47 40.4385 47H20C19.7348 47 19.4804 47.1054 19.2929 47.2929C19.1054 47.4804 19 47.7348 19 48C19 48.2652 19.1054 48.5196 19.2929 48.7071C19.4804 48.8946 19.7348 49 20 49Z" fill="white"/>
<path d="M30.3369 39.4359C30.5198 39.598 30.7557 39.6875 31 39.6874C31.0205 39.6874 31.041 39.6869 31.0606 39.6854C31.1918 39.6776 31.3202 39.6438 31.4384 39.5862C31.5565 39.5285 31.6621 39.4481 31.7491 39.3495L36.4991 33.9745C36.5868 33.8763 36.6543 33.7616 36.6977 33.6372C36.741 33.5128 36.7594 33.3811 36.7516 33.2496C36.7439 33.1181 36.7102 32.9894 36.6526 32.8709C36.595 32.7524 36.5145 32.6465 36.4158 32.5593C36.3171 32.472 36.2021 32.4052 36.0774 32.3625C35.9528 32.3198 35.821 32.3022 35.6895 32.3107C35.558 32.3191 35.4295 32.3535 35.3114 32.4117C35.1932 32.47 35.0878 32.5511 35.001 32.6503L30.9141 37.2748L28.9131 35.5014C28.8148 35.4143 28.7003 35.3474 28.5762 35.3046C28.452 35.2618 28.3207 35.2438 28.1896 35.2517C28.0585 35.2597 27.9303 35.2934 27.8122 35.3508C27.6941 35.4083 27.5885 35.4885 27.5015 35.5868C27.4144 35.6851 27.3475 35.7996 27.3047 35.9238C27.2619 36.0479 27.2439 36.1793 27.2518 36.3103C27.2598 36.4414 27.2934 36.5697 27.3509 36.6877C27.4084 36.8058 27.4886 36.9114 27.5869 36.9985L30.3369 39.4359Z" fill="white"/>
</svg>
